M48
; DRILL file {KiCad 9.0.0} date 2025-03-25T03:22:16+0900
; FORMAT={-:-/ absolute / inch / decimal}
; #@! TF.CreationDate,2025-03-25T03:22:16+09:00
; #@! TF.GenerationSoftware,Kicad,Pcbnew,9.0.0
; #@! TF.FileFunction,NonPlated,1,2,NPTH
FMAT,2
INCH
; #@! TA.AperFunction,NonPlated,NPTH,ComponentDrill
T1C0.0256
; #@! TA.AperFunction,NonPlated,NPTH,ComponentDrill
T2C0.0472
; #@! TA.AperFunction,NonPlated,NPTH,ComponentDrill
T3C0.0669
; #@! TA.AperFunction,NonPlated,NPTH,ComponentDrill
T4C0.0791
; #@! TA.AperFunction,NonPlated,NPTH,ComponentDrill
T5C0.1575
%
G90
G05
T1
X7.1965Y-1.9744
X7.424Y-1.9744
T2
X7.9646Y-2.0531
X8.2402Y-2.0531
T3
X3.193Y-2.5395
X3.193Y-3.2895
X3.193Y-4.0395
X3.593Y-2.5395
X3.593Y-3.2895
X3.593Y-4.0395
X3.943Y-2.5395
X3.943Y-3.2895
X3.943Y-4.0395
X4.343Y-2.5395
X4.343Y-3.2895
X4.343Y-4.0395
X4.693Y-2.5395
X4.693Y-3.2895
X4.693Y-4.0395
X5.093Y-2.5395
X5.093Y-3.2895
X5.093Y-4.0395
X5.443Y-2.5395
X5.443Y-3.2895
X5.443Y-4.0395
X5.8166Y-4.8002
X5.843Y-2.5395
X5.843Y-3.2895
X5.843Y-4.0395
X6.193Y-2.5395
X6.193Y-3.2895
X6.193Y-4.0395
X6.2166Y-4.8002
X6.5666Y-4.8002
X6.593Y-2.5395
X6.593Y-3.2895
X6.593Y-4.0395
X6.943Y-2.5395
X6.943Y-3.2895
X6.943Y-4.0395
X6.9666Y-4.8002
X7.3166Y-4.8002
X7.343Y-2.5395
X7.343Y-3.2895
X7.343Y-4.0395
X7.7032Y-5.5679
X7.7166Y-4.8002
X8.1032Y-5.5679
T4
X7.6307Y-3.0482
X7.6307Y-3.5206
X8.1032Y-3.0482
X8.1032Y-3.5206
T5
X3.393Y-2.5395
X3.393Y-3.2895
X3.393Y-4.0395
X4.143Y-2.5395
X4.143Y-3.2895
X4.143Y-4.0395
X4.893Y-2.5395
X4.893Y-3.2895
X4.893Y-4.0395
X5.643Y-2.5395
X5.643Y-3.2895
X5.643Y-4.0395
X6.0166Y-4.8002
X6.393Y-2.5395
X6.393Y-3.2895
X6.393Y-4.0395
X6.7666Y-4.8002
X7.143Y-2.5395
X7.143Y-3.2895
X7.143Y-4.0395
X7.5166Y-4.8002
X7.9032Y-5.5679
M30
