%TF.GenerationSoftware,KiCad,Pcbnew,9.0.0*%
%TF.CreationDate,2025-03-26T22:43:06+09:00*%
%TF.ProjectId,keyboard,6b657962-6f61-4726-942e-6b696361645f,rev?*%
%TF.SameCoordinates,Original*%
%TF.FileFunction,Legend,Bot*%
%TF.FilePolarity,Positive*%
%FSLAX46Y46*%
G04 Gerber Fmt 4.6, Leading zero omitted, Abs format (unit mm)*
G04 Created by KiCad (PCBNEW 9.0.0) date 2025-03-26 22:43:06*
%MOMM*%
%LPD*%
G01*
G04 APERTURE LIST*
%ADD10R,1.600000X1.600000*%
%ADD11O,1.600000X1.600000*%
%ADD12C,1.700000*%
%ADD13C,4.000000*%
%ADD14C,2.200000*%
%ADD15C,2.010000*%
%ADD16O,1.500000X2.000000*%
%ADD17O,2.000000X1.500000*%
%ADD18R,2.000000X2.000000*%
%ADD19C,2.000000*%
%ADD20C,2.800000*%
%ADD21R,1.700000X1.700000*%
%ADD22O,1.700000X1.700000*%
%ADD23C,1.200000*%
%ADD24O,1.500000X2.300000*%
G04 APERTURE END LIST*
%LPC*%
D10*
%TO.C,D12*%
X171950000Y-88260000D03*
D11*
X171950000Y-80640000D03*
%TD*%
D10*
%TO.C,D9*%
X114800000Y-88260000D03*
D11*
X114800000Y-80640000D03*
%TD*%
D12*
%TO.C,SW12*%
X176351000Y-83554000D03*
D13*
X181431000Y-83554000D03*
D12*
X186511000Y-83554000D03*
D14*
X183971000Y-78474000D03*
X177621000Y-81014000D03*
%TD*%
D10*
%TO.C,D6*%
X171950000Y-69210000D03*
D11*
X171950000Y-61590000D03*
%TD*%
D12*
%TO.C,SW14*%
X100151000Y-102604000D03*
D13*
X105231000Y-102604000D03*
D12*
X110311000Y-102604000D03*
D14*
X107771000Y-97524000D03*
X101421000Y-100064000D03*
%TD*%
D10*
%TO.C,D20*%
X162370000Y-126435000D03*
D11*
X162370000Y-118815000D03*
%TD*%
D10*
%TO.C,D3*%
X114800000Y-69210000D03*
D11*
X114800000Y-61590000D03*
%TD*%
D15*
%TO.C,J5*%
X194612500Y-95387500D03*
X194612500Y-107387500D03*
X206612500Y-95387500D03*
X206612500Y-107387500D03*
D16*
X202612500Y-92787500D03*
D17*
X209212500Y-103387500D03*
D16*
X200612500Y-92787500D03*
X198612500Y-92787500D03*
D17*
X209212500Y-99387500D03*
X209212500Y-101387500D03*
%TD*%
D12*
%TO.C,SW18*%
X176351000Y-102604000D03*
D13*
X181431000Y-102604000D03*
D12*
X186511000Y-102604000D03*
D14*
X183971000Y-97524000D03*
X177621000Y-100064000D03*
%TD*%
D10*
%TO.C,D13*%
X76700000Y-107310000D03*
D11*
X76700000Y-99690000D03*
%TD*%
D10*
%TO.C,D1*%
X76700000Y-69255000D03*
D11*
X76700000Y-61635000D03*
%TD*%
D12*
%TO.C,SW17*%
X157301000Y-102604000D03*
D13*
X162381000Y-102604000D03*
D12*
X167461000Y-102604000D03*
D14*
X164921000Y-97524000D03*
X158571000Y-100064000D03*
%TD*%
D18*
%TO.C,SW25*%
X107000000Y-43850000D03*
D19*
X107000000Y-48850000D03*
X107000000Y-46350000D03*
D20*
X114500000Y-40750000D03*
X114500000Y-51950000D03*
%TD*%
D10*
%TO.C,D21*%
X181370000Y-126435000D03*
D11*
X181370000Y-118815000D03*
%TD*%
D12*
%TO.C,SW20*%
X166791000Y-121924000D03*
D13*
X171871000Y-121924000D03*
D12*
X176951000Y-121924000D03*
D14*
X174411000Y-116844000D03*
X168061000Y-119384000D03*
%TD*%
D12*
%TO.C,SW1*%
X81101000Y-64504000D03*
D13*
X86181000Y-64504000D03*
D12*
X91261000Y-64504000D03*
D14*
X88721000Y-59424000D03*
X82371000Y-61964000D03*
%TD*%
D18*
%TO.C,SW23*%
X145250000Y-43850000D03*
D19*
X145250000Y-48850000D03*
X145250000Y-46350000D03*
D20*
X152750000Y-40750000D03*
X152750000Y-51950000D03*
%TD*%
D12*
%TO.C,SW11*%
X157301000Y-83554000D03*
D13*
X162381000Y-83554000D03*
D12*
X167461000Y-83554000D03*
D14*
X164921000Y-78474000D03*
X158571000Y-81014000D03*
%TD*%
D10*
%TO.C,D17*%
X152900000Y-107310000D03*
D11*
X152900000Y-99690000D03*
%TD*%
D10*
%TO.C,D5*%
X152900000Y-69210000D03*
D11*
X152900000Y-61590000D03*
%TD*%
D10*
%TO.C,D19*%
X143370000Y-126435000D03*
D11*
X143370000Y-118815000D03*
%TD*%
D12*
%TO.C,SW9*%
X119201000Y-83554000D03*
D13*
X124281000Y-83554000D03*
D12*
X129361000Y-83554000D03*
D14*
X126821000Y-78474000D03*
X120471000Y-81014000D03*
%TD*%
D12*
%TO.C,SW10*%
X138251000Y-83554000D03*
D13*
X143331000Y-83554000D03*
D12*
X148411000Y-83554000D03*
D14*
X145871000Y-78474000D03*
X139521000Y-81014000D03*
%TD*%
D10*
%TO.C,D11*%
X152900000Y-88260000D03*
D11*
X152900000Y-80640000D03*
%TD*%
D12*
%TO.C,SW15*%
X119201000Y-102604000D03*
D13*
X124281000Y-102604000D03*
D12*
X129361000Y-102604000D03*
D14*
X126821000Y-97524000D03*
X120471000Y-100064000D03*
%TD*%
D10*
%TO.C,D4*%
X133850000Y-69210000D03*
D11*
X133850000Y-61590000D03*
%TD*%
D12*
%TO.C,SW5*%
X157301000Y-64504000D03*
D13*
X162381000Y-64504000D03*
D12*
X167461000Y-64504000D03*
D14*
X164921000Y-59424000D03*
X158571000Y-61964000D03*
%TD*%
D21*
%TO.C,U1*%
X193750000Y-39670000D03*
D22*
X193750000Y-42210000D03*
X193750000Y-44750000D03*
X193750000Y-47290000D03*
X193750000Y-49830000D03*
X193750000Y-52370000D03*
X193750000Y-54910000D03*
X193750000Y-57450000D03*
X193750000Y-59990000D03*
X193750000Y-62530000D03*
X193750000Y-65070000D03*
X193750000Y-67610000D03*
X193750000Y-70150000D03*
X193750000Y-72690000D03*
X193750000Y-75230000D03*
X193750000Y-77770000D03*
X193750000Y-80310000D03*
X211550000Y-80310000D03*
X211550000Y-77770000D03*
X211550000Y-75230000D03*
X211550000Y-72690000D03*
X211550000Y-70150000D03*
X211550000Y-67610000D03*
X211550000Y-65070000D03*
X211550000Y-62530000D03*
X211550000Y-59990000D03*
X211550000Y-57450000D03*
X211550000Y-54910000D03*
X211550000Y-52370000D03*
X211550000Y-49830000D03*
X211550000Y-47290000D03*
X211550000Y-44750000D03*
X211550000Y-42210000D03*
D21*
X211550000Y-39670000D03*
D22*
X196290000Y-80310000D03*
X209010000Y-80310000D03*
%TD*%
D10*
%TO.C,D7*%
X76700000Y-88260000D03*
D11*
X76700000Y-80640000D03*
%TD*%
D12*
%TO.C,SW13*%
X81101000Y-102604000D03*
D13*
X86181000Y-102604000D03*
D12*
X91261000Y-102604000D03*
D14*
X88721000Y-97524000D03*
X82371000Y-100064000D03*
%TD*%
D10*
%TO.C,D18*%
X171950000Y-107310000D03*
D11*
X171950000Y-99690000D03*
%TD*%
D10*
%TO.C,D15*%
X114800000Y-107310000D03*
D11*
X114800000Y-99690000D03*
%TD*%
D18*
%TO.C,SW24*%
X126000000Y-43850000D03*
D19*
X126000000Y-48850000D03*
X126000000Y-46350000D03*
D20*
X133500000Y-40750000D03*
X133500000Y-51950000D03*
%TD*%
D12*
%TO.C,SW2*%
X100151000Y-64504000D03*
D13*
X105231000Y-64504000D03*
D12*
X110311000Y-64504000D03*
D14*
X107771000Y-59424000D03*
X101421000Y-61964000D03*
%TD*%
D23*
%TO.C,J4*%
X184850000Y-40950000D03*
X184850000Y-47950000D03*
D24*
X187000000Y-45750000D03*
X187000000Y-42750000D03*
X182700000Y-51250000D03*
X187000000Y-49750000D03*
%TD*%
D18*
%TO.C,SW26*%
X88250000Y-43850000D03*
D19*
X88250000Y-48850000D03*
X88250000Y-46350000D03*
D20*
X95750000Y-40750000D03*
X95750000Y-51950000D03*
%TD*%
D10*
%TO.C,D8*%
X95750000Y-88260000D03*
D11*
X95750000Y-80640000D03*
%TD*%
D18*
%TO.C,SW27*%
X164250000Y-43850000D03*
D19*
X164250000Y-48850000D03*
X164250000Y-46350000D03*
D20*
X171750000Y-40750000D03*
X171750000Y-51950000D03*
%TD*%
D10*
%TO.C,D2*%
X95701000Y-69310000D03*
D11*
X95701000Y-61690000D03*
%TD*%
D12*
%TO.C,SW3*%
X119201000Y-64504000D03*
D13*
X124281000Y-64504000D03*
D12*
X129361000Y-64504000D03*
D14*
X126821000Y-59424000D03*
X120471000Y-61964000D03*
%TD*%
D12*
%TO.C,SW4*%
X138251000Y-64504000D03*
D13*
X143331000Y-64504000D03*
D12*
X148411000Y-64504000D03*
D14*
X145871000Y-59424000D03*
X139521000Y-61964000D03*
%TD*%
D12*
%TO.C,SW6*%
X176351000Y-64504000D03*
D13*
X181431000Y-64504000D03*
D12*
X186511000Y-64504000D03*
D14*
X183971000Y-59424000D03*
X177621000Y-61964000D03*
%TD*%
D12*
%TO.C,SW8*%
X100151000Y-83554000D03*
D13*
X105231000Y-83554000D03*
D12*
X110311000Y-83554000D03*
D14*
X107771000Y-78474000D03*
X101421000Y-81014000D03*
%TD*%
D10*
%TO.C,D22*%
X191370000Y-145935000D03*
D11*
X191370000Y-138315000D03*
%TD*%
D12*
%TO.C,SW22*%
X195661000Y-141424000D03*
D13*
X200741000Y-141424000D03*
D12*
X205821000Y-141424000D03*
D14*
X203281000Y-136344000D03*
X196931000Y-138884000D03*
%TD*%
D10*
%TO.C,D16*%
X133850000Y-107310000D03*
D11*
X133850000Y-99690000D03*
%TD*%
D10*
%TO.C,D10*%
X133850000Y-88260000D03*
D11*
X133850000Y-80640000D03*
%TD*%
D10*
%TO.C,D14*%
X95750000Y-107310000D03*
D11*
X95750000Y-99690000D03*
%TD*%
D12*
%TO.C,SW19*%
X147741000Y-121924000D03*
D13*
X152821000Y-121924000D03*
D12*
X157901000Y-121924000D03*
D14*
X155361000Y-116844000D03*
X149011000Y-119384000D03*
%TD*%
D12*
%TO.C,SW7*%
X81101000Y-83554000D03*
D13*
X86181000Y-83554000D03*
D12*
X91261000Y-83554000D03*
D14*
X88721000Y-78474000D03*
X82371000Y-81014000D03*
%TD*%
D12*
%TO.C,SW16*%
X138251000Y-102604000D03*
D13*
X143331000Y-102604000D03*
D12*
X148411000Y-102604000D03*
D14*
X145871000Y-97524000D03*
X139521000Y-100064000D03*
%TD*%
D12*
%TO.C,SW21*%
X185841000Y-121924000D03*
D13*
X190921000Y-121924000D03*
D12*
X196001000Y-121924000D03*
D14*
X193461000Y-116844000D03*
X187111000Y-119384000D03*
%TD*%
%LPD*%
M02*
