%TF.GenerationSoftware,KiCad,Pcbnew,9.0.0*%
%TF.CreationDate,2025-03-26T22:43:06+09:00*%
%TF.ProjectId,keyboard,6b657962-6f61-4726-942e-6b696361645f,rev?*%
%TF.SameCoordinates,Original*%
%TF.FileFunction,Soldermask,Top*%
%TF.FilePolarity,Negative*%
%FSLAX46Y46*%
G04 Gerber Fmt 4.6, Leading zero omitted, Abs format (unit mm)*
G04 Created by KiCad (PCBNEW 9.0.0) date 2025-03-26 22:43:06*
%MOMM*%
%LPD*%
G01*
G04 APERTURE LIST*
%ADD10R,1.600000X1.600000*%
%ADD11O,1.600000X1.600000*%
%ADD12C,2.200000*%
%ADD13O,1.500000X2.000000*%
%ADD14O,2.000000X1.500000*%
%ADD15R,2.000000X2.000000*%
%ADD16C,2.000000*%
%ADD17C,2.800000*%
%ADD18R,1.700000X1.700000*%
%ADD19O,1.700000X1.700000*%
%ADD20O,1.500000X2.300000*%
G04 APERTURE END LIST*
D10*
%TO.C,D12*%
X171950000Y-88260000D03*
D11*
X171950000Y-80640000D03*
%TD*%
D10*
%TO.C,D9*%
X114800000Y-88260000D03*
D11*
X114800000Y-80640000D03*
%TD*%
D12*
%TO.C,SW12*%
X183971000Y-78474000D03*
X177621000Y-81014000D03*
%TD*%
D10*
%TO.C,D6*%
X171950000Y-69210000D03*
D11*
X171950000Y-61590000D03*
%TD*%
D12*
%TO.C,SW14*%
X107771000Y-97524000D03*
X101421000Y-100064000D03*
%TD*%
D10*
%TO.C,D20*%
X162370000Y-126435000D03*
D11*
X162370000Y-118815000D03*
%TD*%
D10*
%TO.C,D3*%
X114800000Y-69210000D03*
D11*
X114800000Y-61590000D03*
%TD*%
D13*
%TO.C,J5*%
X202612500Y-92787500D03*
D14*
X209212500Y-103387500D03*
D13*
X200612500Y-92787500D03*
X198612500Y-92787500D03*
D14*
X209212500Y-99387500D03*
X209212500Y-101387500D03*
%TD*%
D12*
%TO.C,SW18*%
X183971000Y-97524000D03*
X177621000Y-100064000D03*
%TD*%
D10*
%TO.C,D13*%
X76700000Y-107310000D03*
D11*
X76700000Y-99690000D03*
%TD*%
D10*
%TO.C,D1*%
X76700000Y-69255000D03*
D11*
X76700000Y-61635000D03*
%TD*%
D12*
%TO.C,SW17*%
X164921000Y-97524000D03*
X158571000Y-100064000D03*
%TD*%
D15*
%TO.C,SW25*%
X107000000Y-43850000D03*
D16*
X107000000Y-48850000D03*
X107000000Y-46350000D03*
D17*
X114500000Y-40750000D03*
X114500000Y-51950000D03*
%TD*%
D10*
%TO.C,D21*%
X181370000Y-126435000D03*
D11*
X181370000Y-118815000D03*
%TD*%
D12*
%TO.C,SW20*%
X174411000Y-116844000D03*
X168061000Y-119384000D03*
%TD*%
%TO.C,SW1*%
X88721000Y-59424000D03*
X82371000Y-61964000D03*
%TD*%
D15*
%TO.C,SW23*%
X145250000Y-43850000D03*
D16*
X145250000Y-48850000D03*
X145250000Y-46350000D03*
D17*
X152750000Y-40750000D03*
X152750000Y-51950000D03*
%TD*%
D12*
%TO.C,SW11*%
X164921000Y-78474000D03*
X158571000Y-81014000D03*
%TD*%
D10*
%TO.C,D17*%
X152900000Y-107310000D03*
D11*
X152900000Y-99690000D03*
%TD*%
D10*
%TO.C,D5*%
X152900000Y-69210000D03*
D11*
X152900000Y-61590000D03*
%TD*%
D10*
%TO.C,D19*%
X143370000Y-126435000D03*
D11*
X143370000Y-118815000D03*
%TD*%
D12*
%TO.C,SW9*%
X126821000Y-78474000D03*
X120471000Y-81014000D03*
%TD*%
%TO.C,SW10*%
X145871000Y-78474000D03*
X139521000Y-81014000D03*
%TD*%
D10*
%TO.C,D11*%
X152900000Y-88260000D03*
D11*
X152900000Y-80640000D03*
%TD*%
D12*
%TO.C,SW15*%
X126821000Y-97524000D03*
X120471000Y-100064000D03*
%TD*%
D10*
%TO.C,D4*%
X133850000Y-69210000D03*
D11*
X133850000Y-61590000D03*
%TD*%
D12*
%TO.C,SW5*%
X164921000Y-59424000D03*
X158571000Y-61964000D03*
%TD*%
D18*
%TO.C,U1*%
X193750000Y-39670000D03*
D19*
X193750000Y-42210000D03*
X193750000Y-44750000D03*
X193750000Y-47290000D03*
X193750000Y-49830000D03*
X193750000Y-52370000D03*
X193750000Y-54910000D03*
X193750000Y-57450000D03*
X193750000Y-59990000D03*
X193750000Y-62530000D03*
X193750000Y-65070000D03*
X193750000Y-67610000D03*
X193750000Y-70150000D03*
X193750000Y-72690000D03*
X193750000Y-75230000D03*
X193750000Y-77770000D03*
X193750000Y-80310000D03*
X211550000Y-80310000D03*
X211550000Y-77770000D03*
X211550000Y-75230000D03*
X211550000Y-72690000D03*
X211550000Y-70150000D03*
X211550000Y-67610000D03*
X211550000Y-65070000D03*
X211550000Y-62530000D03*
X211550000Y-59990000D03*
X211550000Y-57450000D03*
X211550000Y-54910000D03*
X211550000Y-52370000D03*
X211550000Y-49830000D03*
X211550000Y-47290000D03*
X211550000Y-44750000D03*
X211550000Y-42210000D03*
D18*
X211550000Y-39670000D03*
D19*
X196290000Y-80310000D03*
X209010000Y-80310000D03*
%TD*%
D10*
%TO.C,D7*%
X76700000Y-88260000D03*
D11*
X76700000Y-80640000D03*
%TD*%
D12*
%TO.C,SW13*%
X88721000Y-97524000D03*
X82371000Y-100064000D03*
%TD*%
D10*
%TO.C,D18*%
X171950000Y-107310000D03*
D11*
X171950000Y-99690000D03*
%TD*%
D10*
%TO.C,D15*%
X114800000Y-107310000D03*
D11*
X114800000Y-99690000D03*
%TD*%
D15*
%TO.C,SW24*%
X126000000Y-43850000D03*
D16*
X126000000Y-48850000D03*
X126000000Y-46350000D03*
D17*
X133500000Y-40750000D03*
X133500000Y-51950000D03*
%TD*%
D12*
%TO.C,SW2*%
X107771000Y-59424000D03*
X101421000Y-61964000D03*
%TD*%
D20*
%TO.C,J4*%
X187000000Y-45750000D03*
X187000000Y-42750000D03*
X182700000Y-51250000D03*
X187000000Y-49750000D03*
%TD*%
D15*
%TO.C,SW26*%
X88250000Y-43850000D03*
D16*
X88250000Y-48850000D03*
X88250000Y-46350000D03*
D17*
X95750000Y-40750000D03*
X95750000Y-51950000D03*
%TD*%
D10*
%TO.C,D8*%
X95750000Y-88260000D03*
D11*
X95750000Y-80640000D03*
%TD*%
D15*
%TO.C,SW27*%
X164250000Y-43850000D03*
D16*
X164250000Y-48850000D03*
X164250000Y-46350000D03*
D17*
X171750000Y-40750000D03*
X171750000Y-51950000D03*
%TD*%
D10*
%TO.C,D2*%
X95701000Y-69310000D03*
D11*
X95701000Y-61690000D03*
%TD*%
D12*
%TO.C,SW3*%
X126821000Y-59424000D03*
X120471000Y-61964000D03*
%TD*%
%TO.C,SW4*%
X145871000Y-59424000D03*
X139521000Y-61964000D03*
%TD*%
%TO.C,SW6*%
X183971000Y-59424000D03*
X177621000Y-61964000D03*
%TD*%
%TO.C,SW8*%
X107771000Y-78474000D03*
X101421000Y-81014000D03*
%TD*%
D10*
%TO.C,D22*%
X191370000Y-145935000D03*
D11*
X191370000Y-138315000D03*
%TD*%
D12*
%TO.C,SW22*%
X203281000Y-136344000D03*
X196931000Y-138884000D03*
%TD*%
D10*
%TO.C,D16*%
X133850000Y-107310000D03*
D11*
X133850000Y-99690000D03*
%TD*%
D10*
%TO.C,D10*%
X133850000Y-88260000D03*
D11*
X133850000Y-80640000D03*
%TD*%
D10*
%TO.C,D14*%
X95750000Y-107310000D03*
D11*
X95750000Y-99690000D03*
%TD*%
D12*
%TO.C,SW19*%
X155361000Y-116844000D03*
X149011000Y-119384000D03*
%TD*%
%TO.C,SW7*%
X88721000Y-78474000D03*
X82371000Y-81014000D03*
%TD*%
%TO.C,SW16*%
X145871000Y-97524000D03*
X139521000Y-100064000D03*
%TD*%
%TO.C,SW21*%
X193461000Y-116844000D03*
X187111000Y-119384000D03*
%TD*%
M02*
