%TF.GenerationSoftware,KiCad,Pcbnew,9.0.0*%
%TF.CreationDate,2025-03-25T03:22:16+09:00*%
%TF.ProjectId,keyboard,6b657962-6f61-4726-942e-6b696361645f,rev?*%
%TF.SameCoordinates,Original*%
%TF.FileFunction,Soldermask,Bot*%
%TF.FilePolarity,Negative*%
%FSLAX46Y46*%
G04 Gerber Fmt 4.6, Leading zero omitted, Abs format (unit mm)*
G04 Created by KiCad (PCBNEW 9.0.0) date 2025-03-25 03:22:16*
%MOMM*%
%LPD*%
G01*
G04 APERTURE LIST*
%ADD10C,1.700000*%
%ADD11C,4.000000*%
%ADD12C,2.200000*%
%ADD13C,2.010000*%
%ADD14O,1.500000X2.000000*%
%ADD15O,2.000000X1.500000*%
%ADD16C,0.650000*%
%ADD17O,1.000000X2.100000*%
%ADD18O,1.000000X1.600000*%
%ADD19R,1.700000X1.700000*%
%ADD20O,1.700000X1.700000*%
%ADD21C,1.200000*%
%ADD22O,2.300000X1.500000*%
G04 APERTURE END LIST*
D10*
%TO.C,SW12*%
X176351000Y-83554000D03*
D11*
X181431000Y-83554000D03*
D10*
X186511000Y-83554000D03*
D12*
X183971000Y-78474000D03*
X177621000Y-81014000D03*
%TD*%
D10*
%TO.C,SW14*%
X100151000Y-102604000D03*
D11*
X105231000Y-102604000D03*
D10*
X110311000Y-102604000D03*
D12*
X107771000Y-97524000D03*
X101421000Y-100064000D03*
%TD*%
D13*
%TO.C,J5*%
X193821000Y-77424000D03*
X193821000Y-89424000D03*
X205821000Y-77424000D03*
X205821000Y-89424000D03*
D14*
X201821000Y-74824000D03*
D15*
X208421000Y-85424000D03*
D14*
X199821000Y-74824000D03*
X197821000Y-74824000D03*
D15*
X208421000Y-81424000D03*
X208421000Y-83424000D03*
%TD*%
D10*
%TO.C,SW18*%
X176351000Y-102604000D03*
D11*
X181431000Y-102604000D03*
D10*
X186511000Y-102604000D03*
D12*
X183971000Y-97524000D03*
X177621000Y-100064000D03*
%TD*%
D10*
%TO.C,SW17*%
X157301000Y-102604000D03*
D11*
X162381000Y-102604000D03*
D10*
X167461000Y-102604000D03*
D12*
X164921000Y-97524000D03*
X158571000Y-100064000D03*
%TD*%
D10*
%TO.C,SW20*%
X166791000Y-121924000D03*
D11*
X171871000Y-121924000D03*
D10*
X176951000Y-121924000D03*
D12*
X174411000Y-116844000D03*
X168061000Y-119384000D03*
%TD*%
D10*
%TO.C,SW1*%
X81101000Y-64504000D03*
D11*
X86181000Y-64504000D03*
D10*
X91261000Y-64504000D03*
D12*
X88721000Y-59424000D03*
X82371000Y-61964000D03*
%TD*%
D16*
%TO.C,J1*%
X188570000Y-50150000D03*
X182790000Y-50150000D03*
D17*
X190000000Y-50680000D03*
D18*
X190000000Y-46500000D03*
D17*
X181360000Y-50680000D03*
D18*
X181360000Y-46500000D03*
%TD*%
D10*
%TO.C,SW11*%
X157301000Y-83554000D03*
D11*
X162381000Y-83554000D03*
D10*
X167461000Y-83554000D03*
D12*
X164921000Y-78474000D03*
X158571000Y-81014000D03*
%TD*%
D10*
%TO.C,SW9*%
X119201000Y-83554000D03*
D11*
X124281000Y-83554000D03*
D10*
X129361000Y-83554000D03*
D12*
X126821000Y-78474000D03*
X120471000Y-81014000D03*
%TD*%
D10*
%TO.C,SW10*%
X138251000Y-83554000D03*
D11*
X143331000Y-83554000D03*
D10*
X148411000Y-83554000D03*
D12*
X145871000Y-78474000D03*
X139521000Y-81014000D03*
%TD*%
D10*
%TO.C,SW15*%
X119201000Y-102604000D03*
D11*
X124281000Y-102604000D03*
D10*
X129361000Y-102604000D03*
D12*
X126821000Y-97524000D03*
X120471000Y-100064000D03*
%TD*%
D10*
%TO.C,SW5*%
X157301000Y-64504000D03*
D11*
X162381000Y-64504000D03*
D10*
X167461000Y-64504000D03*
D12*
X164921000Y-59424000D03*
X158571000Y-61964000D03*
%TD*%
D19*
%TO.C,J3*%
X204500000Y-59725000D03*
D20*
X204500000Y-62265000D03*
%TD*%
D10*
%TO.C,SW13*%
X81101000Y-102604000D03*
D11*
X86181000Y-102604000D03*
D10*
X91261000Y-102604000D03*
D12*
X88721000Y-97524000D03*
X82371000Y-100064000D03*
%TD*%
D10*
%TO.C,SW2*%
X100151000Y-64504000D03*
D11*
X105231000Y-64504000D03*
D10*
X110311000Y-64504000D03*
D12*
X107771000Y-59424000D03*
X101421000Y-61964000D03*
%TD*%
D21*
%TO.C,J4*%
X209300000Y-52150000D03*
X202300000Y-52150000D03*
D22*
X204500000Y-54300000D03*
X207500000Y-54300000D03*
X199000000Y-50000000D03*
X200500000Y-54300000D03*
%TD*%
D10*
%TO.C,SW3*%
X119201000Y-64504000D03*
D11*
X124281000Y-64504000D03*
D10*
X129361000Y-64504000D03*
D12*
X126821000Y-59424000D03*
X120471000Y-61964000D03*
%TD*%
D10*
%TO.C,SW4*%
X138251000Y-64504000D03*
D11*
X143331000Y-64504000D03*
D10*
X148411000Y-64504000D03*
D12*
X145871000Y-59424000D03*
X139521000Y-61964000D03*
%TD*%
D10*
%TO.C,SW6*%
X176351000Y-64504000D03*
D11*
X181431000Y-64504000D03*
D10*
X186511000Y-64504000D03*
D12*
X183971000Y-59424000D03*
X177621000Y-61964000D03*
%TD*%
D10*
%TO.C,SW8*%
X100151000Y-83554000D03*
D11*
X105231000Y-83554000D03*
D10*
X110311000Y-83554000D03*
D12*
X107771000Y-78474000D03*
X101421000Y-81014000D03*
%TD*%
D10*
%TO.C,SW22*%
X195661000Y-141424000D03*
D11*
X200741000Y-141424000D03*
D10*
X205821000Y-141424000D03*
D12*
X203281000Y-136344000D03*
X196931000Y-138884000D03*
%TD*%
D19*
%TO.C,J2*%
X204600000Y-71025000D03*
D20*
X204600000Y-68485000D03*
X204600000Y-65945000D03*
%TD*%
D10*
%TO.C,SW19*%
X147741000Y-121924000D03*
D11*
X152821000Y-121924000D03*
D10*
X157901000Y-121924000D03*
D12*
X155361000Y-116844000D03*
X149011000Y-119384000D03*
%TD*%
D10*
%TO.C,SW7*%
X81101000Y-83554000D03*
D11*
X86181000Y-83554000D03*
D10*
X91261000Y-83554000D03*
D12*
X88721000Y-78474000D03*
X82371000Y-81014000D03*
%TD*%
D10*
%TO.C,SW16*%
X138251000Y-102604000D03*
D11*
X143331000Y-102604000D03*
D10*
X148411000Y-102604000D03*
D12*
X145871000Y-97524000D03*
X139521000Y-100064000D03*
%TD*%
D10*
%TO.C,SW21*%
X185841000Y-121924000D03*
D11*
X190921000Y-121924000D03*
D10*
X196001000Y-121924000D03*
D12*
X193461000Y-116844000D03*
X187111000Y-119384000D03*
%TD*%
M02*
