M48
; DRILL file {KiCad 9.0.0} date 2025-03-26T22:43:06+0900
; FORMAT={-:-/ absolute / inch / decimal}
; #@! TF.CreationDate,2025-03-26T22:43:06+09:00
; #@! TF.GenerationSoftware,Kicad,Pcbnew,9.0.0
; #@! TF.FileFunction,NonPlated,1,2,NPTH
FMAT,2
INCH
; #@! TA.AperFunction,NonPlated,NPTH,ComponentDrill
T1C0.0472
; #@! TA.AperFunction,NonPlated,NPTH,ComponentDrill
T2C0.0669
; #@! TA.AperFunction,NonPlated,NPTH,ComponentDrill
T3C0.0791
; #@! TA.AperFunction,NonPlated,NPTH,ComponentDrill
T4C0.1575
%
G90
G05
T1
X7.2776Y-1.6122
X7.2776Y-1.8878
T2
X3.193Y-2.5395
X3.193Y-3.2895
X3.193Y-4.0395
X3.593Y-2.5395
X3.593Y-3.2895
X3.593Y-4.0395
X3.943Y-2.5395
X3.943Y-3.2895
X3.943Y-4.0395
X4.343Y-2.5395
X4.343Y-3.2895
X4.343Y-4.0395
X4.693Y-2.5395
X4.693Y-3.2895
X4.693Y-4.0395
X5.093Y-2.5395
X5.093Y-3.2895
X5.093Y-4.0395
X5.443Y-2.5395
X5.443Y-3.2895
X5.443Y-4.0395
X5.8166Y-4.8002
X5.843Y-2.5395
X5.843Y-3.2895
X5.843Y-4.0395
X6.193Y-2.5395
X6.193Y-3.2895
X6.193Y-4.0395
X6.2166Y-4.8002
X6.5666Y-4.8002
X6.593Y-2.5395
X6.593Y-3.2895
X6.593Y-4.0395
X6.943Y-2.5395
X6.943Y-3.2895
X6.943Y-4.0395
X6.9666Y-4.8002
X7.3166Y-4.8002
X7.343Y-2.5395
X7.343Y-3.2895
X7.343Y-4.0395
X7.7032Y-5.5679
X7.7166Y-4.8002
X8.1032Y-5.5679
T3
X7.6619Y-3.7554
X7.6619Y-4.2279
X8.1344Y-3.7554
X8.1344Y-4.2279
T4
X3.393Y-2.5395
X3.393Y-3.2895
X3.393Y-4.0395
X4.143Y-2.5395
X4.143Y-3.2895
X4.143Y-4.0395
X4.893Y-2.5395
X4.893Y-3.2895
X4.893Y-4.0395
X5.643Y-2.5395
X5.643Y-3.2895
X5.643Y-4.0395
X6.0166Y-4.8002
X6.393Y-2.5395
X6.393Y-3.2895
X6.393Y-4.0395
X6.7666Y-4.8002
X7.143Y-2.5395
X7.143Y-3.2895
X7.143Y-4.0395
X7.5166Y-4.8002
X7.9032Y-5.5679
M30
