%TF.GenerationSoftware,KiCad,Pcbnew,9.0.0*%
%TF.CreationDate,2025-03-26T22:43:06+09:00*%
%TF.ProjectId,keyboard,6b657962-6f61-4726-942e-6b696361645f,rev?*%
%TF.SameCoordinates,Original*%
%TF.FileFunction,Legend,Top*%
%TF.FilePolarity,Positive*%
%FSLAX46Y46*%
G04 Gerber Fmt 4.6, Leading zero omitted, Abs format (unit mm)*
G04 Created by KiCad (PCBNEW 9.0.0) date 2025-03-26 22:43:06*
%MOMM*%
%LPD*%
G01*
G04 APERTURE LIST*
%ADD10C,0.150000*%
%ADD11C,0.100000*%
%ADD12C,0.120000*%
%ADD13C,2.010000*%
%ADD14O,1.500000X2.000000*%
%ADD15O,2.000000X1.500000*%
%ADD16R,1.600000X1.600000*%
%ADD17O,1.600000X1.600000*%
%ADD18C,1.700000*%
%ADD19C,4.000000*%
%ADD20C,2.200000*%
%ADD21R,2.000000X2.000000*%
%ADD22C,2.000000*%
%ADD23C,2.800000*%
%ADD24R,1.700000X1.700000*%
%ADD25O,1.700000X1.700000*%
%ADD26C,1.200000*%
%ADD27O,1.500000X2.300000*%
G04 APERTURE END LIST*
D10*
X170284819Y-85664285D02*
X169284819Y-85664285D01*
X169284819Y-85664285D02*
X169284819Y-85426190D01*
X169284819Y-85426190D02*
X169332438Y-85283333D01*
X169332438Y-85283333D02*
X169427676Y-85188095D01*
X169427676Y-85188095D02*
X169522914Y-85140476D01*
X169522914Y-85140476D02*
X169713390Y-85092857D01*
X169713390Y-85092857D02*
X169856247Y-85092857D01*
X169856247Y-85092857D02*
X170046723Y-85140476D01*
X170046723Y-85140476D02*
X170141961Y-85188095D01*
X170141961Y-85188095D02*
X170237200Y-85283333D01*
X170237200Y-85283333D02*
X170284819Y-85426190D01*
X170284819Y-85426190D02*
X170284819Y-85664285D01*
X170284819Y-84140476D02*
X170284819Y-84711904D01*
X170284819Y-84426190D02*
X169284819Y-84426190D01*
X169284819Y-84426190D02*
X169427676Y-84521428D01*
X169427676Y-84521428D02*
X169522914Y-84616666D01*
X169522914Y-84616666D02*
X169570533Y-84711904D01*
X169380057Y-83759523D02*
X169332438Y-83711904D01*
X169332438Y-83711904D02*
X169284819Y-83616666D01*
X169284819Y-83616666D02*
X169284819Y-83378571D01*
X169284819Y-83378571D02*
X169332438Y-83283333D01*
X169332438Y-83283333D02*
X169380057Y-83235714D01*
X169380057Y-83235714D02*
X169475295Y-83188095D01*
X169475295Y-83188095D02*
X169570533Y-83188095D01*
X169570533Y-83188095D02*
X169713390Y-83235714D01*
X169713390Y-83235714D02*
X170284819Y-83807142D01*
X170284819Y-83807142D02*
X170284819Y-83188095D01*
X170604819Y-88521904D02*
X169604819Y-88521904D01*
X170604819Y-87950476D02*
X170033390Y-88379047D01*
X169604819Y-87950476D02*
X170176247Y-88521904D01*
X113134819Y-85188094D02*
X112134819Y-85188094D01*
X112134819Y-85188094D02*
X112134819Y-84949999D01*
X112134819Y-84949999D02*
X112182438Y-84807142D01*
X112182438Y-84807142D02*
X112277676Y-84711904D01*
X112277676Y-84711904D02*
X112372914Y-84664285D01*
X112372914Y-84664285D02*
X112563390Y-84616666D01*
X112563390Y-84616666D02*
X112706247Y-84616666D01*
X112706247Y-84616666D02*
X112896723Y-84664285D01*
X112896723Y-84664285D02*
X112991961Y-84711904D01*
X112991961Y-84711904D02*
X113087200Y-84807142D01*
X113087200Y-84807142D02*
X113134819Y-84949999D01*
X113134819Y-84949999D02*
X113134819Y-85188094D01*
X113134819Y-84140475D02*
X113134819Y-83949999D01*
X113134819Y-83949999D02*
X113087200Y-83854761D01*
X113087200Y-83854761D02*
X113039580Y-83807142D01*
X113039580Y-83807142D02*
X112896723Y-83711904D01*
X112896723Y-83711904D02*
X112706247Y-83664285D01*
X112706247Y-83664285D02*
X112325295Y-83664285D01*
X112325295Y-83664285D02*
X112230057Y-83711904D01*
X112230057Y-83711904D02*
X112182438Y-83759523D01*
X112182438Y-83759523D02*
X112134819Y-83854761D01*
X112134819Y-83854761D02*
X112134819Y-84045237D01*
X112134819Y-84045237D02*
X112182438Y-84140475D01*
X112182438Y-84140475D02*
X112230057Y-84188094D01*
X112230057Y-84188094D02*
X112325295Y-84235713D01*
X112325295Y-84235713D02*
X112563390Y-84235713D01*
X112563390Y-84235713D02*
X112658628Y-84188094D01*
X112658628Y-84188094D02*
X112706247Y-84140475D01*
X112706247Y-84140475D02*
X112753866Y-84045237D01*
X112753866Y-84045237D02*
X112753866Y-83854761D01*
X112753866Y-83854761D02*
X112706247Y-83759523D01*
X112706247Y-83759523D02*
X112658628Y-83711904D01*
X112658628Y-83711904D02*
X112563390Y-83664285D01*
X113454819Y-88521904D02*
X112454819Y-88521904D01*
X113454819Y-87950476D02*
X112883390Y-88379047D01*
X112454819Y-87950476D02*
X113026247Y-88521904D01*
X179621476Y-76087200D02*
X179764333Y-76134819D01*
X179764333Y-76134819D02*
X180002428Y-76134819D01*
X180002428Y-76134819D02*
X180097666Y-76087200D01*
X180097666Y-76087200D02*
X180145285Y-76039580D01*
X180145285Y-76039580D02*
X180192904Y-75944342D01*
X180192904Y-75944342D02*
X180192904Y-75849104D01*
X180192904Y-75849104D02*
X180145285Y-75753866D01*
X180145285Y-75753866D02*
X180097666Y-75706247D01*
X180097666Y-75706247D02*
X180002428Y-75658628D01*
X180002428Y-75658628D02*
X179811952Y-75611009D01*
X179811952Y-75611009D02*
X179716714Y-75563390D01*
X179716714Y-75563390D02*
X179669095Y-75515771D01*
X179669095Y-75515771D02*
X179621476Y-75420533D01*
X179621476Y-75420533D02*
X179621476Y-75325295D01*
X179621476Y-75325295D02*
X179669095Y-75230057D01*
X179669095Y-75230057D02*
X179716714Y-75182438D01*
X179716714Y-75182438D02*
X179811952Y-75134819D01*
X179811952Y-75134819D02*
X180050047Y-75134819D01*
X180050047Y-75134819D02*
X180192904Y-75182438D01*
X180526238Y-75134819D02*
X180764333Y-76134819D01*
X180764333Y-76134819D02*
X180954809Y-75420533D01*
X180954809Y-75420533D02*
X181145285Y-76134819D01*
X181145285Y-76134819D02*
X181383381Y-75134819D01*
X182288142Y-76134819D02*
X181716714Y-76134819D01*
X182002428Y-76134819D02*
X182002428Y-75134819D01*
X182002428Y-75134819D02*
X181907190Y-75277676D01*
X181907190Y-75277676D02*
X181811952Y-75372914D01*
X181811952Y-75372914D02*
X181716714Y-75420533D01*
X182669095Y-75230057D02*
X182716714Y-75182438D01*
X182716714Y-75182438D02*
X182811952Y-75134819D01*
X182811952Y-75134819D02*
X183050047Y-75134819D01*
X183050047Y-75134819D02*
X183145285Y-75182438D01*
X183145285Y-75182438D02*
X183192904Y-75230057D01*
X183192904Y-75230057D02*
X183240523Y-75325295D01*
X183240523Y-75325295D02*
X183240523Y-75420533D01*
X183240523Y-75420533D02*
X183192904Y-75563390D01*
X183192904Y-75563390D02*
X182621476Y-76134819D01*
X182621476Y-76134819D02*
X183240523Y-76134819D01*
X170284819Y-66138094D02*
X169284819Y-66138094D01*
X169284819Y-66138094D02*
X169284819Y-65899999D01*
X169284819Y-65899999D02*
X169332438Y-65757142D01*
X169332438Y-65757142D02*
X169427676Y-65661904D01*
X169427676Y-65661904D02*
X169522914Y-65614285D01*
X169522914Y-65614285D02*
X169713390Y-65566666D01*
X169713390Y-65566666D02*
X169856247Y-65566666D01*
X169856247Y-65566666D02*
X170046723Y-65614285D01*
X170046723Y-65614285D02*
X170141961Y-65661904D01*
X170141961Y-65661904D02*
X170237200Y-65757142D01*
X170237200Y-65757142D02*
X170284819Y-65899999D01*
X170284819Y-65899999D02*
X170284819Y-66138094D01*
X169284819Y-64709523D02*
X169284819Y-64899999D01*
X169284819Y-64899999D02*
X169332438Y-64995237D01*
X169332438Y-64995237D02*
X169380057Y-65042856D01*
X169380057Y-65042856D02*
X169522914Y-65138094D01*
X169522914Y-65138094D02*
X169713390Y-65185713D01*
X169713390Y-65185713D02*
X170094342Y-65185713D01*
X170094342Y-65185713D02*
X170189580Y-65138094D01*
X170189580Y-65138094D02*
X170237200Y-65090475D01*
X170237200Y-65090475D02*
X170284819Y-64995237D01*
X170284819Y-64995237D02*
X170284819Y-64804761D01*
X170284819Y-64804761D02*
X170237200Y-64709523D01*
X170237200Y-64709523D02*
X170189580Y-64661904D01*
X170189580Y-64661904D02*
X170094342Y-64614285D01*
X170094342Y-64614285D02*
X169856247Y-64614285D01*
X169856247Y-64614285D02*
X169761009Y-64661904D01*
X169761009Y-64661904D02*
X169713390Y-64709523D01*
X169713390Y-64709523D02*
X169665771Y-64804761D01*
X169665771Y-64804761D02*
X169665771Y-64995237D01*
X169665771Y-64995237D02*
X169713390Y-65090475D01*
X169713390Y-65090475D02*
X169761009Y-65138094D01*
X169761009Y-65138094D02*
X169856247Y-65185713D01*
X170604819Y-69471904D02*
X169604819Y-69471904D01*
X170604819Y-68900476D02*
X170033390Y-69329047D01*
X169604819Y-68900476D02*
X170176247Y-69471904D01*
X103421476Y-95137200D02*
X103564333Y-95184819D01*
X103564333Y-95184819D02*
X103802428Y-95184819D01*
X103802428Y-95184819D02*
X103897666Y-95137200D01*
X103897666Y-95137200D02*
X103945285Y-95089580D01*
X103945285Y-95089580D02*
X103992904Y-94994342D01*
X103992904Y-94994342D02*
X103992904Y-94899104D01*
X103992904Y-94899104D02*
X103945285Y-94803866D01*
X103945285Y-94803866D02*
X103897666Y-94756247D01*
X103897666Y-94756247D02*
X103802428Y-94708628D01*
X103802428Y-94708628D02*
X103611952Y-94661009D01*
X103611952Y-94661009D02*
X103516714Y-94613390D01*
X103516714Y-94613390D02*
X103469095Y-94565771D01*
X103469095Y-94565771D02*
X103421476Y-94470533D01*
X103421476Y-94470533D02*
X103421476Y-94375295D01*
X103421476Y-94375295D02*
X103469095Y-94280057D01*
X103469095Y-94280057D02*
X103516714Y-94232438D01*
X103516714Y-94232438D02*
X103611952Y-94184819D01*
X103611952Y-94184819D02*
X103850047Y-94184819D01*
X103850047Y-94184819D02*
X103992904Y-94232438D01*
X104326238Y-94184819D02*
X104564333Y-95184819D01*
X104564333Y-95184819D02*
X104754809Y-94470533D01*
X104754809Y-94470533D02*
X104945285Y-95184819D01*
X104945285Y-95184819D02*
X105183381Y-94184819D01*
X106088142Y-95184819D02*
X105516714Y-95184819D01*
X105802428Y-95184819D02*
X105802428Y-94184819D01*
X105802428Y-94184819D02*
X105707190Y-94327676D01*
X105707190Y-94327676D02*
X105611952Y-94422914D01*
X105611952Y-94422914D02*
X105516714Y-94470533D01*
X106945285Y-94518152D02*
X106945285Y-95184819D01*
X106707190Y-94137200D02*
X106469095Y-94851485D01*
X106469095Y-94851485D02*
X107088142Y-94851485D01*
X160704819Y-123839285D02*
X159704819Y-123839285D01*
X159704819Y-123839285D02*
X159704819Y-123601190D01*
X159704819Y-123601190D02*
X159752438Y-123458333D01*
X159752438Y-123458333D02*
X159847676Y-123363095D01*
X159847676Y-123363095D02*
X159942914Y-123315476D01*
X159942914Y-123315476D02*
X160133390Y-123267857D01*
X160133390Y-123267857D02*
X160276247Y-123267857D01*
X160276247Y-123267857D02*
X160466723Y-123315476D01*
X160466723Y-123315476D02*
X160561961Y-123363095D01*
X160561961Y-123363095D02*
X160657200Y-123458333D01*
X160657200Y-123458333D02*
X160704819Y-123601190D01*
X160704819Y-123601190D02*
X160704819Y-123839285D01*
X159800057Y-122886904D02*
X159752438Y-122839285D01*
X159752438Y-122839285D02*
X159704819Y-122744047D01*
X159704819Y-122744047D02*
X159704819Y-122505952D01*
X159704819Y-122505952D02*
X159752438Y-122410714D01*
X159752438Y-122410714D02*
X159800057Y-122363095D01*
X159800057Y-122363095D02*
X159895295Y-122315476D01*
X159895295Y-122315476D02*
X159990533Y-122315476D01*
X159990533Y-122315476D02*
X160133390Y-122363095D01*
X160133390Y-122363095D02*
X160704819Y-122934523D01*
X160704819Y-122934523D02*
X160704819Y-122315476D01*
X159704819Y-121696428D02*
X159704819Y-121601190D01*
X159704819Y-121601190D02*
X159752438Y-121505952D01*
X159752438Y-121505952D02*
X159800057Y-121458333D01*
X159800057Y-121458333D02*
X159895295Y-121410714D01*
X159895295Y-121410714D02*
X160085771Y-121363095D01*
X160085771Y-121363095D02*
X160323866Y-121363095D01*
X160323866Y-121363095D02*
X160514342Y-121410714D01*
X160514342Y-121410714D02*
X160609580Y-121458333D01*
X160609580Y-121458333D02*
X160657200Y-121505952D01*
X160657200Y-121505952D02*
X160704819Y-121601190D01*
X160704819Y-121601190D02*
X160704819Y-121696428D01*
X160704819Y-121696428D02*
X160657200Y-121791666D01*
X160657200Y-121791666D02*
X160609580Y-121839285D01*
X160609580Y-121839285D02*
X160514342Y-121886904D01*
X160514342Y-121886904D02*
X160323866Y-121934523D01*
X160323866Y-121934523D02*
X160085771Y-121934523D01*
X160085771Y-121934523D02*
X159895295Y-121886904D01*
X159895295Y-121886904D02*
X159800057Y-121839285D01*
X159800057Y-121839285D02*
X159752438Y-121791666D01*
X159752438Y-121791666D02*
X159704819Y-121696428D01*
X161024819Y-126696904D02*
X160024819Y-126696904D01*
X161024819Y-126125476D02*
X160453390Y-126554047D01*
X160024819Y-126125476D02*
X160596247Y-126696904D01*
X113134819Y-66138094D02*
X112134819Y-66138094D01*
X112134819Y-66138094D02*
X112134819Y-65899999D01*
X112134819Y-65899999D02*
X112182438Y-65757142D01*
X112182438Y-65757142D02*
X112277676Y-65661904D01*
X112277676Y-65661904D02*
X112372914Y-65614285D01*
X112372914Y-65614285D02*
X112563390Y-65566666D01*
X112563390Y-65566666D02*
X112706247Y-65566666D01*
X112706247Y-65566666D02*
X112896723Y-65614285D01*
X112896723Y-65614285D02*
X112991961Y-65661904D01*
X112991961Y-65661904D02*
X113087200Y-65757142D01*
X113087200Y-65757142D02*
X113134819Y-65899999D01*
X113134819Y-65899999D02*
X113134819Y-66138094D01*
X112134819Y-65233332D02*
X112134819Y-64614285D01*
X112134819Y-64614285D02*
X112515771Y-64947618D01*
X112515771Y-64947618D02*
X112515771Y-64804761D01*
X112515771Y-64804761D02*
X112563390Y-64709523D01*
X112563390Y-64709523D02*
X112611009Y-64661904D01*
X112611009Y-64661904D02*
X112706247Y-64614285D01*
X112706247Y-64614285D02*
X112944342Y-64614285D01*
X112944342Y-64614285D02*
X113039580Y-64661904D01*
X113039580Y-64661904D02*
X113087200Y-64709523D01*
X113087200Y-64709523D02*
X113134819Y-64804761D01*
X113134819Y-64804761D02*
X113134819Y-65090475D01*
X113134819Y-65090475D02*
X113087200Y-65185713D01*
X113087200Y-65185713D02*
X113039580Y-65233332D01*
X113454819Y-69471904D02*
X112454819Y-69471904D01*
X113454819Y-68900476D02*
X112883390Y-69329047D01*
X112454819Y-68900476D02*
X113026247Y-69471904D01*
X200279166Y-106442319D02*
X200279166Y-107156604D01*
X200279166Y-107156604D02*
X200231547Y-107299461D01*
X200231547Y-107299461D02*
X200136309Y-107394700D01*
X200136309Y-107394700D02*
X199993452Y-107442319D01*
X199993452Y-107442319D02*
X199898214Y-107442319D01*
X201231547Y-106442319D02*
X200755357Y-106442319D01*
X200755357Y-106442319D02*
X200707738Y-106918509D01*
X200707738Y-106918509D02*
X200755357Y-106870890D01*
X200755357Y-106870890D02*
X200850595Y-106823271D01*
X200850595Y-106823271D02*
X201088690Y-106823271D01*
X201088690Y-106823271D02*
X201183928Y-106870890D01*
X201183928Y-106870890D02*
X201231547Y-106918509D01*
X201231547Y-106918509D02*
X201279166Y-107013747D01*
X201279166Y-107013747D02*
X201279166Y-107251842D01*
X201279166Y-107251842D02*
X201231547Y-107347080D01*
X201231547Y-107347080D02*
X201183928Y-107394700D01*
X201183928Y-107394700D02*
X201088690Y-107442319D01*
X201088690Y-107442319D02*
X200850595Y-107442319D01*
X200850595Y-107442319D02*
X200755357Y-107394700D01*
X200755357Y-107394700D02*
X200707738Y-107347080D01*
X179621476Y-95137200D02*
X179764333Y-95184819D01*
X179764333Y-95184819D02*
X180002428Y-95184819D01*
X180002428Y-95184819D02*
X180097666Y-95137200D01*
X180097666Y-95137200D02*
X180145285Y-95089580D01*
X180145285Y-95089580D02*
X180192904Y-94994342D01*
X180192904Y-94994342D02*
X180192904Y-94899104D01*
X180192904Y-94899104D02*
X180145285Y-94803866D01*
X180145285Y-94803866D02*
X180097666Y-94756247D01*
X180097666Y-94756247D02*
X180002428Y-94708628D01*
X180002428Y-94708628D02*
X179811952Y-94661009D01*
X179811952Y-94661009D02*
X179716714Y-94613390D01*
X179716714Y-94613390D02*
X179669095Y-94565771D01*
X179669095Y-94565771D02*
X179621476Y-94470533D01*
X179621476Y-94470533D02*
X179621476Y-94375295D01*
X179621476Y-94375295D02*
X179669095Y-94280057D01*
X179669095Y-94280057D02*
X179716714Y-94232438D01*
X179716714Y-94232438D02*
X179811952Y-94184819D01*
X179811952Y-94184819D02*
X180050047Y-94184819D01*
X180050047Y-94184819D02*
X180192904Y-94232438D01*
X180526238Y-94184819D02*
X180764333Y-95184819D01*
X180764333Y-95184819D02*
X180954809Y-94470533D01*
X180954809Y-94470533D02*
X181145285Y-95184819D01*
X181145285Y-95184819D02*
X181383381Y-94184819D01*
X182288142Y-95184819D02*
X181716714Y-95184819D01*
X182002428Y-95184819D02*
X182002428Y-94184819D01*
X182002428Y-94184819D02*
X181907190Y-94327676D01*
X181907190Y-94327676D02*
X181811952Y-94422914D01*
X181811952Y-94422914D02*
X181716714Y-94470533D01*
X182859571Y-94613390D02*
X182764333Y-94565771D01*
X182764333Y-94565771D02*
X182716714Y-94518152D01*
X182716714Y-94518152D02*
X182669095Y-94422914D01*
X182669095Y-94422914D02*
X182669095Y-94375295D01*
X182669095Y-94375295D02*
X182716714Y-94280057D01*
X182716714Y-94280057D02*
X182764333Y-94232438D01*
X182764333Y-94232438D02*
X182859571Y-94184819D01*
X182859571Y-94184819D02*
X183050047Y-94184819D01*
X183050047Y-94184819D02*
X183145285Y-94232438D01*
X183145285Y-94232438D02*
X183192904Y-94280057D01*
X183192904Y-94280057D02*
X183240523Y-94375295D01*
X183240523Y-94375295D02*
X183240523Y-94422914D01*
X183240523Y-94422914D02*
X183192904Y-94518152D01*
X183192904Y-94518152D02*
X183145285Y-94565771D01*
X183145285Y-94565771D02*
X183050047Y-94613390D01*
X183050047Y-94613390D02*
X182859571Y-94613390D01*
X182859571Y-94613390D02*
X182764333Y-94661009D01*
X182764333Y-94661009D02*
X182716714Y-94708628D01*
X182716714Y-94708628D02*
X182669095Y-94803866D01*
X182669095Y-94803866D02*
X182669095Y-94994342D01*
X182669095Y-94994342D02*
X182716714Y-95089580D01*
X182716714Y-95089580D02*
X182764333Y-95137200D01*
X182764333Y-95137200D02*
X182859571Y-95184819D01*
X182859571Y-95184819D02*
X183050047Y-95184819D01*
X183050047Y-95184819D02*
X183145285Y-95137200D01*
X183145285Y-95137200D02*
X183192904Y-95089580D01*
X183192904Y-95089580D02*
X183240523Y-94994342D01*
X183240523Y-94994342D02*
X183240523Y-94803866D01*
X183240523Y-94803866D02*
X183192904Y-94708628D01*
X183192904Y-94708628D02*
X183145285Y-94661009D01*
X183145285Y-94661009D02*
X183050047Y-94613390D01*
X75034819Y-104714285D02*
X74034819Y-104714285D01*
X74034819Y-104714285D02*
X74034819Y-104476190D01*
X74034819Y-104476190D02*
X74082438Y-104333333D01*
X74082438Y-104333333D02*
X74177676Y-104238095D01*
X74177676Y-104238095D02*
X74272914Y-104190476D01*
X74272914Y-104190476D02*
X74463390Y-104142857D01*
X74463390Y-104142857D02*
X74606247Y-104142857D01*
X74606247Y-104142857D02*
X74796723Y-104190476D01*
X74796723Y-104190476D02*
X74891961Y-104238095D01*
X74891961Y-104238095D02*
X74987200Y-104333333D01*
X74987200Y-104333333D02*
X75034819Y-104476190D01*
X75034819Y-104476190D02*
X75034819Y-104714285D01*
X75034819Y-103190476D02*
X75034819Y-103761904D01*
X75034819Y-103476190D02*
X74034819Y-103476190D01*
X74034819Y-103476190D02*
X74177676Y-103571428D01*
X74177676Y-103571428D02*
X74272914Y-103666666D01*
X74272914Y-103666666D02*
X74320533Y-103761904D01*
X74034819Y-102857142D02*
X74034819Y-102238095D01*
X74034819Y-102238095D02*
X74415771Y-102571428D01*
X74415771Y-102571428D02*
X74415771Y-102428571D01*
X74415771Y-102428571D02*
X74463390Y-102333333D01*
X74463390Y-102333333D02*
X74511009Y-102285714D01*
X74511009Y-102285714D02*
X74606247Y-102238095D01*
X74606247Y-102238095D02*
X74844342Y-102238095D01*
X74844342Y-102238095D02*
X74939580Y-102285714D01*
X74939580Y-102285714D02*
X74987200Y-102333333D01*
X74987200Y-102333333D02*
X75034819Y-102428571D01*
X75034819Y-102428571D02*
X75034819Y-102714285D01*
X75034819Y-102714285D02*
X74987200Y-102809523D01*
X74987200Y-102809523D02*
X74939580Y-102857142D01*
X75354819Y-107571904D02*
X74354819Y-107571904D01*
X75354819Y-107000476D02*
X74783390Y-107429047D01*
X74354819Y-107000476D02*
X74926247Y-107571904D01*
X75034819Y-66183094D02*
X74034819Y-66183094D01*
X74034819Y-66183094D02*
X74034819Y-65944999D01*
X74034819Y-65944999D02*
X74082438Y-65802142D01*
X74082438Y-65802142D02*
X74177676Y-65706904D01*
X74177676Y-65706904D02*
X74272914Y-65659285D01*
X74272914Y-65659285D02*
X74463390Y-65611666D01*
X74463390Y-65611666D02*
X74606247Y-65611666D01*
X74606247Y-65611666D02*
X74796723Y-65659285D01*
X74796723Y-65659285D02*
X74891961Y-65706904D01*
X74891961Y-65706904D02*
X74987200Y-65802142D01*
X74987200Y-65802142D02*
X75034819Y-65944999D01*
X75034819Y-65944999D02*
X75034819Y-66183094D01*
X75034819Y-64659285D02*
X75034819Y-65230713D01*
X75034819Y-64944999D02*
X74034819Y-64944999D01*
X74034819Y-64944999D02*
X74177676Y-65040237D01*
X74177676Y-65040237D02*
X74272914Y-65135475D01*
X74272914Y-65135475D02*
X74320533Y-65230713D01*
X75354819Y-69516904D02*
X74354819Y-69516904D01*
X75354819Y-68945476D02*
X74783390Y-69374047D01*
X74354819Y-68945476D02*
X74926247Y-69516904D01*
X160571476Y-95137200D02*
X160714333Y-95184819D01*
X160714333Y-95184819D02*
X160952428Y-95184819D01*
X160952428Y-95184819D02*
X161047666Y-95137200D01*
X161047666Y-95137200D02*
X161095285Y-95089580D01*
X161095285Y-95089580D02*
X161142904Y-94994342D01*
X161142904Y-94994342D02*
X161142904Y-94899104D01*
X161142904Y-94899104D02*
X161095285Y-94803866D01*
X161095285Y-94803866D02*
X161047666Y-94756247D01*
X161047666Y-94756247D02*
X160952428Y-94708628D01*
X160952428Y-94708628D02*
X160761952Y-94661009D01*
X160761952Y-94661009D02*
X160666714Y-94613390D01*
X160666714Y-94613390D02*
X160619095Y-94565771D01*
X160619095Y-94565771D02*
X160571476Y-94470533D01*
X160571476Y-94470533D02*
X160571476Y-94375295D01*
X160571476Y-94375295D02*
X160619095Y-94280057D01*
X160619095Y-94280057D02*
X160666714Y-94232438D01*
X160666714Y-94232438D02*
X160761952Y-94184819D01*
X160761952Y-94184819D02*
X161000047Y-94184819D01*
X161000047Y-94184819D02*
X161142904Y-94232438D01*
X161476238Y-94184819D02*
X161714333Y-95184819D01*
X161714333Y-95184819D02*
X161904809Y-94470533D01*
X161904809Y-94470533D02*
X162095285Y-95184819D01*
X162095285Y-95184819D02*
X162333381Y-94184819D01*
X163238142Y-95184819D02*
X162666714Y-95184819D01*
X162952428Y-95184819D02*
X162952428Y-94184819D01*
X162952428Y-94184819D02*
X162857190Y-94327676D01*
X162857190Y-94327676D02*
X162761952Y-94422914D01*
X162761952Y-94422914D02*
X162666714Y-94470533D01*
X163571476Y-94184819D02*
X164238142Y-94184819D01*
X164238142Y-94184819D02*
X163809571Y-95184819D01*
X107990476Y-39557200D02*
X108133333Y-39604819D01*
X108133333Y-39604819D02*
X108371428Y-39604819D01*
X108371428Y-39604819D02*
X108466666Y-39557200D01*
X108466666Y-39557200D02*
X108514285Y-39509580D01*
X108514285Y-39509580D02*
X108561904Y-39414342D01*
X108561904Y-39414342D02*
X108561904Y-39319104D01*
X108561904Y-39319104D02*
X108514285Y-39223866D01*
X108514285Y-39223866D02*
X108466666Y-39176247D01*
X108466666Y-39176247D02*
X108371428Y-39128628D01*
X108371428Y-39128628D02*
X108180952Y-39081009D01*
X108180952Y-39081009D02*
X108085714Y-39033390D01*
X108085714Y-39033390D02*
X108038095Y-38985771D01*
X108038095Y-38985771D02*
X107990476Y-38890533D01*
X107990476Y-38890533D02*
X107990476Y-38795295D01*
X107990476Y-38795295D02*
X108038095Y-38700057D01*
X108038095Y-38700057D02*
X108085714Y-38652438D01*
X108085714Y-38652438D02*
X108180952Y-38604819D01*
X108180952Y-38604819D02*
X108419047Y-38604819D01*
X108419047Y-38604819D02*
X108561904Y-38652438D01*
X108895238Y-38604819D02*
X109133333Y-39604819D01*
X109133333Y-39604819D02*
X109323809Y-38890533D01*
X109323809Y-38890533D02*
X109514285Y-39604819D01*
X109514285Y-39604819D02*
X109752381Y-38604819D01*
X110085714Y-38700057D02*
X110133333Y-38652438D01*
X110133333Y-38652438D02*
X110228571Y-38604819D01*
X110228571Y-38604819D02*
X110466666Y-38604819D01*
X110466666Y-38604819D02*
X110561904Y-38652438D01*
X110561904Y-38652438D02*
X110609523Y-38700057D01*
X110609523Y-38700057D02*
X110657142Y-38795295D01*
X110657142Y-38795295D02*
X110657142Y-38890533D01*
X110657142Y-38890533D02*
X110609523Y-39033390D01*
X110609523Y-39033390D02*
X110038095Y-39604819D01*
X110038095Y-39604819D02*
X110657142Y-39604819D01*
X111561904Y-38604819D02*
X111085714Y-38604819D01*
X111085714Y-38604819D02*
X111038095Y-39081009D01*
X111038095Y-39081009D02*
X111085714Y-39033390D01*
X111085714Y-39033390D02*
X111180952Y-38985771D01*
X111180952Y-38985771D02*
X111419047Y-38985771D01*
X111419047Y-38985771D02*
X111514285Y-39033390D01*
X111514285Y-39033390D02*
X111561904Y-39081009D01*
X111561904Y-39081009D02*
X111609523Y-39176247D01*
X111609523Y-39176247D02*
X111609523Y-39414342D01*
X111609523Y-39414342D02*
X111561904Y-39509580D01*
X111561904Y-39509580D02*
X111514285Y-39557200D01*
X111514285Y-39557200D02*
X111419047Y-39604819D01*
X111419047Y-39604819D02*
X111180952Y-39604819D01*
X111180952Y-39604819D02*
X111085714Y-39557200D01*
X111085714Y-39557200D02*
X111038095Y-39509580D01*
X179704819Y-123839285D02*
X178704819Y-123839285D01*
X178704819Y-123839285D02*
X178704819Y-123601190D01*
X178704819Y-123601190D02*
X178752438Y-123458333D01*
X178752438Y-123458333D02*
X178847676Y-123363095D01*
X178847676Y-123363095D02*
X178942914Y-123315476D01*
X178942914Y-123315476D02*
X179133390Y-123267857D01*
X179133390Y-123267857D02*
X179276247Y-123267857D01*
X179276247Y-123267857D02*
X179466723Y-123315476D01*
X179466723Y-123315476D02*
X179561961Y-123363095D01*
X179561961Y-123363095D02*
X179657200Y-123458333D01*
X179657200Y-123458333D02*
X179704819Y-123601190D01*
X179704819Y-123601190D02*
X179704819Y-123839285D01*
X178800057Y-122886904D02*
X178752438Y-122839285D01*
X178752438Y-122839285D02*
X178704819Y-122744047D01*
X178704819Y-122744047D02*
X178704819Y-122505952D01*
X178704819Y-122505952D02*
X178752438Y-122410714D01*
X178752438Y-122410714D02*
X178800057Y-122363095D01*
X178800057Y-122363095D02*
X178895295Y-122315476D01*
X178895295Y-122315476D02*
X178990533Y-122315476D01*
X178990533Y-122315476D02*
X179133390Y-122363095D01*
X179133390Y-122363095D02*
X179704819Y-122934523D01*
X179704819Y-122934523D02*
X179704819Y-122315476D01*
X179704819Y-121363095D02*
X179704819Y-121934523D01*
X179704819Y-121648809D02*
X178704819Y-121648809D01*
X178704819Y-121648809D02*
X178847676Y-121744047D01*
X178847676Y-121744047D02*
X178942914Y-121839285D01*
X178942914Y-121839285D02*
X178990533Y-121934523D01*
X180024819Y-126696904D02*
X179024819Y-126696904D01*
X180024819Y-126125476D02*
X179453390Y-126554047D01*
X179024819Y-126125476D02*
X179596247Y-126696904D01*
X170061476Y-114457200D02*
X170204333Y-114504819D01*
X170204333Y-114504819D02*
X170442428Y-114504819D01*
X170442428Y-114504819D02*
X170537666Y-114457200D01*
X170537666Y-114457200D02*
X170585285Y-114409580D01*
X170585285Y-114409580D02*
X170632904Y-114314342D01*
X170632904Y-114314342D02*
X170632904Y-114219104D01*
X170632904Y-114219104D02*
X170585285Y-114123866D01*
X170585285Y-114123866D02*
X170537666Y-114076247D01*
X170537666Y-114076247D02*
X170442428Y-114028628D01*
X170442428Y-114028628D02*
X170251952Y-113981009D01*
X170251952Y-113981009D02*
X170156714Y-113933390D01*
X170156714Y-113933390D02*
X170109095Y-113885771D01*
X170109095Y-113885771D02*
X170061476Y-113790533D01*
X170061476Y-113790533D02*
X170061476Y-113695295D01*
X170061476Y-113695295D02*
X170109095Y-113600057D01*
X170109095Y-113600057D02*
X170156714Y-113552438D01*
X170156714Y-113552438D02*
X170251952Y-113504819D01*
X170251952Y-113504819D02*
X170490047Y-113504819D01*
X170490047Y-113504819D02*
X170632904Y-113552438D01*
X170966238Y-113504819D02*
X171204333Y-114504819D01*
X171204333Y-114504819D02*
X171394809Y-113790533D01*
X171394809Y-113790533D02*
X171585285Y-114504819D01*
X171585285Y-114504819D02*
X171823381Y-113504819D01*
X172156714Y-113600057D02*
X172204333Y-113552438D01*
X172204333Y-113552438D02*
X172299571Y-113504819D01*
X172299571Y-113504819D02*
X172537666Y-113504819D01*
X172537666Y-113504819D02*
X172632904Y-113552438D01*
X172632904Y-113552438D02*
X172680523Y-113600057D01*
X172680523Y-113600057D02*
X172728142Y-113695295D01*
X172728142Y-113695295D02*
X172728142Y-113790533D01*
X172728142Y-113790533D02*
X172680523Y-113933390D01*
X172680523Y-113933390D02*
X172109095Y-114504819D01*
X172109095Y-114504819D02*
X172728142Y-114504819D01*
X173347190Y-113504819D02*
X173442428Y-113504819D01*
X173442428Y-113504819D02*
X173537666Y-113552438D01*
X173537666Y-113552438D02*
X173585285Y-113600057D01*
X173585285Y-113600057D02*
X173632904Y-113695295D01*
X173632904Y-113695295D02*
X173680523Y-113885771D01*
X173680523Y-113885771D02*
X173680523Y-114123866D01*
X173680523Y-114123866D02*
X173632904Y-114314342D01*
X173632904Y-114314342D02*
X173585285Y-114409580D01*
X173585285Y-114409580D02*
X173537666Y-114457200D01*
X173537666Y-114457200D02*
X173442428Y-114504819D01*
X173442428Y-114504819D02*
X173347190Y-114504819D01*
X173347190Y-114504819D02*
X173251952Y-114457200D01*
X173251952Y-114457200D02*
X173204333Y-114409580D01*
X173204333Y-114409580D02*
X173156714Y-114314342D01*
X173156714Y-114314342D02*
X173109095Y-114123866D01*
X173109095Y-114123866D02*
X173109095Y-113885771D01*
X173109095Y-113885771D02*
X173156714Y-113695295D01*
X173156714Y-113695295D02*
X173204333Y-113600057D01*
X173204333Y-113600057D02*
X173251952Y-113552438D01*
X173251952Y-113552438D02*
X173347190Y-113504819D01*
X84847667Y-57037200D02*
X84990524Y-57084819D01*
X84990524Y-57084819D02*
X85228619Y-57084819D01*
X85228619Y-57084819D02*
X85323857Y-57037200D01*
X85323857Y-57037200D02*
X85371476Y-56989580D01*
X85371476Y-56989580D02*
X85419095Y-56894342D01*
X85419095Y-56894342D02*
X85419095Y-56799104D01*
X85419095Y-56799104D02*
X85371476Y-56703866D01*
X85371476Y-56703866D02*
X85323857Y-56656247D01*
X85323857Y-56656247D02*
X85228619Y-56608628D01*
X85228619Y-56608628D02*
X85038143Y-56561009D01*
X85038143Y-56561009D02*
X84942905Y-56513390D01*
X84942905Y-56513390D02*
X84895286Y-56465771D01*
X84895286Y-56465771D02*
X84847667Y-56370533D01*
X84847667Y-56370533D02*
X84847667Y-56275295D01*
X84847667Y-56275295D02*
X84895286Y-56180057D01*
X84895286Y-56180057D02*
X84942905Y-56132438D01*
X84942905Y-56132438D02*
X85038143Y-56084819D01*
X85038143Y-56084819D02*
X85276238Y-56084819D01*
X85276238Y-56084819D02*
X85419095Y-56132438D01*
X85752429Y-56084819D02*
X85990524Y-57084819D01*
X85990524Y-57084819D02*
X86181000Y-56370533D01*
X86181000Y-56370533D02*
X86371476Y-57084819D01*
X86371476Y-57084819D02*
X86609572Y-56084819D01*
X87514333Y-57084819D02*
X86942905Y-57084819D01*
X87228619Y-57084819D02*
X87228619Y-56084819D01*
X87228619Y-56084819D02*
X87133381Y-56227676D01*
X87133381Y-56227676D02*
X87038143Y-56322914D01*
X87038143Y-56322914D02*
X86942905Y-56370533D01*
X146240476Y-39557200D02*
X146383333Y-39604819D01*
X146383333Y-39604819D02*
X146621428Y-39604819D01*
X146621428Y-39604819D02*
X146716666Y-39557200D01*
X146716666Y-39557200D02*
X146764285Y-39509580D01*
X146764285Y-39509580D02*
X146811904Y-39414342D01*
X146811904Y-39414342D02*
X146811904Y-39319104D01*
X146811904Y-39319104D02*
X146764285Y-39223866D01*
X146764285Y-39223866D02*
X146716666Y-39176247D01*
X146716666Y-39176247D02*
X146621428Y-39128628D01*
X146621428Y-39128628D02*
X146430952Y-39081009D01*
X146430952Y-39081009D02*
X146335714Y-39033390D01*
X146335714Y-39033390D02*
X146288095Y-38985771D01*
X146288095Y-38985771D02*
X146240476Y-38890533D01*
X146240476Y-38890533D02*
X146240476Y-38795295D01*
X146240476Y-38795295D02*
X146288095Y-38700057D01*
X146288095Y-38700057D02*
X146335714Y-38652438D01*
X146335714Y-38652438D02*
X146430952Y-38604819D01*
X146430952Y-38604819D02*
X146669047Y-38604819D01*
X146669047Y-38604819D02*
X146811904Y-38652438D01*
X147145238Y-38604819D02*
X147383333Y-39604819D01*
X147383333Y-39604819D02*
X147573809Y-38890533D01*
X147573809Y-38890533D02*
X147764285Y-39604819D01*
X147764285Y-39604819D02*
X148002381Y-38604819D01*
X148335714Y-38700057D02*
X148383333Y-38652438D01*
X148383333Y-38652438D02*
X148478571Y-38604819D01*
X148478571Y-38604819D02*
X148716666Y-38604819D01*
X148716666Y-38604819D02*
X148811904Y-38652438D01*
X148811904Y-38652438D02*
X148859523Y-38700057D01*
X148859523Y-38700057D02*
X148907142Y-38795295D01*
X148907142Y-38795295D02*
X148907142Y-38890533D01*
X148907142Y-38890533D02*
X148859523Y-39033390D01*
X148859523Y-39033390D02*
X148288095Y-39604819D01*
X148288095Y-39604819D02*
X148907142Y-39604819D01*
X149240476Y-38604819D02*
X149859523Y-38604819D01*
X149859523Y-38604819D02*
X149526190Y-38985771D01*
X149526190Y-38985771D02*
X149669047Y-38985771D01*
X149669047Y-38985771D02*
X149764285Y-39033390D01*
X149764285Y-39033390D02*
X149811904Y-39081009D01*
X149811904Y-39081009D02*
X149859523Y-39176247D01*
X149859523Y-39176247D02*
X149859523Y-39414342D01*
X149859523Y-39414342D02*
X149811904Y-39509580D01*
X149811904Y-39509580D02*
X149764285Y-39557200D01*
X149764285Y-39557200D02*
X149669047Y-39604819D01*
X149669047Y-39604819D02*
X149383333Y-39604819D01*
X149383333Y-39604819D02*
X149288095Y-39557200D01*
X149288095Y-39557200D02*
X149240476Y-39509580D01*
X160571476Y-76087200D02*
X160714333Y-76134819D01*
X160714333Y-76134819D02*
X160952428Y-76134819D01*
X160952428Y-76134819D02*
X161047666Y-76087200D01*
X161047666Y-76087200D02*
X161095285Y-76039580D01*
X161095285Y-76039580D02*
X161142904Y-75944342D01*
X161142904Y-75944342D02*
X161142904Y-75849104D01*
X161142904Y-75849104D02*
X161095285Y-75753866D01*
X161095285Y-75753866D02*
X161047666Y-75706247D01*
X161047666Y-75706247D02*
X160952428Y-75658628D01*
X160952428Y-75658628D02*
X160761952Y-75611009D01*
X160761952Y-75611009D02*
X160666714Y-75563390D01*
X160666714Y-75563390D02*
X160619095Y-75515771D01*
X160619095Y-75515771D02*
X160571476Y-75420533D01*
X160571476Y-75420533D02*
X160571476Y-75325295D01*
X160571476Y-75325295D02*
X160619095Y-75230057D01*
X160619095Y-75230057D02*
X160666714Y-75182438D01*
X160666714Y-75182438D02*
X160761952Y-75134819D01*
X160761952Y-75134819D02*
X161000047Y-75134819D01*
X161000047Y-75134819D02*
X161142904Y-75182438D01*
X161476238Y-75134819D02*
X161714333Y-76134819D01*
X161714333Y-76134819D02*
X161904809Y-75420533D01*
X161904809Y-75420533D02*
X162095285Y-76134819D01*
X162095285Y-76134819D02*
X162333381Y-75134819D01*
X163238142Y-76134819D02*
X162666714Y-76134819D01*
X162952428Y-76134819D02*
X162952428Y-75134819D01*
X162952428Y-75134819D02*
X162857190Y-75277676D01*
X162857190Y-75277676D02*
X162761952Y-75372914D01*
X162761952Y-75372914D02*
X162666714Y-75420533D01*
X164190523Y-76134819D02*
X163619095Y-76134819D01*
X163904809Y-76134819D02*
X163904809Y-75134819D01*
X163904809Y-75134819D02*
X163809571Y-75277676D01*
X163809571Y-75277676D02*
X163714333Y-75372914D01*
X163714333Y-75372914D02*
X163619095Y-75420533D01*
X151234819Y-104714285D02*
X150234819Y-104714285D01*
X150234819Y-104714285D02*
X150234819Y-104476190D01*
X150234819Y-104476190D02*
X150282438Y-104333333D01*
X150282438Y-104333333D02*
X150377676Y-104238095D01*
X150377676Y-104238095D02*
X150472914Y-104190476D01*
X150472914Y-104190476D02*
X150663390Y-104142857D01*
X150663390Y-104142857D02*
X150806247Y-104142857D01*
X150806247Y-104142857D02*
X150996723Y-104190476D01*
X150996723Y-104190476D02*
X151091961Y-104238095D01*
X151091961Y-104238095D02*
X151187200Y-104333333D01*
X151187200Y-104333333D02*
X151234819Y-104476190D01*
X151234819Y-104476190D02*
X151234819Y-104714285D01*
X151234819Y-103190476D02*
X151234819Y-103761904D01*
X151234819Y-103476190D02*
X150234819Y-103476190D01*
X150234819Y-103476190D02*
X150377676Y-103571428D01*
X150377676Y-103571428D02*
X150472914Y-103666666D01*
X150472914Y-103666666D02*
X150520533Y-103761904D01*
X150234819Y-102857142D02*
X150234819Y-102190476D01*
X150234819Y-102190476D02*
X151234819Y-102619047D01*
X151554819Y-107571904D02*
X150554819Y-107571904D01*
X151554819Y-107000476D02*
X150983390Y-107429047D01*
X150554819Y-107000476D02*
X151126247Y-107571904D01*
X151234819Y-66138094D02*
X150234819Y-66138094D01*
X150234819Y-66138094D02*
X150234819Y-65899999D01*
X150234819Y-65899999D02*
X150282438Y-65757142D01*
X150282438Y-65757142D02*
X150377676Y-65661904D01*
X150377676Y-65661904D02*
X150472914Y-65614285D01*
X150472914Y-65614285D02*
X150663390Y-65566666D01*
X150663390Y-65566666D02*
X150806247Y-65566666D01*
X150806247Y-65566666D02*
X150996723Y-65614285D01*
X150996723Y-65614285D02*
X151091961Y-65661904D01*
X151091961Y-65661904D02*
X151187200Y-65757142D01*
X151187200Y-65757142D02*
X151234819Y-65899999D01*
X151234819Y-65899999D02*
X151234819Y-66138094D01*
X150234819Y-64661904D02*
X150234819Y-65138094D01*
X150234819Y-65138094D02*
X150711009Y-65185713D01*
X150711009Y-65185713D02*
X150663390Y-65138094D01*
X150663390Y-65138094D02*
X150615771Y-65042856D01*
X150615771Y-65042856D02*
X150615771Y-64804761D01*
X150615771Y-64804761D02*
X150663390Y-64709523D01*
X150663390Y-64709523D02*
X150711009Y-64661904D01*
X150711009Y-64661904D02*
X150806247Y-64614285D01*
X150806247Y-64614285D02*
X151044342Y-64614285D01*
X151044342Y-64614285D02*
X151139580Y-64661904D01*
X151139580Y-64661904D02*
X151187200Y-64709523D01*
X151187200Y-64709523D02*
X151234819Y-64804761D01*
X151234819Y-64804761D02*
X151234819Y-65042856D01*
X151234819Y-65042856D02*
X151187200Y-65138094D01*
X151187200Y-65138094D02*
X151139580Y-65185713D01*
X151554819Y-69471904D02*
X150554819Y-69471904D01*
X151554819Y-68900476D02*
X150983390Y-69329047D01*
X150554819Y-68900476D02*
X151126247Y-69471904D01*
X141704819Y-123839285D02*
X140704819Y-123839285D01*
X140704819Y-123839285D02*
X140704819Y-123601190D01*
X140704819Y-123601190D02*
X140752438Y-123458333D01*
X140752438Y-123458333D02*
X140847676Y-123363095D01*
X140847676Y-123363095D02*
X140942914Y-123315476D01*
X140942914Y-123315476D02*
X141133390Y-123267857D01*
X141133390Y-123267857D02*
X141276247Y-123267857D01*
X141276247Y-123267857D02*
X141466723Y-123315476D01*
X141466723Y-123315476D02*
X141561961Y-123363095D01*
X141561961Y-123363095D02*
X141657200Y-123458333D01*
X141657200Y-123458333D02*
X141704819Y-123601190D01*
X141704819Y-123601190D02*
X141704819Y-123839285D01*
X141704819Y-122315476D02*
X141704819Y-122886904D01*
X141704819Y-122601190D02*
X140704819Y-122601190D01*
X140704819Y-122601190D02*
X140847676Y-122696428D01*
X140847676Y-122696428D02*
X140942914Y-122791666D01*
X140942914Y-122791666D02*
X140990533Y-122886904D01*
X141704819Y-121839285D02*
X141704819Y-121648809D01*
X141704819Y-121648809D02*
X141657200Y-121553571D01*
X141657200Y-121553571D02*
X141609580Y-121505952D01*
X141609580Y-121505952D02*
X141466723Y-121410714D01*
X141466723Y-121410714D02*
X141276247Y-121363095D01*
X141276247Y-121363095D02*
X140895295Y-121363095D01*
X140895295Y-121363095D02*
X140800057Y-121410714D01*
X140800057Y-121410714D02*
X140752438Y-121458333D01*
X140752438Y-121458333D02*
X140704819Y-121553571D01*
X140704819Y-121553571D02*
X140704819Y-121744047D01*
X140704819Y-121744047D02*
X140752438Y-121839285D01*
X140752438Y-121839285D02*
X140800057Y-121886904D01*
X140800057Y-121886904D02*
X140895295Y-121934523D01*
X140895295Y-121934523D02*
X141133390Y-121934523D01*
X141133390Y-121934523D02*
X141228628Y-121886904D01*
X141228628Y-121886904D02*
X141276247Y-121839285D01*
X141276247Y-121839285D02*
X141323866Y-121744047D01*
X141323866Y-121744047D02*
X141323866Y-121553571D01*
X141323866Y-121553571D02*
X141276247Y-121458333D01*
X141276247Y-121458333D02*
X141228628Y-121410714D01*
X141228628Y-121410714D02*
X141133390Y-121363095D01*
X142024819Y-126696904D02*
X141024819Y-126696904D01*
X142024819Y-126125476D02*
X141453390Y-126554047D01*
X141024819Y-126125476D02*
X141596247Y-126696904D01*
X122947667Y-76087200D02*
X123090524Y-76134819D01*
X123090524Y-76134819D02*
X123328619Y-76134819D01*
X123328619Y-76134819D02*
X123423857Y-76087200D01*
X123423857Y-76087200D02*
X123471476Y-76039580D01*
X123471476Y-76039580D02*
X123519095Y-75944342D01*
X123519095Y-75944342D02*
X123519095Y-75849104D01*
X123519095Y-75849104D02*
X123471476Y-75753866D01*
X123471476Y-75753866D02*
X123423857Y-75706247D01*
X123423857Y-75706247D02*
X123328619Y-75658628D01*
X123328619Y-75658628D02*
X123138143Y-75611009D01*
X123138143Y-75611009D02*
X123042905Y-75563390D01*
X123042905Y-75563390D02*
X122995286Y-75515771D01*
X122995286Y-75515771D02*
X122947667Y-75420533D01*
X122947667Y-75420533D02*
X122947667Y-75325295D01*
X122947667Y-75325295D02*
X122995286Y-75230057D01*
X122995286Y-75230057D02*
X123042905Y-75182438D01*
X123042905Y-75182438D02*
X123138143Y-75134819D01*
X123138143Y-75134819D02*
X123376238Y-75134819D01*
X123376238Y-75134819D02*
X123519095Y-75182438D01*
X123852429Y-75134819D02*
X124090524Y-76134819D01*
X124090524Y-76134819D02*
X124281000Y-75420533D01*
X124281000Y-75420533D02*
X124471476Y-76134819D01*
X124471476Y-76134819D02*
X124709572Y-75134819D01*
X125138143Y-76134819D02*
X125328619Y-76134819D01*
X125328619Y-76134819D02*
X125423857Y-76087200D01*
X125423857Y-76087200D02*
X125471476Y-76039580D01*
X125471476Y-76039580D02*
X125566714Y-75896723D01*
X125566714Y-75896723D02*
X125614333Y-75706247D01*
X125614333Y-75706247D02*
X125614333Y-75325295D01*
X125614333Y-75325295D02*
X125566714Y-75230057D01*
X125566714Y-75230057D02*
X125519095Y-75182438D01*
X125519095Y-75182438D02*
X125423857Y-75134819D01*
X125423857Y-75134819D02*
X125233381Y-75134819D01*
X125233381Y-75134819D02*
X125138143Y-75182438D01*
X125138143Y-75182438D02*
X125090524Y-75230057D01*
X125090524Y-75230057D02*
X125042905Y-75325295D01*
X125042905Y-75325295D02*
X125042905Y-75563390D01*
X125042905Y-75563390D02*
X125090524Y-75658628D01*
X125090524Y-75658628D02*
X125138143Y-75706247D01*
X125138143Y-75706247D02*
X125233381Y-75753866D01*
X125233381Y-75753866D02*
X125423857Y-75753866D01*
X125423857Y-75753866D02*
X125519095Y-75706247D01*
X125519095Y-75706247D02*
X125566714Y-75658628D01*
X125566714Y-75658628D02*
X125614333Y-75563390D01*
X141521476Y-76087200D02*
X141664333Y-76134819D01*
X141664333Y-76134819D02*
X141902428Y-76134819D01*
X141902428Y-76134819D02*
X141997666Y-76087200D01*
X141997666Y-76087200D02*
X142045285Y-76039580D01*
X142045285Y-76039580D02*
X142092904Y-75944342D01*
X142092904Y-75944342D02*
X142092904Y-75849104D01*
X142092904Y-75849104D02*
X142045285Y-75753866D01*
X142045285Y-75753866D02*
X141997666Y-75706247D01*
X141997666Y-75706247D02*
X141902428Y-75658628D01*
X141902428Y-75658628D02*
X141711952Y-75611009D01*
X141711952Y-75611009D02*
X141616714Y-75563390D01*
X141616714Y-75563390D02*
X141569095Y-75515771D01*
X141569095Y-75515771D02*
X141521476Y-75420533D01*
X141521476Y-75420533D02*
X141521476Y-75325295D01*
X141521476Y-75325295D02*
X141569095Y-75230057D01*
X141569095Y-75230057D02*
X141616714Y-75182438D01*
X141616714Y-75182438D02*
X141711952Y-75134819D01*
X141711952Y-75134819D02*
X141950047Y-75134819D01*
X141950047Y-75134819D02*
X142092904Y-75182438D01*
X142426238Y-75134819D02*
X142664333Y-76134819D01*
X142664333Y-76134819D02*
X142854809Y-75420533D01*
X142854809Y-75420533D02*
X143045285Y-76134819D01*
X143045285Y-76134819D02*
X143283381Y-75134819D01*
X144188142Y-76134819D02*
X143616714Y-76134819D01*
X143902428Y-76134819D02*
X143902428Y-75134819D01*
X143902428Y-75134819D02*
X143807190Y-75277676D01*
X143807190Y-75277676D02*
X143711952Y-75372914D01*
X143711952Y-75372914D02*
X143616714Y-75420533D01*
X144807190Y-75134819D02*
X144902428Y-75134819D01*
X144902428Y-75134819D02*
X144997666Y-75182438D01*
X144997666Y-75182438D02*
X145045285Y-75230057D01*
X145045285Y-75230057D02*
X145092904Y-75325295D01*
X145092904Y-75325295D02*
X145140523Y-75515771D01*
X145140523Y-75515771D02*
X145140523Y-75753866D01*
X145140523Y-75753866D02*
X145092904Y-75944342D01*
X145092904Y-75944342D02*
X145045285Y-76039580D01*
X145045285Y-76039580D02*
X144997666Y-76087200D01*
X144997666Y-76087200D02*
X144902428Y-76134819D01*
X144902428Y-76134819D02*
X144807190Y-76134819D01*
X144807190Y-76134819D02*
X144711952Y-76087200D01*
X144711952Y-76087200D02*
X144664333Y-76039580D01*
X144664333Y-76039580D02*
X144616714Y-75944342D01*
X144616714Y-75944342D02*
X144569095Y-75753866D01*
X144569095Y-75753866D02*
X144569095Y-75515771D01*
X144569095Y-75515771D02*
X144616714Y-75325295D01*
X144616714Y-75325295D02*
X144664333Y-75230057D01*
X144664333Y-75230057D02*
X144711952Y-75182438D01*
X144711952Y-75182438D02*
X144807190Y-75134819D01*
X151234819Y-85664285D02*
X150234819Y-85664285D01*
X150234819Y-85664285D02*
X150234819Y-85426190D01*
X150234819Y-85426190D02*
X150282438Y-85283333D01*
X150282438Y-85283333D02*
X150377676Y-85188095D01*
X150377676Y-85188095D02*
X150472914Y-85140476D01*
X150472914Y-85140476D02*
X150663390Y-85092857D01*
X150663390Y-85092857D02*
X150806247Y-85092857D01*
X150806247Y-85092857D02*
X150996723Y-85140476D01*
X150996723Y-85140476D02*
X151091961Y-85188095D01*
X151091961Y-85188095D02*
X151187200Y-85283333D01*
X151187200Y-85283333D02*
X151234819Y-85426190D01*
X151234819Y-85426190D02*
X151234819Y-85664285D01*
X151234819Y-84140476D02*
X151234819Y-84711904D01*
X151234819Y-84426190D02*
X150234819Y-84426190D01*
X150234819Y-84426190D02*
X150377676Y-84521428D01*
X150377676Y-84521428D02*
X150472914Y-84616666D01*
X150472914Y-84616666D02*
X150520533Y-84711904D01*
X151234819Y-83188095D02*
X151234819Y-83759523D01*
X151234819Y-83473809D02*
X150234819Y-83473809D01*
X150234819Y-83473809D02*
X150377676Y-83569047D01*
X150377676Y-83569047D02*
X150472914Y-83664285D01*
X150472914Y-83664285D02*
X150520533Y-83759523D01*
X151554819Y-88521904D02*
X150554819Y-88521904D01*
X151554819Y-87950476D02*
X150983390Y-88379047D01*
X150554819Y-87950476D02*
X151126247Y-88521904D01*
X122471476Y-95137200D02*
X122614333Y-95184819D01*
X122614333Y-95184819D02*
X122852428Y-95184819D01*
X122852428Y-95184819D02*
X122947666Y-95137200D01*
X122947666Y-95137200D02*
X122995285Y-95089580D01*
X122995285Y-95089580D02*
X123042904Y-94994342D01*
X123042904Y-94994342D02*
X123042904Y-94899104D01*
X123042904Y-94899104D02*
X122995285Y-94803866D01*
X122995285Y-94803866D02*
X122947666Y-94756247D01*
X122947666Y-94756247D02*
X122852428Y-94708628D01*
X122852428Y-94708628D02*
X122661952Y-94661009D01*
X122661952Y-94661009D02*
X122566714Y-94613390D01*
X122566714Y-94613390D02*
X122519095Y-94565771D01*
X122519095Y-94565771D02*
X122471476Y-94470533D01*
X122471476Y-94470533D02*
X122471476Y-94375295D01*
X122471476Y-94375295D02*
X122519095Y-94280057D01*
X122519095Y-94280057D02*
X122566714Y-94232438D01*
X122566714Y-94232438D02*
X122661952Y-94184819D01*
X122661952Y-94184819D02*
X122900047Y-94184819D01*
X122900047Y-94184819D02*
X123042904Y-94232438D01*
X123376238Y-94184819D02*
X123614333Y-95184819D01*
X123614333Y-95184819D02*
X123804809Y-94470533D01*
X123804809Y-94470533D02*
X123995285Y-95184819D01*
X123995285Y-95184819D02*
X124233381Y-94184819D01*
X125138142Y-95184819D02*
X124566714Y-95184819D01*
X124852428Y-95184819D02*
X124852428Y-94184819D01*
X124852428Y-94184819D02*
X124757190Y-94327676D01*
X124757190Y-94327676D02*
X124661952Y-94422914D01*
X124661952Y-94422914D02*
X124566714Y-94470533D01*
X126042904Y-94184819D02*
X125566714Y-94184819D01*
X125566714Y-94184819D02*
X125519095Y-94661009D01*
X125519095Y-94661009D02*
X125566714Y-94613390D01*
X125566714Y-94613390D02*
X125661952Y-94565771D01*
X125661952Y-94565771D02*
X125900047Y-94565771D01*
X125900047Y-94565771D02*
X125995285Y-94613390D01*
X125995285Y-94613390D02*
X126042904Y-94661009D01*
X126042904Y-94661009D02*
X126090523Y-94756247D01*
X126090523Y-94756247D02*
X126090523Y-94994342D01*
X126090523Y-94994342D02*
X126042904Y-95089580D01*
X126042904Y-95089580D02*
X125995285Y-95137200D01*
X125995285Y-95137200D02*
X125900047Y-95184819D01*
X125900047Y-95184819D02*
X125661952Y-95184819D01*
X125661952Y-95184819D02*
X125566714Y-95137200D01*
X125566714Y-95137200D02*
X125519095Y-95089580D01*
X132184819Y-66138094D02*
X131184819Y-66138094D01*
X131184819Y-66138094D02*
X131184819Y-65899999D01*
X131184819Y-65899999D02*
X131232438Y-65757142D01*
X131232438Y-65757142D02*
X131327676Y-65661904D01*
X131327676Y-65661904D02*
X131422914Y-65614285D01*
X131422914Y-65614285D02*
X131613390Y-65566666D01*
X131613390Y-65566666D02*
X131756247Y-65566666D01*
X131756247Y-65566666D02*
X131946723Y-65614285D01*
X131946723Y-65614285D02*
X132041961Y-65661904D01*
X132041961Y-65661904D02*
X132137200Y-65757142D01*
X132137200Y-65757142D02*
X132184819Y-65899999D01*
X132184819Y-65899999D02*
X132184819Y-66138094D01*
X131518152Y-64709523D02*
X132184819Y-64709523D01*
X131137200Y-64947618D02*
X131851485Y-65185713D01*
X131851485Y-65185713D02*
X131851485Y-64566666D01*
X132504819Y-69471904D02*
X131504819Y-69471904D01*
X132504819Y-68900476D02*
X131933390Y-69329047D01*
X131504819Y-68900476D02*
X132076247Y-69471904D01*
X161047667Y-57037200D02*
X161190524Y-57084819D01*
X161190524Y-57084819D02*
X161428619Y-57084819D01*
X161428619Y-57084819D02*
X161523857Y-57037200D01*
X161523857Y-57037200D02*
X161571476Y-56989580D01*
X161571476Y-56989580D02*
X161619095Y-56894342D01*
X161619095Y-56894342D02*
X161619095Y-56799104D01*
X161619095Y-56799104D02*
X161571476Y-56703866D01*
X161571476Y-56703866D02*
X161523857Y-56656247D01*
X161523857Y-56656247D02*
X161428619Y-56608628D01*
X161428619Y-56608628D02*
X161238143Y-56561009D01*
X161238143Y-56561009D02*
X161142905Y-56513390D01*
X161142905Y-56513390D02*
X161095286Y-56465771D01*
X161095286Y-56465771D02*
X161047667Y-56370533D01*
X161047667Y-56370533D02*
X161047667Y-56275295D01*
X161047667Y-56275295D02*
X161095286Y-56180057D01*
X161095286Y-56180057D02*
X161142905Y-56132438D01*
X161142905Y-56132438D02*
X161238143Y-56084819D01*
X161238143Y-56084819D02*
X161476238Y-56084819D01*
X161476238Y-56084819D02*
X161619095Y-56132438D01*
X161952429Y-56084819D02*
X162190524Y-57084819D01*
X162190524Y-57084819D02*
X162381000Y-56370533D01*
X162381000Y-56370533D02*
X162571476Y-57084819D01*
X162571476Y-57084819D02*
X162809572Y-56084819D01*
X163666714Y-56084819D02*
X163190524Y-56084819D01*
X163190524Y-56084819D02*
X163142905Y-56561009D01*
X163142905Y-56561009D02*
X163190524Y-56513390D01*
X163190524Y-56513390D02*
X163285762Y-56465771D01*
X163285762Y-56465771D02*
X163523857Y-56465771D01*
X163523857Y-56465771D02*
X163619095Y-56513390D01*
X163619095Y-56513390D02*
X163666714Y-56561009D01*
X163666714Y-56561009D02*
X163714333Y-56656247D01*
X163714333Y-56656247D02*
X163714333Y-56894342D01*
X163714333Y-56894342D02*
X163666714Y-56989580D01*
X163666714Y-56989580D02*
X163619095Y-57037200D01*
X163619095Y-57037200D02*
X163523857Y-57084819D01*
X163523857Y-57084819D02*
X163285762Y-57084819D01*
X163285762Y-57084819D02*
X163190524Y-57037200D01*
X163190524Y-57037200D02*
X163142905Y-56989580D01*
D11*
X201888095Y-57027419D02*
X201888095Y-57836942D01*
X201888095Y-57836942D02*
X201935714Y-57932180D01*
X201935714Y-57932180D02*
X201983333Y-57979800D01*
X201983333Y-57979800D02*
X202078571Y-58027419D01*
X202078571Y-58027419D02*
X202269047Y-58027419D01*
X202269047Y-58027419D02*
X202364285Y-57979800D01*
X202364285Y-57979800D02*
X202411904Y-57932180D01*
X202411904Y-57932180D02*
X202459523Y-57836942D01*
X202459523Y-57836942D02*
X202459523Y-57027419D01*
X203459523Y-58027419D02*
X202888095Y-58027419D01*
X203173809Y-58027419D02*
X203173809Y-57027419D01*
X203173809Y-57027419D02*
X203078571Y-57170276D01*
X203078571Y-57170276D02*
X202983333Y-57265514D01*
X202983333Y-57265514D02*
X202888095Y-57313133D01*
X196477693Y-40142419D02*
X195906265Y-40142419D01*
X196191979Y-40142419D02*
X196191979Y-39142419D01*
X196191979Y-39142419D02*
X196096741Y-39285276D01*
X196096741Y-39285276D02*
X196001503Y-39380514D01*
X196001503Y-39380514D02*
X195906265Y-39428133D01*
D10*
X75034819Y-85188094D02*
X74034819Y-85188094D01*
X74034819Y-85188094D02*
X74034819Y-84949999D01*
X74034819Y-84949999D02*
X74082438Y-84807142D01*
X74082438Y-84807142D02*
X74177676Y-84711904D01*
X74177676Y-84711904D02*
X74272914Y-84664285D01*
X74272914Y-84664285D02*
X74463390Y-84616666D01*
X74463390Y-84616666D02*
X74606247Y-84616666D01*
X74606247Y-84616666D02*
X74796723Y-84664285D01*
X74796723Y-84664285D02*
X74891961Y-84711904D01*
X74891961Y-84711904D02*
X74987200Y-84807142D01*
X74987200Y-84807142D02*
X75034819Y-84949999D01*
X75034819Y-84949999D02*
X75034819Y-85188094D01*
X74034819Y-84283332D02*
X74034819Y-83616666D01*
X74034819Y-83616666D02*
X75034819Y-84045237D01*
X75354819Y-88521904D02*
X74354819Y-88521904D01*
X75354819Y-87950476D02*
X74783390Y-88379047D01*
X74354819Y-87950476D02*
X74926247Y-88521904D01*
X84371476Y-95137200D02*
X84514333Y-95184819D01*
X84514333Y-95184819D02*
X84752428Y-95184819D01*
X84752428Y-95184819D02*
X84847666Y-95137200D01*
X84847666Y-95137200D02*
X84895285Y-95089580D01*
X84895285Y-95089580D02*
X84942904Y-94994342D01*
X84942904Y-94994342D02*
X84942904Y-94899104D01*
X84942904Y-94899104D02*
X84895285Y-94803866D01*
X84895285Y-94803866D02*
X84847666Y-94756247D01*
X84847666Y-94756247D02*
X84752428Y-94708628D01*
X84752428Y-94708628D02*
X84561952Y-94661009D01*
X84561952Y-94661009D02*
X84466714Y-94613390D01*
X84466714Y-94613390D02*
X84419095Y-94565771D01*
X84419095Y-94565771D02*
X84371476Y-94470533D01*
X84371476Y-94470533D02*
X84371476Y-94375295D01*
X84371476Y-94375295D02*
X84419095Y-94280057D01*
X84419095Y-94280057D02*
X84466714Y-94232438D01*
X84466714Y-94232438D02*
X84561952Y-94184819D01*
X84561952Y-94184819D02*
X84800047Y-94184819D01*
X84800047Y-94184819D02*
X84942904Y-94232438D01*
X85276238Y-94184819D02*
X85514333Y-95184819D01*
X85514333Y-95184819D02*
X85704809Y-94470533D01*
X85704809Y-94470533D02*
X85895285Y-95184819D01*
X85895285Y-95184819D02*
X86133381Y-94184819D01*
X87038142Y-95184819D02*
X86466714Y-95184819D01*
X86752428Y-95184819D02*
X86752428Y-94184819D01*
X86752428Y-94184819D02*
X86657190Y-94327676D01*
X86657190Y-94327676D02*
X86561952Y-94422914D01*
X86561952Y-94422914D02*
X86466714Y-94470533D01*
X87371476Y-94184819D02*
X87990523Y-94184819D01*
X87990523Y-94184819D02*
X87657190Y-94565771D01*
X87657190Y-94565771D02*
X87800047Y-94565771D01*
X87800047Y-94565771D02*
X87895285Y-94613390D01*
X87895285Y-94613390D02*
X87942904Y-94661009D01*
X87942904Y-94661009D02*
X87990523Y-94756247D01*
X87990523Y-94756247D02*
X87990523Y-94994342D01*
X87990523Y-94994342D02*
X87942904Y-95089580D01*
X87942904Y-95089580D02*
X87895285Y-95137200D01*
X87895285Y-95137200D02*
X87800047Y-95184819D01*
X87800047Y-95184819D02*
X87514333Y-95184819D01*
X87514333Y-95184819D02*
X87419095Y-95137200D01*
X87419095Y-95137200D02*
X87371476Y-95089580D01*
X170284819Y-104714285D02*
X169284819Y-104714285D01*
X169284819Y-104714285D02*
X169284819Y-104476190D01*
X169284819Y-104476190D02*
X169332438Y-104333333D01*
X169332438Y-104333333D02*
X169427676Y-104238095D01*
X169427676Y-104238095D02*
X169522914Y-104190476D01*
X169522914Y-104190476D02*
X169713390Y-104142857D01*
X169713390Y-104142857D02*
X169856247Y-104142857D01*
X169856247Y-104142857D02*
X170046723Y-104190476D01*
X170046723Y-104190476D02*
X170141961Y-104238095D01*
X170141961Y-104238095D02*
X170237200Y-104333333D01*
X170237200Y-104333333D02*
X170284819Y-104476190D01*
X170284819Y-104476190D02*
X170284819Y-104714285D01*
X170284819Y-103190476D02*
X170284819Y-103761904D01*
X170284819Y-103476190D02*
X169284819Y-103476190D01*
X169284819Y-103476190D02*
X169427676Y-103571428D01*
X169427676Y-103571428D02*
X169522914Y-103666666D01*
X169522914Y-103666666D02*
X169570533Y-103761904D01*
X169713390Y-102619047D02*
X169665771Y-102714285D01*
X169665771Y-102714285D02*
X169618152Y-102761904D01*
X169618152Y-102761904D02*
X169522914Y-102809523D01*
X169522914Y-102809523D02*
X169475295Y-102809523D01*
X169475295Y-102809523D02*
X169380057Y-102761904D01*
X169380057Y-102761904D02*
X169332438Y-102714285D01*
X169332438Y-102714285D02*
X169284819Y-102619047D01*
X169284819Y-102619047D02*
X169284819Y-102428571D01*
X169284819Y-102428571D02*
X169332438Y-102333333D01*
X169332438Y-102333333D02*
X169380057Y-102285714D01*
X169380057Y-102285714D02*
X169475295Y-102238095D01*
X169475295Y-102238095D02*
X169522914Y-102238095D01*
X169522914Y-102238095D02*
X169618152Y-102285714D01*
X169618152Y-102285714D02*
X169665771Y-102333333D01*
X169665771Y-102333333D02*
X169713390Y-102428571D01*
X169713390Y-102428571D02*
X169713390Y-102619047D01*
X169713390Y-102619047D02*
X169761009Y-102714285D01*
X169761009Y-102714285D02*
X169808628Y-102761904D01*
X169808628Y-102761904D02*
X169903866Y-102809523D01*
X169903866Y-102809523D02*
X170094342Y-102809523D01*
X170094342Y-102809523D02*
X170189580Y-102761904D01*
X170189580Y-102761904D02*
X170237200Y-102714285D01*
X170237200Y-102714285D02*
X170284819Y-102619047D01*
X170284819Y-102619047D02*
X170284819Y-102428571D01*
X170284819Y-102428571D02*
X170237200Y-102333333D01*
X170237200Y-102333333D02*
X170189580Y-102285714D01*
X170189580Y-102285714D02*
X170094342Y-102238095D01*
X170094342Y-102238095D02*
X169903866Y-102238095D01*
X169903866Y-102238095D02*
X169808628Y-102285714D01*
X169808628Y-102285714D02*
X169761009Y-102333333D01*
X169761009Y-102333333D02*
X169713390Y-102428571D01*
X170604819Y-107571904D02*
X169604819Y-107571904D01*
X170604819Y-107000476D02*
X170033390Y-107429047D01*
X169604819Y-107000476D02*
X170176247Y-107571904D01*
X113134819Y-104714285D02*
X112134819Y-104714285D01*
X112134819Y-104714285D02*
X112134819Y-104476190D01*
X112134819Y-104476190D02*
X112182438Y-104333333D01*
X112182438Y-104333333D02*
X112277676Y-104238095D01*
X112277676Y-104238095D02*
X112372914Y-104190476D01*
X112372914Y-104190476D02*
X112563390Y-104142857D01*
X112563390Y-104142857D02*
X112706247Y-104142857D01*
X112706247Y-104142857D02*
X112896723Y-104190476D01*
X112896723Y-104190476D02*
X112991961Y-104238095D01*
X112991961Y-104238095D02*
X113087200Y-104333333D01*
X113087200Y-104333333D02*
X113134819Y-104476190D01*
X113134819Y-104476190D02*
X113134819Y-104714285D01*
X113134819Y-103190476D02*
X113134819Y-103761904D01*
X113134819Y-103476190D02*
X112134819Y-103476190D01*
X112134819Y-103476190D02*
X112277676Y-103571428D01*
X112277676Y-103571428D02*
X112372914Y-103666666D01*
X112372914Y-103666666D02*
X112420533Y-103761904D01*
X112134819Y-102285714D02*
X112134819Y-102761904D01*
X112134819Y-102761904D02*
X112611009Y-102809523D01*
X112611009Y-102809523D02*
X112563390Y-102761904D01*
X112563390Y-102761904D02*
X112515771Y-102666666D01*
X112515771Y-102666666D02*
X112515771Y-102428571D01*
X112515771Y-102428571D02*
X112563390Y-102333333D01*
X112563390Y-102333333D02*
X112611009Y-102285714D01*
X112611009Y-102285714D02*
X112706247Y-102238095D01*
X112706247Y-102238095D02*
X112944342Y-102238095D01*
X112944342Y-102238095D02*
X113039580Y-102285714D01*
X113039580Y-102285714D02*
X113087200Y-102333333D01*
X113087200Y-102333333D02*
X113134819Y-102428571D01*
X113134819Y-102428571D02*
X113134819Y-102666666D01*
X113134819Y-102666666D02*
X113087200Y-102761904D01*
X113087200Y-102761904D02*
X113039580Y-102809523D01*
X113454819Y-107571904D02*
X112454819Y-107571904D01*
X113454819Y-107000476D02*
X112883390Y-107429047D01*
X112454819Y-107000476D02*
X113026247Y-107571904D01*
X126990476Y-39557200D02*
X127133333Y-39604819D01*
X127133333Y-39604819D02*
X127371428Y-39604819D01*
X127371428Y-39604819D02*
X127466666Y-39557200D01*
X127466666Y-39557200D02*
X127514285Y-39509580D01*
X127514285Y-39509580D02*
X127561904Y-39414342D01*
X127561904Y-39414342D02*
X127561904Y-39319104D01*
X127561904Y-39319104D02*
X127514285Y-39223866D01*
X127514285Y-39223866D02*
X127466666Y-39176247D01*
X127466666Y-39176247D02*
X127371428Y-39128628D01*
X127371428Y-39128628D02*
X127180952Y-39081009D01*
X127180952Y-39081009D02*
X127085714Y-39033390D01*
X127085714Y-39033390D02*
X127038095Y-38985771D01*
X127038095Y-38985771D02*
X126990476Y-38890533D01*
X126990476Y-38890533D02*
X126990476Y-38795295D01*
X126990476Y-38795295D02*
X127038095Y-38700057D01*
X127038095Y-38700057D02*
X127085714Y-38652438D01*
X127085714Y-38652438D02*
X127180952Y-38604819D01*
X127180952Y-38604819D02*
X127419047Y-38604819D01*
X127419047Y-38604819D02*
X127561904Y-38652438D01*
X127895238Y-38604819D02*
X128133333Y-39604819D01*
X128133333Y-39604819D02*
X128323809Y-38890533D01*
X128323809Y-38890533D02*
X128514285Y-39604819D01*
X128514285Y-39604819D02*
X128752381Y-38604819D01*
X129085714Y-38700057D02*
X129133333Y-38652438D01*
X129133333Y-38652438D02*
X129228571Y-38604819D01*
X129228571Y-38604819D02*
X129466666Y-38604819D01*
X129466666Y-38604819D02*
X129561904Y-38652438D01*
X129561904Y-38652438D02*
X129609523Y-38700057D01*
X129609523Y-38700057D02*
X129657142Y-38795295D01*
X129657142Y-38795295D02*
X129657142Y-38890533D01*
X129657142Y-38890533D02*
X129609523Y-39033390D01*
X129609523Y-39033390D02*
X129038095Y-39604819D01*
X129038095Y-39604819D02*
X129657142Y-39604819D01*
X130514285Y-38938152D02*
X130514285Y-39604819D01*
X130276190Y-38557200D02*
X130038095Y-39271485D01*
X130038095Y-39271485D02*
X130657142Y-39271485D01*
X103897667Y-57037200D02*
X104040524Y-57084819D01*
X104040524Y-57084819D02*
X104278619Y-57084819D01*
X104278619Y-57084819D02*
X104373857Y-57037200D01*
X104373857Y-57037200D02*
X104421476Y-56989580D01*
X104421476Y-56989580D02*
X104469095Y-56894342D01*
X104469095Y-56894342D02*
X104469095Y-56799104D01*
X104469095Y-56799104D02*
X104421476Y-56703866D01*
X104421476Y-56703866D02*
X104373857Y-56656247D01*
X104373857Y-56656247D02*
X104278619Y-56608628D01*
X104278619Y-56608628D02*
X104088143Y-56561009D01*
X104088143Y-56561009D02*
X103992905Y-56513390D01*
X103992905Y-56513390D02*
X103945286Y-56465771D01*
X103945286Y-56465771D02*
X103897667Y-56370533D01*
X103897667Y-56370533D02*
X103897667Y-56275295D01*
X103897667Y-56275295D02*
X103945286Y-56180057D01*
X103945286Y-56180057D02*
X103992905Y-56132438D01*
X103992905Y-56132438D02*
X104088143Y-56084819D01*
X104088143Y-56084819D02*
X104326238Y-56084819D01*
X104326238Y-56084819D02*
X104469095Y-56132438D01*
X104802429Y-56084819D02*
X105040524Y-57084819D01*
X105040524Y-57084819D02*
X105231000Y-56370533D01*
X105231000Y-56370533D02*
X105421476Y-57084819D01*
X105421476Y-57084819D02*
X105659572Y-56084819D01*
X105992905Y-56180057D02*
X106040524Y-56132438D01*
X106040524Y-56132438D02*
X106135762Y-56084819D01*
X106135762Y-56084819D02*
X106373857Y-56084819D01*
X106373857Y-56084819D02*
X106469095Y-56132438D01*
X106469095Y-56132438D02*
X106516714Y-56180057D01*
X106516714Y-56180057D02*
X106564333Y-56275295D01*
X106564333Y-56275295D02*
X106564333Y-56370533D01*
X106564333Y-56370533D02*
X106516714Y-56513390D01*
X106516714Y-56513390D02*
X105945286Y-57084819D01*
X105945286Y-57084819D02*
X106564333Y-57084819D01*
X182246619Y-45833333D02*
X182960904Y-45833333D01*
X182960904Y-45833333D02*
X183103761Y-45880952D01*
X183103761Y-45880952D02*
X183199000Y-45976190D01*
X183199000Y-45976190D02*
X183246619Y-46119047D01*
X183246619Y-46119047D02*
X183246619Y-46214285D01*
X182579952Y-44928571D02*
X183246619Y-44928571D01*
X182199000Y-45166666D02*
X182913285Y-45404761D01*
X182913285Y-45404761D02*
X182913285Y-44785714D01*
X89240476Y-39557200D02*
X89383333Y-39604819D01*
X89383333Y-39604819D02*
X89621428Y-39604819D01*
X89621428Y-39604819D02*
X89716666Y-39557200D01*
X89716666Y-39557200D02*
X89764285Y-39509580D01*
X89764285Y-39509580D02*
X89811904Y-39414342D01*
X89811904Y-39414342D02*
X89811904Y-39319104D01*
X89811904Y-39319104D02*
X89764285Y-39223866D01*
X89764285Y-39223866D02*
X89716666Y-39176247D01*
X89716666Y-39176247D02*
X89621428Y-39128628D01*
X89621428Y-39128628D02*
X89430952Y-39081009D01*
X89430952Y-39081009D02*
X89335714Y-39033390D01*
X89335714Y-39033390D02*
X89288095Y-38985771D01*
X89288095Y-38985771D02*
X89240476Y-38890533D01*
X89240476Y-38890533D02*
X89240476Y-38795295D01*
X89240476Y-38795295D02*
X89288095Y-38700057D01*
X89288095Y-38700057D02*
X89335714Y-38652438D01*
X89335714Y-38652438D02*
X89430952Y-38604819D01*
X89430952Y-38604819D02*
X89669047Y-38604819D01*
X89669047Y-38604819D02*
X89811904Y-38652438D01*
X90145238Y-38604819D02*
X90383333Y-39604819D01*
X90383333Y-39604819D02*
X90573809Y-38890533D01*
X90573809Y-38890533D02*
X90764285Y-39604819D01*
X90764285Y-39604819D02*
X91002381Y-38604819D01*
X91335714Y-38700057D02*
X91383333Y-38652438D01*
X91383333Y-38652438D02*
X91478571Y-38604819D01*
X91478571Y-38604819D02*
X91716666Y-38604819D01*
X91716666Y-38604819D02*
X91811904Y-38652438D01*
X91811904Y-38652438D02*
X91859523Y-38700057D01*
X91859523Y-38700057D02*
X91907142Y-38795295D01*
X91907142Y-38795295D02*
X91907142Y-38890533D01*
X91907142Y-38890533D02*
X91859523Y-39033390D01*
X91859523Y-39033390D02*
X91288095Y-39604819D01*
X91288095Y-39604819D02*
X91907142Y-39604819D01*
X92764285Y-38604819D02*
X92573809Y-38604819D01*
X92573809Y-38604819D02*
X92478571Y-38652438D01*
X92478571Y-38652438D02*
X92430952Y-38700057D01*
X92430952Y-38700057D02*
X92335714Y-38842914D01*
X92335714Y-38842914D02*
X92288095Y-39033390D01*
X92288095Y-39033390D02*
X92288095Y-39414342D01*
X92288095Y-39414342D02*
X92335714Y-39509580D01*
X92335714Y-39509580D02*
X92383333Y-39557200D01*
X92383333Y-39557200D02*
X92478571Y-39604819D01*
X92478571Y-39604819D02*
X92669047Y-39604819D01*
X92669047Y-39604819D02*
X92764285Y-39557200D01*
X92764285Y-39557200D02*
X92811904Y-39509580D01*
X92811904Y-39509580D02*
X92859523Y-39414342D01*
X92859523Y-39414342D02*
X92859523Y-39176247D01*
X92859523Y-39176247D02*
X92811904Y-39081009D01*
X92811904Y-39081009D02*
X92764285Y-39033390D01*
X92764285Y-39033390D02*
X92669047Y-38985771D01*
X92669047Y-38985771D02*
X92478571Y-38985771D01*
X92478571Y-38985771D02*
X92383333Y-39033390D01*
X92383333Y-39033390D02*
X92335714Y-39081009D01*
X92335714Y-39081009D02*
X92288095Y-39176247D01*
X94084819Y-85188094D02*
X93084819Y-85188094D01*
X93084819Y-85188094D02*
X93084819Y-84949999D01*
X93084819Y-84949999D02*
X93132438Y-84807142D01*
X93132438Y-84807142D02*
X93227676Y-84711904D01*
X93227676Y-84711904D02*
X93322914Y-84664285D01*
X93322914Y-84664285D02*
X93513390Y-84616666D01*
X93513390Y-84616666D02*
X93656247Y-84616666D01*
X93656247Y-84616666D02*
X93846723Y-84664285D01*
X93846723Y-84664285D02*
X93941961Y-84711904D01*
X93941961Y-84711904D02*
X94037200Y-84807142D01*
X94037200Y-84807142D02*
X94084819Y-84949999D01*
X94084819Y-84949999D02*
X94084819Y-85188094D01*
X93513390Y-84045237D02*
X93465771Y-84140475D01*
X93465771Y-84140475D02*
X93418152Y-84188094D01*
X93418152Y-84188094D02*
X93322914Y-84235713D01*
X93322914Y-84235713D02*
X93275295Y-84235713D01*
X93275295Y-84235713D02*
X93180057Y-84188094D01*
X93180057Y-84188094D02*
X93132438Y-84140475D01*
X93132438Y-84140475D02*
X93084819Y-84045237D01*
X93084819Y-84045237D02*
X93084819Y-83854761D01*
X93084819Y-83854761D02*
X93132438Y-83759523D01*
X93132438Y-83759523D02*
X93180057Y-83711904D01*
X93180057Y-83711904D02*
X93275295Y-83664285D01*
X93275295Y-83664285D02*
X93322914Y-83664285D01*
X93322914Y-83664285D02*
X93418152Y-83711904D01*
X93418152Y-83711904D02*
X93465771Y-83759523D01*
X93465771Y-83759523D02*
X93513390Y-83854761D01*
X93513390Y-83854761D02*
X93513390Y-84045237D01*
X93513390Y-84045237D02*
X93561009Y-84140475D01*
X93561009Y-84140475D02*
X93608628Y-84188094D01*
X93608628Y-84188094D02*
X93703866Y-84235713D01*
X93703866Y-84235713D02*
X93894342Y-84235713D01*
X93894342Y-84235713D02*
X93989580Y-84188094D01*
X93989580Y-84188094D02*
X94037200Y-84140475D01*
X94037200Y-84140475D02*
X94084819Y-84045237D01*
X94084819Y-84045237D02*
X94084819Y-83854761D01*
X94084819Y-83854761D02*
X94037200Y-83759523D01*
X94037200Y-83759523D02*
X93989580Y-83711904D01*
X93989580Y-83711904D02*
X93894342Y-83664285D01*
X93894342Y-83664285D02*
X93703866Y-83664285D01*
X93703866Y-83664285D02*
X93608628Y-83711904D01*
X93608628Y-83711904D02*
X93561009Y-83759523D01*
X93561009Y-83759523D02*
X93513390Y-83854761D01*
X94404819Y-88521904D02*
X93404819Y-88521904D01*
X94404819Y-87950476D02*
X93833390Y-88379047D01*
X93404819Y-87950476D02*
X93976247Y-88521904D01*
X165240476Y-39557200D02*
X165383333Y-39604819D01*
X165383333Y-39604819D02*
X165621428Y-39604819D01*
X165621428Y-39604819D02*
X165716666Y-39557200D01*
X165716666Y-39557200D02*
X165764285Y-39509580D01*
X165764285Y-39509580D02*
X165811904Y-39414342D01*
X165811904Y-39414342D02*
X165811904Y-39319104D01*
X165811904Y-39319104D02*
X165764285Y-39223866D01*
X165764285Y-39223866D02*
X165716666Y-39176247D01*
X165716666Y-39176247D02*
X165621428Y-39128628D01*
X165621428Y-39128628D02*
X165430952Y-39081009D01*
X165430952Y-39081009D02*
X165335714Y-39033390D01*
X165335714Y-39033390D02*
X165288095Y-38985771D01*
X165288095Y-38985771D02*
X165240476Y-38890533D01*
X165240476Y-38890533D02*
X165240476Y-38795295D01*
X165240476Y-38795295D02*
X165288095Y-38700057D01*
X165288095Y-38700057D02*
X165335714Y-38652438D01*
X165335714Y-38652438D02*
X165430952Y-38604819D01*
X165430952Y-38604819D02*
X165669047Y-38604819D01*
X165669047Y-38604819D02*
X165811904Y-38652438D01*
X166145238Y-38604819D02*
X166383333Y-39604819D01*
X166383333Y-39604819D02*
X166573809Y-38890533D01*
X166573809Y-38890533D02*
X166764285Y-39604819D01*
X166764285Y-39604819D02*
X167002381Y-38604819D01*
X167335714Y-38700057D02*
X167383333Y-38652438D01*
X167383333Y-38652438D02*
X167478571Y-38604819D01*
X167478571Y-38604819D02*
X167716666Y-38604819D01*
X167716666Y-38604819D02*
X167811904Y-38652438D01*
X167811904Y-38652438D02*
X167859523Y-38700057D01*
X167859523Y-38700057D02*
X167907142Y-38795295D01*
X167907142Y-38795295D02*
X167907142Y-38890533D01*
X167907142Y-38890533D02*
X167859523Y-39033390D01*
X167859523Y-39033390D02*
X167288095Y-39604819D01*
X167288095Y-39604819D02*
X167907142Y-39604819D01*
X168240476Y-38604819D02*
X168907142Y-38604819D01*
X168907142Y-38604819D02*
X168478571Y-39604819D01*
X94204819Y-66238094D02*
X93204819Y-66238094D01*
X93204819Y-66238094D02*
X93204819Y-65999999D01*
X93204819Y-65999999D02*
X93252438Y-65857142D01*
X93252438Y-65857142D02*
X93347676Y-65761904D01*
X93347676Y-65761904D02*
X93442914Y-65714285D01*
X93442914Y-65714285D02*
X93633390Y-65666666D01*
X93633390Y-65666666D02*
X93776247Y-65666666D01*
X93776247Y-65666666D02*
X93966723Y-65714285D01*
X93966723Y-65714285D02*
X94061961Y-65761904D01*
X94061961Y-65761904D02*
X94157200Y-65857142D01*
X94157200Y-65857142D02*
X94204819Y-65999999D01*
X94204819Y-65999999D02*
X94204819Y-66238094D01*
X93300057Y-65285713D02*
X93252438Y-65238094D01*
X93252438Y-65238094D02*
X93204819Y-65142856D01*
X93204819Y-65142856D02*
X93204819Y-64904761D01*
X93204819Y-64904761D02*
X93252438Y-64809523D01*
X93252438Y-64809523D02*
X93300057Y-64761904D01*
X93300057Y-64761904D02*
X93395295Y-64714285D01*
X93395295Y-64714285D02*
X93490533Y-64714285D01*
X93490533Y-64714285D02*
X93633390Y-64761904D01*
X93633390Y-64761904D02*
X94204819Y-65333332D01*
X94204819Y-65333332D02*
X94204819Y-64714285D01*
X94355819Y-69571904D02*
X93355819Y-69571904D01*
X94355819Y-69000476D02*
X93784390Y-69429047D01*
X93355819Y-69000476D02*
X93927247Y-69571904D01*
X122947667Y-57037200D02*
X123090524Y-57084819D01*
X123090524Y-57084819D02*
X123328619Y-57084819D01*
X123328619Y-57084819D02*
X123423857Y-57037200D01*
X123423857Y-57037200D02*
X123471476Y-56989580D01*
X123471476Y-56989580D02*
X123519095Y-56894342D01*
X123519095Y-56894342D02*
X123519095Y-56799104D01*
X123519095Y-56799104D02*
X123471476Y-56703866D01*
X123471476Y-56703866D02*
X123423857Y-56656247D01*
X123423857Y-56656247D02*
X123328619Y-56608628D01*
X123328619Y-56608628D02*
X123138143Y-56561009D01*
X123138143Y-56561009D02*
X123042905Y-56513390D01*
X123042905Y-56513390D02*
X122995286Y-56465771D01*
X122995286Y-56465771D02*
X122947667Y-56370533D01*
X122947667Y-56370533D02*
X122947667Y-56275295D01*
X122947667Y-56275295D02*
X122995286Y-56180057D01*
X122995286Y-56180057D02*
X123042905Y-56132438D01*
X123042905Y-56132438D02*
X123138143Y-56084819D01*
X123138143Y-56084819D02*
X123376238Y-56084819D01*
X123376238Y-56084819D02*
X123519095Y-56132438D01*
X123852429Y-56084819D02*
X124090524Y-57084819D01*
X124090524Y-57084819D02*
X124281000Y-56370533D01*
X124281000Y-56370533D02*
X124471476Y-57084819D01*
X124471476Y-57084819D02*
X124709572Y-56084819D01*
X124995286Y-56084819D02*
X125614333Y-56084819D01*
X125614333Y-56084819D02*
X125281000Y-56465771D01*
X125281000Y-56465771D02*
X125423857Y-56465771D01*
X125423857Y-56465771D02*
X125519095Y-56513390D01*
X125519095Y-56513390D02*
X125566714Y-56561009D01*
X125566714Y-56561009D02*
X125614333Y-56656247D01*
X125614333Y-56656247D02*
X125614333Y-56894342D01*
X125614333Y-56894342D02*
X125566714Y-56989580D01*
X125566714Y-56989580D02*
X125519095Y-57037200D01*
X125519095Y-57037200D02*
X125423857Y-57084819D01*
X125423857Y-57084819D02*
X125138143Y-57084819D01*
X125138143Y-57084819D02*
X125042905Y-57037200D01*
X125042905Y-57037200D02*
X124995286Y-56989580D01*
X141997667Y-57037200D02*
X142140524Y-57084819D01*
X142140524Y-57084819D02*
X142378619Y-57084819D01*
X142378619Y-57084819D02*
X142473857Y-57037200D01*
X142473857Y-57037200D02*
X142521476Y-56989580D01*
X142521476Y-56989580D02*
X142569095Y-56894342D01*
X142569095Y-56894342D02*
X142569095Y-56799104D01*
X142569095Y-56799104D02*
X142521476Y-56703866D01*
X142521476Y-56703866D02*
X142473857Y-56656247D01*
X142473857Y-56656247D02*
X142378619Y-56608628D01*
X142378619Y-56608628D02*
X142188143Y-56561009D01*
X142188143Y-56561009D02*
X142092905Y-56513390D01*
X142092905Y-56513390D02*
X142045286Y-56465771D01*
X142045286Y-56465771D02*
X141997667Y-56370533D01*
X141997667Y-56370533D02*
X141997667Y-56275295D01*
X141997667Y-56275295D02*
X142045286Y-56180057D01*
X142045286Y-56180057D02*
X142092905Y-56132438D01*
X142092905Y-56132438D02*
X142188143Y-56084819D01*
X142188143Y-56084819D02*
X142426238Y-56084819D01*
X142426238Y-56084819D02*
X142569095Y-56132438D01*
X142902429Y-56084819D02*
X143140524Y-57084819D01*
X143140524Y-57084819D02*
X143331000Y-56370533D01*
X143331000Y-56370533D02*
X143521476Y-57084819D01*
X143521476Y-57084819D02*
X143759572Y-56084819D01*
X144569095Y-56418152D02*
X144569095Y-57084819D01*
X144331000Y-56037200D02*
X144092905Y-56751485D01*
X144092905Y-56751485D02*
X144711952Y-56751485D01*
X180097667Y-57037200D02*
X180240524Y-57084819D01*
X180240524Y-57084819D02*
X180478619Y-57084819D01*
X180478619Y-57084819D02*
X180573857Y-57037200D01*
X180573857Y-57037200D02*
X180621476Y-56989580D01*
X180621476Y-56989580D02*
X180669095Y-56894342D01*
X180669095Y-56894342D02*
X180669095Y-56799104D01*
X180669095Y-56799104D02*
X180621476Y-56703866D01*
X180621476Y-56703866D02*
X180573857Y-56656247D01*
X180573857Y-56656247D02*
X180478619Y-56608628D01*
X180478619Y-56608628D02*
X180288143Y-56561009D01*
X180288143Y-56561009D02*
X180192905Y-56513390D01*
X180192905Y-56513390D02*
X180145286Y-56465771D01*
X180145286Y-56465771D02*
X180097667Y-56370533D01*
X180097667Y-56370533D02*
X180097667Y-56275295D01*
X180097667Y-56275295D02*
X180145286Y-56180057D01*
X180145286Y-56180057D02*
X180192905Y-56132438D01*
X180192905Y-56132438D02*
X180288143Y-56084819D01*
X180288143Y-56084819D02*
X180526238Y-56084819D01*
X180526238Y-56084819D02*
X180669095Y-56132438D01*
X181002429Y-56084819D02*
X181240524Y-57084819D01*
X181240524Y-57084819D02*
X181431000Y-56370533D01*
X181431000Y-56370533D02*
X181621476Y-57084819D01*
X181621476Y-57084819D02*
X181859572Y-56084819D01*
X182669095Y-56084819D02*
X182478619Y-56084819D01*
X182478619Y-56084819D02*
X182383381Y-56132438D01*
X182383381Y-56132438D02*
X182335762Y-56180057D01*
X182335762Y-56180057D02*
X182240524Y-56322914D01*
X182240524Y-56322914D02*
X182192905Y-56513390D01*
X182192905Y-56513390D02*
X182192905Y-56894342D01*
X182192905Y-56894342D02*
X182240524Y-56989580D01*
X182240524Y-56989580D02*
X182288143Y-57037200D01*
X182288143Y-57037200D02*
X182383381Y-57084819D01*
X182383381Y-57084819D02*
X182573857Y-57084819D01*
X182573857Y-57084819D02*
X182669095Y-57037200D01*
X182669095Y-57037200D02*
X182716714Y-56989580D01*
X182716714Y-56989580D02*
X182764333Y-56894342D01*
X182764333Y-56894342D02*
X182764333Y-56656247D01*
X182764333Y-56656247D02*
X182716714Y-56561009D01*
X182716714Y-56561009D02*
X182669095Y-56513390D01*
X182669095Y-56513390D02*
X182573857Y-56465771D01*
X182573857Y-56465771D02*
X182383381Y-56465771D01*
X182383381Y-56465771D02*
X182288143Y-56513390D01*
X182288143Y-56513390D02*
X182240524Y-56561009D01*
X182240524Y-56561009D02*
X182192905Y-56656247D01*
X103897667Y-76087200D02*
X104040524Y-76134819D01*
X104040524Y-76134819D02*
X104278619Y-76134819D01*
X104278619Y-76134819D02*
X104373857Y-76087200D01*
X104373857Y-76087200D02*
X104421476Y-76039580D01*
X104421476Y-76039580D02*
X104469095Y-75944342D01*
X104469095Y-75944342D02*
X104469095Y-75849104D01*
X104469095Y-75849104D02*
X104421476Y-75753866D01*
X104421476Y-75753866D02*
X104373857Y-75706247D01*
X104373857Y-75706247D02*
X104278619Y-75658628D01*
X104278619Y-75658628D02*
X104088143Y-75611009D01*
X104088143Y-75611009D02*
X103992905Y-75563390D01*
X103992905Y-75563390D02*
X103945286Y-75515771D01*
X103945286Y-75515771D02*
X103897667Y-75420533D01*
X103897667Y-75420533D02*
X103897667Y-75325295D01*
X103897667Y-75325295D02*
X103945286Y-75230057D01*
X103945286Y-75230057D02*
X103992905Y-75182438D01*
X103992905Y-75182438D02*
X104088143Y-75134819D01*
X104088143Y-75134819D02*
X104326238Y-75134819D01*
X104326238Y-75134819D02*
X104469095Y-75182438D01*
X104802429Y-75134819D02*
X105040524Y-76134819D01*
X105040524Y-76134819D02*
X105231000Y-75420533D01*
X105231000Y-75420533D02*
X105421476Y-76134819D01*
X105421476Y-76134819D02*
X105659572Y-75134819D01*
X106183381Y-75563390D02*
X106088143Y-75515771D01*
X106088143Y-75515771D02*
X106040524Y-75468152D01*
X106040524Y-75468152D02*
X105992905Y-75372914D01*
X105992905Y-75372914D02*
X105992905Y-75325295D01*
X105992905Y-75325295D02*
X106040524Y-75230057D01*
X106040524Y-75230057D02*
X106088143Y-75182438D01*
X106088143Y-75182438D02*
X106183381Y-75134819D01*
X106183381Y-75134819D02*
X106373857Y-75134819D01*
X106373857Y-75134819D02*
X106469095Y-75182438D01*
X106469095Y-75182438D02*
X106516714Y-75230057D01*
X106516714Y-75230057D02*
X106564333Y-75325295D01*
X106564333Y-75325295D02*
X106564333Y-75372914D01*
X106564333Y-75372914D02*
X106516714Y-75468152D01*
X106516714Y-75468152D02*
X106469095Y-75515771D01*
X106469095Y-75515771D02*
X106373857Y-75563390D01*
X106373857Y-75563390D02*
X106183381Y-75563390D01*
X106183381Y-75563390D02*
X106088143Y-75611009D01*
X106088143Y-75611009D02*
X106040524Y-75658628D01*
X106040524Y-75658628D02*
X105992905Y-75753866D01*
X105992905Y-75753866D02*
X105992905Y-75944342D01*
X105992905Y-75944342D02*
X106040524Y-76039580D01*
X106040524Y-76039580D02*
X106088143Y-76087200D01*
X106088143Y-76087200D02*
X106183381Y-76134819D01*
X106183381Y-76134819D02*
X106373857Y-76134819D01*
X106373857Y-76134819D02*
X106469095Y-76087200D01*
X106469095Y-76087200D02*
X106516714Y-76039580D01*
X106516714Y-76039580D02*
X106564333Y-75944342D01*
X106564333Y-75944342D02*
X106564333Y-75753866D01*
X106564333Y-75753866D02*
X106516714Y-75658628D01*
X106516714Y-75658628D02*
X106469095Y-75611009D01*
X106469095Y-75611009D02*
X106373857Y-75563390D01*
X189704819Y-143339285D02*
X188704819Y-143339285D01*
X188704819Y-143339285D02*
X188704819Y-143101190D01*
X188704819Y-143101190D02*
X188752438Y-142958333D01*
X188752438Y-142958333D02*
X188847676Y-142863095D01*
X188847676Y-142863095D02*
X188942914Y-142815476D01*
X188942914Y-142815476D02*
X189133390Y-142767857D01*
X189133390Y-142767857D02*
X189276247Y-142767857D01*
X189276247Y-142767857D02*
X189466723Y-142815476D01*
X189466723Y-142815476D02*
X189561961Y-142863095D01*
X189561961Y-142863095D02*
X189657200Y-142958333D01*
X189657200Y-142958333D02*
X189704819Y-143101190D01*
X189704819Y-143101190D02*
X189704819Y-143339285D01*
X188800057Y-142386904D02*
X188752438Y-142339285D01*
X188752438Y-142339285D02*
X188704819Y-142244047D01*
X188704819Y-142244047D02*
X188704819Y-142005952D01*
X188704819Y-142005952D02*
X188752438Y-141910714D01*
X188752438Y-141910714D02*
X188800057Y-141863095D01*
X188800057Y-141863095D02*
X188895295Y-141815476D01*
X188895295Y-141815476D02*
X188990533Y-141815476D01*
X188990533Y-141815476D02*
X189133390Y-141863095D01*
X189133390Y-141863095D02*
X189704819Y-142434523D01*
X189704819Y-142434523D02*
X189704819Y-141815476D01*
X188800057Y-141434523D02*
X188752438Y-141386904D01*
X188752438Y-141386904D02*
X188704819Y-141291666D01*
X188704819Y-141291666D02*
X188704819Y-141053571D01*
X188704819Y-141053571D02*
X188752438Y-140958333D01*
X188752438Y-140958333D02*
X188800057Y-140910714D01*
X188800057Y-140910714D02*
X188895295Y-140863095D01*
X188895295Y-140863095D02*
X188990533Y-140863095D01*
X188990533Y-140863095D02*
X189133390Y-140910714D01*
X189133390Y-140910714D02*
X189704819Y-141482142D01*
X189704819Y-141482142D02*
X189704819Y-140863095D01*
X190024819Y-146196904D02*
X189024819Y-146196904D01*
X190024819Y-145625476D02*
X189453390Y-146054047D01*
X189024819Y-145625476D02*
X189596247Y-146196904D01*
X198931476Y-133957200D02*
X199074333Y-134004819D01*
X199074333Y-134004819D02*
X199312428Y-134004819D01*
X199312428Y-134004819D02*
X199407666Y-133957200D01*
X199407666Y-133957200D02*
X199455285Y-133909580D01*
X199455285Y-133909580D02*
X199502904Y-133814342D01*
X199502904Y-133814342D02*
X199502904Y-133719104D01*
X199502904Y-133719104D02*
X199455285Y-133623866D01*
X199455285Y-133623866D02*
X199407666Y-133576247D01*
X199407666Y-133576247D02*
X199312428Y-133528628D01*
X199312428Y-133528628D02*
X199121952Y-133481009D01*
X199121952Y-133481009D02*
X199026714Y-133433390D01*
X199026714Y-133433390D02*
X198979095Y-133385771D01*
X198979095Y-133385771D02*
X198931476Y-133290533D01*
X198931476Y-133290533D02*
X198931476Y-133195295D01*
X198931476Y-133195295D02*
X198979095Y-133100057D01*
X198979095Y-133100057D02*
X199026714Y-133052438D01*
X199026714Y-133052438D02*
X199121952Y-133004819D01*
X199121952Y-133004819D02*
X199360047Y-133004819D01*
X199360047Y-133004819D02*
X199502904Y-133052438D01*
X199836238Y-133004819D02*
X200074333Y-134004819D01*
X200074333Y-134004819D02*
X200264809Y-133290533D01*
X200264809Y-133290533D02*
X200455285Y-134004819D01*
X200455285Y-134004819D02*
X200693381Y-133004819D01*
X201026714Y-133100057D02*
X201074333Y-133052438D01*
X201074333Y-133052438D02*
X201169571Y-133004819D01*
X201169571Y-133004819D02*
X201407666Y-133004819D01*
X201407666Y-133004819D02*
X201502904Y-133052438D01*
X201502904Y-133052438D02*
X201550523Y-133100057D01*
X201550523Y-133100057D02*
X201598142Y-133195295D01*
X201598142Y-133195295D02*
X201598142Y-133290533D01*
X201598142Y-133290533D02*
X201550523Y-133433390D01*
X201550523Y-133433390D02*
X200979095Y-134004819D01*
X200979095Y-134004819D02*
X201598142Y-134004819D01*
X201979095Y-133100057D02*
X202026714Y-133052438D01*
X202026714Y-133052438D02*
X202121952Y-133004819D01*
X202121952Y-133004819D02*
X202360047Y-133004819D01*
X202360047Y-133004819D02*
X202455285Y-133052438D01*
X202455285Y-133052438D02*
X202502904Y-133100057D01*
X202502904Y-133100057D02*
X202550523Y-133195295D01*
X202550523Y-133195295D02*
X202550523Y-133290533D01*
X202550523Y-133290533D02*
X202502904Y-133433390D01*
X202502904Y-133433390D02*
X201931476Y-134004819D01*
X201931476Y-134004819D02*
X202550523Y-134004819D01*
X132184819Y-104714285D02*
X131184819Y-104714285D01*
X131184819Y-104714285D02*
X131184819Y-104476190D01*
X131184819Y-104476190D02*
X131232438Y-104333333D01*
X131232438Y-104333333D02*
X131327676Y-104238095D01*
X131327676Y-104238095D02*
X131422914Y-104190476D01*
X131422914Y-104190476D02*
X131613390Y-104142857D01*
X131613390Y-104142857D02*
X131756247Y-104142857D01*
X131756247Y-104142857D02*
X131946723Y-104190476D01*
X131946723Y-104190476D02*
X132041961Y-104238095D01*
X132041961Y-104238095D02*
X132137200Y-104333333D01*
X132137200Y-104333333D02*
X132184819Y-104476190D01*
X132184819Y-104476190D02*
X132184819Y-104714285D01*
X132184819Y-103190476D02*
X132184819Y-103761904D01*
X132184819Y-103476190D02*
X131184819Y-103476190D01*
X131184819Y-103476190D02*
X131327676Y-103571428D01*
X131327676Y-103571428D02*
X131422914Y-103666666D01*
X131422914Y-103666666D02*
X131470533Y-103761904D01*
X131184819Y-102333333D02*
X131184819Y-102523809D01*
X131184819Y-102523809D02*
X131232438Y-102619047D01*
X131232438Y-102619047D02*
X131280057Y-102666666D01*
X131280057Y-102666666D02*
X131422914Y-102761904D01*
X131422914Y-102761904D02*
X131613390Y-102809523D01*
X131613390Y-102809523D02*
X131994342Y-102809523D01*
X131994342Y-102809523D02*
X132089580Y-102761904D01*
X132089580Y-102761904D02*
X132137200Y-102714285D01*
X132137200Y-102714285D02*
X132184819Y-102619047D01*
X132184819Y-102619047D02*
X132184819Y-102428571D01*
X132184819Y-102428571D02*
X132137200Y-102333333D01*
X132137200Y-102333333D02*
X132089580Y-102285714D01*
X132089580Y-102285714D02*
X131994342Y-102238095D01*
X131994342Y-102238095D02*
X131756247Y-102238095D01*
X131756247Y-102238095D02*
X131661009Y-102285714D01*
X131661009Y-102285714D02*
X131613390Y-102333333D01*
X131613390Y-102333333D02*
X131565771Y-102428571D01*
X131565771Y-102428571D02*
X131565771Y-102619047D01*
X131565771Y-102619047D02*
X131613390Y-102714285D01*
X131613390Y-102714285D02*
X131661009Y-102761904D01*
X131661009Y-102761904D02*
X131756247Y-102809523D01*
X132504819Y-107571904D02*
X131504819Y-107571904D01*
X132504819Y-107000476D02*
X131933390Y-107429047D01*
X131504819Y-107000476D02*
X132076247Y-107571904D01*
X132184819Y-85664285D02*
X131184819Y-85664285D01*
X131184819Y-85664285D02*
X131184819Y-85426190D01*
X131184819Y-85426190D02*
X131232438Y-85283333D01*
X131232438Y-85283333D02*
X131327676Y-85188095D01*
X131327676Y-85188095D02*
X131422914Y-85140476D01*
X131422914Y-85140476D02*
X131613390Y-85092857D01*
X131613390Y-85092857D02*
X131756247Y-85092857D01*
X131756247Y-85092857D02*
X131946723Y-85140476D01*
X131946723Y-85140476D02*
X132041961Y-85188095D01*
X132041961Y-85188095D02*
X132137200Y-85283333D01*
X132137200Y-85283333D02*
X132184819Y-85426190D01*
X132184819Y-85426190D02*
X132184819Y-85664285D01*
X132184819Y-84140476D02*
X132184819Y-84711904D01*
X132184819Y-84426190D02*
X131184819Y-84426190D01*
X131184819Y-84426190D02*
X131327676Y-84521428D01*
X131327676Y-84521428D02*
X131422914Y-84616666D01*
X131422914Y-84616666D02*
X131470533Y-84711904D01*
X131184819Y-83521428D02*
X131184819Y-83426190D01*
X131184819Y-83426190D02*
X131232438Y-83330952D01*
X131232438Y-83330952D02*
X131280057Y-83283333D01*
X131280057Y-83283333D02*
X131375295Y-83235714D01*
X131375295Y-83235714D02*
X131565771Y-83188095D01*
X131565771Y-83188095D02*
X131803866Y-83188095D01*
X131803866Y-83188095D02*
X131994342Y-83235714D01*
X131994342Y-83235714D02*
X132089580Y-83283333D01*
X132089580Y-83283333D02*
X132137200Y-83330952D01*
X132137200Y-83330952D02*
X132184819Y-83426190D01*
X132184819Y-83426190D02*
X132184819Y-83521428D01*
X132184819Y-83521428D02*
X132137200Y-83616666D01*
X132137200Y-83616666D02*
X132089580Y-83664285D01*
X132089580Y-83664285D02*
X131994342Y-83711904D01*
X131994342Y-83711904D02*
X131803866Y-83759523D01*
X131803866Y-83759523D02*
X131565771Y-83759523D01*
X131565771Y-83759523D02*
X131375295Y-83711904D01*
X131375295Y-83711904D02*
X131280057Y-83664285D01*
X131280057Y-83664285D02*
X131232438Y-83616666D01*
X131232438Y-83616666D02*
X131184819Y-83521428D01*
X132504819Y-88521904D02*
X131504819Y-88521904D01*
X132504819Y-87950476D02*
X131933390Y-88379047D01*
X131504819Y-87950476D02*
X132076247Y-88521904D01*
X94084819Y-104714285D02*
X93084819Y-104714285D01*
X93084819Y-104714285D02*
X93084819Y-104476190D01*
X93084819Y-104476190D02*
X93132438Y-104333333D01*
X93132438Y-104333333D02*
X93227676Y-104238095D01*
X93227676Y-104238095D02*
X93322914Y-104190476D01*
X93322914Y-104190476D02*
X93513390Y-104142857D01*
X93513390Y-104142857D02*
X93656247Y-104142857D01*
X93656247Y-104142857D02*
X93846723Y-104190476D01*
X93846723Y-104190476D02*
X93941961Y-104238095D01*
X93941961Y-104238095D02*
X94037200Y-104333333D01*
X94037200Y-104333333D02*
X94084819Y-104476190D01*
X94084819Y-104476190D02*
X94084819Y-104714285D01*
X94084819Y-103190476D02*
X94084819Y-103761904D01*
X94084819Y-103476190D02*
X93084819Y-103476190D01*
X93084819Y-103476190D02*
X93227676Y-103571428D01*
X93227676Y-103571428D02*
X93322914Y-103666666D01*
X93322914Y-103666666D02*
X93370533Y-103761904D01*
X93418152Y-102333333D02*
X94084819Y-102333333D01*
X93037200Y-102571428D02*
X93751485Y-102809523D01*
X93751485Y-102809523D02*
X93751485Y-102190476D01*
X94404819Y-107571904D02*
X93404819Y-107571904D01*
X94404819Y-107000476D02*
X93833390Y-107429047D01*
X93404819Y-107000476D02*
X93976247Y-107571904D01*
X151011476Y-114457200D02*
X151154333Y-114504819D01*
X151154333Y-114504819D02*
X151392428Y-114504819D01*
X151392428Y-114504819D02*
X151487666Y-114457200D01*
X151487666Y-114457200D02*
X151535285Y-114409580D01*
X151535285Y-114409580D02*
X151582904Y-114314342D01*
X151582904Y-114314342D02*
X151582904Y-114219104D01*
X151582904Y-114219104D02*
X151535285Y-114123866D01*
X151535285Y-114123866D02*
X151487666Y-114076247D01*
X151487666Y-114076247D02*
X151392428Y-114028628D01*
X151392428Y-114028628D02*
X151201952Y-113981009D01*
X151201952Y-113981009D02*
X151106714Y-113933390D01*
X151106714Y-113933390D02*
X151059095Y-113885771D01*
X151059095Y-113885771D02*
X151011476Y-113790533D01*
X151011476Y-113790533D02*
X151011476Y-113695295D01*
X151011476Y-113695295D02*
X151059095Y-113600057D01*
X151059095Y-113600057D02*
X151106714Y-113552438D01*
X151106714Y-113552438D02*
X151201952Y-113504819D01*
X151201952Y-113504819D02*
X151440047Y-113504819D01*
X151440047Y-113504819D02*
X151582904Y-113552438D01*
X151916238Y-113504819D02*
X152154333Y-114504819D01*
X152154333Y-114504819D02*
X152344809Y-113790533D01*
X152344809Y-113790533D02*
X152535285Y-114504819D01*
X152535285Y-114504819D02*
X152773381Y-113504819D01*
X153678142Y-114504819D02*
X153106714Y-114504819D01*
X153392428Y-114504819D02*
X153392428Y-113504819D01*
X153392428Y-113504819D02*
X153297190Y-113647676D01*
X153297190Y-113647676D02*
X153201952Y-113742914D01*
X153201952Y-113742914D02*
X153106714Y-113790533D01*
X154154333Y-114504819D02*
X154344809Y-114504819D01*
X154344809Y-114504819D02*
X154440047Y-114457200D01*
X154440047Y-114457200D02*
X154487666Y-114409580D01*
X154487666Y-114409580D02*
X154582904Y-114266723D01*
X154582904Y-114266723D02*
X154630523Y-114076247D01*
X154630523Y-114076247D02*
X154630523Y-113695295D01*
X154630523Y-113695295D02*
X154582904Y-113600057D01*
X154582904Y-113600057D02*
X154535285Y-113552438D01*
X154535285Y-113552438D02*
X154440047Y-113504819D01*
X154440047Y-113504819D02*
X154249571Y-113504819D01*
X154249571Y-113504819D02*
X154154333Y-113552438D01*
X154154333Y-113552438D02*
X154106714Y-113600057D01*
X154106714Y-113600057D02*
X154059095Y-113695295D01*
X154059095Y-113695295D02*
X154059095Y-113933390D01*
X154059095Y-113933390D02*
X154106714Y-114028628D01*
X154106714Y-114028628D02*
X154154333Y-114076247D01*
X154154333Y-114076247D02*
X154249571Y-114123866D01*
X154249571Y-114123866D02*
X154440047Y-114123866D01*
X154440047Y-114123866D02*
X154535285Y-114076247D01*
X154535285Y-114076247D02*
X154582904Y-114028628D01*
X154582904Y-114028628D02*
X154630523Y-113933390D01*
X84847667Y-76087200D02*
X84990524Y-76134819D01*
X84990524Y-76134819D02*
X85228619Y-76134819D01*
X85228619Y-76134819D02*
X85323857Y-76087200D01*
X85323857Y-76087200D02*
X85371476Y-76039580D01*
X85371476Y-76039580D02*
X85419095Y-75944342D01*
X85419095Y-75944342D02*
X85419095Y-75849104D01*
X85419095Y-75849104D02*
X85371476Y-75753866D01*
X85371476Y-75753866D02*
X85323857Y-75706247D01*
X85323857Y-75706247D02*
X85228619Y-75658628D01*
X85228619Y-75658628D02*
X85038143Y-75611009D01*
X85038143Y-75611009D02*
X84942905Y-75563390D01*
X84942905Y-75563390D02*
X84895286Y-75515771D01*
X84895286Y-75515771D02*
X84847667Y-75420533D01*
X84847667Y-75420533D02*
X84847667Y-75325295D01*
X84847667Y-75325295D02*
X84895286Y-75230057D01*
X84895286Y-75230057D02*
X84942905Y-75182438D01*
X84942905Y-75182438D02*
X85038143Y-75134819D01*
X85038143Y-75134819D02*
X85276238Y-75134819D01*
X85276238Y-75134819D02*
X85419095Y-75182438D01*
X85752429Y-75134819D02*
X85990524Y-76134819D01*
X85990524Y-76134819D02*
X86181000Y-75420533D01*
X86181000Y-75420533D02*
X86371476Y-76134819D01*
X86371476Y-76134819D02*
X86609572Y-75134819D01*
X86895286Y-75134819D02*
X87561952Y-75134819D01*
X87561952Y-75134819D02*
X87133381Y-76134819D01*
X141521476Y-95137200D02*
X141664333Y-95184819D01*
X141664333Y-95184819D02*
X141902428Y-95184819D01*
X141902428Y-95184819D02*
X141997666Y-95137200D01*
X141997666Y-95137200D02*
X142045285Y-95089580D01*
X142045285Y-95089580D02*
X142092904Y-94994342D01*
X142092904Y-94994342D02*
X142092904Y-94899104D01*
X142092904Y-94899104D02*
X142045285Y-94803866D01*
X142045285Y-94803866D02*
X141997666Y-94756247D01*
X141997666Y-94756247D02*
X141902428Y-94708628D01*
X141902428Y-94708628D02*
X141711952Y-94661009D01*
X141711952Y-94661009D02*
X141616714Y-94613390D01*
X141616714Y-94613390D02*
X141569095Y-94565771D01*
X141569095Y-94565771D02*
X141521476Y-94470533D01*
X141521476Y-94470533D02*
X141521476Y-94375295D01*
X141521476Y-94375295D02*
X141569095Y-94280057D01*
X141569095Y-94280057D02*
X141616714Y-94232438D01*
X141616714Y-94232438D02*
X141711952Y-94184819D01*
X141711952Y-94184819D02*
X141950047Y-94184819D01*
X141950047Y-94184819D02*
X142092904Y-94232438D01*
X142426238Y-94184819D02*
X142664333Y-95184819D01*
X142664333Y-95184819D02*
X142854809Y-94470533D01*
X142854809Y-94470533D02*
X143045285Y-95184819D01*
X143045285Y-95184819D02*
X143283381Y-94184819D01*
X144188142Y-95184819D02*
X143616714Y-95184819D01*
X143902428Y-95184819D02*
X143902428Y-94184819D01*
X143902428Y-94184819D02*
X143807190Y-94327676D01*
X143807190Y-94327676D02*
X143711952Y-94422914D01*
X143711952Y-94422914D02*
X143616714Y-94470533D01*
X145045285Y-94184819D02*
X144854809Y-94184819D01*
X144854809Y-94184819D02*
X144759571Y-94232438D01*
X144759571Y-94232438D02*
X144711952Y-94280057D01*
X144711952Y-94280057D02*
X144616714Y-94422914D01*
X144616714Y-94422914D02*
X144569095Y-94613390D01*
X144569095Y-94613390D02*
X144569095Y-94994342D01*
X144569095Y-94994342D02*
X144616714Y-95089580D01*
X144616714Y-95089580D02*
X144664333Y-95137200D01*
X144664333Y-95137200D02*
X144759571Y-95184819D01*
X144759571Y-95184819D02*
X144950047Y-95184819D01*
X144950047Y-95184819D02*
X145045285Y-95137200D01*
X145045285Y-95137200D02*
X145092904Y-95089580D01*
X145092904Y-95089580D02*
X145140523Y-94994342D01*
X145140523Y-94994342D02*
X145140523Y-94756247D01*
X145140523Y-94756247D02*
X145092904Y-94661009D01*
X145092904Y-94661009D02*
X145045285Y-94613390D01*
X145045285Y-94613390D02*
X144950047Y-94565771D01*
X144950047Y-94565771D02*
X144759571Y-94565771D01*
X144759571Y-94565771D02*
X144664333Y-94613390D01*
X144664333Y-94613390D02*
X144616714Y-94661009D01*
X144616714Y-94661009D02*
X144569095Y-94756247D01*
D12*
%TO.C,D12*%
X170830000Y-82330000D02*
X170830000Y-86570000D01*
X170830000Y-85730000D02*
X173070000Y-85730000D01*
X170830000Y-85850000D02*
X173070000Y-85850000D01*
X170830000Y-85970000D02*
X173070000Y-85970000D01*
X170830000Y-86570000D02*
X173070000Y-86570000D01*
X171950000Y-81680000D02*
X171950000Y-82330000D01*
X171950000Y-87220000D02*
X171950000Y-86570000D01*
X173070000Y-82330000D02*
X170830000Y-82330000D01*
X173070000Y-86570000D02*
X173070000Y-82330000D01*
%TO.C,D9*%
X113680000Y-82330000D02*
X113680000Y-86570000D01*
X113680000Y-85730000D02*
X115920000Y-85730000D01*
X113680000Y-85850000D02*
X115920000Y-85850000D01*
X113680000Y-85970000D02*
X115920000Y-85970000D01*
X113680000Y-86570000D02*
X115920000Y-86570000D01*
X114800000Y-81680000D02*
X114800000Y-82330000D01*
X114800000Y-87220000D02*
X114800000Y-86570000D01*
X115920000Y-82330000D02*
X113680000Y-82330000D01*
X115920000Y-86570000D02*
X115920000Y-82330000D01*
%TO.C,SW12*%
X174446000Y-76569000D02*
X188416000Y-76569000D01*
X174446000Y-90539000D02*
X174446000Y-76569000D01*
X188416000Y-76569000D02*
X188416000Y-90539000D01*
X188416000Y-90539000D02*
X174446000Y-90539000D01*
%TO.C,D6*%
X170830000Y-63280000D02*
X170830000Y-67520000D01*
X170830000Y-66680000D02*
X173070000Y-66680000D01*
X170830000Y-66800000D02*
X173070000Y-66800000D01*
X170830000Y-66920000D02*
X173070000Y-66920000D01*
X170830000Y-67520000D02*
X173070000Y-67520000D01*
X171950000Y-62630000D02*
X171950000Y-63280000D01*
X171950000Y-68170000D02*
X171950000Y-67520000D01*
X173070000Y-63280000D02*
X170830000Y-63280000D01*
X173070000Y-67520000D02*
X173070000Y-63280000D01*
%TO.C,SW14*%
X98246000Y-95619000D02*
X112216000Y-95619000D01*
X98246000Y-109589000D02*
X98246000Y-95619000D01*
X112216000Y-95619000D02*
X112216000Y-109589000D01*
X112216000Y-109589000D02*
X98246000Y-109589000D01*
%TO.C,D20*%
X161250000Y-120505000D02*
X161250000Y-124745000D01*
X161250000Y-123905000D02*
X163490000Y-123905000D01*
X161250000Y-124025000D02*
X163490000Y-124025000D01*
X161250000Y-124145000D02*
X163490000Y-124145000D01*
X161250000Y-124745000D02*
X163490000Y-124745000D01*
X162370000Y-119855000D02*
X162370000Y-120505000D01*
X162370000Y-125395000D02*
X162370000Y-124745000D01*
X163490000Y-120505000D02*
X161250000Y-120505000D01*
X163490000Y-124745000D02*
X163490000Y-120505000D01*
%TO.C,D3*%
X113680000Y-63280000D02*
X113680000Y-67520000D01*
X113680000Y-66680000D02*
X115920000Y-66680000D01*
X113680000Y-66800000D02*
X115920000Y-66800000D01*
X113680000Y-66920000D02*
X115920000Y-66920000D01*
X113680000Y-67520000D02*
X115920000Y-67520000D01*
X114800000Y-62630000D02*
X114800000Y-63280000D01*
X114800000Y-68170000D02*
X114800000Y-67520000D01*
X115920000Y-63280000D02*
X113680000Y-63280000D01*
X115920000Y-67520000D02*
X115920000Y-63280000D01*
D10*
%TO.C,J5*%
X191862500Y-92637500D02*
X191862500Y-110137500D01*
X191862500Y-92637500D02*
X209362500Y-92637500D01*
X191862500Y-110137500D02*
X209362500Y-110137500D01*
X209362500Y-92637500D02*
X209362500Y-110137500D01*
D12*
%TO.C,SW18*%
X174446000Y-95619000D02*
X188416000Y-95619000D01*
X174446000Y-109589000D02*
X174446000Y-95619000D01*
X188416000Y-95619000D02*
X188416000Y-109589000D01*
X188416000Y-109589000D02*
X174446000Y-109589000D01*
%TO.C,D13*%
X75580000Y-101380000D02*
X75580000Y-105620000D01*
X75580000Y-104780000D02*
X77820000Y-104780000D01*
X75580000Y-104900000D02*
X77820000Y-104900000D01*
X75580000Y-105020000D02*
X77820000Y-105020000D01*
X75580000Y-105620000D02*
X77820000Y-105620000D01*
X76700000Y-100730000D02*
X76700000Y-101380000D01*
X76700000Y-106270000D02*
X76700000Y-105620000D01*
X77820000Y-101380000D02*
X75580000Y-101380000D01*
X77820000Y-105620000D02*
X77820000Y-101380000D01*
%TO.C,D1*%
X75580000Y-63325000D02*
X75580000Y-67565000D01*
X75580000Y-66725000D02*
X77820000Y-66725000D01*
X75580000Y-66845000D02*
X77820000Y-66845000D01*
X75580000Y-66965000D02*
X77820000Y-66965000D01*
X75580000Y-67565000D02*
X77820000Y-67565000D01*
X76700000Y-62675000D02*
X76700000Y-63325000D01*
X76700000Y-68215000D02*
X76700000Y-67565000D01*
X77820000Y-63325000D02*
X75580000Y-63325000D01*
X77820000Y-67565000D02*
X77820000Y-63325000D01*
%TO.C,SW17*%
X155396000Y-95619000D02*
X169366000Y-95619000D01*
X155396000Y-109589000D02*
X155396000Y-95619000D01*
X169366000Y-95619000D02*
X169366000Y-109589000D01*
X169366000Y-109589000D02*
X155396000Y-109589000D01*
%TO.C,SW25*%
X106700000Y-42250000D02*
X107300000Y-42250000D01*
X107000000Y-42550000D02*
X106700000Y-42250000D01*
X107300000Y-42250000D02*
X107000000Y-42550000D01*
X107800000Y-40050000D02*
X107800000Y-42550000D01*
X107800000Y-52650000D02*
X107800000Y-49850000D01*
X112600000Y-40050000D02*
X107800000Y-40050000D01*
X112700000Y-52650000D02*
X107800000Y-52650000D01*
X114000000Y-46350000D02*
X115000000Y-46350000D01*
X114500000Y-45850000D02*
X114500000Y-46850000D01*
X116300000Y-40050000D02*
X121200000Y-40050000D01*
X121200000Y-40050000D02*
X121200000Y-52650000D01*
X121200000Y-52650000D02*
X116300000Y-52650000D01*
X117500000Y-46350000D02*
G75*
G02*
X111500000Y-46350000I-3000000J0D01*
G01*
X111500000Y-46350000D02*
G75*
G02*
X117500000Y-46350000I3000000J0D01*
G01*
%TO.C,D21*%
X180250000Y-120505000D02*
X180250000Y-124745000D01*
X180250000Y-123905000D02*
X182490000Y-123905000D01*
X180250000Y-124025000D02*
X182490000Y-124025000D01*
X180250000Y-124145000D02*
X182490000Y-124145000D01*
X180250000Y-124745000D02*
X182490000Y-124745000D01*
X181370000Y-119855000D02*
X181370000Y-120505000D01*
X181370000Y-125395000D02*
X181370000Y-124745000D01*
X182490000Y-120505000D02*
X180250000Y-120505000D01*
X182490000Y-124745000D02*
X182490000Y-120505000D01*
%TO.C,SW20*%
X164886000Y-114939000D02*
X178856000Y-114939000D01*
X164886000Y-128909000D02*
X164886000Y-114939000D01*
X178856000Y-114939000D02*
X178856000Y-128909000D01*
X178856000Y-128909000D02*
X164886000Y-128909000D01*
%TO.C,SW1*%
X79196000Y-57519000D02*
X93166000Y-57519000D01*
X79196000Y-71489000D02*
X79196000Y-57519000D01*
X93166000Y-57519000D02*
X93166000Y-71489000D01*
X93166000Y-71489000D02*
X79196000Y-71489000D01*
%TO.C,SW23*%
X144950000Y-42250000D02*
X145550000Y-42250000D01*
X145250000Y-42550000D02*
X144950000Y-42250000D01*
X145550000Y-42250000D02*
X145250000Y-42550000D01*
X146050000Y-40050000D02*
X146050000Y-42550000D01*
X146050000Y-52650000D02*
X146050000Y-49850000D01*
X150850000Y-40050000D02*
X146050000Y-40050000D01*
X150950000Y-52650000D02*
X146050000Y-52650000D01*
X152250000Y-46350000D02*
X153250000Y-46350000D01*
X152750000Y-45850000D02*
X152750000Y-46850000D01*
X154550000Y-40050000D02*
X159450000Y-40050000D01*
X159450000Y-40050000D02*
X159450000Y-52650000D01*
X159450000Y-52650000D02*
X154550000Y-52650000D01*
X155750000Y-46350000D02*
G75*
G02*
X149750000Y-46350000I-3000000J0D01*
G01*
X149750000Y-46350000D02*
G75*
G02*
X155750000Y-46350000I3000000J0D01*
G01*
%TO.C,SW11*%
X155396000Y-76569000D02*
X169366000Y-76569000D01*
X155396000Y-90539000D02*
X155396000Y-76569000D01*
X169366000Y-76569000D02*
X169366000Y-90539000D01*
X169366000Y-90539000D02*
X155396000Y-90539000D01*
%TO.C,D17*%
X151780000Y-101380000D02*
X151780000Y-105620000D01*
X151780000Y-104780000D02*
X154020000Y-104780000D01*
X151780000Y-104900000D02*
X154020000Y-104900000D01*
X151780000Y-105020000D02*
X154020000Y-105020000D01*
X151780000Y-105620000D02*
X154020000Y-105620000D01*
X152900000Y-100730000D02*
X152900000Y-101380000D01*
X152900000Y-106270000D02*
X152900000Y-105620000D01*
X154020000Y-101380000D02*
X151780000Y-101380000D01*
X154020000Y-105620000D02*
X154020000Y-101380000D01*
%TO.C,D5*%
X151780000Y-63280000D02*
X151780000Y-67520000D01*
X151780000Y-66680000D02*
X154020000Y-66680000D01*
X151780000Y-66800000D02*
X154020000Y-66800000D01*
X151780000Y-66920000D02*
X154020000Y-66920000D01*
X151780000Y-67520000D02*
X154020000Y-67520000D01*
X152900000Y-62630000D02*
X152900000Y-63280000D01*
X152900000Y-68170000D02*
X152900000Y-67520000D01*
X154020000Y-63280000D02*
X151780000Y-63280000D01*
X154020000Y-67520000D02*
X154020000Y-63280000D01*
%TO.C,D19*%
X142250000Y-120505000D02*
X142250000Y-124745000D01*
X142250000Y-123905000D02*
X144490000Y-123905000D01*
X142250000Y-124025000D02*
X144490000Y-124025000D01*
X142250000Y-124145000D02*
X144490000Y-124145000D01*
X142250000Y-124745000D02*
X144490000Y-124745000D01*
X143370000Y-119855000D02*
X143370000Y-120505000D01*
X143370000Y-125395000D02*
X143370000Y-124745000D01*
X144490000Y-120505000D02*
X142250000Y-120505000D01*
X144490000Y-124745000D02*
X144490000Y-120505000D01*
%TO.C,SW9*%
X117296000Y-76569000D02*
X131266000Y-76569000D01*
X117296000Y-90539000D02*
X117296000Y-76569000D01*
X131266000Y-76569000D02*
X131266000Y-90539000D01*
X131266000Y-90539000D02*
X117296000Y-90539000D01*
%TO.C,SW10*%
X136346000Y-76569000D02*
X150316000Y-76569000D01*
X136346000Y-90539000D02*
X136346000Y-76569000D01*
X150316000Y-76569000D02*
X150316000Y-90539000D01*
X150316000Y-90539000D02*
X136346000Y-90539000D01*
%TO.C,D11*%
X151780000Y-82330000D02*
X151780000Y-86570000D01*
X151780000Y-85730000D02*
X154020000Y-85730000D01*
X151780000Y-85850000D02*
X154020000Y-85850000D01*
X151780000Y-85970000D02*
X154020000Y-85970000D01*
X151780000Y-86570000D02*
X154020000Y-86570000D01*
X152900000Y-81680000D02*
X152900000Y-82330000D01*
X152900000Y-87220000D02*
X152900000Y-86570000D01*
X154020000Y-82330000D02*
X151780000Y-82330000D01*
X154020000Y-86570000D02*
X154020000Y-82330000D01*
%TO.C,SW15*%
X117296000Y-95619000D02*
X131266000Y-95619000D01*
X117296000Y-109589000D02*
X117296000Y-95619000D01*
X131266000Y-95619000D02*
X131266000Y-109589000D01*
X131266000Y-109589000D02*
X117296000Y-109589000D01*
%TO.C,D4*%
X132730000Y-63280000D02*
X132730000Y-67520000D01*
X132730000Y-66680000D02*
X134970000Y-66680000D01*
X132730000Y-66800000D02*
X134970000Y-66800000D01*
X132730000Y-66920000D02*
X134970000Y-66920000D01*
X132730000Y-67520000D02*
X134970000Y-67520000D01*
X133850000Y-62630000D02*
X133850000Y-63280000D01*
X133850000Y-68170000D02*
X133850000Y-67520000D01*
X134970000Y-63280000D02*
X132730000Y-63280000D01*
X134970000Y-67520000D02*
X134970000Y-63280000D01*
%TO.C,SW5*%
X155396000Y-57519000D02*
X169366000Y-57519000D01*
X155396000Y-71489000D02*
X155396000Y-57519000D01*
X169366000Y-57519000D02*
X169366000Y-71489000D01*
X169366000Y-71489000D02*
X155396000Y-71489000D01*
%TO.C,U1*%
X192420000Y-38340000D02*
X193750000Y-38340000D01*
X192420000Y-39670000D02*
X192420000Y-38340000D01*
D11*
X192150000Y-37920000D02*
X213150000Y-37920000D01*
X213150000Y-81920000D01*
X192150000Y-81920000D01*
X192150000Y-37920000D01*
D12*
%TO.C,D7*%
X75580000Y-82330000D02*
X75580000Y-86570000D01*
X75580000Y-85730000D02*
X77820000Y-85730000D01*
X75580000Y-85850000D02*
X77820000Y-85850000D01*
X75580000Y-85970000D02*
X77820000Y-85970000D01*
X75580000Y-86570000D02*
X77820000Y-86570000D01*
X76700000Y-81680000D02*
X76700000Y-82330000D01*
X76700000Y-87220000D02*
X76700000Y-86570000D01*
X77820000Y-82330000D02*
X75580000Y-82330000D01*
X77820000Y-86570000D02*
X77820000Y-82330000D01*
%TO.C,SW13*%
X79196000Y-95619000D02*
X93166000Y-95619000D01*
X79196000Y-109589000D02*
X79196000Y-95619000D01*
X93166000Y-95619000D02*
X93166000Y-109589000D01*
X93166000Y-109589000D02*
X79196000Y-109589000D01*
%TO.C,D18*%
X170830000Y-101380000D02*
X170830000Y-105620000D01*
X170830000Y-104780000D02*
X173070000Y-104780000D01*
X170830000Y-104900000D02*
X173070000Y-104900000D01*
X170830000Y-105020000D02*
X173070000Y-105020000D01*
X170830000Y-105620000D02*
X173070000Y-105620000D01*
X171950000Y-100730000D02*
X171950000Y-101380000D01*
X171950000Y-106270000D02*
X171950000Y-105620000D01*
X173070000Y-101380000D02*
X170830000Y-101380000D01*
X173070000Y-105620000D02*
X173070000Y-101380000D01*
%TO.C,D15*%
X113680000Y-101380000D02*
X113680000Y-105620000D01*
X113680000Y-104780000D02*
X115920000Y-104780000D01*
X113680000Y-104900000D02*
X115920000Y-104900000D01*
X113680000Y-105020000D02*
X115920000Y-105020000D01*
X113680000Y-105620000D02*
X115920000Y-105620000D01*
X114800000Y-100730000D02*
X114800000Y-101380000D01*
X114800000Y-106270000D02*
X114800000Y-105620000D01*
X115920000Y-101380000D02*
X113680000Y-101380000D01*
X115920000Y-105620000D02*
X115920000Y-101380000D01*
%TO.C,SW24*%
X125700000Y-42250000D02*
X126300000Y-42250000D01*
X126000000Y-42550000D02*
X125700000Y-42250000D01*
X126300000Y-42250000D02*
X126000000Y-42550000D01*
X126800000Y-40050000D02*
X126800000Y-42550000D01*
X126800000Y-52650000D02*
X126800000Y-49850000D01*
X131600000Y-40050000D02*
X126800000Y-40050000D01*
X131700000Y-52650000D02*
X126800000Y-52650000D01*
X133000000Y-46350000D02*
X134000000Y-46350000D01*
X133500000Y-45850000D02*
X133500000Y-46850000D01*
X135300000Y-40050000D02*
X140200000Y-40050000D01*
X140200000Y-40050000D02*
X140200000Y-52650000D01*
X140200000Y-52650000D02*
X135300000Y-52650000D01*
X136500000Y-46350000D02*
G75*
G02*
X130500000Y-46350000I-3000000J0D01*
G01*
X130500000Y-46350000D02*
G75*
G02*
X136500000Y-46350000I3000000J0D01*
G01*
%TO.C,SW2*%
X98246000Y-57519000D02*
X112216000Y-57519000D01*
X98246000Y-71489000D02*
X98246000Y-57519000D01*
X112216000Y-57519000D02*
X112216000Y-71489000D01*
X112216000Y-71489000D02*
X98246000Y-71489000D01*
D10*
%TO.C,J4*%
X181850000Y-51550000D02*
X181850000Y-39450000D01*
X187850000Y-39450000D02*
X187850000Y-51550000D01*
X187850000Y-51550000D02*
X181850000Y-51550000D01*
D12*
%TO.C,SW26*%
X87950000Y-42250000D02*
X88550000Y-42250000D01*
X88250000Y-42550000D02*
X87950000Y-42250000D01*
X88550000Y-42250000D02*
X88250000Y-42550000D01*
X89050000Y-40050000D02*
X89050000Y-42550000D01*
X89050000Y-52650000D02*
X89050000Y-49850000D01*
X93850000Y-40050000D02*
X89050000Y-40050000D01*
X93950000Y-52650000D02*
X89050000Y-52650000D01*
X95250000Y-46350000D02*
X96250000Y-46350000D01*
X95750000Y-45850000D02*
X95750000Y-46850000D01*
X97550000Y-40050000D02*
X102450000Y-40050000D01*
X102450000Y-40050000D02*
X102450000Y-52650000D01*
X102450000Y-52650000D02*
X97550000Y-52650000D01*
X98750000Y-46350000D02*
G75*
G02*
X92750000Y-46350000I-3000000J0D01*
G01*
X92750000Y-46350000D02*
G75*
G02*
X98750000Y-46350000I3000000J0D01*
G01*
%TO.C,D8*%
X94630000Y-82330000D02*
X94630000Y-86570000D01*
X94630000Y-85730000D02*
X96870000Y-85730000D01*
X94630000Y-85850000D02*
X96870000Y-85850000D01*
X94630000Y-85970000D02*
X96870000Y-85970000D01*
X94630000Y-86570000D02*
X96870000Y-86570000D01*
X95750000Y-81680000D02*
X95750000Y-82330000D01*
X95750000Y-87220000D02*
X95750000Y-86570000D01*
X96870000Y-82330000D02*
X94630000Y-82330000D01*
X96870000Y-86570000D02*
X96870000Y-82330000D01*
%TO.C,SW27*%
X163950000Y-42250000D02*
X164550000Y-42250000D01*
X164250000Y-42550000D02*
X163950000Y-42250000D01*
X164550000Y-42250000D02*
X164250000Y-42550000D01*
X165050000Y-40050000D02*
X165050000Y-42550000D01*
X165050000Y-52650000D02*
X165050000Y-49850000D01*
X169850000Y-40050000D02*
X165050000Y-40050000D01*
X169950000Y-52650000D02*
X165050000Y-52650000D01*
X171250000Y-46350000D02*
X172250000Y-46350000D01*
X171750000Y-45850000D02*
X171750000Y-46850000D01*
X173550000Y-40050000D02*
X178450000Y-40050000D01*
X178450000Y-40050000D02*
X178450000Y-52650000D01*
X178450000Y-52650000D02*
X173550000Y-52650000D01*
X174750000Y-46350000D02*
G75*
G02*
X168750000Y-46350000I-3000000J0D01*
G01*
X168750000Y-46350000D02*
G75*
G02*
X174750000Y-46350000I3000000J0D01*
G01*
%TO.C,D2*%
X94581000Y-63380000D02*
X94581000Y-67620000D01*
X94581000Y-66780000D02*
X96821000Y-66780000D01*
X94581000Y-66900000D02*
X96821000Y-66900000D01*
X94581000Y-67020000D02*
X96821000Y-67020000D01*
X94581000Y-67620000D02*
X96821000Y-67620000D01*
X95701000Y-62730000D02*
X95701000Y-63380000D01*
X95701000Y-68270000D02*
X95701000Y-67620000D01*
X96821000Y-63380000D02*
X94581000Y-63380000D01*
X96821000Y-67620000D02*
X96821000Y-63380000D01*
%TO.C,SW3*%
X117296000Y-57519000D02*
X131266000Y-57519000D01*
X117296000Y-71489000D02*
X117296000Y-57519000D01*
X131266000Y-57519000D02*
X131266000Y-71489000D01*
X131266000Y-71489000D02*
X117296000Y-71489000D01*
%TO.C,SW4*%
X136346000Y-57519000D02*
X150316000Y-57519000D01*
X136346000Y-71489000D02*
X136346000Y-57519000D01*
X150316000Y-57519000D02*
X150316000Y-71489000D01*
X150316000Y-71489000D02*
X136346000Y-71489000D01*
%TO.C,SW6*%
X174446000Y-57519000D02*
X188416000Y-57519000D01*
X174446000Y-71489000D02*
X174446000Y-57519000D01*
X188416000Y-57519000D02*
X188416000Y-71489000D01*
X188416000Y-71489000D02*
X174446000Y-71489000D01*
%TO.C,SW8*%
X98246000Y-76569000D02*
X112216000Y-76569000D01*
X98246000Y-90539000D02*
X98246000Y-76569000D01*
X112216000Y-76569000D02*
X112216000Y-90539000D01*
X112216000Y-90539000D02*
X98246000Y-90539000D01*
%TO.C,D22*%
X190250000Y-140005000D02*
X190250000Y-144245000D01*
X190250000Y-143405000D02*
X192490000Y-143405000D01*
X190250000Y-143525000D02*
X192490000Y-143525000D01*
X190250000Y-143645000D02*
X192490000Y-143645000D01*
X190250000Y-144245000D02*
X192490000Y-144245000D01*
X191370000Y-139355000D02*
X191370000Y-140005000D01*
X191370000Y-144895000D02*
X191370000Y-144245000D01*
X192490000Y-140005000D02*
X190250000Y-140005000D01*
X192490000Y-144245000D02*
X192490000Y-140005000D01*
%TO.C,SW22*%
X193756000Y-134439000D02*
X207726000Y-134439000D01*
X193756000Y-148409000D02*
X193756000Y-134439000D01*
X207726000Y-134439000D02*
X207726000Y-148409000D01*
X207726000Y-148409000D02*
X193756000Y-148409000D01*
%TO.C,D16*%
X132730000Y-101380000D02*
X132730000Y-105620000D01*
X132730000Y-104780000D02*
X134970000Y-104780000D01*
X132730000Y-104900000D02*
X134970000Y-104900000D01*
X132730000Y-105020000D02*
X134970000Y-105020000D01*
X132730000Y-105620000D02*
X134970000Y-105620000D01*
X133850000Y-100730000D02*
X133850000Y-101380000D01*
X133850000Y-106270000D02*
X133850000Y-105620000D01*
X134970000Y-101380000D02*
X132730000Y-101380000D01*
X134970000Y-105620000D02*
X134970000Y-101380000D01*
%TO.C,D10*%
X132730000Y-82330000D02*
X132730000Y-86570000D01*
X132730000Y-85730000D02*
X134970000Y-85730000D01*
X132730000Y-85850000D02*
X134970000Y-85850000D01*
X132730000Y-85970000D02*
X134970000Y-85970000D01*
X132730000Y-86570000D02*
X134970000Y-86570000D01*
X133850000Y-81680000D02*
X133850000Y-82330000D01*
X133850000Y-87220000D02*
X133850000Y-86570000D01*
X134970000Y-82330000D02*
X132730000Y-82330000D01*
X134970000Y-86570000D02*
X134970000Y-82330000D01*
%TO.C,D14*%
X94630000Y-101380000D02*
X94630000Y-105620000D01*
X94630000Y-104780000D02*
X96870000Y-104780000D01*
X94630000Y-104900000D02*
X96870000Y-104900000D01*
X94630000Y-105020000D02*
X96870000Y-105020000D01*
X94630000Y-105620000D02*
X96870000Y-105620000D01*
X95750000Y-100730000D02*
X95750000Y-101380000D01*
X95750000Y-106270000D02*
X95750000Y-105620000D01*
X96870000Y-101380000D02*
X94630000Y-101380000D01*
X96870000Y-105620000D02*
X96870000Y-101380000D01*
%TO.C,SW19*%
X145836000Y-114939000D02*
X159806000Y-114939000D01*
X145836000Y-128909000D02*
X145836000Y-114939000D01*
X159806000Y-114939000D02*
X159806000Y-128909000D01*
X159806000Y-128909000D02*
X145836000Y-128909000D01*
%TO.C,SW7*%
X79196000Y-76569000D02*
X93166000Y-76569000D01*
X79196000Y-90539000D02*
X79196000Y-76569000D01*
X93166000Y-76569000D02*
X93166000Y-90539000D01*
X93166000Y-90539000D02*
X79196000Y-90539000D01*
%TO.C,SW16*%
X136346000Y-95619000D02*
X150316000Y-95619000D01*
X136346000Y-109589000D02*
X136346000Y-95619000D01*
X150316000Y-95619000D02*
X150316000Y-109589000D01*
X150316000Y-109589000D02*
X136346000Y-109589000D01*
%TO.C,SW21*%
X183936000Y-114939000D02*
X197906000Y-114939000D01*
X183936000Y-128909000D02*
X183936000Y-114939000D01*
X197906000Y-114939000D02*
X197906000Y-128909000D01*
X197906000Y-128909000D02*
X183936000Y-128909000D01*
%TD*%
D13*
%TO.C,J5*%
X194612500Y-95387500D03*
X194612500Y-107387500D03*
X206612500Y-95387500D03*
X206612500Y-107387500D03*
D14*
X202612500Y-92787500D03*
D15*
X209212500Y-103387500D03*
D14*
X200612500Y-92787500D03*
X198612500Y-92787500D03*
D15*
X209212500Y-99387500D03*
X209212500Y-101387500D03*
%TD*%
%LPC*%
D16*
%TO.C,D12*%
X171950000Y-88260000D03*
D17*
X171950000Y-80640000D03*
%TD*%
D16*
%TO.C,D9*%
X114800000Y-88260000D03*
D17*
X114800000Y-80640000D03*
%TD*%
D18*
%TO.C,SW12*%
X176351000Y-83554000D03*
D19*
X181431000Y-83554000D03*
D18*
X186511000Y-83554000D03*
D20*
X183971000Y-78474000D03*
X177621000Y-81014000D03*
%TD*%
D16*
%TO.C,D6*%
X171950000Y-69210000D03*
D17*
X171950000Y-61590000D03*
%TD*%
D18*
%TO.C,SW14*%
X100151000Y-102604000D03*
D19*
X105231000Y-102604000D03*
D18*
X110311000Y-102604000D03*
D20*
X107771000Y-97524000D03*
X101421000Y-100064000D03*
%TD*%
D16*
%TO.C,D20*%
X162370000Y-126435000D03*
D17*
X162370000Y-118815000D03*
%TD*%
D16*
%TO.C,D3*%
X114800000Y-69210000D03*
D17*
X114800000Y-61590000D03*
%TD*%
D13*
%TO.C,J5*%
X194612500Y-95387500D03*
X194612500Y-107387500D03*
X206612500Y-95387500D03*
X206612500Y-107387500D03*
D14*
X202612500Y-92787500D03*
D15*
X209212500Y-103387500D03*
D14*
X200612500Y-92787500D03*
X198612500Y-92787500D03*
D15*
X209212500Y-99387500D03*
X209212500Y-101387500D03*
%TD*%
D18*
%TO.C,SW18*%
X176351000Y-102604000D03*
D19*
X181431000Y-102604000D03*
D18*
X186511000Y-102604000D03*
D20*
X183971000Y-97524000D03*
X177621000Y-100064000D03*
%TD*%
D16*
%TO.C,D13*%
X76700000Y-107310000D03*
D17*
X76700000Y-99690000D03*
%TD*%
D16*
%TO.C,D1*%
X76700000Y-69255000D03*
D17*
X76700000Y-61635000D03*
%TD*%
D18*
%TO.C,SW17*%
X157301000Y-102604000D03*
D19*
X162381000Y-102604000D03*
D18*
X167461000Y-102604000D03*
D20*
X164921000Y-97524000D03*
X158571000Y-100064000D03*
%TD*%
D21*
%TO.C,SW25*%
X107000000Y-43850000D03*
D22*
X107000000Y-48850000D03*
X107000000Y-46350000D03*
D23*
X114500000Y-40750000D03*
X114500000Y-51950000D03*
%TD*%
D16*
%TO.C,D21*%
X181370000Y-126435000D03*
D17*
X181370000Y-118815000D03*
%TD*%
D18*
%TO.C,SW20*%
X166791000Y-121924000D03*
D19*
X171871000Y-121924000D03*
D18*
X176951000Y-121924000D03*
D20*
X174411000Y-116844000D03*
X168061000Y-119384000D03*
%TD*%
D18*
%TO.C,SW1*%
X81101000Y-64504000D03*
D19*
X86181000Y-64504000D03*
D18*
X91261000Y-64504000D03*
D20*
X88721000Y-59424000D03*
X82371000Y-61964000D03*
%TD*%
D21*
%TO.C,SW23*%
X145250000Y-43850000D03*
D22*
X145250000Y-48850000D03*
X145250000Y-46350000D03*
D23*
X152750000Y-40750000D03*
X152750000Y-51950000D03*
%TD*%
D18*
%TO.C,SW11*%
X157301000Y-83554000D03*
D19*
X162381000Y-83554000D03*
D18*
X167461000Y-83554000D03*
D20*
X164921000Y-78474000D03*
X158571000Y-81014000D03*
%TD*%
D16*
%TO.C,D17*%
X152900000Y-107310000D03*
D17*
X152900000Y-99690000D03*
%TD*%
D16*
%TO.C,D5*%
X152900000Y-69210000D03*
D17*
X152900000Y-61590000D03*
%TD*%
D16*
%TO.C,D19*%
X143370000Y-126435000D03*
D17*
X143370000Y-118815000D03*
%TD*%
D18*
%TO.C,SW9*%
X119201000Y-83554000D03*
D19*
X124281000Y-83554000D03*
D18*
X129361000Y-83554000D03*
D20*
X126821000Y-78474000D03*
X120471000Y-81014000D03*
%TD*%
D18*
%TO.C,SW10*%
X138251000Y-83554000D03*
D19*
X143331000Y-83554000D03*
D18*
X148411000Y-83554000D03*
D20*
X145871000Y-78474000D03*
X139521000Y-81014000D03*
%TD*%
D16*
%TO.C,D11*%
X152900000Y-88260000D03*
D17*
X152900000Y-80640000D03*
%TD*%
D18*
%TO.C,SW15*%
X119201000Y-102604000D03*
D19*
X124281000Y-102604000D03*
D18*
X129361000Y-102604000D03*
D20*
X126821000Y-97524000D03*
X120471000Y-100064000D03*
%TD*%
D16*
%TO.C,D4*%
X133850000Y-69210000D03*
D17*
X133850000Y-61590000D03*
%TD*%
D18*
%TO.C,SW5*%
X157301000Y-64504000D03*
D19*
X162381000Y-64504000D03*
D18*
X167461000Y-64504000D03*
D20*
X164921000Y-59424000D03*
X158571000Y-61964000D03*
%TD*%
D24*
%TO.C,U1*%
X193750000Y-39670000D03*
D25*
X193750000Y-42210000D03*
X193750000Y-44750000D03*
X193750000Y-47290000D03*
X193750000Y-49830000D03*
X193750000Y-52370000D03*
X193750000Y-54910000D03*
X193750000Y-57450000D03*
X193750000Y-59990000D03*
X193750000Y-62530000D03*
X193750000Y-65070000D03*
X193750000Y-67610000D03*
X193750000Y-70150000D03*
X193750000Y-72690000D03*
X193750000Y-75230000D03*
X193750000Y-77770000D03*
X193750000Y-80310000D03*
X211550000Y-80310000D03*
X211550000Y-77770000D03*
X211550000Y-75230000D03*
X211550000Y-72690000D03*
X211550000Y-70150000D03*
X211550000Y-67610000D03*
X211550000Y-65070000D03*
X211550000Y-62530000D03*
X211550000Y-59990000D03*
X211550000Y-57450000D03*
X211550000Y-54910000D03*
X211550000Y-52370000D03*
X211550000Y-49830000D03*
X211550000Y-47290000D03*
X211550000Y-44750000D03*
X211550000Y-42210000D03*
D24*
X211550000Y-39670000D03*
D25*
X196290000Y-80310000D03*
X209010000Y-80310000D03*
%TD*%
D16*
%TO.C,D7*%
X76700000Y-88260000D03*
D17*
X76700000Y-80640000D03*
%TD*%
D18*
%TO.C,SW13*%
X81101000Y-102604000D03*
D19*
X86181000Y-102604000D03*
D18*
X91261000Y-102604000D03*
D20*
X88721000Y-97524000D03*
X82371000Y-100064000D03*
%TD*%
D16*
%TO.C,D18*%
X171950000Y-107310000D03*
D17*
X171950000Y-99690000D03*
%TD*%
D16*
%TO.C,D15*%
X114800000Y-107310000D03*
D17*
X114800000Y-99690000D03*
%TD*%
D21*
%TO.C,SW24*%
X126000000Y-43850000D03*
D22*
X126000000Y-48850000D03*
X126000000Y-46350000D03*
D23*
X133500000Y-40750000D03*
X133500000Y-51950000D03*
%TD*%
D18*
%TO.C,SW2*%
X100151000Y-64504000D03*
D19*
X105231000Y-64504000D03*
D18*
X110311000Y-64504000D03*
D20*
X107771000Y-59424000D03*
X101421000Y-61964000D03*
%TD*%
D26*
%TO.C,J4*%
X184850000Y-40950000D03*
X184850000Y-47950000D03*
D27*
X187000000Y-45750000D03*
X187000000Y-42750000D03*
X182700000Y-51250000D03*
X187000000Y-49750000D03*
%TD*%
D21*
%TO.C,SW26*%
X88250000Y-43850000D03*
D22*
X88250000Y-48850000D03*
X88250000Y-46350000D03*
D23*
X95750000Y-40750000D03*
X95750000Y-51950000D03*
%TD*%
D16*
%TO.C,D8*%
X95750000Y-88260000D03*
D17*
X95750000Y-80640000D03*
%TD*%
D21*
%TO.C,SW27*%
X164250000Y-43850000D03*
D22*
X164250000Y-48850000D03*
X164250000Y-46350000D03*
D23*
X171750000Y-40750000D03*
X171750000Y-51950000D03*
%TD*%
D16*
%TO.C,D2*%
X95701000Y-69310000D03*
D17*
X95701000Y-61690000D03*
%TD*%
D18*
%TO.C,SW3*%
X119201000Y-64504000D03*
D19*
X124281000Y-64504000D03*
D18*
X129361000Y-64504000D03*
D20*
X126821000Y-59424000D03*
X120471000Y-61964000D03*
%TD*%
D18*
%TO.C,SW4*%
X138251000Y-64504000D03*
D19*
X143331000Y-64504000D03*
D18*
X148411000Y-64504000D03*
D20*
X145871000Y-59424000D03*
X139521000Y-61964000D03*
%TD*%
D18*
%TO.C,SW6*%
X176351000Y-64504000D03*
D19*
X181431000Y-64504000D03*
D18*
X186511000Y-64504000D03*
D20*
X183971000Y-59424000D03*
X177621000Y-61964000D03*
%TD*%
D18*
%TO.C,SW8*%
X100151000Y-83554000D03*
D19*
X105231000Y-83554000D03*
D18*
X110311000Y-83554000D03*
D20*
X107771000Y-78474000D03*
X101421000Y-81014000D03*
%TD*%
D16*
%TO.C,D22*%
X191370000Y-145935000D03*
D17*
X191370000Y-138315000D03*
%TD*%
D18*
%TO.C,SW22*%
X195661000Y-141424000D03*
D19*
X200741000Y-141424000D03*
D18*
X205821000Y-141424000D03*
D20*
X203281000Y-136344000D03*
X196931000Y-138884000D03*
%TD*%
D16*
%TO.C,D16*%
X133850000Y-107310000D03*
D17*
X133850000Y-99690000D03*
%TD*%
D16*
%TO.C,D10*%
X133850000Y-88260000D03*
D17*
X133850000Y-80640000D03*
%TD*%
D16*
%TO.C,D14*%
X95750000Y-107310000D03*
D17*
X95750000Y-99690000D03*
%TD*%
D18*
%TO.C,SW19*%
X147741000Y-121924000D03*
D19*
X152821000Y-121924000D03*
D18*
X157901000Y-121924000D03*
D20*
X155361000Y-116844000D03*
X149011000Y-119384000D03*
%TD*%
D18*
%TO.C,SW7*%
X81101000Y-83554000D03*
D19*
X86181000Y-83554000D03*
D18*
X91261000Y-83554000D03*
D20*
X88721000Y-78474000D03*
X82371000Y-81014000D03*
%TD*%
D18*
%TO.C,SW16*%
X138251000Y-102604000D03*
D19*
X143331000Y-102604000D03*
D18*
X148411000Y-102604000D03*
D20*
X145871000Y-97524000D03*
X139521000Y-100064000D03*
%TD*%
D18*
%TO.C,SW21*%
X185841000Y-121924000D03*
D19*
X190921000Y-121924000D03*
D18*
X196001000Y-121924000D03*
D20*
X193461000Y-116844000D03*
X187111000Y-119384000D03*
%TD*%
%LPD*%
M02*
