M48
; DRILL file {KiCad 9.0.0} date 2025-03-26T22:43:06+0900
; FORMAT={-:-/ absolute / inch / decimal}
; #@! TF.CreationDate,2025-03-26T22:43:06+09:00
; #@! TF.GenerationSoftware,Kicad,Pcbnew,9.0.0
; #@! TF.FileFunction,Plated,1,2,PTH
FMAT,2
INCH
; #@! TA.AperFunction,Plated,PTH,ViaDrill
T1C0.0118
; #@! TA.AperFunction,Plated,PTH,ComponentDrill
T2C0.0315
; #@! TA.AperFunction,Plated,PTH,ComponentDrill
T3C0.0394
; #@! TA.AperFunction,Plated,PTH,ComponentDrill
T4C0.0398
; #@! TA.AperFunction,Plated,PTH,ComponentDrill
T5C0.0591
; #@! TA.AperFunction,Plated,PTH,ComponentDrill
T6C0.0866
%
G90
G05
T1
X3.2579Y-1.7815
X3.2677Y-3.4547
X3.5236Y-2.7362
X3.563Y-2.126
X3.5728Y-4.2224
X3.9567Y-3.4941
X4.0945Y-1.7323
X4.2717Y-4.1929
X4.2913Y-2.0646
X4.311Y-2.7461
X4.7146Y-3.4843
X4.8327Y-1.7421
X5.0394Y-4.1929
X5.0492Y-2.6575
X5.1083Y-2.1063
X5.4921Y-2.6575
X5.4921Y-4.2028
X5.8169Y-2.0472
X5.8169Y-3.4547
X6.0335Y-4.9902
X6.25Y-2.6969
X6.3189Y-4.2224
X6.3287Y-1.6831
X6.5551Y-3.4547
X6.8898Y-4.9803
X7.1063Y-1.7913
X7.1063Y-3.4547
X7.1654Y-2.6476
X7.2638Y-4.1929
X7.687Y-3.5925
X7.7264Y-1.9587
X7.7362Y-1.811
X7.7362Y-2.7756
X7.7657Y-1.8504
X7.9331Y-1.6929
X7.9429Y-4.1634
X7.9626Y-3.1299
X7.9921Y-3.0315
X8.0217Y-2.9232
X8.0512Y-2.815
X8.0807Y-2.7067
X8.1102Y-2.5984
X8.1299Y-4.9606
X8.1398Y-2.4902
X8.189Y-1.8012
X8.2382Y-3.4252
X8.3366Y-5.3248
T2
X3.0197Y-2.4266
X3.0197Y-2.7266
X3.0197Y-3.1748
X3.0197Y-3.4748
X3.0197Y-3.9248
X3.0197Y-4.2248
X3.7678Y-2.4287
X3.7678Y-2.7287
X3.7697Y-3.1748
X3.7697Y-3.4748
X3.7697Y-3.9248
X3.7697Y-4.2248
X4.5197Y-2.4248
X4.5197Y-2.7248
X4.5197Y-3.1748
X4.5197Y-3.4748
X4.5197Y-3.9248
X4.5197Y-4.2248
X5.2697Y-2.4248
X5.2697Y-2.7248
X5.2697Y-3.1748
X5.2697Y-3.4748
X5.2697Y-3.9248
X5.2697Y-4.2248
X5.6445Y-4.6778
X5.6445Y-4.9778
X6.0197Y-2.4248
X6.0197Y-2.7248
X6.0197Y-3.1748
X6.0197Y-3.4748
X6.0197Y-3.9248
X6.0197Y-4.2248
X6.3925Y-4.6778
X6.3925Y-4.9778
X6.7697Y-2.4248
X6.7697Y-2.7248
X6.7697Y-3.1748
X6.7697Y-3.4748
X6.7697Y-3.9248
X6.7697Y-4.2248
X7.1406Y-4.6778
X7.1406Y-4.9778
X7.5343Y-5.4455
X7.5343Y-5.7455
T3
X3.4744Y-1.7264
X3.4744Y-1.8248
X3.4744Y-1.9232
X4.2126Y-1.7264
X4.2126Y-1.8248
X4.2126Y-1.9232
X4.9606Y-1.7264
X4.9606Y-1.8248
X4.9606Y-1.9232
X5.7185Y-1.7264
X5.7185Y-1.8248
X5.7185Y-1.9232
X6.4665Y-1.7264
X6.4665Y-1.8248
X6.4665Y-1.9232
X7.628Y-1.5618
X7.628Y-1.6618
X7.628Y-1.7618
X7.628Y-1.8618
X7.628Y-1.9618
X7.628Y-2.0618
X7.628Y-2.1618
X7.628Y-2.2618
X7.628Y-2.3618
X7.628Y-2.4618
X7.628Y-2.5618
X7.628Y-2.6618
X7.628Y-2.7618
X7.628Y-2.8618
X7.628Y-2.9618
X7.628Y-3.0618
X7.628Y-3.1618
X7.728Y-3.1618
X8.2287Y-3.1618
X8.3287Y-1.5618
X8.3287Y-1.6618
X8.3287Y-1.7618
X8.3287Y-1.8618
X8.3287Y-1.9618
X8.3287Y-2.0618
X8.3287Y-2.1618
X8.3287Y-2.2618
X8.3287Y-2.3618
X8.3287Y-2.4618
X8.3287Y-2.5618
X8.3287Y-2.6618
X8.3287Y-2.7618
X8.3287Y-2.8618
X8.3287Y-2.9618
X8.3287Y-3.0618
X8.3287Y-3.1618
T4
X7.8194Y-3.6531
X7.8981Y-3.6531
X7.9769Y-3.6531
X8.2367Y-3.9129
X8.2367Y-3.9916
X8.2367Y-4.0704
T5
X3.243Y-2.4395
X3.243Y-3.1895
X3.243Y-3.9395
X3.493Y-2.3395
X3.493Y-3.0895
X3.493Y-3.8395
X3.993Y-2.4395
X3.993Y-3.1895
X3.993Y-3.9395
X4.243Y-2.3395
X4.243Y-3.0895
X4.243Y-3.8395
X4.743Y-2.4395
X4.743Y-3.1895
X4.743Y-3.9395
X4.993Y-2.3395
X4.993Y-3.0895
X4.993Y-3.8395
X5.493Y-2.4395
X5.493Y-3.1895
X5.493Y-3.9395
X5.743Y-2.3395
X5.743Y-3.0895
X5.743Y-3.8395
X5.8666Y-4.7002
X6.1166Y-4.6002
X6.243Y-2.4395
X6.243Y-3.1895
X6.243Y-3.9395
X6.493Y-2.3395
X6.493Y-3.0895
X6.493Y-3.8395
X6.6166Y-4.7002
X6.8666Y-4.6002
X6.993Y-2.4395
X6.993Y-3.1895
X6.993Y-3.9395
X7.243Y-2.3395
X7.243Y-3.0895
X7.243Y-3.8395
X7.3666Y-4.7002
X7.6166Y-4.6002
X7.7532Y-5.4679
X8.0032Y-5.3679
T6
X3.7697Y-1.6043
X3.7697Y-2.0453
X4.5079Y-1.6043
X4.5079Y-2.0453
X5.2559Y-1.6043
X5.2559Y-2.0453
X6.0138Y-1.6043
X6.0138Y-2.0453
X6.7618Y-1.6043
X6.7618Y-2.0453
T3
G00X7.1929Y-2.0079
M15
G01X7.1929Y-2.0276
M16
G05
G00X7.3622Y-1.6732
M15
G01X7.3622Y-1.6929
M16
G05
G00X7.3622Y-1.7913
M15
G01X7.3622Y-1.811
M16
G05
G00X7.3622Y-1.9488
M15
G01X7.3622Y-1.9685
M16
G05
M30
