M48
; DRILL file {KiCad 9.0.0} date 2025-03-25T02:03:41+0900
; FORMAT={-:-/ absolute / metric / decimal}
; #@! TF.CreationDate,2025-03-25T02:03:41+09:00
; #@! TF.GenerationSoftware,Kicad,Pcbnew,9.0.0
; #@! TF.FileFunction,MixedPlating,1,2
FMAT,2
METRIC
; #@! TA.AperFunction,Plated,PTH,ComponentDrill
T1C0.250
; #@! TA.AperFunction,Plated,PTH,ViaDrill
T2C0.300
; #@! TA.AperFunction,Plated,PTH,ComponentDrill
T3C0.550
; #@! TA.AperFunction,Plated,PTH,ComponentDrill
T4C1.000
; #@! TA.AperFunction,Plated,PTH,ComponentDrill
T5C1.010
; #@! TA.AperFunction,Plated,PTH,ComponentDrill
T6C1.500
; #@! TA.AperFunction,NonPlated,NPTH,ComponentDrill
T7C1.200
; #@! TA.AperFunction,NonPlated,NPTH,ComponentDrill
T8C1.700
; #@! TA.AperFunction,NonPlated,NPTH,ComponentDrill
T9C2.010
; #@! TA.AperFunction,NonPlated,NPTH,ComponentDrill
T10C4.000
%
G90
G05
T2
X73.75Y-76.75
X74.0Y-107.0
X78.25Y-56.75
X79.75Y-93.75
X90.75Y-74.25
X92.0Y-112.75
X92.75Y-50.75
X94.821Y-111.032
X94.821Y-109.424
X103.25Y-69.0
X103.75Y-107.75
X111.0Y-88.25
X113.821Y-109.424
X113.83Y-111.647
X121.5Y-88.25
X124.5Y-50.0
X128.5Y-113.0
X129.0Y-68.75
X129.5Y-107.5
X132.821Y-109.424
X132.848Y-112.306
X140.75Y-70.0
X140.75Y-107.75
X144.5Y-116.0
X146.0Y-129.75
X148.5Y-87.25
X151.821Y-109.424
X151.821Y-112.924
X159.0Y-128.5
X159.25Y-89.75
X163.5Y-114.75
X164.75Y-52.0
X165.25Y-106.0
X166.75Y-67.75
X170.821Y-109.424
X170.822Y-113.584
X177.0Y-127.5
X178.0Y-106.5
X180.0Y-68.75
X183.821Y-51.424
X184.25Y-88.5
X186.0Y-53.0
X186.5Y-52.0
X186.5Y-127.25
X187.0Y-105.0
X187.0Y-108.5
X187.5Y-54.5
X188.0Y-105.0
X188.0Y-108.5
X189.0Y-54.5
X189.0Y-105.0
X189.0Y-108.5
X189.321Y-51.424
X189.75Y-59.25
X190.25Y-58.25
X190.5Y-108.5
X191.5Y-103.0
X191.75Y-91.5
X192.0Y-111.5
X192.5Y-84.0
X192.5Y-86.5
X192.75Y-68.5
X193.5Y-91.5
X194.0Y-99.5
X194.25Y-107.5
X194.25Y-109.25
X194.637Y-92.025
X195.126Y-102.135
X195.5Y-112.5
X195.91Y-94.666
X195.922Y-102.213
X196.25Y-56.5
X196.25Y-105.0
X196.25Y-109.25
X196.562Y-107.1
X196.75Y-102.25
X197.25Y-145.0
X199.0Y-109.5
X199.75Y-102.75
X200.0Y-111.75
X201.0Y-71.25
X201.0Y-115.5
X201.75Y-97.25
X202.0Y-121.5
X202.25Y-110.5
X202.5Y-95.25
X206.0Y-82.25
X208.25Y-128.0
T3
X181.726Y-49.114
X190.916Y-49.114
T4
X204.5Y-59.725
X204.5Y-62.265
X204.6Y-65.945
X204.6Y-68.485
X204.6Y-71.025
T5
X197.821Y-74.824
X199.821Y-74.824
X201.821Y-74.824
X208.421Y-81.424
X208.421Y-83.424
X208.421Y-85.424
T6
X82.371Y-61.964
X82.371Y-81.014
X82.371Y-100.064
X88.721Y-59.424
X88.721Y-78.474
X88.721Y-97.524
X101.421Y-61.964
X101.421Y-81.014
X101.421Y-100.064
X107.771Y-59.424
X107.771Y-78.474
X107.771Y-97.524
X120.471Y-61.964
X120.471Y-81.014
X120.471Y-100.064
X126.821Y-59.424
X126.821Y-78.474
X126.821Y-97.524
X139.521Y-61.964
X139.521Y-81.014
X139.521Y-100.064
X145.871Y-59.424
X145.871Y-78.474
X145.871Y-97.524
X149.011Y-119.384
X155.361Y-116.844
X158.571Y-61.964
X158.571Y-81.014
X158.571Y-100.064
X164.921Y-59.424
X164.921Y-78.474
X164.921Y-97.524
X168.061Y-119.384
X174.411Y-116.844
X177.621Y-61.964
X177.621Y-81.014
X177.621Y-100.064
X183.971Y-59.424
X183.971Y-78.474
X183.971Y-97.524
X187.111Y-119.384
X193.461Y-116.844
X196.931Y-138.884
X203.281Y-136.344
T7
X202.3Y-52.15
X209.3Y-52.15
T8
X81.101Y-64.504
X81.101Y-83.554
X81.101Y-102.604
X91.261Y-64.504
X91.261Y-83.554
X91.261Y-102.604
X100.151Y-64.504
X100.151Y-83.554
X100.151Y-102.604
X110.311Y-64.504
X110.311Y-83.554
X110.311Y-102.604
X119.201Y-64.504
X119.201Y-83.554
X119.201Y-102.604
X129.361Y-64.504
X129.361Y-83.554
X129.361Y-102.604
X138.251Y-64.504
X138.251Y-83.554
X138.251Y-102.604
X147.741Y-121.924
X148.411Y-64.504
X148.411Y-83.554
X148.411Y-102.604
X157.301Y-64.504
X157.301Y-83.554
X157.301Y-102.604
X157.901Y-121.924
X166.791Y-121.924
X167.461Y-64.504
X167.461Y-83.554
X167.461Y-102.604
X176.351Y-64.504
X176.351Y-83.554
X176.351Y-102.604
X176.951Y-121.924
X185.841Y-121.924
X186.511Y-64.504
X186.511Y-83.554
X186.511Y-102.604
X195.661Y-141.424
X196.001Y-121.924
X205.821Y-141.424
T9
X193.821Y-77.424
X193.821Y-89.424
X205.821Y-77.424
X205.821Y-89.424
T10
X86.181Y-64.504
X86.181Y-83.554
X86.181Y-102.604
X105.231Y-64.504
X105.231Y-83.554
X105.231Y-102.604
X124.281Y-64.504
X124.281Y-83.554
X124.281Y-102.604
X143.331Y-64.504
X143.331Y-83.554
X143.331Y-102.604
X152.821Y-121.924
X162.381Y-64.504
X162.381Y-83.554
X162.381Y-102.604
X171.871Y-121.924
X181.431Y-64.504
X181.431Y-83.554
X181.431Y-102.604
X190.921Y-121.924
X200.741Y-141.424
T1
G00X181.726Y-46.884
M15
G01X181.726Y-45.384
M16
G05
G00X190.916Y-46.884
M15
G01X190.916Y-45.384
M16
G05
T4
G00X199.25Y-50.0
M15
G01X198.75Y-50.0
M16
G05
G00X200.75Y-54.3
M15
G01X200.25Y-54.3
M16
G05
G00X204.75Y-54.3
M15
G01X204.25Y-54.3
M16
G05
G00X207.75Y-54.3
M15
G01X207.25Y-54.3
M16
G05
M30
