%TF.GenerationSoftware,KiCad,Pcbnew,9.0.0*%
%TF.CreationDate,2025-03-25T01:57:01+09:00*%
%TF.ProjectId,keyboardR,6b657962-6f61-4726-9452-2e6b69636164,rev?*%
%TF.SameCoordinates,Original*%
%TF.FileFunction,Paste,Top*%
%TF.FilePolarity,Positive*%
%FSLAX46Y46*%
G04 Gerber Fmt 4.6, Leading zero omitted, Abs format (unit mm)*
G04 Created by KiCad (PCBNEW 9.0.0) date 2025-03-25 01:57:01*
%MOMM*%
%LPD*%
G01*
G04 APERTURE LIST*
G04 Aperture macros list*
%AMRoundRect*
0 Rectangle with rounded corners*
0 $1 Rounding radius*
0 $2 $3 $4 $5 $6 $7 $8 $9 X,Y pos of 4 corners*
0 Add a 4 corners polygon primitive as box body*
4,1,4,$2,$3,$4,$5,$6,$7,$8,$9,$2,$3,0*
0 Add four circle primitives for the rounded corners*
1,1,$1+$1,$2,$3*
1,1,$1+$1,$4,$5*
1,1,$1+$1,$6,$7*
1,1,$1+$1,$8,$9*
0 Add four rect primitives between the rounded corners*
20,1,$1+$1,$2,$3,$4,$5,0*
20,1,$1+$1,$4,$5,$6,$7,0*
20,1,$1+$1,$6,$7,$8,$9,0*
20,1,$1+$1,$8,$9,$2,$3,0*%
G04 Aperture macros list end*
%ADD10R,1.200000X1.400000*%
%ADD11RoundRect,0.200000X-0.275000X0.200000X-0.275000X-0.200000X0.275000X-0.200000X0.275000X0.200000X0*%
%ADD12RoundRect,0.200000X-0.200000X-0.275000X0.200000X-0.275000X0.200000X0.275000X-0.200000X0.275000X0*%
%ADD13RoundRect,0.200000X0.275000X-0.200000X0.275000X0.200000X-0.275000X0.200000X-0.275000X-0.200000X0*%
%ADD14RoundRect,0.225000X0.250000X-0.225000X0.250000X0.225000X-0.250000X0.225000X-0.250000X-0.225000X0*%
%ADD15RoundRect,0.225000X-0.225000X-0.250000X0.225000X-0.250000X0.225000X0.250000X-0.225000X0.250000X0*%
%ADD16RoundRect,0.225000X0.375000X-0.225000X0.375000X0.225000X-0.375000X0.225000X-0.375000X-0.225000X0*%
%ADD17RoundRect,0.250000X0.625000X-0.312500X0.625000X0.312500X-0.625000X0.312500X-0.625000X-0.312500X0*%
%ADD18RoundRect,0.140000X0.140000X0.170000X-0.140000X0.170000X-0.140000X-0.170000X0.140000X-0.170000X0*%
%ADD19RoundRect,0.375000X-0.375000X0.625000X-0.375000X-0.625000X0.375000X-0.625000X0.375000X0.625000X0*%
%ADD20RoundRect,0.500000X-1.400000X0.500000X-1.400000X-0.500000X1.400000X-0.500000X1.400000X0.500000X0*%
%ADD21R,0.533400X1.524000*%
%ADD22RoundRect,0.225000X-0.250000X0.225000X-0.250000X-0.225000X0.250000X-0.225000X0.250000X0.225000X0*%
%ADD23RoundRect,0.070000X0.070000X0.345000X-0.070000X0.345000X-0.070000X-0.345000X0.070000X-0.345000X0*%
%ADD24RoundRect,0.112500X0.112500X0.302500X-0.112500X0.302500X-0.112500X-0.302500X0.112500X-0.302500X0*%
%ADD25RoundRect,0.249999X0.395001X0.395001X-0.395001X0.395001X-0.395001X-0.395001X0.395001X-0.395001X0*%
%ADD26RoundRect,0.050000X0.387500X0.050000X-0.387500X0.050000X-0.387500X-0.050000X0.387500X-0.050000X0*%
%ADD27RoundRect,0.050000X0.050000X0.387500X-0.050000X0.387500X-0.050000X-0.387500X0.050000X-0.387500X0*%
%ADD28RoundRect,0.225000X0.225000X0.250000X-0.225000X0.250000X-0.225000X-0.250000X0.225000X-0.250000X0*%
G04 APERTURE END LIST*
D10*
%TO.C,Y1*%
X82300000Y-95900000D03*
X82300000Y-98100000D03*
X84000000Y-98100000D03*
X84000000Y-95900000D03*
%TD*%
D11*
%TO.C,R9*%
X91500000Y-103675000D03*
X91500000Y-105325000D03*
%TD*%
%TO.C,R8*%
X89000000Y-103675000D03*
X89000000Y-105325000D03*
%TD*%
D12*
%TO.C,R7*%
X82350000Y-93500000D03*
X84000000Y-93500000D03*
%TD*%
D13*
%TO.C,R6*%
X96234762Y-72325000D03*
X96234762Y-70675000D03*
%TD*%
D11*
%TO.C,R4*%
X91500000Y-106675000D03*
X91500000Y-108325000D03*
%TD*%
%TO.C,R3*%
X89000000Y-106675000D03*
X89000000Y-108325000D03*
%TD*%
%TO.C,R2*%
X112163762Y-51599000D03*
X112163762Y-53249000D03*
%TD*%
%TO.C,R1*%
X109663762Y-51599000D03*
X109663762Y-53249000D03*
%TD*%
D14*
%TO.C,C16*%
X80500000Y-97775000D03*
X80500000Y-96225000D03*
%TD*%
D15*
%TO.C,C15*%
X82500000Y-100000000D03*
X84050000Y-100000000D03*
%TD*%
D16*
%TO.C,D12*%
X116983762Y-85399000D03*
X116983762Y-82099000D03*
%TD*%
%TO.C,D9*%
X174133762Y-85399000D03*
X174133762Y-82099000D03*
%TD*%
D17*
%TO.C,R5*%
X93984762Y-72962500D03*
X93984762Y-70037500D03*
%TD*%
D16*
%TO.C,D6*%
X116983762Y-66349000D03*
X116983762Y-63049000D03*
%TD*%
%TO.C,D20*%
X126663762Y-123574000D03*
X126663762Y-120274000D03*
%TD*%
%TO.C,D3*%
X174133762Y-66349000D03*
X174133762Y-63049000D03*
%TD*%
D18*
%TO.C,C11*%
X88480000Y-99500000D03*
X87520000Y-99500000D03*
%TD*%
D16*
%TO.C,D13*%
X212333762Y-104449000D03*
X212333762Y-101149000D03*
%TD*%
D19*
%TO.C,U2*%
X96284762Y-60274000D03*
X93984762Y-60274000D03*
D20*
X93984762Y-66574000D03*
D19*
X91684762Y-60274000D03*
%TD*%
D16*
%TO.C,D1*%
X212333762Y-66394000D03*
X212333762Y-63094000D03*
%TD*%
D21*
%TO.C,U3*%
X97356464Y-102901207D03*
X96086464Y-102901207D03*
X94816464Y-102901207D03*
X93546464Y-102901207D03*
X93546464Y-110191007D03*
X94816464Y-110191007D03*
X96086464Y-110191007D03*
X97356464Y-110191007D03*
%TD*%
D22*
%TO.C,C10*%
X87984762Y-60225000D03*
X87984762Y-61775000D03*
%TD*%
D16*
%TO.C,D21*%
X107663762Y-123574000D03*
X107663762Y-120274000D03*
%TD*%
D18*
%TO.C,C4*%
X88964762Y-67000000D03*
X88004762Y-67000000D03*
%TD*%
D23*
%TO.C,J1*%
X105663762Y-49874000D03*
X104863762Y-49874000D03*
X104063762Y-49874000D03*
X103263762Y-49874000D03*
X102863762Y-49874000D03*
X102463762Y-49874000D03*
X100863762Y-49874000D03*
X100063762Y-49874000D03*
X99663762Y-49874000D03*
X100463762Y-49874000D03*
X101263762Y-49874000D03*
X101663762Y-49874000D03*
X102063762Y-49874000D03*
X103663762Y-49874000D03*
X104463762Y-49874000D03*
X105263762Y-49874000D03*
D24*
X106178762Y-49874000D03*
X99148762Y-49874000D03*
%TD*%
D18*
%TO.C,C14*%
X88964762Y-66000000D03*
X88004762Y-66000000D03*
%TD*%
D16*
%TO.C,D17*%
X136033762Y-104449000D03*
X136033762Y-101149000D03*
%TD*%
%TO.C,D5*%
X136033762Y-66349000D03*
X136033762Y-63049000D03*
%TD*%
%TO.C,D19*%
X145663762Y-123574000D03*
X145663762Y-120274000D03*
%TD*%
%TO.C,D11*%
X136033762Y-85399000D03*
X136033762Y-82099000D03*
%TD*%
%TO.C,D4*%
X155083762Y-66349000D03*
X155083762Y-63049000D03*
%TD*%
D18*
%TO.C,C6*%
X88964762Y-69000000D03*
X88004762Y-69000000D03*
%TD*%
D25*
%TO.C,U1*%
X94250000Y-97350000D03*
X94250000Y-95750000D03*
X92650000Y-97350000D03*
X92650000Y-95750000D03*
D26*
X96887500Y-99150000D03*
X96887500Y-98750000D03*
X96887500Y-98350000D03*
X96887500Y-97950000D03*
X96887500Y-97550000D03*
X96887500Y-97150000D03*
X96887500Y-96750000D03*
X96887500Y-96350000D03*
X96887500Y-95950000D03*
X96887500Y-95550000D03*
X96887500Y-95150000D03*
X96887500Y-94750000D03*
X96887500Y-94350000D03*
X96887500Y-93950000D03*
D27*
X96050000Y-93112500D03*
X95650000Y-93112500D03*
X95250000Y-93112500D03*
X94850000Y-93112500D03*
X94450000Y-93112500D03*
X94050000Y-93112500D03*
X93650000Y-93112500D03*
X93250000Y-93112500D03*
X92850000Y-93112500D03*
X92450000Y-93112500D03*
X92050000Y-93112500D03*
X91650000Y-93112500D03*
X91250000Y-93112500D03*
X90850000Y-93112500D03*
D26*
X90012500Y-93950000D03*
X90012500Y-94350000D03*
X90012500Y-94750000D03*
X90012500Y-95150000D03*
X90012500Y-95550000D03*
X90012500Y-95950000D03*
X90012500Y-96350000D03*
X90012500Y-96750000D03*
X90012500Y-97150000D03*
X90012500Y-97550000D03*
X90012500Y-97950000D03*
X90012500Y-98350000D03*
X90012500Y-98750000D03*
X90012500Y-99150000D03*
D27*
X90850000Y-99987500D03*
X91250000Y-99987500D03*
X91650000Y-99987500D03*
X92050000Y-99987500D03*
X92450000Y-99987500D03*
X92850000Y-99987500D03*
X93250000Y-99987500D03*
X93650000Y-99987500D03*
X94050000Y-99987500D03*
X94450000Y-99987500D03*
X94850000Y-99987500D03*
X95250000Y-99987500D03*
X95650000Y-99987500D03*
X96050000Y-99987500D03*
%TD*%
D16*
%TO.C,D7*%
X212333762Y-85399000D03*
X212333762Y-82099000D03*
%TD*%
%TO.C,D18*%
X116983762Y-104449000D03*
X116983762Y-101149000D03*
%TD*%
%TO.C,D15*%
X174133762Y-104449000D03*
X174133762Y-101149000D03*
%TD*%
D18*
%TO.C,C12*%
X88480000Y-98500000D03*
X87520000Y-98500000D03*
%TD*%
D16*
%TO.C,D8*%
X193183762Y-85399000D03*
X193183762Y-82099000D03*
%TD*%
%TO.C,D2*%
X193183762Y-66349000D03*
X193183762Y-63049000D03*
%TD*%
D22*
%TO.C,C2*%
X89484762Y-60225000D03*
X89484762Y-61775000D03*
%TD*%
D18*
%TO.C,C9*%
X88964762Y-64000000D03*
X88004762Y-64000000D03*
%TD*%
D28*
%TO.C,C13*%
X88576000Y-101076000D03*
X87026000Y-101076000D03*
%TD*%
D18*
%TO.C,C8*%
X88964762Y-68000000D03*
X88004762Y-68000000D03*
%TD*%
D16*
%TO.C,D22*%
X97663762Y-143074000D03*
X97663762Y-139774000D03*
%TD*%
D18*
%TO.C,C3*%
X88964762Y-63000000D03*
X88004762Y-63000000D03*
%TD*%
D28*
%TO.C,C1*%
X97713762Y-52924000D03*
X96163762Y-52924000D03*
%TD*%
D16*
%TO.C,D16*%
X155083762Y-104449000D03*
X155083762Y-101149000D03*
%TD*%
%TO.C,D10*%
X155083762Y-85399000D03*
X155083762Y-82099000D03*
%TD*%
%TO.C,D14*%
X193183762Y-104449000D03*
X193183762Y-101149000D03*
%TD*%
D18*
%TO.C,C5*%
X88964762Y-70000000D03*
X88004762Y-70000000D03*
%TD*%
%TO.C,C7*%
X88964762Y-65000000D03*
X88004762Y-65000000D03*
%TD*%
M02*
