M48
; DRILL file {KiCad 9.0.0} date 2025-03-25T01:57:03+0900
; FORMAT={-:-/ absolute / metric / decimal}
; #@! TF.CreationDate,2025-03-25T01:57:03+09:00
; #@! TF.GenerationSoftware,Kicad,Pcbnew,9.0.0
; #@! TF.FileFunction,MixedPlating,1,2
FMAT,2
METRIC
; #@! TA.AperFunction,Plated,PTH,ComponentDrill
T1C0.250
; #@! TA.AperFunction,Plated,PTH,ViaDrill
T2C0.300
; #@! TA.AperFunction,Plated,PTH,ComponentDrill
T3C0.550
; #@! TA.AperFunction,Plated,PTH,ComponentDrill
T4C1.000
; #@! TA.AperFunction,Plated,PTH,ComponentDrill
T5C1.010
; #@! TA.AperFunction,Plated,PTH,ComponentDrill
T6C1.500
; #@! TA.AperFunction,NonPlated,NPTH,ComponentDrill
T7C1.200
; #@! TA.AperFunction,NonPlated,NPTH,ComponentDrill
T8C1.700
; #@! TA.AperFunction,NonPlated,NPTH,ComponentDrill
T9C2.010
; #@! TA.AperFunction,NonPlated,NPTH,ComponentDrill
T10C4.000
%
G90
G05
T2
X80.0Y-135.5
X81.75Y-117.5
X85.0Y-92.5
X85.0Y-97.5
X87.0Y-68.25
X87.0Y-102.25
X87.25Y-97.5
X88.0Y-94.25
X88.358Y-86.733
X89.75Y-90.75
X90.0Y-132.75
X90.5Y-91.5
X90.75Y-72.0
X91.01Y-94.092
X91.25Y-83.0
X91.5Y-91.5
X92.25Y-91.0
X92.273Y-99.056
X93.051Y-91.45
X93.584Y-104.38
X93.75Y-94.5
X94.252Y-99.056
X96.0Y-68.75
X96.25Y-147.75
X96.285Y-60.274
X97.0Y-101.0
X97.25Y-74.25
X97.25Y-108.75
X98.25Y-101.75
X98.275Y-99.404
X98.3Y-98.571
X99.375Y-107.875
X99.949Y-52.301
X100.5Y-90.5
X100.5Y-107.75
X100.75Y-93.5
X101.25Y-91.0
X101.75Y-51.5
X101.75Y-127.0
X102.0Y-91.5
X102.5Y-58.5
X102.75Y-92.25
X104.5Y-68.5
X104.75Y-87.25
X105.0Y-114.0
X105.25Y-90.75
X110.25Y-88.0
X110.5Y-116.0
X111.25Y-85.25
X114.0Y-73.0
X119.75Y-48.75
X121.5Y-87.5
X123.0Y-130.75
X126.75Y-114.5
X127.75Y-67.25
X129.75Y-104.75
X138.75Y-125.75
X141.5Y-68.0
X145.5Y-118.75
X146.5Y-88.25
X149.5Y-105.25
X160.75Y-86.75
X166.75Y-50.25
X169.0Y-67.25
X169.0Y-104.75
X179.5Y-67.25
X181.5Y-87.25
X188.0Y-106.0
X194.25Y-60.75
X197.5Y-90.5
X208.5Y-106.75
X208.75Y-72.75
X209.0Y-47.0
T3
X98.069Y-49.114
X107.259Y-49.114
T4
X84.265Y-59.735
X84.265Y-62.275
X84.365Y-65.975
X84.365Y-68.515
X84.365Y-71.055
T5
X80.564Y-81.424
X80.564Y-83.424
X80.564Y-85.424
X87.164Y-74.824
X89.164Y-74.824
X91.164Y-74.824
T6
X84.354Y-138.884
X90.704Y-136.344
X94.314Y-119.464
X100.664Y-116.924
X103.664Y-61.964
X103.664Y-81.014
X103.664Y-100.064
X110.014Y-59.424
X110.014Y-78.474
X110.014Y-97.524
X113.354Y-119.384
X119.704Y-116.844
X122.714Y-61.964
X122.714Y-81.014
X122.714Y-100.064
X129.064Y-59.424
X129.064Y-78.474
X129.064Y-97.524
X132.274Y-119.384
X138.624Y-116.844
X141.764Y-61.964
X141.764Y-81.014
X141.764Y-100.064
X148.114Y-59.424
X148.114Y-78.474
X148.114Y-97.524
X160.814Y-61.964
X160.814Y-81.014
X160.814Y-100.064
X167.164Y-59.424
X167.164Y-78.474
X167.164Y-97.524
X179.864Y-61.964
X179.864Y-81.014
X179.864Y-100.064
X186.214Y-59.424
X186.214Y-78.474
X186.214Y-97.524
X198.914Y-61.964
X198.914Y-81.014
X198.914Y-100.064
X205.264Y-59.424
X205.264Y-78.474
X205.264Y-97.524
T7
X79.864Y-52.474
X86.864Y-52.474
T8
X83.084Y-141.424
X93.044Y-122.004
X93.244Y-141.424
X102.394Y-64.504
X102.394Y-83.554
X102.394Y-102.604
X103.204Y-122.004
X112.084Y-121.924
X112.554Y-64.504
X112.554Y-83.554
X112.554Y-102.604
X121.444Y-64.504
X121.444Y-83.554
X121.444Y-102.604
X122.244Y-121.924
X131.004Y-121.924
X131.604Y-64.504
X131.604Y-83.554
X131.604Y-102.604
X140.494Y-64.504
X140.494Y-83.554
X140.494Y-102.604
X141.164Y-121.924
X150.654Y-64.504
X150.654Y-83.554
X150.654Y-102.604
X159.544Y-64.504
X159.544Y-83.554
X159.544Y-102.604
X169.704Y-64.504
X169.704Y-83.554
X169.704Y-102.604
X178.594Y-64.504
X178.594Y-83.554
X178.594Y-102.604
X188.754Y-64.504
X188.754Y-83.554
X188.754Y-102.604
X197.644Y-64.504
X197.644Y-83.554
X197.644Y-102.604
X207.804Y-64.504
X207.804Y-83.554
X207.804Y-102.604
T9
X83.164Y-77.424
X83.164Y-89.424
X95.164Y-77.424
X95.164Y-89.424
T10
X88.164Y-141.424
X98.124Y-122.004
X107.474Y-64.504
X107.474Y-83.554
X107.474Y-102.604
X117.164Y-121.924
X126.524Y-64.504
X126.524Y-83.554
X126.524Y-102.604
X136.084Y-121.924
X145.574Y-64.504
X145.574Y-83.554
X145.574Y-102.604
X164.624Y-64.504
X164.624Y-83.554
X164.624Y-102.604
X183.674Y-64.504
X183.674Y-83.554
X183.674Y-102.604
X202.724Y-64.504
X202.724Y-83.554
X202.724Y-102.604
T1
G00X98.069Y-46.884
M15
G01X98.069Y-45.384
M16
G05
G00X107.259Y-46.884
M15
G01X107.259Y-45.384
M16
G05
T4
G00X81.414Y-50.324
M15
G01X81.914Y-50.324
M16
G05
G00X84.414Y-50.324
M15
G01X84.914Y-50.324
M16
G05
G00X88.414Y-50.324
M15
G01X88.914Y-50.324
M16
G05
G00X89.914Y-54.624
M15
G01X90.414Y-54.624
M16
G05
M30
