%TF.GenerationSoftware,KiCad,Pcbnew,9.0.0*%
%TF.CreationDate,2025-03-25T01:57:01+09:00*%
%TF.ProjectId,keyboardR,6b657962-6f61-4726-9452-2e6b69636164,rev?*%
%TF.SameCoordinates,Original*%
%TF.FileFunction,Legend,Top*%
%TF.FilePolarity,Positive*%
%FSLAX46Y46*%
G04 Gerber Fmt 4.6, Leading zero omitted, Abs format (unit mm)*
G04 Created by KiCad (PCBNEW 9.0.0) date 2025-03-25 01:57:01*
%MOMM*%
%LPD*%
G01*
G04 APERTURE LIST*
G04 Aperture macros list*
%AMRoundRect*
0 Rectangle with rounded corners*
0 $1 Rounding radius*
0 $2 $3 $4 $5 $6 $7 $8 $9 X,Y pos of 4 corners*
0 Add a 4 corners polygon primitive as box body*
4,1,4,$2,$3,$4,$5,$6,$7,$8,$9,$2,$3,0*
0 Add four circle primitives for the rounded corners*
1,1,$1+$1,$2,$3*
1,1,$1+$1,$4,$5*
1,1,$1+$1,$6,$7*
1,1,$1+$1,$8,$9*
0 Add four rect primitives between the rounded corners*
20,1,$1+$1,$2,$3,$4,$5,0*
20,1,$1+$1,$4,$5,$6,$7,0*
20,1,$1+$1,$6,$7,$8,$9,0*
20,1,$1+$1,$8,$9,$2,$3,0*%
G04 Aperture macros list end*
%ADD10C,0.150000*%
%ADD11C,0.120000*%
%ADD12C,0.152400*%
%ADD13C,2.010000*%
%ADD14O,2.000000X1.500000*%
%ADD15O,1.500000X2.000000*%
%ADD16R,1.200000X1.400000*%
%ADD17RoundRect,0.200000X-0.275000X0.200000X-0.275000X-0.200000X0.275000X-0.200000X0.275000X0.200000X0*%
%ADD18RoundRect,0.200000X-0.200000X-0.275000X0.200000X-0.275000X0.200000X0.275000X-0.200000X0.275000X0*%
%ADD19RoundRect,0.200000X0.275000X-0.200000X0.275000X0.200000X-0.275000X0.200000X-0.275000X-0.200000X0*%
%ADD20C,1.200000*%
%ADD21O,2.300000X1.500000*%
%ADD22R,1.700000X1.700000*%
%ADD23O,1.700000X1.700000*%
%ADD24RoundRect,0.225000X0.250000X-0.225000X0.250000X0.225000X-0.250000X0.225000X-0.250000X-0.225000X0*%
%ADD25RoundRect,0.225000X-0.225000X-0.250000X0.225000X-0.250000X0.225000X0.250000X-0.225000X0.250000X0*%
%ADD26RoundRect,0.225000X0.375000X-0.225000X0.375000X0.225000X-0.375000X0.225000X-0.375000X-0.225000X0*%
%ADD27C,1.700000*%
%ADD28C,4.000000*%
%ADD29C,2.200000*%
%ADD30RoundRect,0.250000X0.625000X-0.312500X0.625000X0.312500X-0.625000X0.312500X-0.625000X-0.312500X0*%
%ADD31RoundRect,0.140000X0.140000X0.170000X-0.140000X0.170000X-0.140000X-0.170000X0.140000X-0.170000X0*%
%ADD32RoundRect,0.375000X-0.375000X0.625000X-0.375000X-0.625000X0.375000X-0.625000X0.375000X0.625000X0*%
%ADD33RoundRect,0.500000X-1.400000X0.500000X-1.400000X-0.500000X1.400000X-0.500000X1.400000X0.500000X0*%
%ADD34R,0.533400X1.524000*%
%ADD35RoundRect,0.225000X-0.250000X0.225000X-0.250000X-0.225000X0.250000X-0.225000X0.250000X0.225000X0*%
%ADD36RoundRect,0.070000X0.070000X0.345000X-0.070000X0.345000X-0.070000X-0.345000X0.070000X-0.345000X0*%
%ADD37RoundRect,0.112500X0.112500X0.302500X-0.112500X0.302500X-0.112500X-0.302500X0.112500X-0.302500X0*%
%ADD38C,0.850000*%
%ADD39O,0.550000X2.050000*%
%ADD40RoundRect,0.050000X0.387500X0.050000X-0.387500X0.050000X-0.387500X-0.050000X0.387500X-0.050000X0*%
%ADD41RoundRect,0.050000X0.050000X0.387500X-0.050000X0.387500X-0.050000X-0.387500X0.050000X-0.387500X0*%
%ADD42R,3.200000X3.200000*%
%ADD43RoundRect,0.225000X0.225000X0.250000X-0.225000X0.250000X-0.225000X-0.250000X0.225000X-0.250000X0*%
G04 APERTURE END LIST*
D10*
X85578628Y-97476190D02*
X86054819Y-97476190D01*
X85054819Y-97809523D02*
X85578628Y-97476190D01*
X85578628Y-97476190D02*
X85054819Y-97142857D01*
X86054819Y-96285714D02*
X86054819Y-96857142D01*
X86054819Y-96571428D02*
X85054819Y-96571428D01*
X85054819Y-96571428D02*
X85197676Y-96666666D01*
X85197676Y-96666666D02*
X85292914Y-96761904D01*
X85292914Y-96761904D02*
X85340533Y-96857142D01*
X93384819Y-104666666D02*
X92908628Y-104999999D01*
X93384819Y-105238094D02*
X92384819Y-105238094D01*
X92384819Y-105238094D02*
X92384819Y-104857142D01*
X92384819Y-104857142D02*
X92432438Y-104761904D01*
X92432438Y-104761904D02*
X92480057Y-104714285D01*
X92480057Y-104714285D02*
X92575295Y-104666666D01*
X92575295Y-104666666D02*
X92718152Y-104666666D01*
X92718152Y-104666666D02*
X92813390Y-104714285D01*
X92813390Y-104714285D02*
X92861009Y-104761904D01*
X92861009Y-104761904D02*
X92908628Y-104857142D01*
X92908628Y-104857142D02*
X92908628Y-105238094D01*
X93384819Y-104190475D02*
X93384819Y-103999999D01*
X93384819Y-103999999D02*
X93337200Y-103904761D01*
X93337200Y-103904761D02*
X93289580Y-103857142D01*
X93289580Y-103857142D02*
X93146723Y-103761904D01*
X93146723Y-103761904D02*
X92956247Y-103714285D01*
X92956247Y-103714285D02*
X92575295Y-103714285D01*
X92575295Y-103714285D02*
X92480057Y-103761904D01*
X92480057Y-103761904D02*
X92432438Y-103809523D01*
X92432438Y-103809523D02*
X92384819Y-103904761D01*
X92384819Y-103904761D02*
X92384819Y-104095237D01*
X92384819Y-104095237D02*
X92432438Y-104190475D01*
X92432438Y-104190475D02*
X92480057Y-104238094D01*
X92480057Y-104238094D02*
X92575295Y-104285713D01*
X92575295Y-104285713D02*
X92813390Y-104285713D01*
X92813390Y-104285713D02*
X92908628Y-104238094D01*
X92908628Y-104238094D02*
X92956247Y-104190475D01*
X92956247Y-104190475D02*
X93003866Y-104095237D01*
X93003866Y-104095237D02*
X93003866Y-103904761D01*
X93003866Y-103904761D02*
X92956247Y-103809523D01*
X92956247Y-103809523D02*
X92908628Y-103761904D01*
X92908628Y-103761904D02*
X92813390Y-103714285D01*
X90884819Y-104666666D02*
X90408628Y-104999999D01*
X90884819Y-105238094D02*
X89884819Y-105238094D01*
X89884819Y-105238094D02*
X89884819Y-104857142D01*
X89884819Y-104857142D02*
X89932438Y-104761904D01*
X89932438Y-104761904D02*
X89980057Y-104714285D01*
X89980057Y-104714285D02*
X90075295Y-104666666D01*
X90075295Y-104666666D02*
X90218152Y-104666666D01*
X90218152Y-104666666D02*
X90313390Y-104714285D01*
X90313390Y-104714285D02*
X90361009Y-104761904D01*
X90361009Y-104761904D02*
X90408628Y-104857142D01*
X90408628Y-104857142D02*
X90408628Y-105238094D01*
X90313390Y-104095237D02*
X90265771Y-104190475D01*
X90265771Y-104190475D02*
X90218152Y-104238094D01*
X90218152Y-104238094D02*
X90122914Y-104285713D01*
X90122914Y-104285713D02*
X90075295Y-104285713D01*
X90075295Y-104285713D02*
X89980057Y-104238094D01*
X89980057Y-104238094D02*
X89932438Y-104190475D01*
X89932438Y-104190475D02*
X89884819Y-104095237D01*
X89884819Y-104095237D02*
X89884819Y-103904761D01*
X89884819Y-103904761D02*
X89932438Y-103809523D01*
X89932438Y-103809523D02*
X89980057Y-103761904D01*
X89980057Y-103761904D02*
X90075295Y-103714285D01*
X90075295Y-103714285D02*
X90122914Y-103714285D01*
X90122914Y-103714285D02*
X90218152Y-103761904D01*
X90218152Y-103761904D02*
X90265771Y-103809523D01*
X90265771Y-103809523D02*
X90313390Y-103904761D01*
X90313390Y-103904761D02*
X90313390Y-104095237D01*
X90313390Y-104095237D02*
X90361009Y-104190475D01*
X90361009Y-104190475D02*
X90408628Y-104238094D01*
X90408628Y-104238094D02*
X90503866Y-104285713D01*
X90503866Y-104285713D02*
X90694342Y-104285713D01*
X90694342Y-104285713D02*
X90789580Y-104238094D01*
X90789580Y-104238094D02*
X90837200Y-104190475D01*
X90837200Y-104190475D02*
X90884819Y-104095237D01*
X90884819Y-104095237D02*
X90884819Y-103904761D01*
X90884819Y-103904761D02*
X90837200Y-103809523D01*
X90837200Y-103809523D02*
X90789580Y-103761904D01*
X90789580Y-103761904D02*
X90694342Y-103714285D01*
X90694342Y-103714285D02*
X90503866Y-103714285D01*
X90503866Y-103714285D02*
X90408628Y-103761904D01*
X90408628Y-103761904D02*
X90361009Y-103809523D01*
X90361009Y-103809523D02*
X90313390Y-103904761D01*
X83008333Y-92524819D02*
X82675000Y-92048628D01*
X82436905Y-92524819D02*
X82436905Y-91524819D01*
X82436905Y-91524819D02*
X82817857Y-91524819D01*
X82817857Y-91524819D02*
X82913095Y-91572438D01*
X82913095Y-91572438D02*
X82960714Y-91620057D01*
X82960714Y-91620057D02*
X83008333Y-91715295D01*
X83008333Y-91715295D02*
X83008333Y-91858152D01*
X83008333Y-91858152D02*
X82960714Y-91953390D01*
X82960714Y-91953390D02*
X82913095Y-92001009D01*
X82913095Y-92001009D02*
X82817857Y-92048628D01*
X82817857Y-92048628D02*
X82436905Y-92048628D01*
X83341667Y-91524819D02*
X84008333Y-91524819D01*
X84008333Y-91524819D02*
X83579762Y-92524819D01*
X95259581Y-71666666D02*
X94783390Y-71999999D01*
X95259581Y-72238094D02*
X94259581Y-72238094D01*
X94259581Y-72238094D02*
X94259581Y-71857142D01*
X94259581Y-71857142D02*
X94307200Y-71761904D01*
X94307200Y-71761904D02*
X94354819Y-71714285D01*
X94354819Y-71714285D02*
X94450057Y-71666666D01*
X94450057Y-71666666D02*
X94592914Y-71666666D01*
X94592914Y-71666666D02*
X94688152Y-71714285D01*
X94688152Y-71714285D02*
X94735771Y-71761904D01*
X94735771Y-71761904D02*
X94783390Y-71857142D01*
X94783390Y-71857142D02*
X94783390Y-72238094D01*
X94259581Y-70809523D02*
X94259581Y-70999999D01*
X94259581Y-70999999D02*
X94307200Y-71095237D01*
X94307200Y-71095237D02*
X94354819Y-71142856D01*
X94354819Y-71142856D02*
X94497676Y-71238094D01*
X94497676Y-71238094D02*
X94688152Y-71285713D01*
X94688152Y-71285713D02*
X95069104Y-71285713D01*
X95069104Y-71285713D02*
X95164342Y-71238094D01*
X95164342Y-71238094D02*
X95211962Y-71190475D01*
X95211962Y-71190475D02*
X95259581Y-71095237D01*
X95259581Y-71095237D02*
X95259581Y-70904761D01*
X95259581Y-70904761D02*
X95211962Y-70809523D01*
X95211962Y-70809523D02*
X95164342Y-70761904D01*
X95164342Y-70761904D02*
X95069104Y-70714285D01*
X95069104Y-70714285D02*
X94831009Y-70714285D01*
X94831009Y-70714285D02*
X94735771Y-70761904D01*
X94735771Y-70761904D02*
X94688152Y-70809523D01*
X94688152Y-70809523D02*
X94640533Y-70904761D01*
X94640533Y-70904761D02*
X94640533Y-71095237D01*
X94640533Y-71095237D02*
X94688152Y-71190475D01*
X94688152Y-71190475D02*
X94735771Y-71238094D01*
X94735771Y-71238094D02*
X94831009Y-71285713D01*
X93384819Y-107666666D02*
X92908628Y-107999999D01*
X93384819Y-108238094D02*
X92384819Y-108238094D01*
X92384819Y-108238094D02*
X92384819Y-107857142D01*
X92384819Y-107857142D02*
X92432438Y-107761904D01*
X92432438Y-107761904D02*
X92480057Y-107714285D01*
X92480057Y-107714285D02*
X92575295Y-107666666D01*
X92575295Y-107666666D02*
X92718152Y-107666666D01*
X92718152Y-107666666D02*
X92813390Y-107714285D01*
X92813390Y-107714285D02*
X92861009Y-107761904D01*
X92861009Y-107761904D02*
X92908628Y-107857142D01*
X92908628Y-107857142D02*
X92908628Y-108238094D01*
X92718152Y-106809523D02*
X93384819Y-106809523D01*
X92337200Y-107047618D02*
X93051485Y-107285713D01*
X93051485Y-107285713D02*
X93051485Y-106666666D01*
X90884819Y-107666666D02*
X90408628Y-107999999D01*
X90884819Y-108238094D02*
X89884819Y-108238094D01*
X89884819Y-108238094D02*
X89884819Y-107857142D01*
X89884819Y-107857142D02*
X89932438Y-107761904D01*
X89932438Y-107761904D02*
X89980057Y-107714285D01*
X89980057Y-107714285D02*
X90075295Y-107666666D01*
X90075295Y-107666666D02*
X90218152Y-107666666D01*
X90218152Y-107666666D02*
X90313390Y-107714285D01*
X90313390Y-107714285D02*
X90361009Y-107761904D01*
X90361009Y-107761904D02*
X90408628Y-107857142D01*
X90408628Y-107857142D02*
X90408628Y-108238094D01*
X89884819Y-107333332D02*
X89884819Y-106714285D01*
X89884819Y-106714285D02*
X90265771Y-107047618D01*
X90265771Y-107047618D02*
X90265771Y-106904761D01*
X90265771Y-106904761D02*
X90313390Y-106809523D01*
X90313390Y-106809523D02*
X90361009Y-106761904D01*
X90361009Y-106761904D02*
X90456247Y-106714285D01*
X90456247Y-106714285D02*
X90694342Y-106714285D01*
X90694342Y-106714285D02*
X90789580Y-106761904D01*
X90789580Y-106761904D02*
X90837200Y-106809523D01*
X90837200Y-106809523D02*
X90884819Y-106904761D01*
X90884819Y-106904761D02*
X90884819Y-107190475D01*
X90884819Y-107190475D02*
X90837200Y-107285713D01*
X90837200Y-107285713D02*
X90789580Y-107333332D01*
X114048581Y-52590666D02*
X113572390Y-52923999D01*
X114048581Y-53162094D02*
X113048581Y-53162094D01*
X113048581Y-53162094D02*
X113048581Y-52781142D01*
X113048581Y-52781142D02*
X113096200Y-52685904D01*
X113096200Y-52685904D02*
X113143819Y-52638285D01*
X113143819Y-52638285D02*
X113239057Y-52590666D01*
X113239057Y-52590666D02*
X113381914Y-52590666D01*
X113381914Y-52590666D02*
X113477152Y-52638285D01*
X113477152Y-52638285D02*
X113524771Y-52685904D01*
X113524771Y-52685904D02*
X113572390Y-52781142D01*
X113572390Y-52781142D02*
X113572390Y-53162094D01*
X113143819Y-52209713D02*
X113096200Y-52162094D01*
X113096200Y-52162094D02*
X113048581Y-52066856D01*
X113048581Y-52066856D02*
X113048581Y-51828761D01*
X113048581Y-51828761D02*
X113096200Y-51733523D01*
X113096200Y-51733523D02*
X113143819Y-51685904D01*
X113143819Y-51685904D02*
X113239057Y-51638285D01*
X113239057Y-51638285D02*
X113334295Y-51638285D01*
X113334295Y-51638285D02*
X113477152Y-51685904D01*
X113477152Y-51685904D02*
X114048581Y-52257332D01*
X114048581Y-52257332D02*
X114048581Y-51638285D01*
X111548581Y-52590666D02*
X111072390Y-52923999D01*
X111548581Y-53162094D02*
X110548581Y-53162094D01*
X110548581Y-53162094D02*
X110548581Y-52781142D01*
X110548581Y-52781142D02*
X110596200Y-52685904D01*
X110596200Y-52685904D02*
X110643819Y-52638285D01*
X110643819Y-52638285D02*
X110739057Y-52590666D01*
X110739057Y-52590666D02*
X110881914Y-52590666D01*
X110881914Y-52590666D02*
X110977152Y-52638285D01*
X110977152Y-52638285D02*
X111024771Y-52685904D01*
X111024771Y-52685904D02*
X111072390Y-52781142D01*
X111072390Y-52781142D02*
X111072390Y-53162094D01*
X111548581Y-51638285D02*
X111548581Y-52209713D01*
X111548581Y-51923999D02*
X110548581Y-51923999D01*
X110548581Y-51923999D02*
X110691438Y-52019237D01*
X110691438Y-52019237D02*
X110786676Y-52114475D01*
X110786676Y-52114475D02*
X110834295Y-52209713D01*
X84080428Y-53987019D02*
X84080428Y-54701304D01*
X84080428Y-54701304D02*
X84032809Y-54844161D01*
X84032809Y-54844161D02*
X83937571Y-54939400D01*
X83937571Y-54939400D02*
X83794714Y-54987019D01*
X83794714Y-54987019D02*
X83699476Y-54987019D01*
X84985190Y-54320352D02*
X84985190Y-54987019D01*
X84747095Y-53939400D02*
X84509000Y-54653685D01*
X84509000Y-54653685D02*
X85128047Y-54653685D01*
X80984819Y-60093333D02*
X81699104Y-60093333D01*
X81699104Y-60093333D02*
X81841961Y-60140952D01*
X81841961Y-60140952D02*
X81937200Y-60236190D01*
X81937200Y-60236190D02*
X81984819Y-60379047D01*
X81984819Y-60379047D02*
X81984819Y-60474285D01*
X80984819Y-59712380D02*
X80984819Y-59093333D01*
X80984819Y-59093333D02*
X81365771Y-59426666D01*
X81365771Y-59426666D02*
X81365771Y-59283809D01*
X81365771Y-59283809D02*
X81413390Y-59188571D01*
X81413390Y-59188571D02*
X81461009Y-59140952D01*
X81461009Y-59140952D02*
X81556247Y-59093333D01*
X81556247Y-59093333D02*
X81794342Y-59093333D01*
X81794342Y-59093333D02*
X81889580Y-59140952D01*
X81889580Y-59140952D02*
X81937200Y-59188571D01*
X81937200Y-59188571D02*
X81984819Y-59283809D01*
X81984819Y-59283809D02*
X81984819Y-59569523D01*
X81984819Y-59569523D02*
X81937200Y-59664761D01*
X81937200Y-59664761D02*
X81889580Y-59712380D01*
X80950057Y-68853333D02*
X81664342Y-68853333D01*
X81664342Y-68853333D02*
X81807199Y-68900952D01*
X81807199Y-68900952D02*
X81902438Y-68996190D01*
X81902438Y-68996190D02*
X81950057Y-69139047D01*
X81950057Y-69139047D02*
X81950057Y-69234285D01*
X81045295Y-68424761D02*
X80997676Y-68377142D01*
X80997676Y-68377142D02*
X80950057Y-68281904D01*
X80950057Y-68281904D02*
X80950057Y-68043809D01*
X80950057Y-68043809D02*
X80997676Y-67948571D01*
X80997676Y-67948571D02*
X81045295Y-67900952D01*
X81045295Y-67900952D02*
X81140533Y-67853333D01*
X81140533Y-67853333D02*
X81235771Y-67853333D01*
X81235771Y-67853333D02*
X81378628Y-67900952D01*
X81378628Y-67900952D02*
X81950057Y-68472380D01*
X81950057Y-68472380D02*
X81950057Y-67853333D01*
X105664238Y-76087200D02*
X105807095Y-76134819D01*
X105807095Y-76134819D02*
X106045190Y-76134819D01*
X106045190Y-76134819D02*
X106140428Y-76087200D01*
X106140428Y-76087200D02*
X106188047Y-76039580D01*
X106188047Y-76039580D02*
X106235666Y-75944342D01*
X106235666Y-75944342D02*
X106235666Y-75849104D01*
X106235666Y-75849104D02*
X106188047Y-75753866D01*
X106188047Y-75753866D02*
X106140428Y-75706247D01*
X106140428Y-75706247D02*
X106045190Y-75658628D01*
X106045190Y-75658628D02*
X105854714Y-75611009D01*
X105854714Y-75611009D02*
X105759476Y-75563390D01*
X105759476Y-75563390D02*
X105711857Y-75515771D01*
X105711857Y-75515771D02*
X105664238Y-75420533D01*
X105664238Y-75420533D02*
X105664238Y-75325295D01*
X105664238Y-75325295D02*
X105711857Y-75230057D01*
X105711857Y-75230057D02*
X105759476Y-75182438D01*
X105759476Y-75182438D02*
X105854714Y-75134819D01*
X105854714Y-75134819D02*
X106092809Y-75134819D01*
X106092809Y-75134819D02*
X106235666Y-75182438D01*
X106569000Y-75134819D02*
X106807095Y-76134819D01*
X106807095Y-76134819D02*
X106997571Y-75420533D01*
X106997571Y-75420533D02*
X107188047Y-76134819D01*
X107188047Y-76134819D02*
X107426143Y-75134819D01*
X108330904Y-76134819D02*
X107759476Y-76134819D01*
X108045190Y-76134819D02*
X108045190Y-75134819D01*
X108045190Y-75134819D02*
X107949952Y-75277676D01*
X107949952Y-75277676D02*
X107854714Y-75372914D01*
X107854714Y-75372914D02*
X107759476Y-75420533D01*
X108711857Y-75230057D02*
X108759476Y-75182438D01*
X108759476Y-75182438D02*
X108854714Y-75134819D01*
X108854714Y-75134819D02*
X109092809Y-75134819D01*
X109092809Y-75134819D02*
X109188047Y-75182438D01*
X109188047Y-75182438D02*
X109235666Y-75230057D01*
X109235666Y-75230057D02*
X109283285Y-75325295D01*
X109283285Y-75325295D02*
X109283285Y-75420533D01*
X109283285Y-75420533D02*
X109235666Y-75563390D01*
X109235666Y-75563390D02*
X108664238Y-76134819D01*
X108664238Y-76134819D02*
X109283285Y-76134819D01*
X94524819Y-71696666D02*
X94048628Y-72029999D01*
X94524819Y-72268094D02*
X93524819Y-72268094D01*
X93524819Y-72268094D02*
X93524819Y-71887142D01*
X93524819Y-71887142D02*
X93572438Y-71791904D01*
X93572438Y-71791904D02*
X93620057Y-71744285D01*
X93620057Y-71744285D02*
X93715295Y-71696666D01*
X93715295Y-71696666D02*
X93858152Y-71696666D01*
X93858152Y-71696666D02*
X93953390Y-71744285D01*
X93953390Y-71744285D02*
X94001009Y-71791904D01*
X94001009Y-71791904D02*
X94048628Y-71887142D01*
X94048628Y-71887142D02*
X94048628Y-72268094D01*
X93524819Y-70791904D02*
X93524819Y-71268094D01*
X93524819Y-71268094D02*
X94001009Y-71315713D01*
X94001009Y-71315713D02*
X93953390Y-71268094D01*
X93953390Y-71268094D02*
X93905771Y-71172856D01*
X93905771Y-71172856D02*
X93905771Y-70934761D01*
X93905771Y-70934761D02*
X93953390Y-70839523D01*
X93953390Y-70839523D02*
X94001009Y-70791904D01*
X94001009Y-70791904D02*
X94096247Y-70744285D01*
X94096247Y-70744285D02*
X94334342Y-70744285D01*
X94334342Y-70744285D02*
X94429580Y-70791904D01*
X94429580Y-70791904D02*
X94477200Y-70839523D01*
X94477200Y-70839523D02*
X94524819Y-70934761D01*
X94524819Y-70934761D02*
X94524819Y-71172856D01*
X94524819Y-71172856D02*
X94477200Y-71268094D01*
X94477200Y-71268094D02*
X94429580Y-71315713D01*
X181864238Y-95137200D02*
X182007095Y-95184819D01*
X182007095Y-95184819D02*
X182245190Y-95184819D01*
X182245190Y-95184819D02*
X182340428Y-95137200D01*
X182340428Y-95137200D02*
X182388047Y-95089580D01*
X182388047Y-95089580D02*
X182435666Y-94994342D01*
X182435666Y-94994342D02*
X182435666Y-94899104D01*
X182435666Y-94899104D02*
X182388047Y-94803866D01*
X182388047Y-94803866D02*
X182340428Y-94756247D01*
X182340428Y-94756247D02*
X182245190Y-94708628D01*
X182245190Y-94708628D02*
X182054714Y-94661009D01*
X182054714Y-94661009D02*
X181959476Y-94613390D01*
X181959476Y-94613390D02*
X181911857Y-94565771D01*
X181911857Y-94565771D02*
X181864238Y-94470533D01*
X181864238Y-94470533D02*
X181864238Y-94375295D01*
X181864238Y-94375295D02*
X181911857Y-94280057D01*
X181911857Y-94280057D02*
X181959476Y-94232438D01*
X181959476Y-94232438D02*
X182054714Y-94184819D01*
X182054714Y-94184819D02*
X182292809Y-94184819D01*
X182292809Y-94184819D02*
X182435666Y-94232438D01*
X182769000Y-94184819D02*
X183007095Y-95184819D01*
X183007095Y-95184819D02*
X183197571Y-94470533D01*
X183197571Y-94470533D02*
X183388047Y-95184819D01*
X183388047Y-95184819D02*
X183626143Y-94184819D01*
X184530904Y-95184819D02*
X183959476Y-95184819D01*
X184245190Y-95184819D02*
X184245190Y-94184819D01*
X184245190Y-94184819D02*
X184149952Y-94327676D01*
X184149952Y-94327676D02*
X184054714Y-94422914D01*
X184054714Y-94422914D02*
X183959476Y-94470533D01*
X185388047Y-94518152D02*
X185388047Y-95184819D01*
X185149952Y-94137200D02*
X184911857Y-94851485D01*
X184911857Y-94851485D02*
X185530904Y-94851485D01*
X94218581Y-83757333D02*
X94932866Y-83757333D01*
X94932866Y-83757333D02*
X95075723Y-83804952D01*
X95075723Y-83804952D02*
X95170962Y-83900190D01*
X95170962Y-83900190D02*
X95218581Y-84043047D01*
X95218581Y-84043047D02*
X95218581Y-84138285D01*
X94218581Y-82804952D02*
X94218581Y-83281142D01*
X94218581Y-83281142D02*
X94694771Y-83328761D01*
X94694771Y-83328761D02*
X94647152Y-83281142D01*
X94647152Y-83281142D02*
X94599533Y-83185904D01*
X94599533Y-83185904D02*
X94599533Y-82947809D01*
X94599533Y-82947809D02*
X94647152Y-82852571D01*
X94647152Y-82852571D02*
X94694771Y-82804952D01*
X94694771Y-82804952D02*
X94790009Y-82757333D01*
X94790009Y-82757333D02*
X95028104Y-82757333D01*
X95028104Y-82757333D02*
X95123342Y-82804952D01*
X95123342Y-82804952D02*
X95170962Y-82852571D01*
X95170962Y-82852571D02*
X95218581Y-82947809D01*
X95218581Y-82947809D02*
X95218581Y-83185904D01*
X95218581Y-83185904D02*
X95170962Y-83281142D01*
X95170962Y-83281142D02*
X95123342Y-83328761D01*
X105664238Y-95137200D02*
X105807095Y-95184819D01*
X105807095Y-95184819D02*
X106045190Y-95184819D01*
X106045190Y-95184819D02*
X106140428Y-95137200D01*
X106140428Y-95137200D02*
X106188047Y-95089580D01*
X106188047Y-95089580D02*
X106235666Y-94994342D01*
X106235666Y-94994342D02*
X106235666Y-94899104D01*
X106235666Y-94899104D02*
X106188047Y-94803866D01*
X106188047Y-94803866D02*
X106140428Y-94756247D01*
X106140428Y-94756247D02*
X106045190Y-94708628D01*
X106045190Y-94708628D02*
X105854714Y-94661009D01*
X105854714Y-94661009D02*
X105759476Y-94613390D01*
X105759476Y-94613390D02*
X105711857Y-94565771D01*
X105711857Y-94565771D02*
X105664238Y-94470533D01*
X105664238Y-94470533D02*
X105664238Y-94375295D01*
X105664238Y-94375295D02*
X105711857Y-94280057D01*
X105711857Y-94280057D02*
X105759476Y-94232438D01*
X105759476Y-94232438D02*
X105854714Y-94184819D01*
X105854714Y-94184819D02*
X106092809Y-94184819D01*
X106092809Y-94184819D02*
X106235666Y-94232438D01*
X106569000Y-94184819D02*
X106807095Y-95184819D01*
X106807095Y-95184819D02*
X106997571Y-94470533D01*
X106997571Y-94470533D02*
X107188047Y-95184819D01*
X107188047Y-95184819D02*
X107426143Y-94184819D01*
X108330904Y-95184819D02*
X107759476Y-95184819D01*
X108045190Y-95184819D02*
X108045190Y-94184819D01*
X108045190Y-94184819D02*
X107949952Y-94327676D01*
X107949952Y-94327676D02*
X107854714Y-94422914D01*
X107854714Y-94422914D02*
X107759476Y-94470533D01*
X108902333Y-94613390D02*
X108807095Y-94565771D01*
X108807095Y-94565771D02*
X108759476Y-94518152D01*
X108759476Y-94518152D02*
X108711857Y-94422914D01*
X108711857Y-94422914D02*
X108711857Y-94375295D01*
X108711857Y-94375295D02*
X108759476Y-94280057D01*
X108759476Y-94280057D02*
X108807095Y-94232438D01*
X108807095Y-94232438D02*
X108902333Y-94184819D01*
X108902333Y-94184819D02*
X109092809Y-94184819D01*
X109092809Y-94184819D02*
X109188047Y-94232438D01*
X109188047Y-94232438D02*
X109235666Y-94280057D01*
X109235666Y-94280057D02*
X109283285Y-94375295D01*
X109283285Y-94375295D02*
X109283285Y-94422914D01*
X109283285Y-94422914D02*
X109235666Y-94518152D01*
X109235666Y-94518152D02*
X109188047Y-94565771D01*
X109188047Y-94565771D02*
X109092809Y-94613390D01*
X109092809Y-94613390D02*
X108902333Y-94613390D01*
X108902333Y-94613390D02*
X108807095Y-94661009D01*
X108807095Y-94661009D02*
X108759476Y-94708628D01*
X108759476Y-94708628D02*
X108711857Y-94803866D01*
X108711857Y-94803866D02*
X108711857Y-94994342D01*
X108711857Y-94994342D02*
X108759476Y-95089580D01*
X108759476Y-95089580D02*
X108807095Y-95137200D01*
X108807095Y-95137200D02*
X108902333Y-95184819D01*
X108902333Y-95184819D02*
X109092809Y-95184819D01*
X109092809Y-95184819D02*
X109188047Y-95137200D01*
X109188047Y-95137200D02*
X109235666Y-95089580D01*
X109235666Y-95089580D02*
X109283285Y-94994342D01*
X109283285Y-94994342D02*
X109283285Y-94803866D01*
X109283285Y-94803866D02*
X109235666Y-94708628D01*
X109235666Y-94708628D02*
X109188047Y-94661009D01*
X109188047Y-94661009D02*
X109092809Y-94613390D01*
X96114819Y-65081904D02*
X96924342Y-65081904D01*
X96924342Y-65081904D02*
X97019580Y-65034285D01*
X97019580Y-65034285D02*
X97067200Y-64986666D01*
X97067200Y-64986666D02*
X97114819Y-64891428D01*
X97114819Y-64891428D02*
X97114819Y-64700952D01*
X97114819Y-64700952D02*
X97067200Y-64605714D01*
X97067200Y-64605714D02*
X97019580Y-64558095D01*
X97019580Y-64558095D02*
X96924342Y-64510476D01*
X96924342Y-64510476D02*
X96114819Y-64510476D01*
X96210057Y-64081904D02*
X96162438Y-64034285D01*
X96162438Y-64034285D02*
X96114819Y-63939047D01*
X96114819Y-63939047D02*
X96114819Y-63700952D01*
X96114819Y-63700952D02*
X96162438Y-63605714D01*
X96162438Y-63605714D02*
X96210057Y-63558095D01*
X96210057Y-63558095D02*
X96305295Y-63510476D01*
X96305295Y-63510476D02*
X96400533Y-63510476D01*
X96400533Y-63510476D02*
X96543390Y-63558095D01*
X96543390Y-63558095D02*
X97114819Y-64129523D01*
X97114819Y-64129523D02*
X97114819Y-63510476D01*
X95996644Y-105784202D02*
X95187121Y-105784202D01*
X95187121Y-105784202D02*
X95091883Y-105831821D01*
X95091883Y-105831821D02*
X95044264Y-105879440D01*
X95044264Y-105879440D02*
X94996644Y-105974678D01*
X94996644Y-105974678D02*
X94996644Y-106165154D01*
X94996644Y-106165154D02*
X95044264Y-106260392D01*
X95044264Y-106260392D02*
X95091883Y-106308011D01*
X95091883Y-106308011D02*
X95187121Y-106355630D01*
X95187121Y-106355630D02*
X95996644Y-106355630D01*
X95996644Y-106736583D02*
X95996644Y-107355630D01*
X95996644Y-107355630D02*
X95615692Y-107022297D01*
X95615692Y-107022297D02*
X95615692Y-107165154D01*
X95615692Y-107165154D02*
X95568073Y-107260392D01*
X95568073Y-107260392D02*
X95520454Y-107308011D01*
X95520454Y-107308011D02*
X95425216Y-107355630D01*
X95425216Y-107355630D02*
X95187121Y-107355630D01*
X95187121Y-107355630D02*
X95091883Y-107308011D01*
X95091883Y-107308011D02*
X95044264Y-107260392D01*
X95044264Y-107260392D02*
X94996644Y-107165154D01*
X94996644Y-107165154D02*
X94996644Y-106879440D01*
X94996644Y-106879440D02*
X95044264Y-106784202D01*
X95044264Y-106784202D02*
X95091883Y-106736583D01*
X124714238Y-95137200D02*
X124857095Y-95184819D01*
X124857095Y-95184819D02*
X125095190Y-95184819D01*
X125095190Y-95184819D02*
X125190428Y-95137200D01*
X125190428Y-95137200D02*
X125238047Y-95089580D01*
X125238047Y-95089580D02*
X125285666Y-94994342D01*
X125285666Y-94994342D02*
X125285666Y-94899104D01*
X125285666Y-94899104D02*
X125238047Y-94803866D01*
X125238047Y-94803866D02*
X125190428Y-94756247D01*
X125190428Y-94756247D02*
X125095190Y-94708628D01*
X125095190Y-94708628D02*
X124904714Y-94661009D01*
X124904714Y-94661009D02*
X124809476Y-94613390D01*
X124809476Y-94613390D02*
X124761857Y-94565771D01*
X124761857Y-94565771D02*
X124714238Y-94470533D01*
X124714238Y-94470533D02*
X124714238Y-94375295D01*
X124714238Y-94375295D02*
X124761857Y-94280057D01*
X124761857Y-94280057D02*
X124809476Y-94232438D01*
X124809476Y-94232438D02*
X124904714Y-94184819D01*
X124904714Y-94184819D02*
X125142809Y-94184819D01*
X125142809Y-94184819D02*
X125285666Y-94232438D01*
X125619000Y-94184819D02*
X125857095Y-95184819D01*
X125857095Y-95184819D02*
X126047571Y-94470533D01*
X126047571Y-94470533D02*
X126238047Y-95184819D01*
X126238047Y-95184819D02*
X126476143Y-94184819D01*
X127380904Y-95184819D02*
X126809476Y-95184819D01*
X127095190Y-95184819D02*
X127095190Y-94184819D01*
X127095190Y-94184819D02*
X126999952Y-94327676D01*
X126999952Y-94327676D02*
X126904714Y-94422914D01*
X126904714Y-94422914D02*
X126809476Y-94470533D01*
X127714238Y-94184819D02*
X128380904Y-94184819D01*
X128380904Y-94184819D02*
X127952333Y-95184819D01*
X115354238Y-114457200D02*
X115497095Y-114504819D01*
X115497095Y-114504819D02*
X115735190Y-114504819D01*
X115735190Y-114504819D02*
X115830428Y-114457200D01*
X115830428Y-114457200D02*
X115878047Y-114409580D01*
X115878047Y-114409580D02*
X115925666Y-114314342D01*
X115925666Y-114314342D02*
X115925666Y-114219104D01*
X115925666Y-114219104D02*
X115878047Y-114123866D01*
X115878047Y-114123866D02*
X115830428Y-114076247D01*
X115830428Y-114076247D02*
X115735190Y-114028628D01*
X115735190Y-114028628D02*
X115544714Y-113981009D01*
X115544714Y-113981009D02*
X115449476Y-113933390D01*
X115449476Y-113933390D02*
X115401857Y-113885771D01*
X115401857Y-113885771D02*
X115354238Y-113790533D01*
X115354238Y-113790533D02*
X115354238Y-113695295D01*
X115354238Y-113695295D02*
X115401857Y-113600057D01*
X115401857Y-113600057D02*
X115449476Y-113552438D01*
X115449476Y-113552438D02*
X115544714Y-113504819D01*
X115544714Y-113504819D02*
X115782809Y-113504819D01*
X115782809Y-113504819D02*
X115925666Y-113552438D01*
X116259000Y-113504819D02*
X116497095Y-114504819D01*
X116497095Y-114504819D02*
X116687571Y-113790533D01*
X116687571Y-113790533D02*
X116878047Y-114504819D01*
X116878047Y-114504819D02*
X117116143Y-113504819D01*
X117449476Y-113600057D02*
X117497095Y-113552438D01*
X117497095Y-113552438D02*
X117592333Y-113504819D01*
X117592333Y-113504819D02*
X117830428Y-113504819D01*
X117830428Y-113504819D02*
X117925666Y-113552438D01*
X117925666Y-113552438D02*
X117973285Y-113600057D01*
X117973285Y-113600057D02*
X118020904Y-113695295D01*
X118020904Y-113695295D02*
X118020904Y-113790533D01*
X118020904Y-113790533D02*
X117973285Y-113933390D01*
X117973285Y-113933390D02*
X117401857Y-114504819D01*
X117401857Y-114504819D02*
X118020904Y-114504819D01*
X118639952Y-113504819D02*
X118735190Y-113504819D01*
X118735190Y-113504819D02*
X118830428Y-113552438D01*
X118830428Y-113552438D02*
X118878047Y-113600057D01*
X118878047Y-113600057D02*
X118925666Y-113695295D01*
X118925666Y-113695295D02*
X118973285Y-113885771D01*
X118973285Y-113885771D02*
X118973285Y-114123866D01*
X118973285Y-114123866D02*
X118925666Y-114314342D01*
X118925666Y-114314342D02*
X118878047Y-114409580D01*
X118878047Y-114409580D02*
X118830428Y-114457200D01*
X118830428Y-114457200D02*
X118735190Y-114504819D01*
X118735190Y-114504819D02*
X118639952Y-114504819D01*
X118639952Y-114504819D02*
X118544714Y-114457200D01*
X118544714Y-114457200D02*
X118497095Y-114409580D01*
X118497095Y-114409580D02*
X118449476Y-114314342D01*
X118449476Y-114314342D02*
X118401857Y-114123866D01*
X118401857Y-114123866D02*
X118401857Y-113885771D01*
X118401857Y-113885771D02*
X118449476Y-113695295D01*
X118449476Y-113695295D02*
X118497095Y-113600057D01*
X118497095Y-113600057D02*
X118544714Y-113552438D01*
X118544714Y-113552438D02*
X118639952Y-113504819D01*
X201390429Y-57037200D02*
X201533286Y-57084819D01*
X201533286Y-57084819D02*
X201771381Y-57084819D01*
X201771381Y-57084819D02*
X201866619Y-57037200D01*
X201866619Y-57037200D02*
X201914238Y-56989580D01*
X201914238Y-56989580D02*
X201961857Y-56894342D01*
X201961857Y-56894342D02*
X201961857Y-56799104D01*
X201961857Y-56799104D02*
X201914238Y-56703866D01*
X201914238Y-56703866D02*
X201866619Y-56656247D01*
X201866619Y-56656247D02*
X201771381Y-56608628D01*
X201771381Y-56608628D02*
X201580905Y-56561009D01*
X201580905Y-56561009D02*
X201485667Y-56513390D01*
X201485667Y-56513390D02*
X201438048Y-56465771D01*
X201438048Y-56465771D02*
X201390429Y-56370533D01*
X201390429Y-56370533D02*
X201390429Y-56275295D01*
X201390429Y-56275295D02*
X201438048Y-56180057D01*
X201438048Y-56180057D02*
X201485667Y-56132438D01*
X201485667Y-56132438D02*
X201580905Y-56084819D01*
X201580905Y-56084819D02*
X201819000Y-56084819D01*
X201819000Y-56084819D02*
X201961857Y-56132438D01*
X202295191Y-56084819D02*
X202533286Y-57084819D01*
X202533286Y-57084819D02*
X202723762Y-56370533D01*
X202723762Y-56370533D02*
X202914238Y-57084819D01*
X202914238Y-57084819D02*
X203152334Y-56084819D01*
X204057095Y-57084819D02*
X203485667Y-57084819D01*
X203771381Y-57084819D02*
X203771381Y-56084819D01*
X203771381Y-56084819D02*
X203676143Y-56227676D01*
X203676143Y-56227676D02*
X203580905Y-56322914D01*
X203580905Y-56322914D02*
X203485667Y-56370533D01*
X102330428Y-47954819D02*
X102330428Y-48669104D01*
X102330428Y-48669104D02*
X102282809Y-48811961D01*
X102282809Y-48811961D02*
X102187571Y-48907200D01*
X102187571Y-48907200D02*
X102044714Y-48954819D01*
X102044714Y-48954819D02*
X101949476Y-48954819D01*
X103330428Y-48954819D02*
X102759000Y-48954819D01*
X103044714Y-48954819D02*
X103044714Y-47954819D01*
X103044714Y-47954819D02*
X102949476Y-48097676D01*
X102949476Y-48097676D02*
X102854238Y-48192914D01*
X102854238Y-48192914D02*
X102759000Y-48240533D01*
X124714238Y-76087200D02*
X124857095Y-76134819D01*
X124857095Y-76134819D02*
X125095190Y-76134819D01*
X125095190Y-76134819D02*
X125190428Y-76087200D01*
X125190428Y-76087200D02*
X125238047Y-76039580D01*
X125238047Y-76039580D02*
X125285666Y-75944342D01*
X125285666Y-75944342D02*
X125285666Y-75849104D01*
X125285666Y-75849104D02*
X125238047Y-75753866D01*
X125238047Y-75753866D02*
X125190428Y-75706247D01*
X125190428Y-75706247D02*
X125095190Y-75658628D01*
X125095190Y-75658628D02*
X124904714Y-75611009D01*
X124904714Y-75611009D02*
X124809476Y-75563390D01*
X124809476Y-75563390D02*
X124761857Y-75515771D01*
X124761857Y-75515771D02*
X124714238Y-75420533D01*
X124714238Y-75420533D02*
X124714238Y-75325295D01*
X124714238Y-75325295D02*
X124761857Y-75230057D01*
X124761857Y-75230057D02*
X124809476Y-75182438D01*
X124809476Y-75182438D02*
X124904714Y-75134819D01*
X124904714Y-75134819D02*
X125142809Y-75134819D01*
X125142809Y-75134819D02*
X125285666Y-75182438D01*
X125619000Y-75134819D02*
X125857095Y-76134819D01*
X125857095Y-76134819D02*
X126047571Y-75420533D01*
X126047571Y-75420533D02*
X126238047Y-76134819D01*
X126238047Y-76134819D02*
X126476143Y-75134819D01*
X127380904Y-76134819D02*
X126809476Y-76134819D01*
X127095190Y-76134819D02*
X127095190Y-75134819D01*
X127095190Y-75134819D02*
X126999952Y-75277676D01*
X126999952Y-75277676D02*
X126904714Y-75372914D01*
X126904714Y-75372914D02*
X126809476Y-75420533D01*
X128333285Y-76134819D02*
X127761857Y-76134819D01*
X128047571Y-76134819D02*
X128047571Y-75134819D01*
X128047571Y-75134819D02*
X127952333Y-75277676D01*
X127952333Y-75277676D02*
X127857095Y-75372914D01*
X127857095Y-75372914D02*
X127761857Y-75420533D01*
X163290429Y-76087200D02*
X163433286Y-76134819D01*
X163433286Y-76134819D02*
X163671381Y-76134819D01*
X163671381Y-76134819D02*
X163766619Y-76087200D01*
X163766619Y-76087200D02*
X163814238Y-76039580D01*
X163814238Y-76039580D02*
X163861857Y-75944342D01*
X163861857Y-75944342D02*
X163861857Y-75849104D01*
X163861857Y-75849104D02*
X163814238Y-75753866D01*
X163814238Y-75753866D02*
X163766619Y-75706247D01*
X163766619Y-75706247D02*
X163671381Y-75658628D01*
X163671381Y-75658628D02*
X163480905Y-75611009D01*
X163480905Y-75611009D02*
X163385667Y-75563390D01*
X163385667Y-75563390D02*
X163338048Y-75515771D01*
X163338048Y-75515771D02*
X163290429Y-75420533D01*
X163290429Y-75420533D02*
X163290429Y-75325295D01*
X163290429Y-75325295D02*
X163338048Y-75230057D01*
X163338048Y-75230057D02*
X163385667Y-75182438D01*
X163385667Y-75182438D02*
X163480905Y-75134819D01*
X163480905Y-75134819D02*
X163719000Y-75134819D01*
X163719000Y-75134819D02*
X163861857Y-75182438D01*
X164195191Y-75134819D02*
X164433286Y-76134819D01*
X164433286Y-76134819D02*
X164623762Y-75420533D01*
X164623762Y-75420533D02*
X164814238Y-76134819D01*
X164814238Y-76134819D02*
X165052334Y-75134819D01*
X165480905Y-76134819D02*
X165671381Y-76134819D01*
X165671381Y-76134819D02*
X165766619Y-76087200D01*
X165766619Y-76087200D02*
X165814238Y-76039580D01*
X165814238Y-76039580D02*
X165909476Y-75896723D01*
X165909476Y-75896723D02*
X165957095Y-75706247D01*
X165957095Y-75706247D02*
X165957095Y-75325295D01*
X165957095Y-75325295D02*
X165909476Y-75230057D01*
X165909476Y-75230057D02*
X165861857Y-75182438D01*
X165861857Y-75182438D02*
X165766619Y-75134819D01*
X165766619Y-75134819D02*
X165576143Y-75134819D01*
X165576143Y-75134819D02*
X165480905Y-75182438D01*
X165480905Y-75182438D02*
X165433286Y-75230057D01*
X165433286Y-75230057D02*
X165385667Y-75325295D01*
X165385667Y-75325295D02*
X165385667Y-75563390D01*
X165385667Y-75563390D02*
X165433286Y-75658628D01*
X165433286Y-75658628D02*
X165480905Y-75706247D01*
X165480905Y-75706247D02*
X165576143Y-75753866D01*
X165576143Y-75753866D02*
X165766619Y-75753866D01*
X165766619Y-75753866D02*
X165861857Y-75706247D01*
X165861857Y-75706247D02*
X165909476Y-75658628D01*
X165909476Y-75658628D02*
X165957095Y-75563390D01*
X143764238Y-76087200D02*
X143907095Y-76134819D01*
X143907095Y-76134819D02*
X144145190Y-76134819D01*
X144145190Y-76134819D02*
X144240428Y-76087200D01*
X144240428Y-76087200D02*
X144288047Y-76039580D01*
X144288047Y-76039580D02*
X144335666Y-75944342D01*
X144335666Y-75944342D02*
X144335666Y-75849104D01*
X144335666Y-75849104D02*
X144288047Y-75753866D01*
X144288047Y-75753866D02*
X144240428Y-75706247D01*
X144240428Y-75706247D02*
X144145190Y-75658628D01*
X144145190Y-75658628D02*
X143954714Y-75611009D01*
X143954714Y-75611009D02*
X143859476Y-75563390D01*
X143859476Y-75563390D02*
X143811857Y-75515771D01*
X143811857Y-75515771D02*
X143764238Y-75420533D01*
X143764238Y-75420533D02*
X143764238Y-75325295D01*
X143764238Y-75325295D02*
X143811857Y-75230057D01*
X143811857Y-75230057D02*
X143859476Y-75182438D01*
X143859476Y-75182438D02*
X143954714Y-75134819D01*
X143954714Y-75134819D02*
X144192809Y-75134819D01*
X144192809Y-75134819D02*
X144335666Y-75182438D01*
X144669000Y-75134819D02*
X144907095Y-76134819D01*
X144907095Y-76134819D02*
X145097571Y-75420533D01*
X145097571Y-75420533D02*
X145288047Y-76134819D01*
X145288047Y-76134819D02*
X145526143Y-75134819D01*
X146430904Y-76134819D02*
X145859476Y-76134819D01*
X146145190Y-76134819D02*
X146145190Y-75134819D01*
X146145190Y-75134819D02*
X146049952Y-75277676D01*
X146049952Y-75277676D02*
X145954714Y-75372914D01*
X145954714Y-75372914D02*
X145859476Y-75420533D01*
X147049952Y-75134819D02*
X147145190Y-75134819D01*
X147145190Y-75134819D02*
X147240428Y-75182438D01*
X147240428Y-75182438D02*
X147288047Y-75230057D01*
X147288047Y-75230057D02*
X147335666Y-75325295D01*
X147335666Y-75325295D02*
X147383285Y-75515771D01*
X147383285Y-75515771D02*
X147383285Y-75753866D01*
X147383285Y-75753866D02*
X147335666Y-75944342D01*
X147335666Y-75944342D02*
X147288047Y-76039580D01*
X147288047Y-76039580D02*
X147240428Y-76087200D01*
X147240428Y-76087200D02*
X147145190Y-76134819D01*
X147145190Y-76134819D02*
X147049952Y-76134819D01*
X147049952Y-76134819D02*
X146954714Y-76087200D01*
X146954714Y-76087200D02*
X146907095Y-76039580D01*
X146907095Y-76039580D02*
X146859476Y-75944342D01*
X146859476Y-75944342D02*
X146811857Y-75753866D01*
X146811857Y-75753866D02*
X146811857Y-75515771D01*
X146811857Y-75515771D02*
X146859476Y-75325295D01*
X146859476Y-75325295D02*
X146907095Y-75230057D01*
X146907095Y-75230057D02*
X146954714Y-75182438D01*
X146954714Y-75182438D02*
X147049952Y-75134819D01*
X162814238Y-95137200D02*
X162957095Y-95184819D01*
X162957095Y-95184819D02*
X163195190Y-95184819D01*
X163195190Y-95184819D02*
X163290428Y-95137200D01*
X163290428Y-95137200D02*
X163338047Y-95089580D01*
X163338047Y-95089580D02*
X163385666Y-94994342D01*
X163385666Y-94994342D02*
X163385666Y-94899104D01*
X163385666Y-94899104D02*
X163338047Y-94803866D01*
X163338047Y-94803866D02*
X163290428Y-94756247D01*
X163290428Y-94756247D02*
X163195190Y-94708628D01*
X163195190Y-94708628D02*
X163004714Y-94661009D01*
X163004714Y-94661009D02*
X162909476Y-94613390D01*
X162909476Y-94613390D02*
X162861857Y-94565771D01*
X162861857Y-94565771D02*
X162814238Y-94470533D01*
X162814238Y-94470533D02*
X162814238Y-94375295D01*
X162814238Y-94375295D02*
X162861857Y-94280057D01*
X162861857Y-94280057D02*
X162909476Y-94232438D01*
X162909476Y-94232438D02*
X163004714Y-94184819D01*
X163004714Y-94184819D02*
X163242809Y-94184819D01*
X163242809Y-94184819D02*
X163385666Y-94232438D01*
X163719000Y-94184819D02*
X163957095Y-95184819D01*
X163957095Y-95184819D02*
X164147571Y-94470533D01*
X164147571Y-94470533D02*
X164338047Y-95184819D01*
X164338047Y-95184819D02*
X164576143Y-94184819D01*
X165480904Y-95184819D02*
X164909476Y-95184819D01*
X165195190Y-95184819D02*
X165195190Y-94184819D01*
X165195190Y-94184819D02*
X165099952Y-94327676D01*
X165099952Y-94327676D02*
X165004714Y-94422914D01*
X165004714Y-94422914D02*
X164909476Y-94470533D01*
X166385666Y-94184819D02*
X165909476Y-94184819D01*
X165909476Y-94184819D02*
X165861857Y-94661009D01*
X165861857Y-94661009D02*
X165909476Y-94613390D01*
X165909476Y-94613390D02*
X166004714Y-94565771D01*
X166004714Y-94565771D02*
X166242809Y-94565771D01*
X166242809Y-94565771D02*
X166338047Y-94613390D01*
X166338047Y-94613390D02*
X166385666Y-94661009D01*
X166385666Y-94661009D02*
X166433285Y-94756247D01*
X166433285Y-94756247D02*
X166433285Y-94994342D01*
X166433285Y-94994342D02*
X166385666Y-95089580D01*
X166385666Y-95089580D02*
X166338047Y-95137200D01*
X166338047Y-95137200D02*
X166242809Y-95184819D01*
X166242809Y-95184819D02*
X166004714Y-95184819D01*
X166004714Y-95184819D02*
X165909476Y-95137200D01*
X165909476Y-95137200D02*
X165861857Y-95089580D01*
X125190429Y-57037200D02*
X125333286Y-57084819D01*
X125333286Y-57084819D02*
X125571381Y-57084819D01*
X125571381Y-57084819D02*
X125666619Y-57037200D01*
X125666619Y-57037200D02*
X125714238Y-56989580D01*
X125714238Y-56989580D02*
X125761857Y-56894342D01*
X125761857Y-56894342D02*
X125761857Y-56799104D01*
X125761857Y-56799104D02*
X125714238Y-56703866D01*
X125714238Y-56703866D02*
X125666619Y-56656247D01*
X125666619Y-56656247D02*
X125571381Y-56608628D01*
X125571381Y-56608628D02*
X125380905Y-56561009D01*
X125380905Y-56561009D02*
X125285667Y-56513390D01*
X125285667Y-56513390D02*
X125238048Y-56465771D01*
X125238048Y-56465771D02*
X125190429Y-56370533D01*
X125190429Y-56370533D02*
X125190429Y-56275295D01*
X125190429Y-56275295D02*
X125238048Y-56180057D01*
X125238048Y-56180057D02*
X125285667Y-56132438D01*
X125285667Y-56132438D02*
X125380905Y-56084819D01*
X125380905Y-56084819D02*
X125619000Y-56084819D01*
X125619000Y-56084819D02*
X125761857Y-56132438D01*
X126095191Y-56084819D02*
X126333286Y-57084819D01*
X126333286Y-57084819D02*
X126523762Y-56370533D01*
X126523762Y-56370533D02*
X126714238Y-57084819D01*
X126714238Y-57084819D02*
X126952334Y-56084819D01*
X127809476Y-56084819D02*
X127333286Y-56084819D01*
X127333286Y-56084819D02*
X127285667Y-56561009D01*
X127285667Y-56561009D02*
X127333286Y-56513390D01*
X127333286Y-56513390D02*
X127428524Y-56465771D01*
X127428524Y-56465771D02*
X127666619Y-56465771D01*
X127666619Y-56465771D02*
X127761857Y-56513390D01*
X127761857Y-56513390D02*
X127809476Y-56561009D01*
X127809476Y-56561009D02*
X127857095Y-56656247D01*
X127857095Y-56656247D02*
X127857095Y-56894342D01*
X127857095Y-56894342D02*
X127809476Y-56989580D01*
X127809476Y-56989580D02*
X127761857Y-57037200D01*
X127761857Y-57037200D02*
X127666619Y-57084819D01*
X127666619Y-57084819D02*
X127428524Y-57084819D01*
X127428524Y-57084819D02*
X127333286Y-57037200D01*
X127333286Y-57037200D02*
X127285667Y-56989580D01*
X92788095Y-99624819D02*
X92788095Y-100434342D01*
X92788095Y-100434342D02*
X92835714Y-100529580D01*
X92835714Y-100529580D02*
X92883333Y-100577200D01*
X92883333Y-100577200D02*
X92978571Y-100624819D01*
X92978571Y-100624819D02*
X93169047Y-100624819D01*
X93169047Y-100624819D02*
X93264285Y-100577200D01*
X93264285Y-100577200D02*
X93311904Y-100529580D01*
X93311904Y-100529580D02*
X93359523Y-100434342D01*
X93359523Y-100434342D02*
X93359523Y-99624819D01*
X94359523Y-100624819D02*
X93788095Y-100624819D01*
X94073809Y-100624819D02*
X94073809Y-99624819D01*
X94073809Y-99624819D02*
X93978571Y-99767676D01*
X93978571Y-99767676D02*
X93883333Y-99862914D01*
X93883333Y-99862914D02*
X93788095Y-99910533D01*
X200914238Y-95137200D02*
X201057095Y-95184819D01*
X201057095Y-95184819D02*
X201295190Y-95184819D01*
X201295190Y-95184819D02*
X201390428Y-95137200D01*
X201390428Y-95137200D02*
X201438047Y-95089580D01*
X201438047Y-95089580D02*
X201485666Y-94994342D01*
X201485666Y-94994342D02*
X201485666Y-94899104D01*
X201485666Y-94899104D02*
X201438047Y-94803866D01*
X201438047Y-94803866D02*
X201390428Y-94756247D01*
X201390428Y-94756247D02*
X201295190Y-94708628D01*
X201295190Y-94708628D02*
X201104714Y-94661009D01*
X201104714Y-94661009D02*
X201009476Y-94613390D01*
X201009476Y-94613390D02*
X200961857Y-94565771D01*
X200961857Y-94565771D02*
X200914238Y-94470533D01*
X200914238Y-94470533D02*
X200914238Y-94375295D01*
X200914238Y-94375295D02*
X200961857Y-94280057D01*
X200961857Y-94280057D02*
X201009476Y-94232438D01*
X201009476Y-94232438D02*
X201104714Y-94184819D01*
X201104714Y-94184819D02*
X201342809Y-94184819D01*
X201342809Y-94184819D02*
X201485666Y-94232438D01*
X201819000Y-94184819D02*
X202057095Y-95184819D01*
X202057095Y-95184819D02*
X202247571Y-94470533D01*
X202247571Y-94470533D02*
X202438047Y-95184819D01*
X202438047Y-95184819D02*
X202676143Y-94184819D01*
X203580904Y-95184819D02*
X203009476Y-95184819D01*
X203295190Y-95184819D02*
X203295190Y-94184819D01*
X203295190Y-94184819D02*
X203199952Y-94327676D01*
X203199952Y-94327676D02*
X203104714Y-94422914D01*
X203104714Y-94422914D02*
X203009476Y-94470533D01*
X203914238Y-94184819D02*
X204533285Y-94184819D01*
X204533285Y-94184819D02*
X204199952Y-94565771D01*
X204199952Y-94565771D02*
X204342809Y-94565771D01*
X204342809Y-94565771D02*
X204438047Y-94613390D01*
X204438047Y-94613390D02*
X204485666Y-94661009D01*
X204485666Y-94661009D02*
X204533285Y-94756247D01*
X204533285Y-94756247D02*
X204533285Y-94994342D01*
X204533285Y-94994342D02*
X204485666Y-95089580D01*
X204485666Y-95089580D02*
X204438047Y-95137200D01*
X204438047Y-95137200D02*
X204342809Y-95184819D01*
X204342809Y-95184819D02*
X204057095Y-95184819D01*
X204057095Y-95184819D02*
X203961857Y-95137200D01*
X203961857Y-95137200D02*
X203914238Y-95089580D01*
X182340429Y-57037200D02*
X182483286Y-57084819D01*
X182483286Y-57084819D02*
X182721381Y-57084819D01*
X182721381Y-57084819D02*
X182816619Y-57037200D01*
X182816619Y-57037200D02*
X182864238Y-56989580D01*
X182864238Y-56989580D02*
X182911857Y-56894342D01*
X182911857Y-56894342D02*
X182911857Y-56799104D01*
X182911857Y-56799104D02*
X182864238Y-56703866D01*
X182864238Y-56703866D02*
X182816619Y-56656247D01*
X182816619Y-56656247D02*
X182721381Y-56608628D01*
X182721381Y-56608628D02*
X182530905Y-56561009D01*
X182530905Y-56561009D02*
X182435667Y-56513390D01*
X182435667Y-56513390D02*
X182388048Y-56465771D01*
X182388048Y-56465771D02*
X182340429Y-56370533D01*
X182340429Y-56370533D02*
X182340429Y-56275295D01*
X182340429Y-56275295D02*
X182388048Y-56180057D01*
X182388048Y-56180057D02*
X182435667Y-56132438D01*
X182435667Y-56132438D02*
X182530905Y-56084819D01*
X182530905Y-56084819D02*
X182769000Y-56084819D01*
X182769000Y-56084819D02*
X182911857Y-56132438D01*
X183245191Y-56084819D02*
X183483286Y-57084819D01*
X183483286Y-57084819D02*
X183673762Y-56370533D01*
X183673762Y-56370533D02*
X183864238Y-57084819D01*
X183864238Y-57084819D02*
X184102334Y-56084819D01*
X184435667Y-56180057D02*
X184483286Y-56132438D01*
X184483286Y-56132438D02*
X184578524Y-56084819D01*
X184578524Y-56084819D02*
X184816619Y-56084819D01*
X184816619Y-56084819D02*
X184911857Y-56132438D01*
X184911857Y-56132438D02*
X184959476Y-56180057D01*
X184959476Y-56180057D02*
X185007095Y-56275295D01*
X185007095Y-56275295D02*
X185007095Y-56370533D01*
X185007095Y-56370533D02*
X184959476Y-56513390D01*
X184959476Y-56513390D02*
X184388048Y-57084819D01*
X184388048Y-57084819D02*
X185007095Y-57084819D01*
X163290429Y-57037200D02*
X163433286Y-57084819D01*
X163433286Y-57084819D02*
X163671381Y-57084819D01*
X163671381Y-57084819D02*
X163766619Y-57037200D01*
X163766619Y-57037200D02*
X163814238Y-56989580D01*
X163814238Y-56989580D02*
X163861857Y-56894342D01*
X163861857Y-56894342D02*
X163861857Y-56799104D01*
X163861857Y-56799104D02*
X163814238Y-56703866D01*
X163814238Y-56703866D02*
X163766619Y-56656247D01*
X163766619Y-56656247D02*
X163671381Y-56608628D01*
X163671381Y-56608628D02*
X163480905Y-56561009D01*
X163480905Y-56561009D02*
X163385667Y-56513390D01*
X163385667Y-56513390D02*
X163338048Y-56465771D01*
X163338048Y-56465771D02*
X163290429Y-56370533D01*
X163290429Y-56370533D02*
X163290429Y-56275295D01*
X163290429Y-56275295D02*
X163338048Y-56180057D01*
X163338048Y-56180057D02*
X163385667Y-56132438D01*
X163385667Y-56132438D02*
X163480905Y-56084819D01*
X163480905Y-56084819D02*
X163719000Y-56084819D01*
X163719000Y-56084819D02*
X163861857Y-56132438D01*
X164195191Y-56084819D02*
X164433286Y-57084819D01*
X164433286Y-57084819D02*
X164623762Y-56370533D01*
X164623762Y-56370533D02*
X164814238Y-57084819D01*
X164814238Y-57084819D02*
X165052334Y-56084819D01*
X165338048Y-56084819D02*
X165957095Y-56084819D01*
X165957095Y-56084819D02*
X165623762Y-56465771D01*
X165623762Y-56465771D02*
X165766619Y-56465771D01*
X165766619Y-56465771D02*
X165861857Y-56513390D01*
X165861857Y-56513390D02*
X165909476Y-56561009D01*
X165909476Y-56561009D02*
X165957095Y-56656247D01*
X165957095Y-56656247D02*
X165957095Y-56894342D01*
X165957095Y-56894342D02*
X165909476Y-56989580D01*
X165909476Y-56989580D02*
X165861857Y-57037200D01*
X165861857Y-57037200D02*
X165766619Y-57084819D01*
X165766619Y-57084819D02*
X165480905Y-57084819D01*
X165480905Y-57084819D02*
X165385667Y-57037200D01*
X165385667Y-57037200D02*
X165338048Y-56989580D01*
X144240429Y-57037200D02*
X144383286Y-57084819D01*
X144383286Y-57084819D02*
X144621381Y-57084819D01*
X144621381Y-57084819D02*
X144716619Y-57037200D01*
X144716619Y-57037200D02*
X144764238Y-56989580D01*
X144764238Y-56989580D02*
X144811857Y-56894342D01*
X144811857Y-56894342D02*
X144811857Y-56799104D01*
X144811857Y-56799104D02*
X144764238Y-56703866D01*
X144764238Y-56703866D02*
X144716619Y-56656247D01*
X144716619Y-56656247D02*
X144621381Y-56608628D01*
X144621381Y-56608628D02*
X144430905Y-56561009D01*
X144430905Y-56561009D02*
X144335667Y-56513390D01*
X144335667Y-56513390D02*
X144288048Y-56465771D01*
X144288048Y-56465771D02*
X144240429Y-56370533D01*
X144240429Y-56370533D02*
X144240429Y-56275295D01*
X144240429Y-56275295D02*
X144288048Y-56180057D01*
X144288048Y-56180057D02*
X144335667Y-56132438D01*
X144335667Y-56132438D02*
X144430905Y-56084819D01*
X144430905Y-56084819D02*
X144669000Y-56084819D01*
X144669000Y-56084819D02*
X144811857Y-56132438D01*
X145145191Y-56084819D02*
X145383286Y-57084819D01*
X145383286Y-57084819D02*
X145573762Y-56370533D01*
X145573762Y-56370533D02*
X145764238Y-57084819D01*
X145764238Y-57084819D02*
X146002334Y-56084819D01*
X146811857Y-56418152D02*
X146811857Y-57084819D01*
X146573762Y-56037200D02*
X146335667Y-56751485D01*
X146335667Y-56751485D02*
X146954714Y-56751485D01*
X106140429Y-57037200D02*
X106283286Y-57084819D01*
X106283286Y-57084819D02*
X106521381Y-57084819D01*
X106521381Y-57084819D02*
X106616619Y-57037200D01*
X106616619Y-57037200D02*
X106664238Y-56989580D01*
X106664238Y-56989580D02*
X106711857Y-56894342D01*
X106711857Y-56894342D02*
X106711857Y-56799104D01*
X106711857Y-56799104D02*
X106664238Y-56703866D01*
X106664238Y-56703866D02*
X106616619Y-56656247D01*
X106616619Y-56656247D02*
X106521381Y-56608628D01*
X106521381Y-56608628D02*
X106330905Y-56561009D01*
X106330905Y-56561009D02*
X106235667Y-56513390D01*
X106235667Y-56513390D02*
X106188048Y-56465771D01*
X106188048Y-56465771D02*
X106140429Y-56370533D01*
X106140429Y-56370533D02*
X106140429Y-56275295D01*
X106140429Y-56275295D02*
X106188048Y-56180057D01*
X106188048Y-56180057D02*
X106235667Y-56132438D01*
X106235667Y-56132438D02*
X106330905Y-56084819D01*
X106330905Y-56084819D02*
X106569000Y-56084819D01*
X106569000Y-56084819D02*
X106711857Y-56132438D01*
X107045191Y-56084819D02*
X107283286Y-57084819D01*
X107283286Y-57084819D02*
X107473762Y-56370533D01*
X107473762Y-56370533D02*
X107664238Y-57084819D01*
X107664238Y-57084819D02*
X107902334Y-56084819D01*
X108711857Y-56084819D02*
X108521381Y-56084819D01*
X108521381Y-56084819D02*
X108426143Y-56132438D01*
X108426143Y-56132438D02*
X108378524Y-56180057D01*
X108378524Y-56180057D02*
X108283286Y-56322914D01*
X108283286Y-56322914D02*
X108235667Y-56513390D01*
X108235667Y-56513390D02*
X108235667Y-56894342D01*
X108235667Y-56894342D02*
X108283286Y-56989580D01*
X108283286Y-56989580D02*
X108330905Y-57037200D01*
X108330905Y-57037200D02*
X108426143Y-57084819D01*
X108426143Y-57084819D02*
X108616619Y-57084819D01*
X108616619Y-57084819D02*
X108711857Y-57037200D01*
X108711857Y-57037200D02*
X108759476Y-56989580D01*
X108759476Y-56989580D02*
X108807095Y-56894342D01*
X108807095Y-56894342D02*
X108807095Y-56656247D01*
X108807095Y-56656247D02*
X108759476Y-56561009D01*
X108759476Y-56561009D02*
X108711857Y-56513390D01*
X108711857Y-56513390D02*
X108616619Y-56465771D01*
X108616619Y-56465771D02*
X108426143Y-56465771D01*
X108426143Y-56465771D02*
X108330905Y-56513390D01*
X108330905Y-56513390D02*
X108283286Y-56561009D01*
X108283286Y-56561009D02*
X108235667Y-56656247D01*
X182340429Y-76087200D02*
X182483286Y-76134819D01*
X182483286Y-76134819D02*
X182721381Y-76134819D01*
X182721381Y-76134819D02*
X182816619Y-76087200D01*
X182816619Y-76087200D02*
X182864238Y-76039580D01*
X182864238Y-76039580D02*
X182911857Y-75944342D01*
X182911857Y-75944342D02*
X182911857Y-75849104D01*
X182911857Y-75849104D02*
X182864238Y-75753866D01*
X182864238Y-75753866D02*
X182816619Y-75706247D01*
X182816619Y-75706247D02*
X182721381Y-75658628D01*
X182721381Y-75658628D02*
X182530905Y-75611009D01*
X182530905Y-75611009D02*
X182435667Y-75563390D01*
X182435667Y-75563390D02*
X182388048Y-75515771D01*
X182388048Y-75515771D02*
X182340429Y-75420533D01*
X182340429Y-75420533D02*
X182340429Y-75325295D01*
X182340429Y-75325295D02*
X182388048Y-75230057D01*
X182388048Y-75230057D02*
X182435667Y-75182438D01*
X182435667Y-75182438D02*
X182530905Y-75134819D01*
X182530905Y-75134819D02*
X182769000Y-75134819D01*
X182769000Y-75134819D02*
X182911857Y-75182438D01*
X183245191Y-75134819D02*
X183483286Y-76134819D01*
X183483286Y-76134819D02*
X183673762Y-75420533D01*
X183673762Y-75420533D02*
X183864238Y-76134819D01*
X183864238Y-76134819D02*
X184102334Y-75134819D01*
X184626143Y-75563390D02*
X184530905Y-75515771D01*
X184530905Y-75515771D02*
X184483286Y-75468152D01*
X184483286Y-75468152D02*
X184435667Y-75372914D01*
X184435667Y-75372914D02*
X184435667Y-75325295D01*
X184435667Y-75325295D02*
X184483286Y-75230057D01*
X184483286Y-75230057D02*
X184530905Y-75182438D01*
X184530905Y-75182438D02*
X184626143Y-75134819D01*
X184626143Y-75134819D02*
X184816619Y-75134819D01*
X184816619Y-75134819D02*
X184911857Y-75182438D01*
X184911857Y-75182438D02*
X184959476Y-75230057D01*
X184959476Y-75230057D02*
X185007095Y-75325295D01*
X185007095Y-75325295D02*
X185007095Y-75372914D01*
X185007095Y-75372914D02*
X184959476Y-75468152D01*
X184959476Y-75468152D02*
X184911857Y-75515771D01*
X184911857Y-75515771D02*
X184816619Y-75563390D01*
X184816619Y-75563390D02*
X184626143Y-75563390D01*
X184626143Y-75563390D02*
X184530905Y-75611009D01*
X184530905Y-75611009D02*
X184483286Y-75658628D01*
X184483286Y-75658628D02*
X184435667Y-75753866D01*
X184435667Y-75753866D02*
X184435667Y-75944342D01*
X184435667Y-75944342D02*
X184483286Y-76039580D01*
X184483286Y-76039580D02*
X184530905Y-76087200D01*
X184530905Y-76087200D02*
X184626143Y-76134819D01*
X184626143Y-76134819D02*
X184816619Y-76134819D01*
X184816619Y-76134819D02*
X184911857Y-76087200D01*
X184911857Y-76087200D02*
X184959476Y-76039580D01*
X184959476Y-76039580D02*
X185007095Y-75944342D01*
X185007095Y-75944342D02*
X185007095Y-75753866D01*
X185007095Y-75753866D02*
X184959476Y-75658628D01*
X184959476Y-75658628D02*
X184911857Y-75611009D01*
X184911857Y-75611009D02*
X184816619Y-75563390D01*
X86354238Y-133957200D02*
X86497095Y-134004819D01*
X86497095Y-134004819D02*
X86735190Y-134004819D01*
X86735190Y-134004819D02*
X86830428Y-133957200D01*
X86830428Y-133957200D02*
X86878047Y-133909580D01*
X86878047Y-133909580D02*
X86925666Y-133814342D01*
X86925666Y-133814342D02*
X86925666Y-133719104D01*
X86925666Y-133719104D02*
X86878047Y-133623866D01*
X86878047Y-133623866D02*
X86830428Y-133576247D01*
X86830428Y-133576247D02*
X86735190Y-133528628D01*
X86735190Y-133528628D02*
X86544714Y-133481009D01*
X86544714Y-133481009D02*
X86449476Y-133433390D01*
X86449476Y-133433390D02*
X86401857Y-133385771D01*
X86401857Y-133385771D02*
X86354238Y-133290533D01*
X86354238Y-133290533D02*
X86354238Y-133195295D01*
X86354238Y-133195295D02*
X86401857Y-133100057D01*
X86401857Y-133100057D02*
X86449476Y-133052438D01*
X86449476Y-133052438D02*
X86544714Y-133004819D01*
X86544714Y-133004819D02*
X86782809Y-133004819D01*
X86782809Y-133004819D02*
X86925666Y-133052438D01*
X87259000Y-133004819D02*
X87497095Y-134004819D01*
X87497095Y-134004819D02*
X87687571Y-133290533D01*
X87687571Y-133290533D02*
X87878047Y-134004819D01*
X87878047Y-134004819D02*
X88116143Y-133004819D01*
X88449476Y-133100057D02*
X88497095Y-133052438D01*
X88497095Y-133052438D02*
X88592333Y-133004819D01*
X88592333Y-133004819D02*
X88830428Y-133004819D01*
X88830428Y-133004819D02*
X88925666Y-133052438D01*
X88925666Y-133052438D02*
X88973285Y-133100057D01*
X88973285Y-133100057D02*
X89020904Y-133195295D01*
X89020904Y-133195295D02*
X89020904Y-133290533D01*
X89020904Y-133290533D02*
X88973285Y-133433390D01*
X88973285Y-133433390D02*
X88401857Y-134004819D01*
X88401857Y-134004819D02*
X89020904Y-134004819D01*
X89401857Y-133100057D02*
X89449476Y-133052438D01*
X89449476Y-133052438D02*
X89544714Y-133004819D01*
X89544714Y-133004819D02*
X89782809Y-133004819D01*
X89782809Y-133004819D02*
X89878047Y-133052438D01*
X89878047Y-133052438D02*
X89925666Y-133100057D01*
X89925666Y-133100057D02*
X89973285Y-133195295D01*
X89973285Y-133195295D02*
X89973285Y-133290533D01*
X89973285Y-133290533D02*
X89925666Y-133433390D01*
X89925666Y-133433390D02*
X89354238Y-134004819D01*
X89354238Y-134004819D02*
X89973285Y-134004819D01*
X134274238Y-114457200D02*
X134417095Y-114504819D01*
X134417095Y-114504819D02*
X134655190Y-114504819D01*
X134655190Y-114504819D02*
X134750428Y-114457200D01*
X134750428Y-114457200D02*
X134798047Y-114409580D01*
X134798047Y-114409580D02*
X134845666Y-114314342D01*
X134845666Y-114314342D02*
X134845666Y-114219104D01*
X134845666Y-114219104D02*
X134798047Y-114123866D01*
X134798047Y-114123866D02*
X134750428Y-114076247D01*
X134750428Y-114076247D02*
X134655190Y-114028628D01*
X134655190Y-114028628D02*
X134464714Y-113981009D01*
X134464714Y-113981009D02*
X134369476Y-113933390D01*
X134369476Y-113933390D02*
X134321857Y-113885771D01*
X134321857Y-113885771D02*
X134274238Y-113790533D01*
X134274238Y-113790533D02*
X134274238Y-113695295D01*
X134274238Y-113695295D02*
X134321857Y-113600057D01*
X134321857Y-113600057D02*
X134369476Y-113552438D01*
X134369476Y-113552438D02*
X134464714Y-113504819D01*
X134464714Y-113504819D02*
X134702809Y-113504819D01*
X134702809Y-113504819D02*
X134845666Y-113552438D01*
X135179000Y-113504819D02*
X135417095Y-114504819D01*
X135417095Y-114504819D02*
X135607571Y-113790533D01*
X135607571Y-113790533D02*
X135798047Y-114504819D01*
X135798047Y-114504819D02*
X136036143Y-113504819D01*
X136940904Y-114504819D02*
X136369476Y-114504819D01*
X136655190Y-114504819D02*
X136655190Y-113504819D01*
X136655190Y-113504819D02*
X136559952Y-113647676D01*
X136559952Y-113647676D02*
X136464714Y-113742914D01*
X136464714Y-113742914D02*
X136369476Y-113790533D01*
X137417095Y-114504819D02*
X137607571Y-114504819D01*
X137607571Y-114504819D02*
X137702809Y-114457200D01*
X137702809Y-114457200D02*
X137750428Y-114409580D01*
X137750428Y-114409580D02*
X137845666Y-114266723D01*
X137845666Y-114266723D02*
X137893285Y-114076247D01*
X137893285Y-114076247D02*
X137893285Y-113695295D01*
X137893285Y-113695295D02*
X137845666Y-113600057D01*
X137845666Y-113600057D02*
X137798047Y-113552438D01*
X137798047Y-113552438D02*
X137702809Y-113504819D01*
X137702809Y-113504819D02*
X137512333Y-113504819D01*
X137512333Y-113504819D02*
X137417095Y-113552438D01*
X137417095Y-113552438D02*
X137369476Y-113600057D01*
X137369476Y-113600057D02*
X137321857Y-113695295D01*
X137321857Y-113695295D02*
X137321857Y-113933390D01*
X137321857Y-113933390D02*
X137369476Y-114028628D01*
X137369476Y-114028628D02*
X137417095Y-114076247D01*
X137417095Y-114076247D02*
X137512333Y-114123866D01*
X137512333Y-114123866D02*
X137702809Y-114123866D01*
X137702809Y-114123866D02*
X137798047Y-114076247D01*
X137798047Y-114076247D02*
X137845666Y-114028628D01*
X137845666Y-114028628D02*
X137893285Y-113933390D01*
X201390429Y-76087200D02*
X201533286Y-76134819D01*
X201533286Y-76134819D02*
X201771381Y-76134819D01*
X201771381Y-76134819D02*
X201866619Y-76087200D01*
X201866619Y-76087200D02*
X201914238Y-76039580D01*
X201914238Y-76039580D02*
X201961857Y-75944342D01*
X201961857Y-75944342D02*
X201961857Y-75849104D01*
X201961857Y-75849104D02*
X201914238Y-75753866D01*
X201914238Y-75753866D02*
X201866619Y-75706247D01*
X201866619Y-75706247D02*
X201771381Y-75658628D01*
X201771381Y-75658628D02*
X201580905Y-75611009D01*
X201580905Y-75611009D02*
X201485667Y-75563390D01*
X201485667Y-75563390D02*
X201438048Y-75515771D01*
X201438048Y-75515771D02*
X201390429Y-75420533D01*
X201390429Y-75420533D02*
X201390429Y-75325295D01*
X201390429Y-75325295D02*
X201438048Y-75230057D01*
X201438048Y-75230057D02*
X201485667Y-75182438D01*
X201485667Y-75182438D02*
X201580905Y-75134819D01*
X201580905Y-75134819D02*
X201819000Y-75134819D01*
X201819000Y-75134819D02*
X201961857Y-75182438D01*
X202295191Y-75134819D02*
X202533286Y-76134819D01*
X202533286Y-76134819D02*
X202723762Y-75420533D01*
X202723762Y-75420533D02*
X202914238Y-76134819D01*
X202914238Y-76134819D02*
X203152334Y-75134819D01*
X203438048Y-75134819D02*
X204104714Y-75134819D01*
X204104714Y-75134819D02*
X203676143Y-76134819D01*
X143764238Y-95137200D02*
X143907095Y-95184819D01*
X143907095Y-95184819D02*
X144145190Y-95184819D01*
X144145190Y-95184819D02*
X144240428Y-95137200D01*
X144240428Y-95137200D02*
X144288047Y-95089580D01*
X144288047Y-95089580D02*
X144335666Y-94994342D01*
X144335666Y-94994342D02*
X144335666Y-94899104D01*
X144335666Y-94899104D02*
X144288047Y-94803866D01*
X144288047Y-94803866D02*
X144240428Y-94756247D01*
X144240428Y-94756247D02*
X144145190Y-94708628D01*
X144145190Y-94708628D02*
X143954714Y-94661009D01*
X143954714Y-94661009D02*
X143859476Y-94613390D01*
X143859476Y-94613390D02*
X143811857Y-94565771D01*
X143811857Y-94565771D02*
X143764238Y-94470533D01*
X143764238Y-94470533D02*
X143764238Y-94375295D01*
X143764238Y-94375295D02*
X143811857Y-94280057D01*
X143811857Y-94280057D02*
X143859476Y-94232438D01*
X143859476Y-94232438D02*
X143954714Y-94184819D01*
X143954714Y-94184819D02*
X144192809Y-94184819D01*
X144192809Y-94184819D02*
X144335666Y-94232438D01*
X144669000Y-94184819D02*
X144907095Y-95184819D01*
X144907095Y-95184819D02*
X145097571Y-94470533D01*
X145097571Y-94470533D02*
X145288047Y-95184819D01*
X145288047Y-95184819D02*
X145526143Y-94184819D01*
X146430904Y-95184819D02*
X145859476Y-95184819D01*
X146145190Y-95184819D02*
X146145190Y-94184819D01*
X146145190Y-94184819D02*
X146049952Y-94327676D01*
X146049952Y-94327676D02*
X145954714Y-94422914D01*
X145954714Y-94422914D02*
X145859476Y-94470533D01*
X147288047Y-94184819D02*
X147097571Y-94184819D01*
X147097571Y-94184819D02*
X147002333Y-94232438D01*
X147002333Y-94232438D02*
X146954714Y-94280057D01*
X146954714Y-94280057D02*
X146859476Y-94422914D01*
X146859476Y-94422914D02*
X146811857Y-94613390D01*
X146811857Y-94613390D02*
X146811857Y-94994342D01*
X146811857Y-94994342D02*
X146859476Y-95089580D01*
X146859476Y-95089580D02*
X146907095Y-95137200D01*
X146907095Y-95137200D02*
X147002333Y-95184819D01*
X147002333Y-95184819D02*
X147192809Y-95184819D01*
X147192809Y-95184819D02*
X147288047Y-95137200D01*
X147288047Y-95137200D02*
X147335666Y-95089580D01*
X147335666Y-95089580D02*
X147383285Y-94994342D01*
X147383285Y-94994342D02*
X147383285Y-94756247D01*
X147383285Y-94756247D02*
X147335666Y-94661009D01*
X147335666Y-94661009D02*
X147288047Y-94613390D01*
X147288047Y-94613390D02*
X147192809Y-94565771D01*
X147192809Y-94565771D02*
X147002333Y-94565771D01*
X147002333Y-94565771D02*
X146907095Y-94613390D01*
X146907095Y-94613390D02*
X146859476Y-94661009D01*
X146859476Y-94661009D02*
X146811857Y-94756247D01*
D11*
%TO.C,Y1*%
X84800000Y-95000000D02*
X81500000Y-95000000D01*
X81500000Y-95000000D02*
X81500000Y-99000000D01*
%TO.C,R9*%
X92022500Y-104262742D02*
X92022500Y-104737258D01*
X90977500Y-104262742D02*
X90977500Y-104737258D01*
%TO.C,R8*%
X89522500Y-104262742D02*
X89522500Y-104737258D01*
X88477500Y-104262742D02*
X88477500Y-104737258D01*
%TO.C,R7*%
X82937742Y-92977500D02*
X83412258Y-92977500D01*
X82937742Y-94022500D02*
X83412258Y-94022500D01*
%TO.C,R6*%
X95712262Y-71737258D02*
X95712262Y-71262742D01*
X96757262Y-71737258D02*
X96757262Y-71262742D01*
%TO.C,R4*%
X92022500Y-107262742D02*
X92022500Y-107737258D01*
X90977500Y-107262742D02*
X90977500Y-107737258D01*
%TO.C,R3*%
X89522500Y-107262742D02*
X89522500Y-107737258D01*
X88477500Y-107262742D02*
X88477500Y-107737258D01*
%TO.C,R2*%
X112686262Y-52186742D02*
X112686262Y-52661258D01*
X111641262Y-52186742D02*
X111641262Y-52661258D01*
%TO.C,R1*%
X110186262Y-52186742D02*
X110186262Y-52661258D01*
X109141262Y-52186742D02*
X109141262Y-52661258D01*
D10*
%TO.C,J4*%
X76363762Y-49974000D02*
X76363762Y-54974000D01*
X76363762Y-49974000D02*
X78363762Y-49974000D01*
X76363762Y-54974000D02*
X78363762Y-54974000D01*
X78363762Y-49474000D02*
X90463762Y-49474000D01*
X78363762Y-55474000D02*
X78363762Y-49474000D01*
X90463762Y-49474000D02*
X90463762Y-55474000D01*
X90463762Y-55474000D02*
X78363762Y-55474000D01*
D11*
%TO.C,J3*%
X85535238Y-63545000D02*
X84265238Y-63545000D01*
X85535238Y-62275000D02*
X85535238Y-63545000D01*
X83222309Y-60115000D02*
X82825238Y-60115000D01*
X83222309Y-59355000D02*
X82825238Y-59355000D01*
X83155238Y-62655000D02*
X82825238Y-62655000D01*
X83155238Y-61895000D02*
X82825238Y-61895000D01*
X82825238Y-63605000D02*
X82825238Y-58405000D01*
X82825238Y-61005000D02*
X80165238Y-61005000D01*
X82825238Y-58405000D02*
X80165238Y-58405000D01*
X80165238Y-63605000D02*
X82825238Y-63605000D01*
X80165238Y-60115000D02*
X79765238Y-60115000D01*
X80165238Y-58405000D02*
X80165238Y-63605000D01*
X80121763Y-62645000D02*
X79765238Y-62645000D01*
X80121763Y-62555000D02*
X79765238Y-62555000D01*
X80121763Y-62455000D02*
X79765238Y-62455000D01*
X80121763Y-62365000D02*
X79765238Y-62365000D01*
X80111763Y-62275000D02*
X79765238Y-62275000D01*
X80111763Y-62185000D02*
X79765238Y-62185000D01*
X80111763Y-62095000D02*
X79765238Y-62095000D01*
X80111763Y-61995000D02*
X79765238Y-61995000D01*
X79775238Y-61895000D02*
X80113501Y-61895000D01*
X79765238Y-61895000D02*
X79765238Y-62645000D01*
X79765238Y-59355000D02*
X80165238Y-59355000D01*
%TO.C,J2*%
X80825238Y-64635000D02*
X82885238Y-64635000D01*
X80825238Y-64753200D02*
X82885238Y-64753200D01*
X80825238Y-64975000D02*
X82895238Y-64975000D01*
X80825238Y-66195000D02*
X82875238Y-66195000D01*
X80825238Y-67045000D02*
X82905238Y-67045000D01*
X80825238Y-67165000D02*
X80825238Y-64635000D01*
X80825238Y-67165000D02*
X82905238Y-67165000D01*
X80825816Y-65360988D02*
X82905816Y-65360988D01*
X80835238Y-65075000D02*
X82915238Y-65075000D01*
X80835238Y-65465000D02*
X82875238Y-65475000D01*
X80835238Y-65575000D02*
X82865238Y-65565000D01*
X80835238Y-65975000D02*
X82915238Y-65975000D01*
X80835238Y-66315000D02*
X82875238Y-66315000D01*
X80841922Y-66468305D02*
X82845238Y-66475000D01*
X80845238Y-65645000D02*
X82875238Y-65645000D01*
X80845238Y-65755000D02*
X82875238Y-65755000D01*
X80845238Y-65875000D02*
X82865238Y-65875000D01*
X80845238Y-66095000D02*
X82885238Y-66095000D01*
X80845238Y-66395000D02*
X82925238Y-66395000D01*
X80845238Y-66545000D02*
X82875238Y-66545000D01*
X80855238Y-64865000D02*
X82895238Y-64865000D01*
X80855238Y-65275000D02*
X82885238Y-65285000D01*
X80865238Y-66755000D02*
X82875238Y-66755000D01*
X80865238Y-66945000D02*
X82825238Y-66955000D01*
X80865238Y-69785000D02*
X82905238Y-69785000D01*
X80865238Y-72385000D02*
X82905238Y-72385000D01*
X80875238Y-66845000D02*
X82855238Y-66845000D01*
X80885238Y-66665000D02*
X82885238Y-66645000D01*
X80905238Y-65185000D02*
X82895238Y-65185000D01*
X82905238Y-64645000D02*
X82905238Y-72385000D01*
X82905238Y-65615000D02*
X83255238Y-65615000D01*
X82905238Y-66335000D02*
X83255238Y-66335000D01*
X82905238Y-68155000D02*
X83315238Y-68155000D01*
X82905238Y-68875000D02*
X83315238Y-68875000D01*
X82905238Y-70695000D02*
X83315238Y-70695000D01*
X82905238Y-71415000D02*
X83315238Y-71415000D01*
X84365238Y-64645000D02*
X85475238Y-64645000D01*
X85475238Y-64645000D02*
X85475238Y-65975000D01*
%TO.C,C16*%
X79990000Y-97140580D02*
X79990000Y-96859420D01*
X81010000Y-97140580D02*
X81010000Y-96859420D01*
%TO.C,C15*%
X83134420Y-99490000D02*
X83415580Y-99490000D01*
X83134420Y-100510000D02*
X83415580Y-100510000D01*
%TO.C,D12*%
X115983762Y-86109000D02*
X115983762Y-82099000D01*
X115983762Y-86109000D02*
X117983762Y-86109000D01*
X117983762Y-86109000D02*
X117983762Y-82099000D01*
%TO.C,D9*%
X173133762Y-86109000D02*
X173133762Y-82099000D01*
X173133762Y-86109000D02*
X175133762Y-86109000D01*
X175133762Y-86109000D02*
X175133762Y-82099000D01*
%TO.C,SW12*%
X100488762Y-76569000D02*
X114458762Y-76569000D01*
X100488762Y-90539000D02*
X100488762Y-76569000D01*
X114458762Y-76569000D02*
X114458762Y-90539000D01*
X114458762Y-90539000D02*
X100488762Y-90539000D01*
%TO.C,R5*%
X93074762Y-72227064D02*
X93074762Y-70772936D01*
X94894762Y-72227064D02*
X94894762Y-70772936D01*
%TO.C,D6*%
X115983762Y-67059000D02*
X115983762Y-63049000D01*
X115983762Y-67059000D02*
X117983762Y-67059000D01*
X117983762Y-67059000D02*
X117983762Y-63049000D01*
%TO.C,SW14*%
X176688762Y-95619000D02*
X190658762Y-95619000D01*
X176688762Y-109589000D02*
X176688762Y-95619000D01*
X190658762Y-95619000D02*
X190658762Y-109589000D01*
X190658762Y-109589000D02*
X176688762Y-109589000D01*
%TO.C,D20*%
X125663762Y-124284000D02*
X125663762Y-120274000D01*
X125663762Y-124284000D02*
X127663762Y-124284000D01*
X127663762Y-124284000D02*
X127663762Y-120274000D01*
%TO.C,D3*%
X173133762Y-67059000D02*
X173133762Y-63049000D01*
X173133762Y-67059000D02*
X175133762Y-67059000D01*
X175133762Y-67059000D02*
X175133762Y-63049000D01*
%TO.C,C11*%
X88107836Y-99140000D02*
X87892164Y-99140000D01*
X88107836Y-99860000D02*
X87892164Y-99860000D01*
D10*
%TO.C,J5*%
X80413762Y-74674000D02*
X97913762Y-74674000D01*
X80413762Y-92174000D02*
X80413762Y-74674000D01*
X80413762Y-92174000D02*
X97913762Y-92174000D01*
X97913762Y-92174000D02*
X97913762Y-74674000D01*
D11*
%TO.C,SW18*%
X100488762Y-95619000D02*
X114458762Y-95619000D01*
X100488762Y-109589000D02*
X100488762Y-95619000D01*
X114458762Y-95619000D02*
X114458762Y-109589000D01*
X114458762Y-109589000D02*
X100488762Y-109589000D01*
%TO.C,D13*%
X211333762Y-105159000D02*
X211333762Y-101149000D01*
X211333762Y-105159000D02*
X213333762Y-105159000D01*
X213333762Y-105159000D02*
X213333762Y-101149000D01*
%TO.C,U2*%
X90574762Y-61574000D02*
X90574762Y-65334000D01*
X90574762Y-65334000D02*
X91834762Y-65334000D01*
X97394762Y-61574000D02*
X97394762Y-65334000D01*
X97394762Y-65334000D02*
X96134762Y-65334000D01*
X97624762Y-60534000D02*
X97294762Y-60294000D01*
X97624762Y-60054000D01*
X97624762Y-60534000D01*
G36*
X97624762Y-60534000D02*
G01*
X97294762Y-60294000D01*
X97624762Y-60054000D01*
X97624762Y-60534000D01*
G37*
%TO.C,D1*%
X211333762Y-67104000D02*
X211333762Y-63094000D01*
X211333762Y-67104000D02*
X213333762Y-67104000D01*
X213333762Y-67104000D02*
X213333762Y-63094000D01*
D12*
%TO.C,U3*%
X92657464Y-103752107D02*
X92657464Y-109340107D01*
X92657464Y-109340107D02*
X92959120Y-109340107D01*
X92959120Y-103752107D02*
X92657464Y-103752107D01*
X97943808Y-109340107D02*
X98245464Y-109340107D01*
X98245464Y-103752107D02*
X97943808Y-103752107D01*
X98245464Y-109340107D02*
X98245464Y-103752107D01*
D11*
%TO.C,SW17*%
X119538762Y-95619000D02*
X133508762Y-95619000D01*
X119538762Y-109589000D02*
X119538762Y-95619000D01*
X133508762Y-95619000D02*
X133508762Y-109589000D01*
X133508762Y-109589000D02*
X119538762Y-109589000D01*
%TO.C,C10*%
X87474762Y-60859420D02*
X87474762Y-61140580D01*
X88494762Y-60859420D02*
X88494762Y-61140580D01*
%TO.C,D21*%
X106663762Y-124284000D02*
X106663762Y-120274000D01*
X106663762Y-124284000D02*
X108663762Y-124284000D01*
X108663762Y-124284000D02*
X108663762Y-120274000D01*
%TO.C,SW20*%
X110178762Y-114939000D02*
X124148762Y-114939000D01*
X110178762Y-128909000D02*
X110178762Y-114939000D01*
X124148762Y-114939000D02*
X124148762Y-128909000D01*
X124148762Y-128909000D02*
X110178762Y-128909000D01*
%TO.C,SW1*%
X195738762Y-57519000D02*
X209708762Y-57519000D01*
X195738762Y-71489000D02*
X195738762Y-57519000D01*
X209708762Y-57519000D02*
X209708762Y-71489000D01*
X209708762Y-71489000D02*
X195738762Y-71489000D01*
%TO.C,C4*%
X88592598Y-66640000D02*
X88376926Y-66640000D01*
X88592598Y-67360000D02*
X88376926Y-67360000D01*
%TO.C,J1*%
X97883762Y-47394000D02*
X97883762Y-48454000D01*
X105873762Y-50554000D02*
X106673762Y-50554000D01*
X106673762Y-50554000D02*
X106673762Y-50404000D01*
X107443762Y-48454000D02*
X107443762Y-47394000D01*
%TO.C,C14*%
X88592598Y-65640000D02*
X88376926Y-65640000D01*
X88592598Y-66360000D02*
X88376926Y-66360000D01*
%TO.C,SW11*%
X119538762Y-76569000D02*
X133508762Y-76569000D01*
X119538762Y-90539000D02*
X119538762Y-76569000D01*
X133508762Y-76569000D02*
X133508762Y-90539000D01*
X133508762Y-90539000D02*
X119538762Y-90539000D01*
%TO.C,D17*%
X135033762Y-105159000D02*
X135033762Y-101149000D01*
X135033762Y-105159000D02*
X137033762Y-105159000D01*
X137033762Y-105159000D02*
X137033762Y-101149000D01*
%TO.C,D5*%
X135033762Y-67059000D02*
X135033762Y-63049000D01*
X135033762Y-67059000D02*
X137033762Y-67059000D01*
X137033762Y-67059000D02*
X137033762Y-63049000D01*
%TO.C,D19*%
X144663762Y-124284000D02*
X144663762Y-120274000D01*
X144663762Y-124284000D02*
X146663762Y-124284000D01*
X146663762Y-124284000D02*
X146663762Y-120274000D01*
%TO.C,SW9*%
X157638762Y-76569000D02*
X171608762Y-76569000D01*
X157638762Y-90539000D02*
X157638762Y-76569000D01*
X171608762Y-76569000D02*
X171608762Y-90539000D01*
X171608762Y-90539000D02*
X157638762Y-90539000D01*
%TO.C,SW10*%
X138588762Y-76569000D02*
X152558762Y-76569000D01*
X138588762Y-90539000D02*
X138588762Y-76569000D01*
X152558762Y-76569000D02*
X152558762Y-90539000D01*
X152558762Y-90539000D02*
X138588762Y-90539000D01*
%TO.C,D11*%
X135033762Y-86109000D02*
X135033762Y-82099000D01*
X135033762Y-86109000D02*
X137033762Y-86109000D01*
X137033762Y-86109000D02*
X137033762Y-82099000D01*
%TO.C,SW15*%
X157638762Y-95619000D02*
X171608762Y-95619000D01*
X157638762Y-109589000D02*
X157638762Y-95619000D01*
X171608762Y-95619000D02*
X171608762Y-109589000D01*
X171608762Y-109589000D02*
X157638762Y-109589000D01*
%TO.C,D4*%
X154083762Y-67059000D02*
X154083762Y-63049000D01*
X154083762Y-67059000D02*
X156083762Y-67059000D01*
X156083762Y-67059000D02*
X156083762Y-63049000D01*
%TO.C,SW5*%
X119538762Y-57519000D02*
X133508762Y-57519000D01*
X119538762Y-71489000D02*
X119538762Y-57519000D01*
X133508762Y-57519000D02*
X133508762Y-71489000D01*
X133508762Y-71489000D02*
X119538762Y-71489000D01*
%TO.C,C6*%
X88592598Y-68640000D02*
X88376926Y-68640000D01*
X88592598Y-69360000D02*
X88376926Y-69360000D01*
%TO.C,U1*%
X89840000Y-92940000D02*
X89840000Y-93590000D01*
X89840000Y-100160000D02*
X89840000Y-99510000D01*
X90490000Y-92940000D02*
X89840000Y-92940000D01*
X90490000Y-100160000D02*
X89840000Y-100160000D01*
X96410000Y-92940000D02*
X97060000Y-92940000D01*
X96410000Y-100160000D02*
X96760000Y-100160000D01*
X97060000Y-92940000D02*
X97060000Y-93590000D01*
X97060000Y-99510000D02*
X97060000Y-99920000D01*
X97300000Y-100490000D02*
X96820000Y-100490000D01*
X97060000Y-100160000D01*
X97300000Y-100490000D01*
G36*
X97300000Y-100490000D02*
G01*
X96820000Y-100490000D01*
X97060000Y-100160000D01*
X97300000Y-100490000D01*
G37*
%TO.C,D7*%
X211333762Y-86109000D02*
X211333762Y-82099000D01*
X211333762Y-86109000D02*
X213333762Y-86109000D01*
X213333762Y-86109000D02*
X213333762Y-82099000D01*
%TO.C,SW13*%
X195738762Y-95619000D02*
X209708762Y-95619000D01*
X195738762Y-109589000D02*
X195738762Y-95619000D01*
X209708762Y-95619000D02*
X209708762Y-109589000D01*
X209708762Y-109589000D02*
X195738762Y-109589000D01*
%TO.C,D18*%
X115983762Y-105159000D02*
X115983762Y-101149000D01*
X115983762Y-105159000D02*
X117983762Y-105159000D01*
X117983762Y-105159000D02*
X117983762Y-101149000D01*
%TO.C,D15*%
X173133762Y-105159000D02*
X173133762Y-101149000D01*
X173133762Y-105159000D02*
X175133762Y-105159000D01*
X175133762Y-105159000D02*
X175133762Y-101149000D01*
%TO.C,SW2*%
X176688762Y-57519000D02*
X190658762Y-57519000D01*
X176688762Y-71489000D02*
X176688762Y-57519000D01*
X190658762Y-57519000D02*
X190658762Y-71489000D01*
X190658762Y-71489000D02*
X176688762Y-71489000D01*
%TO.C,C12*%
X88107836Y-98140000D02*
X87892164Y-98140000D01*
X88107836Y-98860000D02*
X87892164Y-98860000D01*
%TO.C,D8*%
X192183762Y-86109000D02*
X192183762Y-82099000D01*
X192183762Y-86109000D02*
X194183762Y-86109000D01*
X194183762Y-86109000D02*
X194183762Y-82099000D01*
%TO.C,D2*%
X192183762Y-67059000D02*
X192183762Y-63049000D01*
X192183762Y-67059000D02*
X194183762Y-67059000D01*
X194183762Y-67059000D02*
X194183762Y-63049000D01*
%TO.C,SW3*%
X157638762Y-57519000D02*
X171608762Y-57519000D01*
X157638762Y-71489000D02*
X157638762Y-57519000D01*
X171608762Y-57519000D02*
X171608762Y-71489000D01*
X171608762Y-71489000D02*
X157638762Y-71489000D01*
%TO.C,C2*%
X88974762Y-60859420D02*
X88974762Y-61140580D01*
X89994762Y-60859420D02*
X89994762Y-61140580D01*
%TO.C,C9*%
X88592598Y-63640000D02*
X88376926Y-63640000D01*
X88592598Y-64360000D02*
X88376926Y-64360000D01*
%TO.C,SW4*%
X138588762Y-57519000D02*
X152558762Y-57519000D01*
X138588762Y-71489000D02*
X138588762Y-57519000D01*
X152558762Y-57519000D02*
X152558762Y-71489000D01*
X152558762Y-71489000D02*
X138588762Y-71489000D01*
%TO.C,SW6*%
X100488762Y-57519000D02*
X114458762Y-57519000D01*
X100488762Y-71489000D02*
X100488762Y-57519000D01*
X114458762Y-57519000D02*
X114458762Y-71489000D01*
X114458762Y-71489000D02*
X100488762Y-71489000D01*
%TO.C,SW8*%
X176688762Y-76569000D02*
X190658762Y-76569000D01*
X176688762Y-90539000D02*
X176688762Y-76569000D01*
X190658762Y-76569000D02*
X190658762Y-90539000D01*
X190658762Y-90539000D02*
X176688762Y-90539000D01*
%TO.C,C13*%
X87941580Y-100566000D02*
X87660420Y-100566000D01*
X87941580Y-101586000D02*
X87660420Y-101586000D01*
%TO.C,C8*%
X88592598Y-67640000D02*
X88376926Y-67640000D01*
X88592598Y-68360000D02*
X88376926Y-68360000D01*
%TO.C,D22*%
X96663762Y-143784000D02*
X96663762Y-139774000D01*
X96663762Y-143784000D02*
X98663762Y-143784000D01*
X98663762Y-143784000D02*
X98663762Y-139774000D01*
%TO.C,C3*%
X88592598Y-62640000D02*
X88376926Y-62640000D01*
X88592598Y-63360000D02*
X88376926Y-63360000D01*
%TO.C,C1*%
X97079342Y-52414000D02*
X96798182Y-52414000D01*
X97079342Y-53434000D02*
X96798182Y-53434000D01*
%TO.C,SW22*%
X81178762Y-134439000D02*
X95148762Y-134439000D01*
X81178762Y-148409000D02*
X81178762Y-134439000D01*
X95148762Y-134439000D02*
X95148762Y-148409000D01*
X95148762Y-148409000D02*
X81178762Y-148409000D01*
%TO.C,D16*%
X154083762Y-105159000D02*
X154083762Y-101149000D01*
X154083762Y-105159000D02*
X156083762Y-105159000D01*
X156083762Y-105159000D02*
X156083762Y-101149000D01*
%TO.C,D10*%
X154083762Y-86109000D02*
X154083762Y-82099000D01*
X154083762Y-86109000D02*
X156083762Y-86109000D01*
X156083762Y-86109000D02*
X156083762Y-82099000D01*
%TO.C,D14*%
X192183762Y-105159000D02*
X192183762Y-101149000D01*
X192183762Y-105159000D02*
X194183762Y-105159000D01*
X194183762Y-105159000D02*
X194183762Y-101149000D01*
%TO.C,C5*%
X88592598Y-69640000D02*
X88376926Y-69640000D01*
X88592598Y-70360000D02*
X88376926Y-70360000D01*
%TO.C,SW19*%
X129098762Y-114939000D02*
X143068762Y-114939000D01*
X129098762Y-128909000D02*
X129098762Y-114939000D01*
X143068762Y-114939000D02*
X143068762Y-128909000D01*
X143068762Y-128909000D02*
X129098762Y-128909000D01*
%TO.C,SW7*%
X195738762Y-76569000D02*
X209708762Y-76569000D01*
X195738762Y-90539000D02*
X195738762Y-76569000D01*
X209708762Y-76569000D02*
X209708762Y-90539000D01*
X209708762Y-90539000D02*
X195738762Y-90539000D01*
%TO.C,SW16*%
X138588762Y-95619000D02*
X152558762Y-95619000D01*
X138588762Y-109589000D02*
X138588762Y-95619000D01*
X152558762Y-95619000D02*
X152558762Y-109589000D01*
X152558762Y-109589000D02*
X138588762Y-109589000D01*
%TO.C,SW21*%
X91138762Y-115019000D02*
X105108762Y-115019000D01*
X91138762Y-128989000D02*
X91138762Y-115019000D01*
X105108762Y-115019000D02*
X105108762Y-128989000D01*
X105108762Y-128989000D02*
X91138762Y-128989000D01*
%TO.C,C7*%
X88592598Y-64640000D02*
X88376926Y-64640000D01*
X88592598Y-65360000D02*
X88376926Y-65360000D01*
%TD*%
D13*
%TO.C,J5*%
X83163762Y-89424000D03*
X95163762Y-89424000D03*
X83163762Y-77424000D03*
X95163762Y-77424000D03*
D14*
X80563762Y-81424000D03*
D15*
X91163762Y-74824000D03*
D14*
X80563762Y-83424000D03*
X80563762Y-85424000D03*
D15*
X87163762Y-74824000D03*
X89163762Y-74824000D03*
%TD*%
%LPC*%
D16*
%TO.C,Y1*%
X82300000Y-95900000D03*
X82300000Y-98100000D03*
X84000000Y-98100000D03*
X84000000Y-95900000D03*
%TD*%
D17*
%TO.C,R9*%
X91500000Y-103675000D03*
X91500000Y-105325000D03*
%TD*%
%TO.C,R8*%
X89000000Y-103675000D03*
X89000000Y-105325000D03*
%TD*%
D18*
%TO.C,R7*%
X82350000Y-93500000D03*
X84000000Y-93500000D03*
%TD*%
D19*
%TO.C,R6*%
X96234762Y-72325000D03*
X96234762Y-70675000D03*
%TD*%
D17*
%TO.C,R4*%
X91500000Y-106675000D03*
X91500000Y-108325000D03*
%TD*%
%TO.C,R3*%
X89000000Y-106675000D03*
X89000000Y-108325000D03*
%TD*%
%TO.C,R2*%
X112163762Y-51599000D03*
X112163762Y-53249000D03*
%TD*%
%TO.C,R1*%
X109663762Y-51599000D03*
X109663762Y-53249000D03*
%TD*%
D20*
%TO.C,J4*%
X79863762Y-52474000D03*
X86863762Y-52474000D03*
D21*
X84663762Y-50324000D03*
X81663762Y-50324000D03*
X90163762Y-54624000D03*
X88663762Y-50324000D03*
%TD*%
D22*
%TO.C,J3*%
X84265238Y-62275000D03*
D23*
X84265238Y-59735000D03*
%TD*%
D22*
%TO.C,J2*%
X84365238Y-65975000D03*
D23*
X84365238Y-68515000D03*
X84365238Y-71055000D03*
%TD*%
D24*
%TO.C,C16*%
X80500000Y-97775000D03*
X80500000Y-96225000D03*
%TD*%
D25*
%TO.C,C15*%
X82500000Y-100000000D03*
X84050000Y-100000000D03*
%TD*%
D26*
%TO.C,D12*%
X116983762Y-85399000D03*
X116983762Y-82099000D03*
%TD*%
%TO.C,D9*%
X174133762Y-85399000D03*
X174133762Y-82099000D03*
%TD*%
D27*
%TO.C,SW12*%
X102393762Y-83554000D03*
D28*
X107473762Y-83554000D03*
D27*
X112553762Y-83554000D03*
D29*
X110013762Y-78474000D03*
X103663762Y-81014000D03*
%TD*%
D30*
%TO.C,R5*%
X93984762Y-72962500D03*
X93984762Y-70037500D03*
%TD*%
D26*
%TO.C,D6*%
X116983762Y-66349000D03*
X116983762Y-63049000D03*
%TD*%
D27*
%TO.C,SW14*%
X178593762Y-102604000D03*
D28*
X183673762Y-102604000D03*
D27*
X188753762Y-102604000D03*
D29*
X186213762Y-97524000D03*
X179863762Y-100064000D03*
%TD*%
D26*
%TO.C,D20*%
X126663762Y-123574000D03*
X126663762Y-120274000D03*
%TD*%
%TO.C,D3*%
X174133762Y-66349000D03*
X174133762Y-63049000D03*
%TD*%
D31*
%TO.C,C11*%
X88480000Y-99500000D03*
X87520000Y-99500000D03*
%TD*%
D13*
%TO.C,J5*%
X83163762Y-89424000D03*
X95163762Y-89424000D03*
X83163762Y-77424000D03*
X95163762Y-77424000D03*
D14*
X80563762Y-81424000D03*
D15*
X91163762Y-74824000D03*
D14*
X80563762Y-83424000D03*
X80563762Y-85424000D03*
D15*
X87163762Y-74824000D03*
X89163762Y-74824000D03*
%TD*%
D27*
%TO.C,SW18*%
X102393762Y-102604000D03*
D28*
X107473762Y-102604000D03*
D27*
X112553762Y-102604000D03*
D29*
X110013762Y-97524000D03*
X103663762Y-100064000D03*
%TD*%
D26*
%TO.C,D13*%
X212333762Y-104449000D03*
X212333762Y-101149000D03*
%TD*%
D32*
%TO.C,U2*%
X96284762Y-60274000D03*
X93984762Y-60274000D03*
D33*
X93984762Y-66574000D03*
D32*
X91684762Y-60274000D03*
%TD*%
D26*
%TO.C,D1*%
X212333762Y-66394000D03*
X212333762Y-63094000D03*
%TD*%
D34*
%TO.C,U3*%
X97356464Y-102901207D03*
X96086464Y-102901207D03*
X94816464Y-102901207D03*
X93546464Y-102901207D03*
X93546464Y-110191007D03*
X94816464Y-110191007D03*
X96086464Y-110191007D03*
X97356464Y-110191007D03*
%TD*%
D27*
%TO.C,SW17*%
X121443762Y-102604000D03*
D28*
X126523762Y-102604000D03*
D27*
X131603762Y-102604000D03*
D29*
X129063762Y-97524000D03*
X122713762Y-100064000D03*
%TD*%
D35*
%TO.C,C10*%
X87984762Y-60225000D03*
X87984762Y-61775000D03*
%TD*%
D26*
%TO.C,D21*%
X107663762Y-123574000D03*
X107663762Y-120274000D03*
%TD*%
D27*
%TO.C,SW20*%
X112083762Y-121924000D03*
D28*
X117163762Y-121924000D03*
D27*
X122243762Y-121924000D03*
D29*
X119703762Y-116844000D03*
X113353762Y-119384000D03*
%TD*%
D27*
%TO.C,SW1*%
X197643762Y-64504000D03*
D28*
X202723762Y-64504000D03*
D27*
X207803762Y-64504000D03*
D29*
X205263762Y-59424000D03*
X198913762Y-61964000D03*
%TD*%
D31*
%TO.C,C4*%
X88964762Y-67000000D03*
X88004762Y-67000000D03*
%TD*%
D36*
%TO.C,J1*%
X105663762Y-49874000D03*
X104863762Y-49874000D03*
X104063762Y-49874000D03*
X103263762Y-49874000D03*
X102863762Y-49874000D03*
X102463762Y-49874000D03*
X100863762Y-49874000D03*
X100063762Y-49874000D03*
X99663762Y-49874000D03*
X100463762Y-49874000D03*
X101263762Y-49874000D03*
X101663762Y-49874000D03*
X102063762Y-49874000D03*
X103663762Y-49874000D03*
X104463762Y-49874000D03*
X105263762Y-49874000D03*
D37*
X106178762Y-49874000D03*
X99148762Y-49874000D03*
D38*
X107258762Y-49114000D03*
D39*
X107258762Y-46134000D03*
D38*
X98068762Y-49114000D03*
D39*
X98068762Y-46134000D03*
%TD*%
D31*
%TO.C,C14*%
X88964762Y-66000000D03*
X88004762Y-66000000D03*
%TD*%
D27*
%TO.C,SW11*%
X121443762Y-83554000D03*
D28*
X126523762Y-83554000D03*
D27*
X131603762Y-83554000D03*
D29*
X129063762Y-78474000D03*
X122713762Y-81014000D03*
%TD*%
D26*
%TO.C,D17*%
X136033762Y-104449000D03*
X136033762Y-101149000D03*
%TD*%
%TO.C,D5*%
X136033762Y-66349000D03*
X136033762Y-63049000D03*
%TD*%
%TO.C,D19*%
X145663762Y-123574000D03*
X145663762Y-120274000D03*
%TD*%
D27*
%TO.C,SW9*%
X159543762Y-83554000D03*
D28*
X164623762Y-83554000D03*
D27*
X169703762Y-83554000D03*
D29*
X167163762Y-78474000D03*
X160813762Y-81014000D03*
%TD*%
D27*
%TO.C,SW10*%
X140493762Y-83554000D03*
D28*
X145573762Y-83554000D03*
D27*
X150653762Y-83554000D03*
D29*
X148113762Y-78474000D03*
X141763762Y-81014000D03*
%TD*%
D26*
%TO.C,D11*%
X136033762Y-85399000D03*
X136033762Y-82099000D03*
%TD*%
D27*
%TO.C,SW15*%
X159543762Y-102604000D03*
D28*
X164623762Y-102604000D03*
D27*
X169703762Y-102604000D03*
D29*
X167163762Y-97524000D03*
X160813762Y-100064000D03*
%TD*%
D26*
%TO.C,D4*%
X155083762Y-66349000D03*
X155083762Y-63049000D03*
%TD*%
D27*
%TO.C,SW5*%
X121443762Y-64504000D03*
D28*
X126523762Y-64504000D03*
D27*
X131603762Y-64504000D03*
D29*
X129063762Y-59424000D03*
X122713762Y-61964000D03*
%TD*%
D31*
%TO.C,C6*%
X88964762Y-69000000D03*
X88004762Y-69000000D03*
%TD*%
D40*
%TO.C,U1*%
X96887500Y-99150000D03*
X96887500Y-98750000D03*
X96887500Y-98350000D03*
X96887500Y-97950000D03*
X96887500Y-97550000D03*
X96887500Y-97150000D03*
X96887500Y-96750000D03*
X96887500Y-96350000D03*
X96887500Y-95950000D03*
X96887500Y-95550000D03*
X96887500Y-95150000D03*
X96887500Y-94750000D03*
X96887500Y-94350000D03*
X96887500Y-93950000D03*
D41*
X96050000Y-93112500D03*
X95650000Y-93112500D03*
X95250000Y-93112500D03*
X94850000Y-93112500D03*
X94450000Y-93112500D03*
X94050000Y-93112500D03*
X93650000Y-93112500D03*
X93250000Y-93112500D03*
X92850000Y-93112500D03*
X92450000Y-93112500D03*
X92050000Y-93112500D03*
X91650000Y-93112500D03*
X91250000Y-93112500D03*
X90850000Y-93112500D03*
D40*
X90012500Y-93950000D03*
X90012500Y-94350000D03*
X90012500Y-94750000D03*
X90012500Y-95150000D03*
X90012500Y-95550000D03*
X90012500Y-95950000D03*
X90012500Y-96350000D03*
X90012500Y-96750000D03*
X90012500Y-97150000D03*
X90012500Y-97550000D03*
X90012500Y-97950000D03*
X90012500Y-98350000D03*
X90012500Y-98750000D03*
X90012500Y-99150000D03*
D41*
X90850000Y-99987500D03*
X91250000Y-99987500D03*
X91650000Y-99987500D03*
X92050000Y-99987500D03*
X92450000Y-99987500D03*
X92850000Y-99987500D03*
X93250000Y-99987500D03*
X93650000Y-99987500D03*
X94050000Y-99987500D03*
X94450000Y-99987500D03*
X94850000Y-99987500D03*
X95250000Y-99987500D03*
X95650000Y-99987500D03*
X96050000Y-99987500D03*
D42*
X93450000Y-96550000D03*
%TD*%
D26*
%TO.C,D7*%
X212333762Y-85399000D03*
X212333762Y-82099000D03*
%TD*%
D27*
%TO.C,SW13*%
X197643762Y-102604000D03*
D28*
X202723762Y-102604000D03*
D27*
X207803762Y-102604000D03*
D29*
X205263762Y-97524000D03*
X198913762Y-100064000D03*
%TD*%
D26*
%TO.C,D18*%
X116983762Y-104449000D03*
X116983762Y-101149000D03*
%TD*%
%TO.C,D15*%
X174133762Y-104449000D03*
X174133762Y-101149000D03*
%TD*%
D27*
%TO.C,SW2*%
X178593762Y-64504000D03*
D28*
X183673762Y-64504000D03*
D27*
X188753762Y-64504000D03*
D29*
X186213762Y-59424000D03*
X179863762Y-61964000D03*
%TD*%
D31*
%TO.C,C12*%
X88480000Y-98500000D03*
X87520000Y-98500000D03*
%TD*%
D26*
%TO.C,D8*%
X193183762Y-85399000D03*
X193183762Y-82099000D03*
%TD*%
%TO.C,D2*%
X193183762Y-66349000D03*
X193183762Y-63049000D03*
%TD*%
D27*
%TO.C,SW3*%
X159543762Y-64504000D03*
D28*
X164623762Y-64504000D03*
D27*
X169703762Y-64504000D03*
D29*
X167163762Y-59424000D03*
X160813762Y-61964000D03*
%TD*%
D35*
%TO.C,C2*%
X89484762Y-60225000D03*
X89484762Y-61775000D03*
%TD*%
D31*
%TO.C,C9*%
X88964762Y-64000000D03*
X88004762Y-64000000D03*
%TD*%
D27*
%TO.C,SW4*%
X140493762Y-64504000D03*
D28*
X145573762Y-64504000D03*
D27*
X150653762Y-64504000D03*
D29*
X148113762Y-59424000D03*
X141763762Y-61964000D03*
%TD*%
D27*
%TO.C,SW6*%
X102393762Y-64504000D03*
D28*
X107473762Y-64504000D03*
D27*
X112553762Y-64504000D03*
D29*
X110013762Y-59424000D03*
X103663762Y-61964000D03*
%TD*%
D27*
%TO.C,SW8*%
X178593762Y-83554000D03*
D28*
X183673762Y-83554000D03*
D27*
X188753762Y-83554000D03*
D29*
X186213762Y-78474000D03*
X179863762Y-81014000D03*
%TD*%
D43*
%TO.C,C13*%
X88576000Y-101076000D03*
X87026000Y-101076000D03*
%TD*%
D31*
%TO.C,C8*%
X88964762Y-68000000D03*
X88004762Y-68000000D03*
%TD*%
D26*
%TO.C,D22*%
X97663762Y-143074000D03*
X97663762Y-139774000D03*
%TD*%
D31*
%TO.C,C3*%
X88964762Y-63000000D03*
X88004762Y-63000000D03*
%TD*%
D43*
%TO.C,C1*%
X97713762Y-52924000D03*
X96163762Y-52924000D03*
%TD*%
D27*
%TO.C,SW22*%
X83083762Y-141424000D03*
D28*
X88163762Y-141424000D03*
D27*
X93243762Y-141424000D03*
D29*
X90703762Y-136344000D03*
X84353762Y-138884000D03*
%TD*%
D26*
%TO.C,D16*%
X155083762Y-104449000D03*
X155083762Y-101149000D03*
%TD*%
%TO.C,D10*%
X155083762Y-85399000D03*
X155083762Y-82099000D03*
%TD*%
%TO.C,D14*%
X193183762Y-104449000D03*
X193183762Y-101149000D03*
%TD*%
D31*
%TO.C,C5*%
X88964762Y-70000000D03*
X88004762Y-70000000D03*
%TD*%
D27*
%TO.C,SW19*%
X131003762Y-121924000D03*
D28*
X136083762Y-121924000D03*
D27*
X141163762Y-121924000D03*
D29*
X138623762Y-116844000D03*
X132273762Y-119384000D03*
%TD*%
D27*
%TO.C,SW7*%
X197643762Y-83554000D03*
D28*
X202723762Y-83554000D03*
D27*
X207803762Y-83554000D03*
D29*
X205263762Y-78474000D03*
X198913762Y-81014000D03*
%TD*%
D27*
%TO.C,SW16*%
X140493762Y-102604000D03*
D28*
X145573762Y-102604000D03*
D27*
X150653762Y-102604000D03*
D29*
X148113762Y-97524000D03*
X141763762Y-100064000D03*
%TD*%
D27*
%TO.C,SW21*%
X93043762Y-122004000D03*
D28*
X98123762Y-122004000D03*
D27*
X103203762Y-122004000D03*
D29*
X100663762Y-116924000D03*
X94313762Y-119464000D03*
%TD*%
D31*
%TO.C,C7*%
X88964762Y-65000000D03*
X88004762Y-65000000D03*
%TD*%
%LPD*%
M02*
