%TF.GenerationSoftware,KiCad,Pcbnew,9.0.0*%
%TF.CreationDate,2025-03-25T01:57:01+09:00*%
%TF.ProjectId,keyboardR,6b657962-6f61-4726-9452-2e6b69636164,rev?*%
%TF.SameCoordinates,Original*%
%TF.FileFunction,Legend,Bot*%
%TF.FilePolarity,Positive*%
%FSLAX46Y46*%
G04 Gerber Fmt 4.6, Leading zero omitted, Abs format (unit mm)*
G04 Created by KiCad (PCBNEW 9.0.0) date 2025-03-25 01:57:01*
%MOMM*%
%LPD*%
G01*
G04 APERTURE LIST*
%ADD10C,1.200000*%
%ADD11O,2.300000X1.500000*%
%ADD12R,1.700000X1.700000*%
%ADD13O,1.700000X1.700000*%
%ADD14C,1.700000*%
%ADD15C,4.000000*%
%ADD16C,2.200000*%
%ADD17C,2.010000*%
%ADD18O,2.000000X1.500000*%
%ADD19O,1.500000X2.000000*%
%ADD20C,0.850000*%
%ADD21O,0.550000X2.050000*%
G04 APERTURE END LIST*
%LPC*%
D10*
%TO.C,J4*%
X79863762Y-52474000D03*
X86863762Y-52474000D03*
D11*
X84663762Y-50324000D03*
X81663762Y-50324000D03*
X90163762Y-54624000D03*
X88663762Y-50324000D03*
%TD*%
D12*
%TO.C,J3*%
X84265238Y-62275000D03*
D13*
X84265238Y-59735000D03*
%TD*%
D12*
%TO.C,J2*%
X84365238Y-65975000D03*
D13*
X84365238Y-68515000D03*
X84365238Y-71055000D03*
%TD*%
D14*
%TO.C,SW12*%
X102393762Y-83554000D03*
D15*
X107473762Y-83554000D03*
D14*
X112553762Y-83554000D03*
D16*
X110013762Y-78474000D03*
X103663762Y-81014000D03*
%TD*%
D14*
%TO.C,SW14*%
X178593762Y-102604000D03*
D15*
X183673762Y-102604000D03*
D14*
X188753762Y-102604000D03*
D16*
X186213762Y-97524000D03*
X179863762Y-100064000D03*
%TD*%
D17*
%TO.C,J5*%
X83163762Y-89424000D03*
X95163762Y-89424000D03*
X83163762Y-77424000D03*
X95163762Y-77424000D03*
D18*
X80563762Y-81424000D03*
D19*
X91163762Y-74824000D03*
D18*
X80563762Y-83424000D03*
X80563762Y-85424000D03*
D19*
X87163762Y-74824000D03*
X89163762Y-74824000D03*
%TD*%
D14*
%TO.C,SW18*%
X102393762Y-102604000D03*
D15*
X107473762Y-102604000D03*
D14*
X112553762Y-102604000D03*
D16*
X110013762Y-97524000D03*
X103663762Y-100064000D03*
%TD*%
D14*
%TO.C,SW17*%
X121443762Y-102604000D03*
D15*
X126523762Y-102604000D03*
D14*
X131603762Y-102604000D03*
D16*
X129063762Y-97524000D03*
X122713762Y-100064000D03*
%TD*%
D14*
%TO.C,SW20*%
X112083762Y-121924000D03*
D15*
X117163762Y-121924000D03*
D14*
X122243762Y-121924000D03*
D16*
X119703762Y-116844000D03*
X113353762Y-119384000D03*
%TD*%
D14*
%TO.C,SW1*%
X197643762Y-64504000D03*
D15*
X202723762Y-64504000D03*
D14*
X207803762Y-64504000D03*
D16*
X205263762Y-59424000D03*
X198913762Y-61964000D03*
%TD*%
D20*
%TO.C,J1*%
X107258762Y-49114000D03*
D21*
X107258762Y-46134000D03*
D20*
X98068762Y-49114000D03*
D21*
X98068762Y-46134000D03*
%TD*%
D14*
%TO.C,SW11*%
X121443762Y-83554000D03*
D15*
X126523762Y-83554000D03*
D14*
X131603762Y-83554000D03*
D16*
X129063762Y-78474000D03*
X122713762Y-81014000D03*
%TD*%
D14*
%TO.C,SW9*%
X159543762Y-83554000D03*
D15*
X164623762Y-83554000D03*
D14*
X169703762Y-83554000D03*
D16*
X167163762Y-78474000D03*
X160813762Y-81014000D03*
%TD*%
D14*
%TO.C,SW10*%
X140493762Y-83554000D03*
D15*
X145573762Y-83554000D03*
D14*
X150653762Y-83554000D03*
D16*
X148113762Y-78474000D03*
X141763762Y-81014000D03*
%TD*%
D14*
%TO.C,SW15*%
X159543762Y-102604000D03*
D15*
X164623762Y-102604000D03*
D14*
X169703762Y-102604000D03*
D16*
X167163762Y-97524000D03*
X160813762Y-100064000D03*
%TD*%
D14*
%TO.C,SW5*%
X121443762Y-64504000D03*
D15*
X126523762Y-64504000D03*
D14*
X131603762Y-64504000D03*
D16*
X129063762Y-59424000D03*
X122713762Y-61964000D03*
%TD*%
D14*
%TO.C,SW13*%
X197643762Y-102604000D03*
D15*
X202723762Y-102604000D03*
D14*
X207803762Y-102604000D03*
D16*
X205263762Y-97524000D03*
X198913762Y-100064000D03*
%TD*%
D14*
%TO.C,SW2*%
X178593762Y-64504000D03*
D15*
X183673762Y-64504000D03*
D14*
X188753762Y-64504000D03*
D16*
X186213762Y-59424000D03*
X179863762Y-61964000D03*
%TD*%
D14*
%TO.C,SW3*%
X159543762Y-64504000D03*
D15*
X164623762Y-64504000D03*
D14*
X169703762Y-64504000D03*
D16*
X167163762Y-59424000D03*
X160813762Y-61964000D03*
%TD*%
D14*
%TO.C,SW4*%
X140493762Y-64504000D03*
D15*
X145573762Y-64504000D03*
D14*
X150653762Y-64504000D03*
D16*
X148113762Y-59424000D03*
X141763762Y-61964000D03*
%TD*%
D14*
%TO.C,SW6*%
X102393762Y-64504000D03*
D15*
X107473762Y-64504000D03*
D14*
X112553762Y-64504000D03*
D16*
X110013762Y-59424000D03*
X103663762Y-61964000D03*
%TD*%
D14*
%TO.C,SW8*%
X178593762Y-83554000D03*
D15*
X183673762Y-83554000D03*
D14*
X188753762Y-83554000D03*
D16*
X186213762Y-78474000D03*
X179863762Y-81014000D03*
%TD*%
D14*
%TO.C,SW22*%
X83083762Y-141424000D03*
D15*
X88163762Y-141424000D03*
D14*
X93243762Y-141424000D03*
D16*
X90703762Y-136344000D03*
X84353762Y-138884000D03*
%TD*%
D14*
%TO.C,SW19*%
X131003762Y-121924000D03*
D15*
X136083762Y-121924000D03*
D14*
X141163762Y-121924000D03*
D16*
X138623762Y-116844000D03*
X132273762Y-119384000D03*
%TD*%
D14*
%TO.C,SW7*%
X197643762Y-83554000D03*
D15*
X202723762Y-83554000D03*
D14*
X207803762Y-83554000D03*
D16*
X205263762Y-78474000D03*
X198913762Y-81014000D03*
%TD*%
D14*
%TO.C,SW16*%
X140493762Y-102604000D03*
D15*
X145573762Y-102604000D03*
D14*
X150653762Y-102604000D03*
D16*
X148113762Y-97524000D03*
X141763762Y-100064000D03*
%TD*%
D14*
%TO.C,SW21*%
X93043762Y-122004000D03*
D15*
X98123762Y-122004000D03*
D14*
X103203762Y-122004000D03*
D16*
X100663762Y-116924000D03*
X94313762Y-119464000D03*
%TD*%
%LPD*%
M02*
