%TF.GenerationSoftware,KiCad,Pcbnew,9.0.0*%
%TF.CreationDate,2025-03-25T02:03:39+09:00*%
%TF.ProjectId,keyboard,6b657962-6f61-4726-942e-6b696361645f,rev?*%
%TF.SameCoordinates,Original*%
%TF.FileFunction,Legend,Top*%
%TF.FilePolarity,Positive*%
%FSLAX46Y46*%
G04 Gerber Fmt 4.6, Leading zero omitted, Abs format (unit mm)*
G04 Created by KiCad (PCBNEW 9.0.0) date 2025-03-25 02:03:39*
%MOMM*%
%LPD*%
G01*
G04 APERTURE LIST*
G04 Aperture macros list*
%AMRoundRect*
0 Rectangle with rounded corners*
0 $1 Rounding radius*
0 $2 $3 $4 $5 $6 $7 $8 $9 X,Y pos of 4 corners*
0 Add a 4 corners polygon primitive as box body*
4,1,4,$2,$3,$4,$5,$6,$7,$8,$9,$2,$3,0*
0 Add four circle primitives for the rounded corners*
1,1,$1+$1,$2,$3*
1,1,$1+$1,$4,$5*
1,1,$1+$1,$6,$7*
1,1,$1+$1,$8,$9*
0 Add four rect primitives between the rounded corners*
20,1,$1+$1,$2,$3,$4,$5,0*
20,1,$1+$1,$4,$5,$6,$7,0*
20,1,$1+$1,$6,$7,$8,$9,0*
20,1,$1+$1,$8,$9,$2,$3,0*%
G04 Aperture macros list end*
%ADD10C,0.150000*%
%ADD11C,0.120000*%
%ADD12C,0.152400*%
%ADD13C,2.010000*%
%ADD14O,1.500000X2.000000*%
%ADD15O,2.000000X1.500000*%
%ADD16R,1.200000X1.400000*%
%ADD17RoundRect,0.225000X0.225000X0.250000X-0.225000X0.250000X-0.225000X-0.250000X0.225000X-0.250000X0*%
%ADD18RoundRect,0.225000X0.250000X-0.225000X0.250000X0.225000X-0.250000X0.225000X-0.250000X-0.225000X0*%
%ADD19RoundRect,0.225000X-0.250000X0.225000X-0.250000X-0.225000X0.250000X-0.225000X0.250000X0.225000X0*%
%ADD20RoundRect,0.225000X0.375000X-0.225000X0.375000X0.225000X-0.375000X0.225000X-0.375000X-0.225000X0*%
%ADD21C,1.700000*%
%ADD22C,4.000000*%
%ADD23C,2.200000*%
%ADD24RoundRect,0.250000X0.625000X-0.312500X0.625000X0.312500X-0.625000X0.312500X-0.625000X-0.312500X0*%
%ADD25RoundRect,0.140000X-0.140000X-0.170000X0.140000X-0.170000X0.140000X0.170000X-0.140000X0.170000X0*%
%ADD26RoundRect,0.375000X-0.375000X0.625000X-0.375000X-0.625000X0.375000X-0.625000X0.375000X0.625000X0*%
%ADD27RoundRect,0.500000X-1.400000X0.500000X-1.400000X-0.500000X1.400000X-0.500000X1.400000X0.500000X0*%
%ADD28RoundRect,0.200000X0.275000X-0.200000X0.275000X0.200000X-0.275000X0.200000X-0.275000X-0.200000X0*%
%ADD29RoundRect,0.200000X-0.275000X0.200000X-0.275000X-0.200000X0.275000X-0.200000X0.275000X0.200000X0*%
%ADD30R,0.533400X1.524000*%
%ADD31RoundRect,0.070000X0.070000X0.345000X-0.070000X0.345000X-0.070000X-0.345000X0.070000X-0.345000X0*%
%ADD32RoundRect,0.112500X0.112500X0.302500X-0.112500X0.302500X-0.112500X-0.302500X0.112500X-0.302500X0*%
%ADD33C,0.850000*%
%ADD34O,0.550000X2.050000*%
%ADD35RoundRect,0.050000X-0.387500X-0.050000X0.387500X-0.050000X0.387500X0.050000X-0.387500X0.050000X0*%
%ADD36RoundRect,0.050000X-0.050000X-0.387500X0.050000X-0.387500X0.050000X0.387500X-0.050000X0.387500X0*%
%ADD37R,3.200000X3.200000*%
%ADD38R,1.700000X1.700000*%
%ADD39O,1.700000X1.700000*%
%ADD40C,1.200000*%
%ADD41O,2.300000X1.500000*%
%ADD42RoundRect,0.225000X-0.225000X-0.250000X0.225000X-0.250000X0.225000X0.250000X-0.225000X0.250000X0*%
G04 APERTURE END LIST*
D10*
X199333333Y-115384819D02*
X199000000Y-114908628D01*
X198761905Y-115384819D02*
X198761905Y-114384819D01*
X198761905Y-114384819D02*
X199142857Y-114384819D01*
X199142857Y-114384819D02*
X199238095Y-114432438D01*
X199238095Y-114432438D02*
X199285714Y-114480057D01*
X199285714Y-114480057D02*
X199333333Y-114575295D01*
X199333333Y-114575295D02*
X199333333Y-114718152D01*
X199333333Y-114718152D02*
X199285714Y-114813390D01*
X199285714Y-114813390D02*
X199238095Y-114861009D01*
X199238095Y-114861009D02*
X199142857Y-114908628D01*
X199142857Y-114908628D02*
X198761905Y-114908628D01*
X199666667Y-114384819D02*
X200333333Y-114384819D01*
X200333333Y-114384819D02*
X199904762Y-115384819D01*
X191774819Y-71666666D02*
X191298628Y-71999999D01*
X191774819Y-72238094D02*
X190774819Y-72238094D01*
X190774819Y-72238094D02*
X190774819Y-71857142D01*
X190774819Y-71857142D02*
X190822438Y-71761904D01*
X190822438Y-71761904D02*
X190870057Y-71714285D01*
X190870057Y-71714285D02*
X190965295Y-71666666D01*
X190965295Y-71666666D02*
X191108152Y-71666666D01*
X191108152Y-71666666D02*
X191203390Y-71714285D01*
X191203390Y-71714285D02*
X191251009Y-71761904D01*
X191251009Y-71761904D02*
X191298628Y-71857142D01*
X191298628Y-71857142D02*
X191298628Y-72238094D01*
X190774819Y-70809523D02*
X190774819Y-70999999D01*
X190774819Y-70999999D02*
X190822438Y-71095237D01*
X190822438Y-71095237D02*
X190870057Y-71142856D01*
X190870057Y-71142856D02*
X191012914Y-71238094D01*
X191012914Y-71238094D02*
X191203390Y-71285713D01*
X191203390Y-71285713D02*
X191584342Y-71285713D01*
X191584342Y-71285713D02*
X191679580Y-71238094D01*
X191679580Y-71238094D02*
X191727200Y-71190475D01*
X191727200Y-71190475D02*
X191774819Y-71095237D01*
X191774819Y-71095237D02*
X191774819Y-70904761D01*
X191774819Y-70904761D02*
X191727200Y-70809523D01*
X191727200Y-70809523D02*
X191679580Y-70761904D01*
X191679580Y-70761904D02*
X191584342Y-70714285D01*
X191584342Y-70714285D02*
X191346247Y-70714285D01*
X191346247Y-70714285D02*
X191251009Y-70761904D01*
X191251009Y-70761904D02*
X191203390Y-70809523D01*
X191203390Y-70809523D02*
X191155771Y-70904761D01*
X191155771Y-70904761D02*
X191155771Y-71095237D01*
X191155771Y-71095237D02*
X191203390Y-71190475D01*
X191203390Y-71190475D02*
X191251009Y-71238094D01*
X191251009Y-71238094D02*
X191346247Y-71285713D01*
X179621476Y-76087200D02*
X179764333Y-76134819D01*
X179764333Y-76134819D02*
X180002428Y-76134819D01*
X180002428Y-76134819D02*
X180097666Y-76087200D01*
X180097666Y-76087200D02*
X180145285Y-76039580D01*
X180145285Y-76039580D02*
X180192904Y-75944342D01*
X180192904Y-75944342D02*
X180192904Y-75849104D01*
X180192904Y-75849104D02*
X180145285Y-75753866D01*
X180145285Y-75753866D02*
X180097666Y-75706247D01*
X180097666Y-75706247D02*
X180002428Y-75658628D01*
X180002428Y-75658628D02*
X179811952Y-75611009D01*
X179811952Y-75611009D02*
X179716714Y-75563390D01*
X179716714Y-75563390D02*
X179669095Y-75515771D01*
X179669095Y-75515771D02*
X179621476Y-75420533D01*
X179621476Y-75420533D02*
X179621476Y-75325295D01*
X179621476Y-75325295D02*
X179669095Y-75230057D01*
X179669095Y-75230057D02*
X179716714Y-75182438D01*
X179716714Y-75182438D02*
X179811952Y-75134819D01*
X179811952Y-75134819D02*
X180050047Y-75134819D01*
X180050047Y-75134819D02*
X180192904Y-75182438D01*
X180526238Y-75134819D02*
X180764333Y-76134819D01*
X180764333Y-76134819D02*
X180954809Y-75420533D01*
X180954809Y-75420533D02*
X181145285Y-76134819D01*
X181145285Y-76134819D02*
X181383381Y-75134819D01*
X182288142Y-76134819D02*
X181716714Y-76134819D01*
X182002428Y-76134819D02*
X182002428Y-75134819D01*
X182002428Y-75134819D02*
X181907190Y-75277676D01*
X181907190Y-75277676D02*
X181811952Y-75372914D01*
X181811952Y-75372914D02*
X181716714Y-75420533D01*
X182669095Y-75230057D02*
X182716714Y-75182438D01*
X182716714Y-75182438D02*
X182811952Y-75134819D01*
X182811952Y-75134819D02*
X183050047Y-75134819D01*
X183050047Y-75134819D02*
X183145285Y-75182438D01*
X183145285Y-75182438D02*
X183192904Y-75230057D01*
X183192904Y-75230057D02*
X183240523Y-75325295D01*
X183240523Y-75325295D02*
X183240523Y-75420533D01*
X183240523Y-75420533D02*
X183192904Y-75563390D01*
X183192904Y-75563390D02*
X182621476Y-76134819D01*
X182621476Y-76134819D02*
X183240523Y-76134819D01*
X103421476Y-95137200D02*
X103564333Y-95184819D01*
X103564333Y-95184819D02*
X103802428Y-95184819D01*
X103802428Y-95184819D02*
X103897666Y-95137200D01*
X103897666Y-95137200D02*
X103945285Y-95089580D01*
X103945285Y-95089580D02*
X103992904Y-94994342D01*
X103992904Y-94994342D02*
X103992904Y-94899104D01*
X103992904Y-94899104D02*
X103945285Y-94803866D01*
X103945285Y-94803866D02*
X103897666Y-94756247D01*
X103897666Y-94756247D02*
X103802428Y-94708628D01*
X103802428Y-94708628D02*
X103611952Y-94661009D01*
X103611952Y-94661009D02*
X103516714Y-94613390D01*
X103516714Y-94613390D02*
X103469095Y-94565771D01*
X103469095Y-94565771D02*
X103421476Y-94470533D01*
X103421476Y-94470533D02*
X103421476Y-94375295D01*
X103421476Y-94375295D02*
X103469095Y-94280057D01*
X103469095Y-94280057D02*
X103516714Y-94232438D01*
X103516714Y-94232438D02*
X103611952Y-94184819D01*
X103611952Y-94184819D02*
X103850047Y-94184819D01*
X103850047Y-94184819D02*
X103992904Y-94232438D01*
X104326238Y-94184819D02*
X104564333Y-95184819D01*
X104564333Y-95184819D02*
X104754809Y-94470533D01*
X104754809Y-94470533D02*
X104945285Y-95184819D01*
X104945285Y-95184819D02*
X105183381Y-94184819D01*
X106088142Y-95184819D02*
X105516714Y-95184819D01*
X105802428Y-95184819D02*
X105802428Y-94184819D01*
X105802428Y-94184819D02*
X105707190Y-94327676D01*
X105707190Y-94327676D02*
X105611952Y-94422914D01*
X105611952Y-94422914D02*
X105516714Y-94470533D01*
X106945285Y-94518152D02*
X106945285Y-95184819D01*
X106707190Y-94137200D02*
X106469095Y-94851485D01*
X106469095Y-94851485D02*
X107088142Y-94851485D01*
X199487666Y-88478819D02*
X199487666Y-89193104D01*
X199487666Y-89193104D02*
X199440047Y-89335961D01*
X199440047Y-89335961D02*
X199344809Y-89431200D01*
X199344809Y-89431200D02*
X199201952Y-89478819D01*
X199201952Y-89478819D02*
X199106714Y-89478819D01*
X200440047Y-88478819D02*
X199963857Y-88478819D01*
X199963857Y-88478819D02*
X199916238Y-88955009D01*
X199916238Y-88955009D02*
X199963857Y-88907390D01*
X199963857Y-88907390D02*
X200059095Y-88859771D01*
X200059095Y-88859771D02*
X200297190Y-88859771D01*
X200297190Y-88859771D02*
X200392428Y-88907390D01*
X200392428Y-88907390D02*
X200440047Y-88955009D01*
X200440047Y-88955009D02*
X200487666Y-89050247D01*
X200487666Y-89050247D02*
X200487666Y-89288342D01*
X200487666Y-89288342D02*
X200440047Y-89383580D01*
X200440047Y-89383580D02*
X200392428Y-89431200D01*
X200392428Y-89431200D02*
X200297190Y-89478819D01*
X200297190Y-89478819D02*
X200059095Y-89478819D01*
X200059095Y-89478819D02*
X199963857Y-89431200D01*
X199963857Y-89431200D02*
X199916238Y-89383580D01*
X179621476Y-95137200D02*
X179764333Y-95184819D01*
X179764333Y-95184819D02*
X180002428Y-95184819D01*
X180002428Y-95184819D02*
X180097666Y-95137200D01*
X180097666Y-95137200D02*
X180145285Y-95089580D01*
X180145285Y-95089580D02*
X180192904Y-94994342D01*
X180192904Y-94994342D02*
X180192904Y-94899104D01*
X180192904Y-94899104D02*
X180145285Y-94803866D01*
X180145285Y-94803866D02*
X180097666Y-94756247D01*
X180097666Y-94756247D02*
X180002428Y-94708628D01*
X180002428Y-94708628D02*
X179811952Y-94661009D01*
X179811952Y-94661009D02*
X179716714Y-94613390D01*
X179716714Y-94613390D02*
X179669095Y-94565771D01*
X179669095Y-94565771D02*
X179621476Y-94470533D01*
X179621476Y-94470533D02*
X179621476Y-94375295D01*
X179621476Y-94375295D02*
X179669095Y-94280057D01*
X179669095Y-94280057D02*
X179716714Y-94232438D01*
X179716714Y-94232438D02*
X179811952Y-94184819D01*
X179811952Y-94184819D02*
X180050047Y-94184819D01*
X180050047Y-94184819D02*
X180192904Y-94232438D01*
X180526238Y-94184819D02*
X180764333Y-95184819D01*
X180764333Y-95184819D02*
X180954809Y-94470533D01*
X180954809Y-94470533D02*
X181145285Y-95184819D01*
X181145285Y-95184819D02*
X181383381Y-94184819D01*
X182288142Y-95184819D02*
X181716714Y-95184819D01*
X182002428Y-95184819D02*
X182002428Y-94184819D01*
X182002428Y-94184819D02*
X181907190Y-94327676D01*
X181907190Y-94327676D02*
X181811952Y-94422914D01*
X181811952Y-94422914D02*
X181716714Y-94470533D01*
X182859571Y-94613390D02*
X182764333Y-94565771D01*
X182764333Y-94565771D02*
X182716714Y-94518152D01*
X182716714Y-94518152D02*
X182669095Y-94422914D01*
X182669095Y-94422914D02*
X182669095Y-94375295D01*
X182669095Y-94375295D02*
X182716714Y-94280057D01*
X182716714Y-94280057D02*
X182764333Y-94232438D01*
X182764333Y-94232438D02*
X182859571Y-94184819D01*
X182859571Y-94184819D02*
X183050047Y-94184819D01*
X183050047Y-94184819D02*
X183145285Y-94232438D01*
X183145285Y-94232438D02*
X183192904Y-94280057D01*
X183192904Y-94280057D02*
X183240523Y-94375295D01*
X183240523Y-94375295D02*
X183240523Y-94422914D01*
X183240523Y-94422914D02*
X183192904Y-94518152D01*
X183192904Y-94518152D02*
X183145285Y-94565771D01*
X183145285Y-94565771D02*
X183050047Y-94613390D01*
X183050047Y-94613390D02*
X182859571Y-94613390D01*
X182859571Y-94613390D02*
X182764333Y-94661009D01*
X182764333Y-94661009D02*
X182716714Y-94708628D01*
X182716714Y-94708628D02*
X182669095Y-94803866D01*
X182669095Y-94803866D02*
X182669095Y-94994342D01*
X182669095Y-94994342D02*
X182716714Y-95089580D01*
X182716714Y-95089580D02*
X182764333Y-95137200D01*
X182764333Y-95137200D02*
X182859571Y-95184819D01*
X182859571Y-95184819D02*
X183050047Y-95184819D01*
X183050047Y-95184819D02*
X183145285Y-95137200D01*
X183145285Y-95137200D02*
X183192904Y-95089580D01*
X183192904Y-95089580D02*
X183240523Y-94994342D01*
X183240523Y-94994342D02*
X183240523Y-94803866D01*
X183240523Y-94803866D02*
X183192904Y-94708628D01*
X183192904Y-94708628D02*
X183145285Y-94661009D01*
X183145285Y-94661009D02*
X183050047Y-94613390D01*
X196954819Y-64761904D02*
X197764342Y-64761904D01*
X197764342Y-64761904D02*
X197859580Y-64714285D01*
X197859580Y-64714285D02*
X197907200Y-64666666D01*
X197907200Y-64666666D02*
X197954819Y-64571428D01*
X197954819Y-64571428D02*
X197954819Y-64380952D01*
X197954819Y-64380952D02*
X197907200Y-64285714D01*
X197907200Y-64285714D02*
X197859580Y-64238095D01*
X197859580Y-64238095D02*
X197764342Y-64190476D01*
X197764342Y-64190476D02*
X196954819Y-64190476D01*
X197050057Y-63761904D02*
X197002438Y-63714285D01*
X197002438Y-63714285D02*
X196954819Y-63619047D01*
X196954819Y-63619047D02*
X196954819Y-63380952D01*
X196954819Y-63380952D02*
X197002438Y-63285714D01*
X197002438Y-63285714D02*
X197050057Y-63238095D01*
X197050057Y-63238095D02*
X197145295Y-63190476D01*
X197145295Y-63190476D02*
X197240533Y-63190476D01*
X197240533Y-63190476D02*
X197383390Y-63238095D01*
X197383390Y-63238095D02*
X197954819Y-63809523D01*
X197954819Y-63809523D02*
X197954819Y-63190476D01*
X193454819Y-97761904D02*
X194264342Y-97761904D01*
X194264342Y-97761904D02*
X194359580Y-97714285D01*
X194359580Y-97714285D02*
X194407200Y-97666666D01*
X194407200Y-97666666D02*
X194454819Y-97571428D01*
X194454819Y-97571428D02*
X194454819Y-97380952D01*
X194454819Y-97380952D02*
X194407200Y-97285714D01*
X194407200Y-97285714D02*
X194359580Y-97238095D01*
X194359580Y-97238095D02*
X194264342Y-97190476D01*
X194264342Y-97190476D02*
X193454819Y-97190476D01*
X193454819Y-96809523D02*
X193454819Y-96190476D01*
X193454819Y-96190476D02*
X193835771Y-96523809D01*
X193835771Y-96523809D02*
X193835771Y-96380952D01*
X193835771Y-96380952D02*
X193883390Y-96285714D01*
X193883390Y-96285714D02*
X193931009Y-96238095D01*
X193931009Y-96238095D02*
X194026247Y-96190476D01*
X194026247Y-96190476D02*
X194264342Y-96190476D01*
X194264342Y-96190476D02*
X194359580Y-96238095D01*
X194359580Y-96238095D02*
X194407200Y-96285714D01*
X194407200Y-96285714D02*
X194454819Y-96380952D01*
X194454819Y-96380952D02*
X194454819Y-96666666D01*
X194454819Y-96666666D02*
X194407200Y-96761904D01*
X194407200Y-96761904D02*
X194359580Y-96809523D01*
X189873419Y-100898899D02*
X190111514Y-100898899D01*
X190016276Y-101136994D02*
X190111514Y-100898899D01*
X190111514Y-100898899D02*
X190016276Y-100660804D01*
X190301990Y-101041756D02*
X190111514Y-100898899D01*
X190111514Y-100898899D02*
X190301990Y-100756042D01*
X189873419Y-100898899D02*
X190111514Y-100898899D01*
X190016276Y-101136994D02*
X190111514Y-100898899D01*
X190111514Y-100898899D02*
X190016276Y-100660804D01*
X190301990Y-101041756D02*
X190111514Y-100898899D01*
X190111514Y-100898899D02*
X190301990Y-100756042D01*
X160571476Y-95137200D02*
X160714333Y-95184819D01*
X160714333Y-95184819D02*
X160952428Y-95184819D01*
X160952428Y-95184819D02*
X161047666Y-95137200D01*
X161047666Y-95137200D02*
X161095285Y-95089580D01*
X161095285Y-95089580D02*
X161142904Y-94994342D01*
X161142904Y-94994342D02*
X161142904Y-94899104D01*
X161142904Y-94899104D02*
X161095285Y-94803866D01*
X161095285Y-94803866D02*
X161047666Y-94756247D01*
X161047666Y-94756247D02*
X160952428Y-94708628D01*
X160952428Y-94708628D02*
X160761952Y-94661009D01*
X160761952Y-94661009D02*
X160666714Y-94613390D01*
X160666714Y-94613390D02*
X160619095Y-94565771D01*
X160619095Y-94565771D02*
X160571476Y-94470533D01*
X160571476Y-94470533D02*
X160571476Y-94375295D01*
X160571476Y-94375295D02*
X160619095Y-94280057D01*
X160619095Y-94280057D02*
X160666714Y-94232438D01*
X160666714Y-94232438D02*
X160761952Y-94184819D01*
X160761952Y-94184819D02*
X161000047Y-94184819D01*
X161000047Y-94184819D02*
X161142904Y-94232438D01*
X161476238Y-94184819D02*
X161714333Y-95184819D01*
X161714333Y-95184819D02*
X161904809Y-94470533D01*
X161904809Y-94470533D02*
X162095285Y-95184819D01*
X162095285Y-95184819D02*
X162333381Y-94184819D01*
X163238142Y-95184819D02*
X162666714Y-95184819D01*
X162952428Y-95184819D02*
X162952428Y-94184819D01*
X162952428Y-94184819D02*
X162857190Y-94327676D01*
X162857190Y-94327676D02*
X162761952Y-94422914D01*
X162761952Y-94422914D02*
X162666714Y-94470533D01*
X163571476Y-94184819D02*
X164238142Y-94184819D01*
X164238142Y-94184819D02*
X163809571Y-95184819D01*
X170061476Y-114457200D02*
X170204333Y-114504819D01*
X170204333Y-114504819D02*
X170442428Y-114504819D01*
X170442428Y-114504819D02*
X170537666Y-114457200D01*
X170537666Y-114457200D02*
X170585285Y-114409580D01*
X170585285Y-114409580D02*
X170632904Y-114314342D01*
X170632904Y-114314342D02*
X170632904Y-114219104D01*
X170632904Y-114219104D02*
X170585285Y-114123866D01*
X170585285Y-114123866D02*
X170537666Y-114076247D01*
X170537666Y-114076247D02*
X170442428Y-114028628D01*
X170442428Y-114028628D02*
X170251952Y-113981009D01*
X170251952Y-113981009D02*
X170156714Y-113933390D01*
X170156714Y-113933390D02*
X170109095Y-113885771D01*
X170109095Y-113885771D02*
X170061476Y-113790533D01*
X170061476Y-113790533D02*
X170061476Y-113695295D01*
X170061476Y-113695295D02*
X170109095Y-113600057D01*
X170109095Y-113600057D02*
X170156714Y-113552438D01*
X170156714Y-113552438D02*
X170251952Y-113504819D01*
X170251952Y-113504819D02*
X170490047Y-113504819D01*
X170490047Y-113504819D02*
X170632904Y-113552438D01*
X170966238Y-113504819D02*
X171204333Y-114504819D01*
X171204333Y-114504819D02*
X171394809Y-113790533D01*
X171394809Y-113790533D02*
X171585285Y-114504819D01*
X171585285Y-114504819D02*
X171823381Y-113504819D01*
X172156714Y-113600057D02*
X172204333Y-113552438D01*
X172204333Y-113552438D02*
X172299571Y-113504819D01*
X172299571Y-113504819D02*
X172537666Y-113504819D01*
X172537666Y-113504819D02*
X172632904Y-113552438D01*
X172632904Y-113552438D02*
X172680523Y-113600057D01*
X172680523Y-113600057D02*
X172728142Y-113695295D01*
X172728142Y-113695295D02*
X172728142Y-113790533D01*
X172728142Y-113790533D02*
X172680523Y-113933390D01*
X172680523Y-113933390D02*
X172109095Y-114504819D01*
X172109095Y-114504819D02*
X172728142Y-114504819D01*
X173347190Y-113504819D02*
X173442428Y-113504819D01*
X173442428Y-113504819D02*
X173537666Y-113552438D01*
X173537666Y-113552438D02*
X173585285Y-113600057D01*
X173585285Y-113600057D02*
X173632904Y-113695295D01*
X173632904Y-113695295D02*
X173680523Y-113885771D01*
X173680523Y-113885771D02*
X173680523Y-114123866D01*
X173680523Y-114123866D02*
X173632904Y-114314342D01*
X173632904Y-114314342D02*
X173585285Y-114409580D01*
X173585285Y-114409580D02*
X173537666Y-114457200D01*
X173537666Y-114457200D02*
X173442428Y-114504819D01*
X173442428Y-114504819D02*
X173347190Y-114504819D01*
X173347190Y-114504819D02*
X173251952Y-114457200D01*
X173251952Y-114457200D02*
X173204333Y-114409580D01*
X173204333Y-114409580D02*
X173156714Y-114314342D01*
X173156714Y-114314342D02*
X173109095Y-114123866D01*
X173109095Y-114123866D02*
X173109095Y-113885771D01*
X173109095Y-113885771D02*
X173156714Y-113695295D01*
X173156714Y-113695295D02*
X173204333Y-113600057D01*
X173204333Y-113600057D02*
X173251952Y-113552438D01*
X173251952Y-113552438D02*
X173347190Y-113504819D01*
X84847667Y-57037200D02*
X84990524Y-57084819D01*
X84990524Y-57084819D02*
X85228619Y-57084819D01*
X85228619Y-57084819D02*
X85323857Y-57037200D01*
X85323857Y-57037200D02*
X85371476Y-56989580D01*
X85371476Y-56989580D02*
X85419095Y-56894342D01*
X85419095Y-56894342D02*
X85419095Y-56799104D01*
X85419095Y-56799104D02*
X85371476Y-56703866D01*
X85371476Y-56703866D02*
X85323857Y-56656247D01*
X85323857Y-56656247D02*
X85228619Y-56608628D01*
X85228619Y-56608628D02*
X85038143Y-56561009D01*
X85038143Y-56561009D02*
X84942905Y-56513390D01*
X84942905Y-56513390D02*
X84895286Y-56465771D01*
X84895286Y-56465771D02*
X84847667Y-56370533D01*
X84847667Y-56370533D02*
X84847667Y-56275295D01*
X84847667Y-56275295D02*
X84895286Y-56180057D01*
X84895286Y-56180057D02*
X84942905Y-56132438D01*
X84942905Y-56132438D02*
X85038143Y-56084819D01*
X85038143Y-56084819D02*
X85276238Y-56084819D01*
X85276238Y-56084819D02*
X85419095Y-56132438D01*
X85752429Y-56084819D02*
X85990524Y-57084819D01*
X85990524Y-57084819D02*
X86181000Y-56370533D01*
X86181000Y-56370533D02*
X86371476Y-57084819D01*
X86371476Y-57084819D02*
X86609572Y-56084819D01*
X87514333Y-57084819D02*
X86942905Y-57084819D01*
X87228619Y-57084819D02*
X87228619Y-56084819D01*
X87228619Y-56084819D02*
X87133381Y-56227676D01*
X87133381Y-56227676D02*
X87038143Y-56322914D01*
X87038143Y-56322914D02*
X86942905Y-56370533D01*
X185987666Y-47954819D02*
X185987666Y-48669104D01*
X185987666Y-48669104D02*
X185940047Y-48811961D01*
X185940047Y-48811961D02*
X185844809Y-48907200D01*
X185844809Y-48907200D02*
X185701952Y-48954819D01*
X185701952Y-48954819D02*
X185606714Y-48954819D01*
X186987666Y-48954819D02*
X186416238Y-48954819D01*
X186701952Y-48954819D02*
X186701952Y-47954819D01*
X186701952Y-47954819D02*
X186606714Y-48097676D01*
X186606714Y-48097676D02*
X186511476Y-48192914D01*
X186511476Y-48192914D02*
X186416238Y-48240533D01*
X160571476Y-76087200D02*
X160714333Y-76134819D01*
X160714333Y-76134819D02*
X160952428Y-76134819D01*
X160952428Y-76134819D02*
X161047666Y-76087200D01*
X161047666Y-76087200D02*
X161095285Y-76039580D01*
X161095285Y-76039580D02*
X161142904Y-75944342D01*
X161142904Y-75944342D02*
X161142904Y-75849104D01*
X161142904Y-75849104D02*
X161095285Y-75753866D01*
X161095285Y-75753866D02*
X161047666Y-75706247D01*
X161047666Y-75706247D02*
X160952428Y-75658628D01*
X160952428Y-75658628D02*
X160761952Y-75611009D01*
X160761952Y-75611009D02*
X160666714Y-75563390D01*
X160666714Y-75563390D02*
X160619095Y-75515771D01*
X160619095Y-75515771D02*
X160571476Y-75420533D01*
X160571476Y-75420533D02*
X160571476Y-75325295D01*
X160571476Y-75325295D02*
X160619095Y-75230057D01*
X160619095Y-75230057D02*
X160666714Y-75182438D01*
X160666714Y-75182438D02*
X160761952Y-75134819D01*
X160761952Y-75134819D02*
X161000047Y-75134819D01*
X161000047Y-75134819D02*
X161142904Y-75182438D01*
X161476238Y-75134819D02*
X161714333Y-76134819D01*
X161714333Y-76134819D02*
X161904809Y-75420533D01*
X161904809Y-75420533D02*
X162095285Y-76134819D01*
X162095285Y-76134819D02*
X162333381Y-75134819D01*
X163238142Y-76134819D02*
X162666714Y-76134819D01*
X162952428Y-76134819D02*
X162952428Y-75134819D01*
X162952428Y-75134819D02*
X162857190Y-75277676D01*
X162857190Y-75277676D02*
X162761952Y-75372914D01*
X162761952Y-75372914D02*
X162666714Y-75420533D01*
X164190523Y-76134819D02*
X163619095Y-76134819D01*
X163904809Y-76134819D02*
X163904809Y-75134819D01*
X163904809Y-75134819D02*
X163809571Y-75277676D01*
X163809571Y-75277676D02*
X163714333Y-75372914D01*
X163714333Y-75372914D02*
X163619095Y-75420533D01*
X122947667Y-76087200D02*
X123090524Y-76134819D01*
X123090524Y-76134819D02*
X123328619Y-76134819D01*
X123328619Y-76134819D02*
X123423857Y-76087200D01*
X123423857Y-76087200D02*
X123471476Y-76039580D01*
X123471476Y-76039580D02*
X123519095Y-75944342D01*
X123519095Y-75944342D02*
X123519095Y-75849104D01*
X123519095Y-75849104D02*
X123471476Y-75753866D01*
X123471476Y-75753866D02*
X123423857Y-75706247D01*
X123423857Y-75706247D02*
X123328619Y-75658628D01*
X123328619Y-75658628D02*
X123138143Y-75611009D01*
X123138143Y-75611009D02*
X123042905Y-75563390D01*
X123042905Y-75563390D02*
X122995286Y-75515771D01*
X122995286Y-75515771D02*
X122947667Y-75420533D01*
X122947667Y-75420533D02*
X122947667Y-75325295D01*
X122947667Y-75325295D02*
X122995286Y-75230057D01*
X122995286Y-75230057D02*
X123042905Y-75182438D01*
X123042905Y-75182438D02*
X123138143Y-75134819D01*
X123138143Y-75134819D02*
X123376238Y-75134819D01*
X123376238Y-75134819D02*
X123519095Y-75182438D01*
X123852429Y-75134819D02*
X124090524Y-76134819D01*
X124090524Y-76134819D02*
X124281000Y-75420533D01*
X124281000Y-75420533D02*
X124471476Y-76134819D01*
X124471476Y-76134819D02*
X124709572Y-75134819D01*
X125138143Y-76134819D02*
X125328619Y-76134819D01*
X125328619Y-76134819D02*
X125423857Y-76087200D01*
X125423857Y-76087200D02*
X125471476Y-76039580D01*
X125471476Y-76039580D02*
X125566714Y-75896723D01*
X125566714Y-75896723D02*
X125614333Y-75706247D01*
X125614333Y-75706247D02*
X125614333Y-75325295D01*
X125614333Y-75325295D02*
X125566714Y-75230057D01*
X125566714Y-75230057D02*
X125519095Y-75182438D01*
X125519095Y-75182438D02*
X125423857Y-75134819D01*
X125423857Y-75134819D02*
X125233381Y-75134819D01*
X125233381Y-75134819D02*
X125138143Y-75182438D01*
X125138143Y-75182438D02*
X125090524Y-75230057D01*
X125090524Y-75230057D02*
X125042905Y-75325295D01*
X125042905Y-75325295D02*
X125042905Y-75563390D01*
X125042905Y-75563390D02*
X125090524Y-75658628D01*
X125090524Y-75658628D02*
X125138143Y-75706247D01*
X125138143Y-75706247D02*
X125233381Y-75753866D01*
X125233381Y-75753866D02*
X125423857Y-75753866D01*
X125423857Y-75753866D02*
X125519095Y-75706247D01*
X125519095Y-75706247D02*
X125566714Y-75658628D01*
X125566714Y-75658628D02*
X125614333Y-75563390D01*
X141521476Y-76087200D02*
X141664333Y-76134819D01*
X141664333Y-76134819D02*
X141902428Y-76134819D01*
X141902428Y-76134819D02*
X141997666Y-76087200D01*
X141997666Y-76087200D02*
X142045285Y-76039580D01*
X142045285Y-76039580D02*
X142092904Y-75944342D01*
X142092904Y-75944342D02*
X142092904Y-75849104D01*
X142092904Y-75849104D02*
X142045285Y-75753866D01*
X142045285Y-75753866D02*
X141997666Y-75706247D01*
X141997666Y-75706247D02*
X141902428Y-75658628D01*
X141902428Y-75658628D02*
X141711952Y-75611009D01*
X141711952Y-75611009D02*
X141616714Y-75563390D01*
X141616714Y-75563390D02*
X141569095Y-75515771D01*
X141569095Y-75515771D02*
X141521476Y-75420533D01*
X141521476Y-75420533D02*
X141521476Y-75325295D01*
X141521476Y-75325295D02*
X141569095Y-75230057D01*
X141569095Y-75230057D02*
X141616714Y-75182438D01*
X141616714Y-75182438D02*
X141711952Y-75134819D01*
X141711952Y-75134819D02*
X141950047Y-75134819D01*
X141950047Y-75134819D02*
X142092904Y-75182438D01*
X142426238Y-75134819D02*
X142664333Y-76134819D01*
X142664333Y-76134819D02*
X142854809Y-75420533D01*
X142854809Y-75420533D02*
X143045285Y-76134819D01*
X143045285Y-76134819D02*
X143283381Y-75134819D01*
X144188142Y-76134819D02*
X143616714Y-76134819D01*
X143902428Y-76134819D02*
X143902428Y-75134819D01*
X143902428Y-75134819D02*
X143807190Y-75277676D01*
X143807190Y-75277676D02*
X143711952Y-75372914D01*
X143711952Y-75372914D02*
X143616714Y-75420533D01*
X144807190Y-75134819D02*
X144902428Y-75134819D01*
X144902428Y-75134819D02*
X144997666Y-75182438D01*
X144997666Y-75182438D02*
X145045285Y-75230057D01*
X145045285Y-75230057D02*
X145092904Y-75325295D01*
X145092904Y-75325295D02*
X145140523Y-75515771D01*
X145140523Y-75515771D02*
X145140523Y-75753866D01*
X145140523Y-75753866D02*
X145092904Y-75944342D01*
X145092904Y-75944342D02*
X145045285Y-76039580D01*
X145045285Y-76039580D02*
X144997666Y-76087200D01*
X144997666Y-76087200D02*
X144902428Y-76134819D01*
X144902428Y-76134819D02*
X144807190Y-76134819D01*
X144807190Y-76134819D02*
X144711952Y-76087200D01*
X144711952Y-76087200D02*
X144664333Y-76039580D01*
X144664333Y-76039580D02*
X144616714Y-75944342D01*
X144616714Y-75944342D02*
X144569095Y-75753866D01*
X144569095Y-75753866D02*
X144569095Y-75515771D01*
X144569095Y-75515771D02*
X144616714Y-75325295D01*
X144616714Y-75325295D02*
X144664333Y-75230057D01*
X144664333Y-75230057D02*
X144711952Y-75182438D01*
X144711952Y-75182438D02*
X144807190Y-75134819D01*
X122471476Y-95137200D02*
X122614333Y-95184819D01*
X122614333Y-95184819D02*
X122852428Y-95184819D01*
X122852428Y-95184819D02*
X122947666Y-95137200D01*
X122947666Y-95137200D02*
X122995285Y-95089580D01*
X122995285Y-95089580D02*
X123042904Y-94994342D01*
X123042904Y-94994342D02*
X123042904Y-94899104D01*
X123042904Y-94899104D02*
X122995285Y-94803866D01*
X122995285Y-94803866D02*
X122947666Y-94756247D01*
X122947666Y-94756247D02*
X122852428Y-94708628D01*
X122852428Y-94708628D02*
X122661952Y-94661009D01*
X122661952Y-94661009D02*
X122566714Y-94613390D01*
X122566714Y-94613390D02*
X122519095Y-94565771D01*
X122519095Y-94565771D02*
X122471476Y-94470533D01*
X122471476Y-94470533D02*
X122471476Y-94375295D01*
X122471476Y-94375295D02*
X122519095Y-94280057D01*
X122519095Y-94280057D02*
X122566714Y-94232438D01*
X122566714Y-94232438D02*
X122661952Y-94184819D01*
X122661952Y-94184819D02*
X122900047Y-94184819D01*
X122900047Y-94184819D02*
X123042904Y-94232438D01*
X123376238Y-94184819D02*
X123614333Y-95184819D01*
X123614333Y-95184819D02*
X123804809Y-94470533D01*
X123804809Y-94470533D02*
X123995285Y-95184819D01*
X123995285Y-95184819D02*
X124233381Y-94184819D01*
X125138142Y-95184819D02*
X124566714Y-95184819D01*
X124852428Y-95184819D02*
X124852428Y-94184819D01*
X124852428Y-94184819D02*
X124757190Y-94327676D01*
X124757190Y-94327676D02*
X124661952Y-94422914D01*
X124661952Y-94422914D02*
X124566714Y-94470533D01*
X126042904Y-94184819D02*
X125566714Y-94184819D01*
X125566714Y-94184819D02*
X125519095Y-94661009D01*
X125519095Y-94661009D02*
X125566714Y-94613390D01*
X125566714Y-94613390D02*
X125661952Y-94565771D01*
X125661952Y-94565771D02*
X125900047Y-94565771D01*
X125900047Y-94565771D02*
X125995285Y-94613390D01*
X125995285Y-94613390D02*
X126042904Y-94661009D01*
X126042904Y-94661009D02*
X126090523Y-94756247D01*
X126090523Y-94756247D02*
X126090523Y-94994342D01*
X126090523Y-94994342D02*
X126042904Y-95089580D01*
X126042904Y-95089580D02*
X125995285Y-95137200D01*
X125995285Y-95137200D02*
X125900047Y-95184819D01*
X125900047Y-95184819D02*
X125661952Y-95184819D01*
X125661952Y-95184819D02*
X125566714Y-95137200D01*
X125566714Y-95137200D02*
X125519095Y-95089580D01*
X161047667Y-57037200D02*
X161190524Y-57084819D01*
X161190524Y-57084819D02*
X161428619Y-57084819D01*
X161428619Y-57084819D02*
X161523857Y-57037200D01*
X161523857Y-57037200D02*
X161571476Y-56989580D01*
X161571476Y-56989580D02*
X161619095Y-56894342D01*
X161619095Y-56894342D02*
X161619095Y-56799104D01*
X161619095Y-56799104D02*
X161571476Y-56703866D01*
X161571476Y-56703866D02*
X161523857Y-56656247D01*
X161523857Y-56656247D02*
X161428619Y-56608628D01*
X161428619Y-56608628D02*
X161238143Y-56561009D01*
X161238143Y-56561009D02*
X161142905Y-56513390D01*
X161142905Y-56513390D02*
X161095286Y-56465771D01*
X161095286Y-56465771D02*
X161047667Y-56370533D01*
X161047667Y-56370533D02*
X161047667Y-56275295D01*
X161047667Y-56275295D02*
X161095286Y-56180057D01*
X161095286Y-56180057D02*
X161142905Y-56132438D01*
X161142905Y-56132438D02*
X161238143Y-56084819D01*
X161238143Y-56084819D02*
X161476238Y-56084819D01*
X161476238Y-56084819D02*
X161619095Y-56132438D01*
X161952429Y-56084819D02*
X162190524Y-57084819D01*
X162190524Y-57084819D02*
X162381000Y-56370533D01*
X162381000Y-56370533D02*
X162571476Y-57084819D01*
X162571476Y-57084819D02*
X162809572Y-56084819D01*
X163666714Y-56084819D02*
X163190524Y-56084819D01*
X163190524Y-56084819D02*
X163142905Y-56561009D01*
X163142905Y-56561009D02*
X163190524Y-56513390D01*
X163190524Y-56513390D02*
X163285762Y-56465771D01*
X163285762Y-56465771D02*
X163523857Y-56465771D01*
X163523857Y-56465771D02*
X163619095Y-56513390D01*
X163619095Y-56513390D02*
X163666714Y-56561009D01*
X163666714Y-56561009D02*
X163714333Y-56656247D01*
X163714333Y-56656247D02*
X163714333Y-56894342D01*
X163714333Y-56894342D02*
X163666714Y-56989580D01*
X163666714Y-56989580D02*
X163619095Y-57037200D01*
X163619095Y-57037200D02*
X163523857Y-57084819D01*
X163523857Y-57084819D02*
X163285762Y-57084819D01*
X163285762Y-57084819D02*
X163190524Y-57037200D01*
X163190524Y-57037200D02*
X163142905Y-56989580D01*
X199238095Y-106454819D02*
X199238095Y-107264342D01*
X199238095Y-107264342D02*
X199285714Y-107359580D01*
X199285714Y-107359580D02*
X199333333Y-107407200D01*
X199333333Y-107407200D02*
X199428571Y-107454819D01*
X199428571Y-107454819D02*
X199619047Y-107454819D01*
X199619047Y-107454819D02*
X199714285Y-107407200D01*
X199714285Y-107407200D02*
X199761904Y-107359580D01*
X199761904Y-107359580D02*
X199809523Y-107264342D01*
X199809523Y-107264342D02*
X199809523Y-106454819D01*
X200809523Y-107454819D02*
X200238095Y-107454819D01*
X200523809Y-107454819D02*
X200523809Y-106454819D01*
X200523809Y-106454819D02*
X200428571Y-106597676D01*
X200428571Y-106597676D02*
X200333333Y-106692914D01*
X200333333Y-106692914D02*
X200238095Y-106740533D01*
X206690057Y-62573333D02*
X207404342Y-62573333D01*
X207404342Y-62573333D02*
X207547199Y-62620952D01*
X207547199Y-62620952D02*
X207642438Y-62716190D01*
X207642438Y-62716190D02*
X207690057Y-62859047D01*
X207690057Y-62859047D02*
X207690057Y-62954285D01*
X206690057Y-62192380D02*
X206690057Y-61573333D01*
X206690057Y-61573333D02*
X207071009Y-61906666D01*
X207071009Y-61906666D02*
X207071009Y-61763809D01*
X207071009Y-61763809D02*
X207118628Y-61668571D01*
X207118628Y-61668571D02*
X207166247Y-61620952D01*
X207166247Y-61620952D02*
X207261485Y-61573333D01*
X207261485Y-61573333D02*
X207499580Y-61573333D01*
X207499580Y-61573333D02*
X207594818Y-61620952D01*
X207594818Y-61620952D02*
X207642438Y-61668571D01*
X207642438Y-61668571D02*
X207690057Y-61763809D01*
X207690057Y-61763809D02*
X207690057Y-62049523D01*
X207690057Y-62049523D02*
X207642438Y-62144761D01*
X207642438Y-62144761D02*
X207594818Y-62192380D01*
X84371476Y-95137200D02*
X84514333Y-95184819D01*
X84514333Y-95184819D02*
X84752428Y-95184819D01*
X84752428Y-95184819D02*
X84847666Y-95137200D01*
X84847666Y-95137200D02*
X84895285Y-95089580D01*
X84895285Y-95089580D02*
X84942904Y-94994342D01*
X84942904Y-94994342D02*
X84942904Y-94899104D01*
X84942904Y-94899104D02*
X84895285Y-94803866D01*
X84895285Y-94803866D02*
X84847666Y-94756247D01*
X84847666Y-94756247D02*
X84752428Y-94708628D01*
X84752428Y-94708628D02*
X84561952Y-94661009D01*
X84561952Y-94661009D02*
X84466714Y-94613390D01*
X84466714Y-94613390D02*
X84419095Y-94565771D01*
X84419095Y-94565771D02*
X84371476Y-94470533D01*
X84371476Y-94470533D02*
X84371476Y-94375295D01*
X84371476Y-94375295D02*
X84419095Y-94280057D01*
X84419095Y-94280057D02*
X84466714Y-94232438D01*
X84466714Y-94232438D02*
X84561952Y-94184819D01*
X84561952Y-94184819D02*
X84800047Y-94184819D01*
X84800047Y-94184819D02*
X84942904Y-94232438D01*
X85276238Y-94184819D02*
X85514333Y-95184819D01*
X85514333Y-95184819D02*
X85704809Y-94470533D01*
X85704809Y-94470533D02*
X85895285Y-95184819D01*
X85895285Y-95184819D02*
X86133381Y-94184819D01*
X87038142Y-95184819D02*
X86466714Y-95184819D01*
X86752428Y-95184819D02*
X86752428Y-94184819D01*
X86752428Y-94184819D02*
X86657190Y-94327676D01*
X86657190Y-94327676D02*
X86561952Y-94422914D01*
X86561952Y-94422914D02*
X86466714Y-94470533D01*
X87371476Y-94184819D02*
X87990523Y-94184819D01*
X87990523Y-94184819D02*
X87657190Y-94565771D01*
X87657190Y-94565771D02*
X87800047Y-94565771D01*
X87800047Y-94565771D02*
X87895285Y-94613390D01*
X87895285Y-94613390D02*
X87942904Y-94661009D01*
X87942904Y-94661009D02*
X87990523Y-94756247D01*
X87990523Y-94756247D02*
X87990523Y-94994342D01*
X87990523Y-94994342D02*
X87942904Y-95089580D01*
X87942904Y-95089580D02*
X87895285Y-95137200D01*
X87895285Y-95137200D02*
X87800047Y-95184819D01*
X87800047Y-95184819D02*
X87514333Y-95184819D01*
X87514333Y-95184819D02*
X87419095Y-95137200D01*
X87419095Y-95137200D02*
X87371476Y-95089580D01*
X103897667Y-57037200D02*
X104040524Y-57084819D01*
X104040524Y-57084819D02*
X104278619Y-57084819D01*
X104278619Y-57084819D02*
X104373857Y-57037200D01*
X104373857Y-57037200D02*
X104421476Y-56989580D01*
X104421476Y-56989580D02*
X104469095Y-56894342D01*
X104469095Y-56894342D02*
X104469095Y-56799104D01*
X104469095Y-56799104D02*
X104421476Y-56703866D01*
X104421476Y-56703866D02*
X104373857Y-56656247D01*
X104373857Y-56656247D02*
X104278619Y-56608628D01*
X104278619Y-56608628D02*
X104088143Y-56561009D01*
X104088143Y-56561009D02*
X103992905Y-56513390D01*
X103992905Y-56513390D02*
X103945286Y-56465771D01*
X103945286Y-56465771D02*
X103897667Y-56370533D01*
X103897667Y-56370533D02*
X103897667Y-56275295D01*
X103897667Y-56275295D02*
X103945286Y-56180057D01*
X103945286Y-56180057D02*
X103992905Y-56132438D01*
X103992905Y-56132438D02*
X104088143Y-56084819D01*
X104088143Y-56084819D02*
X104326238Y-56084819D01*
X104326238Y-56084819D02*
X104469095Y-56132438D01*
X104802429Y-56084819D02*
X105040524Y-57084819D01*
X105040524Y-57084819D02*
X105231000Y-56370533D01*
X105231000Y-56370533D02*
X105421476Y-57084819D01*
X105421476Y-57084819D02*
X105659572Y-56084819D01*
X105992905Y-56180057D02*
X106040524Y-56132438D01*
X106040524Y-56132438D02*
X106135762Y-56084819D01*
X106135762Y-56084819D02*
X106373857Y-56084819D01*
X106373857Y-56084819D02*
X106469095Y-56132438D01*
X106469095Y-56132438D02*
X106516714Y-56180057D01*
X106516714Y-56180057D02*
X106564333Y-56275295D01*
X106564333Y-56275295D02*
X106564333Y-56370533D01*
X106564333Y-56370533D02*
X106516714Y-56513390D01*
X106516714Y-56513390D02*
X105945286Y-57084819D01*
X105945286Y-57084819D02*
X106564333Y-57084819D01*
X204416666Y-49546619D02*
X204416666Y-50260904D01*
X204416666Y-50260904D02*
X204369047Y-50403761D01*
X204369047Y-50403761D02*
X204273809Y-50499000D01*
X204273809Y-50499000D02*
X204130952Y-50546619D01*
X204130952Y-50546619D02*
X204035714Y-50546619D01*
X205321428Y-49879952D02*
X205321428Y-50546619D01*
X205083333Y-49499000D02*
X204845238Y-50213285D01*
X204845238Y-50213285D02*
X205464285Y-50213285D01*
X122947667Y-57037200D02*
X123090524Y-57084819D01*
X123090524Y-57084819D02*
X123328619Y-57084819D01*
X123328619Y-57084819D02*
X123423857Y-57037200D01*
X123423857Y-57037200D02*
X123471476Y-56989580D01*
X123471476Y-56989580D02*
X123519095Y-56894342D01*
X123519095Y-56894342D02*
X123519095Y-56799104D01*
X123519095Y-56799104D02*
X123471476Y-56703866D01*
X123471476Y-56703866D02*
X123423857Y-56656247D01*
X123423857Y-56656247D02*
X123328619Y-56608628D01*
X123328619Y-56608628D02*
X123138143Y-56561009D01*
X123138143Y-56561009D02*
X123042905Y-56513390D01*
X123042905Y-56513390D02*
X122995286Y-56465771D01*
X122995286Y-56465771D02*
X122947667Y-56370533D01*
X122947667Y-56370533D02*
X122947667Y-56275295D01*
X122947667Y-56275295D02*
X122995286Y-56180057D01*
X122995286Y-56180057D02*
X123042905Y-56132438D01*
X123042905Y-56132438D02*
X123138143Y-56084819D01*
X123138143Y-56084819D02*
X123376238Y-56084819D01*
X123376238Y-56084819D02*
X123519095Y-56132438D01*
X123852429Y-56084819D02*
X124090524Y-57084819D01*
X124090524Y-57084819D02*
X124281000Y-56370533D01*
X124281000Y-56370533D02*
X124471476Y-57084819D01*
X124471476Y-57084819D02*
X124709572Y-56084819D01*
X124995286Y-56084819D02*
X125614333Y-56084819D01*
X125614333Y-56084819D02*
X125281000Y-56465771D01*
X125281000Y-56465771D02*
X125423857Y-56465771D01*
X125423857Y-56465771D02*
X125519095Y-56513390D01*
X125519095Y-56513390D02*
X125566714Y-56561009D01*
X125566714Y-56561009D02*
X125614333Y-56656247D01*
X125614333Y-56656247D02*
X125614333Y-56894342D01*
X125614333Y-56894342D02*
X125566714Y-56989580D01*
X125566714Y-56989580D02*
X125519095Y-57037200D01*
X125519095Y-57037200D02*
X125423857Y-57084819D01*
X125423857Y-57084819D02*
X125138143Y-57084819D01*
X125138143Y-57084819D02*
X125042905Y-57037200D01*
X125042905Y-57037200D02*
X124995286Y-56989580D01*
X141997667Y-57037200D02*
X142140524Y-57084819D01*
X142140524Y-57084819D02*
X142378619Y-57084819D01*
X142378619Y-57084819D02*
X142473857Y-57037200D01*
X142473857Y-57037200D02*
X142521476Y-56989580D01*
X142521476Y-56989580D02*
X142569095Y-56894342D01*
X142569095Y-56894342D02*
X142569095Y-56799104D01*
X142569095Y-56799104D02*
X142521476Y-56703866D01*
X142521476Y-56703866D02*
X142473857Y-56656247D01*
X142473857Y-56656247D02*
X142378619Y-56608628D01*
X142378619Y-56608628D02*
X142188143Y-56561009D01*
X142188143Y-56561009D02*
X142092905Y-56513390D01*
X142092905Y-56513390D02*
X142045286Y-56465771D01*
X142045286Y-56465771D02*
X141997667Y-56370533D01*
X141997667Y-56370533D02*
X141997667Y-56275295D01*
X141997667Y-56275295D02*
X142045286Y-56180057D01*
X142045286Y-56180057D02*
X142092905Y-56132438D01*
X142092905Y-56132438D02*
X142188143Y-56084819D01*
X142188143Y-56084819D02*
X142426238Y-56084819D01*
X142426238Y-56084819D02*
X142569095Y-56132438D01*
X142902429Y-56084819D02*
X143140524Y-57084819D01*
X143140524Y-57084819D02*
X143331000Y-56370533D01*
X143331000Y-56370533D02*
X143521476Y-57084819D01*
X143521476Y-57084819D02*
X143759572Y-56084819D01*
X144569095Y-56418152D02*
X144569095Y-57084819D01*
X144331000Y-56037200D02*
X144092905Y-56751485D01*
X144092905Y-56751485D02*
X144711952Y-56751485D01*
X180097667Y-57037200D02*
X180240524Y-57084819D01*
X180240524Y-57084819D02*
X180478619Y-57084819D01*
X180478619Y-57084819D02*
X180573857Y-57037200D01*
X180573857Y-57037200D02*
X180621476Y-56989580D01*
X180621476Y-56989580D02*
X180669095Y-56894342D01*
X180669095Y-56894342D02*
X180669095Y-56799104D01*
X180669095Y-56799104D02*
X180621476Y-56703866D01*
X180621476Y-56703866D02*
X180573857Y-56656247D01*
X180573857Y-56656247D02*
X180478619Y-56608628D01*
X180478619Y-56608628D02*
X180288143Y-56561009D01*
X180288143Y-56561009D02*
X180192905Y-56513390D01*
X180192905Y-56513390D02*
X180145286Y-56465771D01*
X180145286Y-56465771D02*
X180097667Y-56370533D01*
X180097667Y-56370533D02*
X180097667Y-56275295D01*
X180097667Y-56275295D02*
X180145286Y-56180057D01*
X180145286Y-56180057D02*
X180192905Y-56132438D01*
X180192905Y-56132438D02*
X180288143Y-56084819D01*
X180288143Y-56084819D02*
X180526238Y-56084819D01*
X180526238Y-56084819D02*
X180669095Y-56132438D01*
X181002429Y-56084819D02*
X181240524Y-57084819D01*
X181240524Y-57084819D02*
X181431000Y-56370533D01*
X181431000Y-56370533D02*
X181621476Y-57084819D01*
X181621476Y-57084819D02*
X181859572Y-56084819D01*
X182669095Y-56084819D02*
X182478619Y-56084819D01*
X182478619Y-56084819D02*
X182383381Y-56132438D01*
X182383381Y-56132438D02*
X182335762Y-56180057D01*
X182335762Y-56180057D02*
X182240524Y-56322914D01*
X182240524Y-56322914D02*
X182192905Y-56513390D01*
X182192905Y-56513390D02*
X182192905Y-56894342D01*
X182192905Y-56894342D02*
X182240524Y-56989580D01*
X182240524Y-56989580D02*
X182288143Y-57037200D01*
X182288143Y-57037200D02*
X182383381Y-57084819D01*
X182383381Y-57084819D02*
X182573857Y-57084819D01*
X182573857Y-57084819D02*
X182669095Y-57037200D01*
X182669095Y-57037200D02*
X182716714Y-56989580D01*
X182716714Y-56989580D02*
X182764333Y-56894342D01*
X182764333Y-56894342D02*
X182764333Y-56656247D01*
X182764333Y-56656247D02*
X182716714Y-56561009D01*
X182716714Y-56561009D02*
X182669095Y-56513390D01*
X182669095Y-56513390D02*
X182573857Y-56465771D01*
X182573857Y-56465771D02*
X182383381Y-56465771D01*
X182383381Y-56465771D02*
X182288143Y-56513390D01*
X182288143Y-56513390D02*
X182240524Y-56561009D01*
X182240524Y-56561009D02*
X182192905Y-56656247D01*
X103897667Y-76087200D02*
X104040524Y-76134819D01*
X104040524Y-76134819D02*
X104278619Y-76134819D01*
X104278619Y-76134819D02*
X104373857Y-76087200D01*
X104373857Y-76087200D02*
X104421476Y-76039580D01*
X104421476Y-76039580D02*
X104469095Y-75944342D01*
X104469095Y-75944342D02*
X104469095Y-75849104D01*
X104469095Y-75849104D02*
X104421476Y-75753866D01*
X104421476Y-75753866D02*
X104373857Y-75706247D01*
X104373857Y-75706247D02*
X104278619Y-75658628D01*
X104278619Y-75658628D02*
X104088143Y-75611009D01*
X104088143Y-75611009D02*
X103992905Y-75563390D01*
X103992905Y-75563390D02*
X103945286Y-75515771D01*
X103945286Y-75515771D02*
X103897667Y-75420533D01*
X103897667Y-75420533D02*
X103897667Y-75325295D01*
X103897667Y-75325295D02*
X103945286Y-75230057D01*
X103945286Y-75230057D02*
X103992905Y-75182438D01*
X103992905Y-75182438D02*
X104088143Y-75134819D01*
X104088143Y-75134819D02*
X104326238Y-75134819D01*
X104326238Y-75134819D02*
X104469095Y-75182438D01*
X104802429Y-75134819D02*
X105040524Y-76134819D01*
X105040524Y-76134819D02*
X105231000Y-75420533D01*
X105231000Y-75420533D02*
X105421476Y-76134819D01*
X105421476Y-76134819D02*
X105659572Y-75134819D01*
X106183381Y-75563390D02*
X106088143Y-75515771D01*
X106088143Y-75515771D02*
X106040524Y-75468152D01*
X106040524Y-75468152D02*
X105992905Y-75372914D01*
X105992905Y-75372914D02*
X105992905Y-75325295D01*
X105992905Y-75325295D02*
X106040524Y-75230057D01*
X106040524Y-75230057D02*
X106088143Y-75182438D01*
X106088143Y-75182438D02*
X106183381Y-75134819D01*
X106183381Y-75134819D02*
X106373857Y-75134819D01*
X106373857Y-75134819D02*
X106469095Y-75182438D01*
X106469095Y-75182438D02*
X106516714Y-75230057D01*
X106516714Y-75230057D02*
X106564333Y-75325295D01*
X106564333Y-75325295D02*
X106564333Y-75372914D01*
X106564333Y-75372914D02*
X106516714Y-75468152D01*
X106516714Y-75468152D02*
X106469095Y-75515771D01*
X106469095Y-75515771D02*
X106373857Y-75563390D01*
X106373857Y-75563390D02*
X106183381Y-75563390D01*
X106183381Y-75563390D02*
X106088143Y-75611009D01*
X106088143Y-75611009D02*
X106040524Y-75658628D01*
X106040524Y-75658628D02*
X105992905Y-75753866D01*
X105992905Y-75753866D02*
X105992905Y-75944342D01*
X105992905Y-75944342D02*
X106040524Y-76039580D01*
X106040524Y-76039580D02*
X106088143Y-76087200D01*
X106088143Y-76087200D02*
X106183381Y-76134819D01*
X106183381Y-76134819D02*
X106373857Y-76134819D01*
X106373857Y-76134819D02*
X106469095Y-76087200D01*
X106469095Y-76087200D02*
X106516714Y-76039580D01*
X106516714Y-76039580D02*
X106564333Y-75944342D01*
X106564333Y-75944342D02*
X106564333Y-75753866D01*
X106564333Y-75753866D02*
X106516714Y-75658628D01*
X106516714Y-75658628D02*
X106469095Y-75611009D01*
X106469095Y-75611009D02*
X106373857Y-75563390D01*
X198931476Y-133957200D02*
X199074333Y-134004819D01*
X199074333Y-134004819D02*
X199312428Y-134004819D01*
X199312428Y-134004819D02*
X199407666Y-133957200D01*
X199407666Y-133957200D02*
X199455285Y-133909580D01*
X199455285Y-133909580D02*
X199502904Y-133814342D01*
X199502904Y-133814342D02*
X199502904Y-133719104D01*
X199502904Y-133719104D02*
X199455285Y-133623866D01*
X199455285Y-133623866D02*
X199407666Y-133576247D01*
X199407666Y-133576247D02*
X199312428Y-133528628D01*
X199312428Y-133528628D02*
X199121952Y-133481009D01*
X199121952Y-133481009D02*
X199026714Y-133433390D01*
X199026714Y-133433390D02*
X198979095Y-133385771D01*
X198979095Y-133385771D02*
X198931476Y-133290533D01*
X198931476Y-133290533D02*
X198931476Y-133195295D01*
X198931476Y-133195295D02*
X198979095Y-133100057D01*
X198979095Y-133100057D02*
X199026714Y-133052438D01*
X199026714Y-133052438D02*
X199121952Y-133004819D01*
X199121952Y-133004819D02*
X199360047Y-133004819D01*
X199360047Y-133004819D02*
X199502904Y-133052438D01*
X199836238Y-133004819D02*
X200074333Y-134004819D01*
X200074333Y-134004819D02*
X200264809Y-133290533D01*
X200264809Y-133290533D02*
X200455285Y-134004819D01*
X200455285Y-134004819D02*
X200693381Y-133004819D01*
X201026714Y-133100057D02*
X201074333Y-133052438D01*
X201074333Y-133052438D02*
X201169571Y-133004819D01*
X201169571Y-133004819D02*
X201407666Y-133004819D01*
X201407666Y-133004819D02*
X201502904Y-133052438D01*
X201502904Y-133052438D02*
X201550523Y-133100057D01*
X201550523Y-133100057D02*
X201598142Y-133195295D01*
X201598142Y-133195295D02*
X201598142Y-133290533D01*
X201598142Y-133290533D02*
X201550523Y-133433390D01*
X201550523Y-133433390D02*
X200979095Y-134004819D01*
X200979095Y-134004819D02*
X201598142Y-134004819D01*
X201979095Y-133100057D02*
X202026714Y-133052438D01*
X202026714Y-133052438D02*
X202121952Y-133004819D01*
X202121952Y-133004819D02*
X202360047Y-133004819D01*
X202360047Y-133004819D02*
X202455285Y-133052438D01*
X202455285Y-133052438D02*
X202502904Y-133100057D01*
X202502904Y-133100057D02*
X202550523Y-133195295D01*
X202550523Y-133195295D02*
X202550523Y-133290533D01*
X202550523Y-133290533D02*
X202502904Y-133433390D01*
X202502904Y-133433390D02*
X201931476Y-134004819D01*
X201931476Y-134004819D02*
X202550523Y-134004819D01*
X206924819Y-68813333D02*
X207639104Y-68813333D01*
X207639104Y-68813333D02*
X207781961Y-68860952D01*
X207781961Y-68860952D02*
X207877200Y-68956190D01*
X207877200Y-68956190D02*
X207924819Y-69099047D01*
X207924819Y-69099047D02*
X207924819Y-69194285D01*
X207020057Y-68384761D02*
X206972438Y-68337142D01*
X206972438Y-68337142D02*
X206924819Y-68241904D01*
X206924819Y-68241904D02*
X206924819Y-68003809D01*
X206924819Y-68003809D02*
X206972438Y-67908571D01*
X206972438Y-67908571D02*
X207020057Y-67860952D01*
X207020057Y-67860952D02*
X207115295Y-67813333D01*
X207115295Y-67813333D02*
X207210533Y-67813333D01*
X207210533Y-67813333D02*
X207353390Y-67860952D01*
X207353390Y-67860952D02*
X207924819Y-68432380D01*
X207924819Y-68432380D02*
X207924819Y-67813333D01*
X151011476Y-114457200D02*
X151154333Y-114504819D01*
X151154333Y-114504819D02*
X151392428Y-114504819D01*
X151392428Y-114504819D02*
X151487666Y-114457200D01*
X151487666Y-114457200D02*
X151535285Y-114409580D01*
X151535285Y-114409580D02*
X151582904Y-114314342D01*
X151582904Y-114314342D02*
X151582904Y-114219104D01*
X151582904Y-114219104D02*
X151535285Y-114123866D01*
X151535285Y-114123866D02*
X151487666Y-114076247D01*
X151487666Y-114076247D02*
X151392428Y-114028628D01*
X151392428Y-114028628D02*
X151201952Y-113981009D01*
X151201952Y-113981009D02*
X151106714Y-113933390D01*
X151106714Y-113933390D02*
X151059095Y-113885771D01*
X151059095Y-113885771D02*
X151011476Y-113790533D01*
X151011476Y-113790533D02*
X151011476Y-113695295D01*
X151011476Y-113695295D02*
X151059095Y-113600057D01*
X151059095Y-113600057D02*
X151106714Y-113552438D01*
X151106714Y-113552438D02*
X151201952Y-113504819D01*
X151201952Y-113504819D02*
X151440047Y-113504819D01*
X151440047Y-113504819D02*
X151582904Y-113552438D01*
X151916238Y-113504819D02*
X152154333Y-114504819D01*
X152154333Y-114504819D02*
X152344809Y-113790533D01*
X152344809Y-113790533D02*
X152535285Y-114504819D01*
X152535285Y-114504819D02*
X152773381Y-113504819D01*
X153678142Y-114504819D02*
X153106714Y-114504819D01*
X153392428Y-114504819D02*
X153392428Y-113504819D01*
X153392428Y-113504819D02*
X153297190Y-113647676D01*
X153297190Y-113647676D02*
X153201952Y-113742914D01*
X153201952Y-113742914D02*
X153106714Y-113790533D01*
X154154333Y-114504819D02*
X154344809Y-114504819D01*
X154344809Y-114504819D02*
X154440047Y-114457200D01*
X154440047Y-114457200D02*
X154487666Y-114409580D01*
X154487666Y-114409580D02*
X154582904Y-114266723D01*
X154582904Y-114266723D02*
X154630523Y-114076247D01*
X154630523Y-114076247D02*
X154630523Y-113695295D01*
X154630523Y-113695295D02*
X154582904Y-113600057D01*
X154582904Y-113600057D02*
X154535285Y-113552438D01*
X154535285Y-113552438D02*
X154440047Y-113504819D01*
X154440047Y-113504819D02*
X154249571Y-113504819D01*
X154249571Y-113504819D02*
X154154333Y-113552438D01*
X154154333Y-113552438D02*
X154106714Y-113600057D01*
X154106714Y-113600057D02*
X154059095Y-113695295D01*
X154059095Y-113695295D02*
X154059095Y-113933390D01*
X154059095Y-113933390D02*
X154106714Y-114028628D01*
X154106714Y-114028628D02*
X154154333Y-114076247D01*
X154154333Y-114076247D02*
X154249571Y-114123866D01*
X154249571Y-114123866D02*
X154440047Y-114123866D01*
X154440047Y-114123866D02*
X154535285Y-114076247D01*
X154535285Y-114076247D02*
X154582904Y-114028628D01*
X154582904Y-114028628D02*
X154630523Y-113933390D01*
X84847667Y-76087200D02*
X84990524Y-76134819D01*
X84990524Y-76134819D02*
X85228619Y-76134819D01*
X85228619Y-76134819D02*
X85323857Y-76087200D01*
X85323857Y-76087200D02*
X85371476Y-76039580D01*
X85371476Y-76039580D02*
X85419095Y-75944342D01*
X85419095Y-75944342D02*
X85419095Y-75849104D01*
X85419095Y-75849104D02*
X85371476Y-75753866D01*
X85371476Y-75753866D02*
X85323857Y-75706247D01*
X85323857Y-75706247D02*
X85228619Y-75658628D01*
X85228619Y-75658628D02*
X85038143Y-75611009D01*
X85038143Y-75611009D02*
X84942905Y-75563390D01*
X84942905Y-75563390D02*
X84895286Y-75515771D01*
X84895286Y-75515771D02*
X84847667Y-75420533D01*
X84847667Y-75420533D02*
X84847667Y-75325295D01*
X84847667Y-75325295D02*
X84895286Y-75230057D01*
X84895286Y-75230057D02*
X84942905Y-75182438D01*
X84942905Y-75182438D02*
X85038143Y-75134819D01*
X85038143Y-75134819D02*
X85276238Y-75134819D01*
X85276238Y-75134819D02*
X85419095Y-75182438D01*
X85752429Y-75134819D02*
X85990524Y-76134819D01*
X85990524Y-76134819D02*
X86181000Y-75420533D01*
X86181000Y-75420533D02*
X86371476Y-76134819D01*
X86371476Y-76134819D02*
X86609572Y-75134819D01*
X86895286Y-75134819D02*
X87561952Y-75134819D01*
X87561952Y-75134819D02*
X87133381Y-76134819D01*
X141521476Y-95137200D02*
X141664333Y-95184819D01*
X141664333Y-95184819D02*
X141902428Y-95184819D01*
X141902428Y-95184819D02*
X141997666Y-95137200D01*
X141997666Y-95137200D02*
X142045285Y-95089580D01*
X142045285Y-95089580D02*
X142092904Y-94994342D01*
X142092904Y-94994342D02*
X142092904Y-94899104D01*
X142092904Y-94899104D02*
X142045285Y-94803866D01*
X142045285Y-94803866D02*
X141997666Y-94756247D01*
X141997666Y-94756247D02*
X141902428Y-94708628D01*
X141902428Y-94708628D02*
X141711952Y-94661009D01*
X141711952Y-94661009D02*
X141616714Y-94613390D01*
X141616714Y-94613390D02*
X141569095Y-94565771D01*
X141569095Y-94565771D02*
X141521476Y-94470533D01*
X141521476Y-94470533D02*
X141521476Y-94375295D01*
X141521476Y-94375295D02*
X141569095Y-94280057D01*
X141569095Y-94280057D02*
X141616714Y-94232438D01*
X141616714Y-94232438D02*
X141711952Y-94184819D01*
X141711952Y-94184819D02*
X141950047Y-94184819D01*
X141950047Y-94184819D02*
X142092904Y-94232438D01*
X142426238Y-94184819D02*
X142664333Y-95184819D01*
X142664333Y-95184819D02*
X142854809Y-94470533D01*
X142854809Y-94470533D02*
X143045285Y-95184819D01*
X143045285Y-95184819D02*
X143283381Y-94184819D01*
X144188142Y-95184819D02*
X143616714Y-95184819D01*
X143902428Y-95184819D02*
X143902428Y-94184819D01*
X143902428Y-94184819D02*
X143807190Y-94327676D01*
X143807190Y-94327676D02*
X143711952Y-94422914D01*
X143711952Y-94422914D02*
X143616714Y-94470533D01*
X145045285Y-94184819D02*
X144854809Y-94184819D01*
X144854809Y-94184819D02*
X144759571Y-94232438D01*
X144759571Y-94232438D02*
X144711952Y-94280057D01*
X144711952Y-94280057D02*
X144616714Y-94422914D01*
X144616714Y-94422914D02*
X144569095Y-94613390D01*
X144569095Y-94613390D02*
X144569095Y-94994342D01*
X144569095Y-94994342D02*
X144616714Y-95089580D01*
X144616714Y-95089580D02*
X144664333Y-95137200D01*
X144664333Y-95137200D02*
X144759571Y-95184819D01*
X144759571Y-95184819D02*
X144950047Y-95184819D01*
X144950047Y-95184819D02*
X145045285Y-95137200D01*
X145045285Y-95137200D02*
X145092904Y-95089580D01*
X145092904Y-95089580D02*
X145140523Y-94994342D01*
X145140523Y-94994342D02*
X145140523Y-94756247D01*
X145140523Y-94756247D02*
X145092904Y-94661009D01*
X145092904Y-94661009D02*
X145045285Y-94613390D01*
X145045285Y-94613390D02*
X144950047Y-94565771D01*
X144950047Y-94565771D02*
X144759571Y-94565771D01*
X144759571Y-94565771D02*
X144664333Y-94613390D01*
X144664333Y-94613390D02*
X144616714Y-94661009D01*
X144616714Y-94661009D02*
X144569095Y-94756247D01*
D11*
%TO.C,Y1*%
X204650000Y-117000000D02*
X204650000Y-113000000D01*
X201350000Y-117000000D02*
X204650000Y-117000000D01*
%TO.C,R7*%
X199640580Y-114010000D02*
X199359420Y-114010000D01*
X199640580Y-112990000D02*
X199359420Y-112990000D01*
%TO.C,R6*%
X192240000Y-71640580D02*
X192240000Y-71359420D01*
X193260000Y-71640580D02*
X193260000Y-71359420D01*
%TO.C,C15*%
X204990000Y-115134420D02*
X204990000Y-115415580D01*
X206010000Y-115134420D02*
X206010000Y-115415580D01*
%TO.C,D12*%
X170901000Y-86109000D02*
X170901000Y-82099000D01*
X170901000Y-86109000D02*
X172901000Y-86109000D01*
X172901000Y-86109000D02*
X172901000Y-82099000D01*
%TO.C,D9*%
X113751000Y-86109000D02*
X113751000Y-82099000D01*
X113751000Y-86109000D02*
X115751000Y-86109000D01*
X115751000Y-86109000D02*
X115751000Y-82099000D01*
%TO.C,SW12*%
X174446000Y-76569000D02*
X188416000Y-76569000D01*
X174446000Y-90539000D02*
X174446000Y-76569000D01*
X188416000Y-76569000D02*
X188416000Y-90539000D01*
X188416000Y-90539000D02*
X174446000Y-90539000D01*
%TO.C,R5*%
X194090000Y-72227064D02*
X194090000Y-70772936D01*
X195910000Y-72227064D02*
X195910000Y-70772936D01*
%TO.C,D6*%
X170901000Y-67059000D02*
X170901000Y-63049000D01*
X170901000Y-67059000D02*
X172901000Y-67059000D01*
X172901000Y-67059000D02*
X172901000Y-63049000D01*
%TO.C,SW14*%
X98246000Y-95619000D02*
X112216000Y-95619000D01*
X98246000Y-109589000D02*
X98246000Y-95619000D01*
X112216000Y-95619000D02*
X112216000Y-109589000D01*
X112216000Y-109589000D02*
X98246000Y-109589000D01*
%TO.C,D20*%
X161321000Y-124284000D02*
X161321000Y-120274000D01*
X161321000Y-124284000D02*
X163321000Y-124284000D01*
X163321000Y-124284000D02*
X163321000Y-120274000D01*
%TO.C,D3*%
X113751000Y-67059000D02*
X113751000Y-63049000D01*
X113751000Y-67059000D02*
X115751000Y-67059000D01*
X115751000Y-67059000D02*
X115751000Y-63049000D01*
%TO.C,C11*%
X202728679Y-99574649D02*
X202944351Y-99574649D01*
X202728679Y-100294649D02*
X202944351Y-100294649D01*
D10*
%TO.C,J5*%
X191071000Y-74674000D02*
X191071000Y-92174000D01*
X191071000Y-74674000D02*
X208571000Y-74674000D01*
X191071000Y-92174000D02*
X208571000Y-92174000D01*
X208571000Y-74674000D02*
X208571000Y-92174000D01*
D11*
%TO.C,SW18*%
X174446000Y-95619000D02*
X188416000Y-95619000D01*
X174446000Y-109589000D02*
X174446000Y-95619000D01*
X188416000Y-95619000D02*
X188416000Y-109589000D01*
X188416000Y-109589000D02*
X174446000Y-109589000D01*
%TO.C,D13*%
X75651000Y-105159000D02*
X75651000Y-101149000D01*
X75651000Y-105159000D02*
X77651000Y-105159000D01*
X77651000Y-105159000D02*
X77651000Y-101149000D01*
%TO.C,U2*%
X191590000Y-61574000D02*
X191590000Y-65334000D01*
X191590000Y-65334000D02*
X192850000Y-65334000D01*
X198410000Y-61574000D02*
X198410000Y-65334000D01*
X198410000Y-65334000D02*
X197150000Y-65334000D01*
X198640000Y-60534000D02*
X198310000Y-60294000D01*
X198640000Y-60054000D01*
X198640000Y-60534000D01*
G36*
X198640000Y-60534000D02*
G01*
X198310000Y-60294000D01*
X198640000Y-60054000D01*
X198640000Y-60534000D01*
G37*
%TO.C,R9*%
X199477500Y-99237258D02*
X199477500Y-98762742D01*
X200522500Y-99237258D02*
X200522500Y-98762742D01*
%TO.C,R2*%
X176298500Y-52186742D02*
X176298500Y-52661258D01*
X177343500Y-52186742D02*
X177343500Y-52661258D01*
%TO.C,D1*%
X75651000Y-67104000D02*
X75651000Y-63094000D01*
X75651000Y-67104000D02*
X77651000Y-67104000D01*
X77651000Y-67104000D02*
X77651000Y-63094000D01*
D12*
%TO.C,U3*%
X191206000Y-94206000D02*
X191206000Y-99794000D01*
X191206000Y-99794000D02*
X191507656Y-99794000D01*
X191507656Y-94206000D02*
X191206000Y-94206000D01*
X196492344Y-99794000D02*
X196794000Y-99794000D01*
X196794000Y-94206000D02*
X196492344Y-94206000D01*
X196794000Y-99794000D02*
X196794000Y-94206000D01*
D11*
%TO.C,SW17*%
X155396000Y-95619000D02*
X169366000Y-95619000D01*
X155396000Y-109589000D02*
X155396000Y-95619000D01*
X169366000Y-95619000D02*
X169366000Y-109589000D01*
X169366000Y-109589000D02*
X155396000Y-109589000D01*
%TO.C,C10*%
X200490000Y-61140580D02*
X200490000Y-60859420D01*
X201510000Y-61140580D02*
X201510000Y-60859420D01*
%TO.C,D21*%
X180321000Y-124284000D02*
X180321000Y-120274000D01*
X180321000Y-124284000D02*
X182321000Y-124284000D01*
X182321000Y-124284000D02*
X182321000Y-120274000D01*
%TO.C,SW20*%
X164886000Y-114939000D02*
X178856000Y-114939000D01*
X164886000Y-128909000D02*
X164886000Y-114939000D01*
X178856000Y-114939000D02*
X178856000Y-128909000D01*
X178856000Y-128909000D02*
X164886000Y-128909000D01*
%TO.C,SW1*%
X79196000Y-57519000D02*
X93166000Y-57519000D01*
X79196000Y-71489000D02*
X79196000Y-57519000D01*
X93166000Y-57519000D02*
X93166000Y-71489000D01*
X93166000Y-71489000D02*
X79196000Y-71489000D01*
%TO.C,C4*%
X200392164Y-66640000D02*
X200607836Y-66640000D01*
X200392164Y-67360000D02*
X200607836Y-67360000D01*
%TO.C,J1*%
X181541000Y-47394000D02*
X181541000Y-48454000D01*
X189531000Y-50554000D02*
X190331000Y-50554000D01*
X190331000Y-50554000D02*
X190331000Y-50404000D01*
X191101000Y-48454000D02*
X191101000Y-47394000D01*
%TO.C,C14*%
X200392164Y-65640000D02*
X200607836Y-65640000D01*
X200392164Y-66360000D02*
X200607836Y-66360000D01*
%TO.C,SW11*%
X155396000Y-76569000D02*
X169366000Y-76569000D01*
X155396000Y-90539000D02*
X155396000Y-76569000D01*
X169366000Y-76569000D02*
X169366000Y-90539000D01*
X169366000Y-90539000D02*
X155396000Y-90539000D01*
%TO.C,D17*%
X151851000Y-105159000D02*
X151851000Y-101149000D01*
X151851000Y-105159000D02*
X153851000Y-105159000D01*
X153851000Y-105159000D02*
X153851000Y-101149000D01*
%TO.C,D5*%
X151851000Y-67059000D02*
X151851000Y-63049000D01*
X151851000Y-67059000D02*
X153851000Y-67059000D01*
X153851000Y-67059000D02*
X153851000Y-63049000D01*
%TO.C,D19*%
X142321000Y-124284000D02*
X142321000Y-120274000D01*
X142321000Y-124284000D02*
X144321000Y-124284000D01*
X144321000Y-124284000D02*
X144321000Y-120274000D01*
%TO.C,R1*%
X178798500Y-52186742D02*
X178798500Y-52661258D01*
X179843500Y-52186742D02*
X179843500Y-52661258D01*
%TO.C,SW9*%
X117296000Y-76569000D02*
X131266000Y-76569000D01*
X117296000Y-90539000D02*
X117296000Y-76569000D01*
X131266000Y-76569000D02*
X131266000Y-90539000D01*
X131266000Y-90539000D02*
X117296000Y-90539000D01*
%TO.C,SW10*%
X136346000Y-76569000D02*
X150316000Y-76569000D01*
X136346000Y-90539000D02*
X136346000Y-76569000D01*
X150316000Y-76569000D02*
X150316000Y-90539000D01*
X150316000Y-90539000D02*
X136346000Y-90539000D01*
%TO.C,R8*%
X197477500Y-99237258D02*
X197477500Y-98762742D01*
X198522500Y-99237258D02*
X198522500Y-98762742D01*
%TO.C,D11*%
X151851000Y-86109000D02*
X151851000Y-82099000D01*
X151851000Y-86109000D02*
X153851000Y-86109000D01*
X153851000Y-86109000D02*
X153851000Y-82099000D01*
%TO.C,SW15*%
X117296000Y-95619000D02*
X131266000Y-95619000D01*
X117296000Y-109589000D02*
X117296000Y-95619000D01*
X131266000Y-95619000D02*
X131266000Y-109589000D01*
X131266000Y-109589000D02*
X117296000Y-109589000D01*
%TO.C,D4*%
X132801000Y-67059000D02*
X132801000Y-63049000D01*
X132801000Y-67059000D02*
X134801000Y-67059000D01*
X134801000Y-67059000D02*
X134801000Y-63049000D01*
%TO.C,SW5*%
X155396000Y-57519000D02*
X169366000Y-57519000D01*
X155396000Y-71489000D02*
X155396000Y-57519000D01*
X169366000Y-57519000D02*
X169366000Y-71489000D01*
X169366000Y-71489000D02*
X155396000Y-71489000D01*
%TO.C,C6*%
X200392164Y-68640000D02*
X200607836Y-68640000D01*
X200392164Y-69360000D02*
X200607836Y-69360000D01*
%TO.C,U1*%
X192952500Y-104140000D02*
X192952500Y-103730000D01*
X192952500Y-110710000D02*
X192952500Y-110060000D01*
X193602500Y-103490000D02*
X193252500Y-103490000D01*
X193602500Y-110710000D02*
X192952500Y-110710000D01*
X199522500Y-103490000D02*
X200172500Y-103490000D01*
X199522500Y-110710000D02*
X200172500Y-110710000D01*
X200172500Y-103490000D02*
X200172500Y-104140000D01*
X200172500Y-110710000D02*
X200172500Y-110060000D01*
X192952500Y-103490000D02*
X192712500Y-103160000D01*
X193192500Y-103160000D01*
X192952500Y-103490000D01*
G36*
X192952500Y-103490000D02*
G01*
X192712500Y-103160000D01*
X193192500Y-103160000D01*
X192952500Y-103490000D01*
G37*
%TO.C,J3*%
X203230000Y-58455000D02*
X204500000Y-58455000D01*
X203230000Y-59725000D02*
X203230000Y-58455000D01*
X205542929Y-61885000D02*
X205940000Y-61885000D01*
X205542929Y-62645000D02*
X205940000Y-62645000D01*
X205610000Y-59345000D02*
X205940000Y-59345000D01*
X205610000Y-60105000D02*
X205940000Y-60105000D01*
X205940000Y-58395000D02*
X205940000Y-63595000D01*
X205940000Y-60995000D02*
X208600000Y-60995000D01*
X205940000Y-63595000D02*
X208600000Y-63595000D01*
X208600000Y-58395000D02*
X205940000Y-58395000D01*
X208600000Y-61885000D02*
X209000000Y-61885000D01*
X208600000Y-63595000D02*
X208600000Y-58395000D01*
X208643475Y-59355000D02*
X209000000Y-59355000D01*
X208643475Y-59445000D02*
X209000000Y-59445000D01*
X208643475Y-59545000D02*
X209000000Y-59545000D01*
X208643475Y-59635000D02*
X209000000Y-59635000D01*
X208653475Y-59725000D02*
X209000000Y-59725000D01*
X208653475Y-59815000D02*
X209000000Y-59815000D01*
X208653475Y-59905000D02*
X209000000Y-59905000D01*
X208653475Y-60005000D02*
X209000000Y-60005000D01*
X208990000Y-60105000D02*
X208651737Y-60105000D01*
X209000000Y-60105000D02*
X209000000Y-59355000D01*
X209000000Y-62645000D02*
X208600000Y-62645000D01*
%TO.C,R3*%
X199477500Y-96237258D02*
X199477500Y-95762742D01*
X200522500Y-96237258D02*
X200522500Y-95762742D01*
%TO.C,D7*%
X75651000Y-86109000D02*
X75651000Y-82099000D01*
X75651000Y-86109000D02*
X77651000Y-86109000D01*
X77651000Y-86109000D02*
X77651000Y-82099000D01*
%TO.C,SW13*%
X79196000Y-95619000D02*
X93166000Y-95619000D01*
X79196000Y-109589000D02*
X79196000Y-95619000D01*
X93166000Y-95619000D02*
X93166000Y-109589000D01*
X93166000Y-109589000D02*
X79196000Y-109589000D01*
%TO.C,D18*%
X170901000Y-105159000D02*
X170901000Y-101149000D01*
X170901000Y-105159000D02*
X172901000Y-105159000D01*
X172901000Y-105159000D02*
X172901000Y-101149000D01*
%TO.C,D15*%
X113751000Y-105159000D02*
X113751000Y-101149000D01*
X113751000Y-105159000D02*
X115751000Y-105159000D01*
X115751000Y-105159000D02*
X115751000Y-101149000D01*
%TO.C,SW2*%
X98246000Y-57519000D02*
X112216000Y-57519000D01*
X98246000Y-71489000D02*
X98246000Y-57519000D01*
X112216000Y-57519000D02*
X112216000Y-71489000D01*
X112216000Y-71489000D02*
X98246000Y-71489000D01*
D10*
%TO.C,J4*%
X198700000Y-49150000D02*
X210800000Y-49150000D01*
X198700000Y-55150000D02*
X198700000Y-49150000D01*
X210800000Y-55150000D02*
X198700000Y-55150000D01*
D11*
%TO.C,C12*%
X202728679Y-98574649D02*
X202944351Y-98574649D01*
X202728679Y-99294649D02*
X202944351Y-99294649D01*
%TO.C,D8*%
X94701000Y-86109000D02*
X94701000Y-82099000D01*
X94701000Y-86109000D02*
X96701000Y-86109000D01*
X96701000Y-86109000D02*
X96701000Y-82099000D01*
%TO.C,D2*%
X94701000Y-67059000D02*
X94701000Y-63049000D01*
X94701000Y-67059000D02*
X96701000Y-67059000D01*
X96701000Y-67059000D02*
X96701000Y-63049000D01*
%TO.C,SW3*%
X117296000Y-57519000D02*
X131266000Y-57519000D01*
X117296000Y-71489000D02*
X117296000Y-57519000D01*
X131266000Y-57519000D02*
X131266000Y-71489000D01*
X131266000Y-71489000D02*
X117296000Y-71489000D01*
%TO.C,C2*%
X198990000Y-61140580D02*
X198990000Y-60859420D01*
X200010000Y-61140580D02*
X200010000Y-60859420D01*
%TO.C,C9*%
X200392164Y-63640000D02*
X200607836Y-63640000D01*
X200392164Y-64360000D02*
X200607836Y-64360000D01*
%TO.C,SW4*%
X136346000Y-57519000D02*
X150316000Y-57519000D01*
X136346000Y-71489000D02*
X136346000Y-57519000D01*
X150316000Y-57519000D02*
X150316000Y-71489000D01*
X150316000Y-71489000D02*
X136346000Y-71489000D01*
%TO.C,SW6*%
X174446000Y-57519000D02*
X188416000Y-57519000D01*
X174446000Y-71489000D02*
X174446000Y-57519000D01*
X188416000Y-57519000D02*
X188416000Y-71489000D01*
X188416000Y-71489000D02*
X174446000Y-71489000D01*
%TO.C,SW8*%
X98246000Y-76569000D02*
X112216000Y-76569000D01*
X98246000Y-90539000D02*
X98246000Y-76569000D01*
X112216000Y-76569000D02*
X112216000Y-90539000D01*
X112216000Y-90539000D02*
X98246000Y-90539000D01*
%TO.C,C13*%
X202894935Y-101000649D02*
X203176095Y-101000649D01*
X202894935Y-102020649D02*
X203176095Y-102020649D01*
%TO.C,C8*%
X200392164Y-67640000D02*
X200607836Y-67640000D01*
X200392164Y-68360000D02*
X200607836Y-68360000D01*
%TO.C,D22*%
X190321000Y-143784000D02*
X190321000Y-139774000D01*
X190321000Y-143784000D02*
X192321000Y-143784000D01*
X192321000Y-143784000D02*
X192321000Y-139774000D01*
%TO.C,C3*%
X200392164Y-62640000D02*
X200607836Y-62640000D01*
X200392164Y-63360000D02*
X200607836Y-63360000D01*
%TO.C,C1*%
X191905420Y-52414000D02*
X192186580Y-52414000D01*
X191905420Y-53434000D02*
X192186580Y-53434000D01*
%TO.C,SW22*%
X193756000Y-134439000D02*
X207726000Y-134439000D01*
X193756000Y-148409000D02*
X193756000Y-134439000D01*
X207726000Y-134439000D02*
X207726000Y-148409000D01*
X207726000Y-148409000D02*
X193756000Y-148409000D01*
%TO.C,C16*%
X203140580Y-111490000D02*
X202859420Y-111490000D01*
X203140580Y-112510000D02*
X202859420Y-112510000D01*
%TO.C,D16*%
X132801000Y-105159000D02*
X132801000Y-101149000D01*
X132801000Y-105159000D02*
X134801000Y-105159000D01*
X134801000Y-105159000D02*
X134801000Y-101149000D01*
%TO.C,R4*%
X197477500Y-96237258D02*
X197477500Y-95762742D01*
X198522500Y-96237258D02*
X198522500Y-95762742D01*
%TO.C,D10*%
X132801000Y-86109000D02*
X132801000Y-82099000D01*
X132801000Y-86109000D02*
X134801000Y-86109000D01*
X134801000Y-86109000D02*
X134801000Y-82099000D01*
%TO.C,J2*%
X203490000Y-72355000D02*
X203490000Y-71025000D01*
X204600000Y-72355000D02*
X203490000Y-72355000D01*
X206060000Y-65585000D02*
X205650000Y-65585000D01*
X206060000Y-66305000D02*
X205650000Y-66305000D01*
X206060000Y-68125000D02*
X205650000Y-68125000D01*
X206060000Y-68845000D02*
X205650000Y-68845000D01*
X206060000Y-70665000D02*
X205710000Y-70665000D01*
X206060000Y-71385000D02*
X205710000Y-71385000D01*
X206060000Y-72355000D02*
X206060000Y-64615000D01*
X208060000Y-71815000D02*
X206070000Y-71815000D01*
X208080000Y-70335000D02*
X206080000Y-70355000D01*
X208090000Y-70155000D02*
X206110000Y-70155000D01*
X208100000Y-64615000D02*
X206060000Y-64615000D01*
X208100000Y-67215000D02*
X206060000Y-67215000D01*
X208100000Y-70055000D02*
X206140000Y-70045000D01*
X208100000Y-70245000D02*
X206090000Y-70245000D01*
X208110000Y-71725000D02*
X206080000Y-71715000D01*
X208110000Y-72135000D02*
X206070000Y-72135000D01*
X208120000Y-70455000D02*
X206090000Y-70455000D01*
X208120000Y-70605000D02*
X206040000Y-70605000D01*
X208120000Y-70905000D02*
X206080000Y-70905000D01*
X208120000Y-71125000D02*
X206100000Y-71125000D01*
X208120000Y-71245000D02*
X206090000Y-71245000D01*
X208120000Y-71355000D02*
X206090000Y-71355000D01*
X208123316Y-70531695D02*
X206120000Y-70525000D01*
X208130000Y-70685000D02*
X206090000Y-70685000D01*
X208130000Y-71025000D02*
X206050000Y-71025000D01*
X208130000Y-71425000D02*
X206100000Y-71435000D01*
X208130000Y-71535000D02*
X206090000Y-71525000D01*
X208130000Y-71925000D02*
X206050000Y-71925000D01*
X208139422Y-71639012D02*
X206059422Y-71639012D01*
X208140000Y-69835000D02*
X206060000Y-69835000D01*
X208140000Y-69835000D02*
X208140000Y-72365000D01*
X208140000Y-69955000D02*
X206060000Y-69955000D01*
X208140000Y-70805000D02*
X206090000Y-70805000D01*
X208140000Y-72025000D02*
X206070000Y-72025000D01*
X208140000Y-72246800D02*
X206080000Y-72246800D01*
X208140000Y-72365000D02*
X206080000Y-72365000D01*
%TO.C,D14*%
X94701000Y-105159000D02*
X94701000Y-101149000D01*
X94701000Y-105159000D02*
X96701000Y-105159000D01*
X96701000Y-105159000D02*
X96701000Y-101149000D01*
%TO.C,C5*%
X200392164Y-69640000D02*
X200607836Y-69640000D01*
X200392164Y-70360000D02*
X200607836Y-70360000D01*
%TO.C,SW19*%
X145836000Y-114939000D02*
X159806000Y-114939000D01*
X145836000Y-128909000D02*
X145836000Y-114939000D01*
X159806000Y-114939000D02*
X159806000Y-128909000D01*
X159806000Y-128909000D02*
X145836000Y-128909000D01*
%TO.C,SW7*%
X79196000Y-76569000D02*
X93166000Y-76569000D01*
X79196000Y-90539000D02*
X79196000Y-76569000D01*
X93166000Y-76569000D02*
X93166000Y-90539000D01*
X93166000Y-90539000D02*
X79196000Y-90539000D01*
%TO.C,SW16*%
X136346000Y-95619000D02*
X150316000Y-95619000D01*
X136346000Y-109589000D02*
X136346000Y-95619000D01*
X150316000Y-95619000D02*
X150316000Y-109589000D01*
X150316000Y-109589000D02*
X136346000Y-109589000D01*
%TO.C,SW21*%
X183936000Y-114939000D02*
X197906000Y-114939000D01*
X183936000Y-128909000D02*
X183936000Y-114939000D01*
X197906000Y-114939000D02*
X197906000Y-128909000D01*
X197906000Y-128909000D02*
X183936000Y-128909000D01*
%TO.C,C7*%
X200392164Y-64640000D02*
X200607836Y-64640000D01*
X200392164Y-65360000D02*
X200607836Y-65360000D01*
%TD*%
D13*
%TO.C,J5*%
X193821000Y-77424000D03*
X193821000Y-89424000D03*
X205821000Y-77424000D03*
X205821000Y-89424000D03*
D14*
X201821000Y-74824000D03*
D15*
X208421000Y-85424000D03*
D14*
X199821000Y-74824000D03*
X197821000Y-74824000D03*
D15*
X208421000Y-81424000D03*
X208421000Y-83424000D03*
%TD*%
%LPC*%
D16*
%TO.C,Y1*%
X202150000Y-116100000D03*
X202150000Y-113900000D03*
X203850000Y-113900000D03*
X203850000Y-116100000D03*
%TD*%
D17*
%TO.C,R7*%
X200275000Y-113500000D03*
X198725000Y-113500000D03*
%TD*%
D18*
%TO.C,R6*%
X192750000Y-72275000D03*
X192750000Y-70725000D03*
%TD*%
D19*
%TO.C,C15*%
X205500000Y-114500000D03*
X205500000Y-116050000D03*
%TD*%
D20*
%TO.C,D12*%
X171901000Y-85399000D03*
X171901000Y-82099000D03*
%TD*%
%TO.C,D9*%
X114751000Y-85399000D03*
X114751000Y-82099000D03*
%TD*%
D21*
%TO.C,SW12*%
X176351000Y-83554000D03*
D22*
X181431000Y-83554000D03*
D21*
X186511000Y-83554000D03*
D23*
X183971000Y-78474000D03*
X177621000Y-81014000D03*
%TD*%
D24*
%TO.C,R5*%
X195000000Y-72962500D03*
X195000000Y-70037500D03*
%TD*%
D20*
%TO.C,D6*%
X171901000Y-66349000D03*
X171901000Y-63049000D03*
%TD*%
D21*
%TO.C,SW14*%
X100151000Y-102604000D03*
D22*
X105231000Y-102604000D03*
D21*
X110311000Y-102604000D03*
D23*
X107771000Y-97524000D03*
X101421000Y-100064000D03*
%TD*%
D20*
%TO.C,D20*%
X162321000Y-123574000D03*
X162321000Y-120274000D03*
%TD*%
%TO.C,D3*%
X114751000Y-66349000D03*
X114751000Y-63049000D03*
%TD*%
D25*
%TO.C,C11*%
X202356515Y-99934649D03*
X203316515Y-99934649D03*
%TD*%
D13*
%TO.C,J5*%
X193821000Y-77424000D03*
X193821000Y-89424000D03*
X205821000Y-77424000D03*
X205821000Y-89424000D03*
D14*
X201821000Y-74824000D03*
D15*
X208421000Y-85424000D03*
D14*
X199821000Y-74824000D03*
X197821000Y-74824000D03*
D15*
X208421000Y-81424000D03*
X208421000Y-83424000D03*
%TD*%
D21*
%TO.C,SW18*%
X176351000Y-102604000D03*
D22*
X181431000Y-102604000D03*
D21*
X186511000Y-102604000D03*
D23*
X183971000Y-97524000D03*
X177621000Y-100064000D03*
%TD*%
D20*
%TO.C,D13*%
X76651000Y-104449000D03*
X76651000Y-101149000D03*
%TD*%
D26*
%TO.C,U2*%
X197300000Y-60274000D03*
X195000000Y-60274000D03*
D27*
X195000000Y-66574000D03*
D26*
X192700000Y-60274000D03*
%TD*%
D28*
%TO.C,R9*%
X200000000Y-99825000D03*
X200000000Y-98175000D03*
%TD*%
D29*
%TO.C,R2*%
X176821000Y-51599000D03*
X176821000Y-53249000D03*
%TD*%
D20*
%TO.C,D1*%
X76651000Y-66394000D03*
X76651000Y-63094000D03*
%TD*%
D30*
%TO.C,U3*%
X192095000Y-100644900D03*
X193365000Y-100644900D03*
X194635000Y-100644900D03*
X195905000Y-100644900D03*
X195905000Y-93355100D03*
X194635000Y-93355100D03*
X193365000Y-93355100D03*
X192095000Y-93355100D03*
%TD*%
D21*
%TO.C,SW17*%
X157301000Y-102604000D03*
D22*
X162381000Y-102604000D03*
D21*
X167461000Y-102604000D03*
D23*
X164921000Y-97524000D03*
X158571000Y-100064000D03*
%TD*%
D18*
%TO.C,C10*%
X201000000Y-61775000D03*
X201000000Y-60225000D03*
%TD*%
D20*
%TO.C,D21*%
X181321000Y-123574000D03*
X181321000Y-120274000D03*
%TD*%
D21*
%TO.C,SW20*%
X166791000Y-121924000D03*
D22*
X171871000Y-121924000D03*
D21*
X176951000Y-121924000D03*
D23*
X174411000Y-116844000D03*
X168061000Y-119384000D03*
%TD*%
D21*
%TO.C,SW1*%
X81101000Y-64504000D03*
D22*
X86181000Y-64504000D03*
D21*
X91261000Y-64504000D03*
D23*
X88721000Y-59424000D03*
X82371000Y-61964000D03*
%TD*%
D25*
%TO.C,C4*%
X200020000Y-67000000D03*
X200980000Y-67000000D03*
%TD*%
D31*
%TO.C,J1*%
X189321000Y-49874000D03*
X188521000Y-49874000D03*
X187721000Y-49874000D03*
X186921000Y-49874000D03*
X186521000Y-49874000D03*
X186121000Y-49874000D03*
X184521000Y-49874000D03*
X183721000Y-49874000D03*
X183321000Y-49874000D03*
X184121000Y-49874000D03*
X184921000Y-49874000D03*
X185321000Y-49874000D03*
X185721000Y-49874000D03*
X187321000Y-49874000D03*
X188121000Y-49874000D03*
X188921000Y-49874000D03*
D32*
X189836000Y-49874000D03*
X182806000Y-49874000D03*
D33*
X190916000Y-49114000D03*
D34*
X190916000Y-46134000D03*
D33*
X181726000Y-49114000D03*
D34*
X181726000Y-46134000D03*
%TD*%
D25*
%TO.C,C14*%
X200020000Y-66000000D03*
X200980000Y-66000000D03*
%TD*%
D21*
%TO.C,SW11*%
X157301000Y-83554000D03*
D22*
X162381000Y-83554000D03*
D21*
X167461000Y-83554000D03*
D23*
X164921000Y-78474000D03*
X158571000Y-81014000D03*
%TD*%
D20*
%TO.C,D17*%
X152851000Y-104449000D03*
X152851000Y-101149000D03*
%TD*%
%TO.C,D5*%
X152851000Y-66349000D03*
X152851000Y-63049000D03*
%TD*%
%TO.C,D19*%
X143321000Y-123574000D03*
X143321000Y-120274000D03*
%TD*%
D29*
%TO.C,R1*%
X179321000Y-51599000D03*
X179321000Y-53249000D03*
%TD*%
D21*
%TO.C,SW9*%
X119201000Y-83554000D03*
D22*
X124281000Y-83554000D03*
D21*
X129361000Y-83554000D03*
D23*
X126821000Y-78474000D03*
X120471000Y-81014000D03*
%TD*%
D21*
%TO.C,SW10*%
X138251000Y-83554000D03*
D22*
X143331000Y-83554000D03*
D21*
X148411000Y-83554000D03*
D23*
X145871000Y-78474000D03*
X139521000Y-81014000D03*
%TD*%
D28*
%TO.C,R8*%
X198000000Y-99825000D03*
X198000000Y-98175000D03*
%TD*%
D20*
%TO.C,D11*%
X152851000Y-85399000D03*
X152851000Y-82099000D03*
%TD*%
D21*
%TO.C,SW15*%
X119201000Y-102604000D03*
D22*
X124281000Y-102604000D03*
D21*
X129361000Y-102604000D03*
D23*
X126821000Y-97524000D03*
X120471000Y-100064000D03*
%TD*%
D20*
%TO.C,D4*%
X133801000Y-66349000D03*
X133801000Y-63049000D03*
%TD*%
D21*
%TO.C,SW5*%
X157301000Y-64504000D03*
D22*
X162381000Y-64504000D03*
D21*
X167461000Y-64504000D03*
D23*
X164921000Y-59424000D03*
X158571000Y-61964000D03*
%TD*%
D25*
%TO.C,C6*%
X200020000Y-69000000D03*
X200980000Y-69000000D03*
%TD*%
D35*
%TO.C,U1*%
X193125000Y-104500000D03*
X193125000Y-104900000D03*
X193125000Y-105300000D03*
X193125000Y-105700000D03*
X193125000Y-106100000D03*
X193125000Y-106500000D03*
X193125000Y-106900000D03*
X193125000Y-107300000D03*
X193125000Y-107700000D03*
X193125000Y-108100000D03*
X193125000Y-108500000D03*
X193125000Y-108900000D03*
X193125000Y-109300000D03*
X193125000Y-109700000D03*
D36*
X193962500Y-110537500D03*
X194362500Y-110537500D03*
X194762500Y-110537500D03*
X195162500Y-110537500D03*
X195562500Y-110537500D03*
X195962500Y-110537500D03*
X196362500Y-110537500D03*
X196762500Y-110537500D03*
X197162500Y-110537500D03*
X197562500Y-110537500D03*
X197962500Y-110537500D03*
X198362500Y-110537500D03*
X198762500Y-110537500D03*
X199162500Y-110537500D03*
D35*
X200000000Y-109700000D03*
X200000000Y-109300000D03*
X200000000Y-108900000D03*
X200000000Y-108500000D03*
X200000000Y-108100000D03*
X200000000Y-107700000D03*
X200000000Y-107300000D03*
X200000000Y-106900000D03*
X200000000Y-106500000D03*
X200000000Y-106100000D03*
X200000000Y-105700000D03*
X200000000Y-105300000D03*
X200000000Y-104900000D03*
X200000000Y-104500000D03*
D36*
X199162500Y-103662500D03*
X198762500Y-103662500D03*
X198362500Y-103662500D03*
X197962500Y-103662500D03*
X197562500Y-103662500D03*
X197162500Y-103662500D03*
X196762500Y-103662500D03*
X196362500Y-103662500D03*
X195962500Y-103662500D03*
X195562500Y-103662500D03*
X195162500Y-103662500D03*
X194762500Y-103662500D03*
X194362500Y-103662500D03*
X193962500Y-103662500D03*
D37*
X196562500Y-107100000D03*
%TD*%
D38*
%TO.C,J3*%
X204500000Y-59725000D03*
D39*
X204500000Y-62265000D03*
%TD*%
D28*
%TO.C,R3*%
X200000000Y-96825000D03*
X200000000Y-95175000D03*
%TD*%
D20*
%TO.C,D7*%
X76651000Y-85399000D03*
X76651000Y-82099000D03*
%TD*%
D21*
%TO.C,SW13*%
X81101000Y-102604000D03*
D22*
X86181000Y-102604000D03*
D21*
X91261000Y-102604000D03*
D23*
X88721000Y-97524000D03*
X82371000Y-100064000D03*
%TD*%
D20*
%TO.C,D18*%
X171901000Y-104449000D03*
X171901000Y-101149000D03*
%TD*%
%TO.C,D15*%
X114751000Y-104449000D03*
X114751000Y-101149000D03*
%TD*%
D21*
%TO.C,SW2*%
X100151000Y-64504000D03*
D22*
X105231000Y-64504000D03*
D21*
X110311000Y-64504000D03*
D23*
X107771000Y-59424000D03*
X101421000Y-61964000D03*
%TD*%
D40*
%TO.C,J4*%
X209300000Y-52150000D03*
X202300000Y-52150000D03*
D41*
X204500000Y-54300000D03*
X207500000Y-54300000D03*
X199000000Y-50000000D03*
X200500000Y-54300000D03*
%TD*%
D25*
%TO.C,C12*%
X202356515Y-98934649D03*
X203316515Y-98934649D03*
%TD*%
D20*
%TO.C,D8*%
X95701000Y-85399000D03*
X95701000Y-82099000D03*
%TD*%
%TO.C,D2*%
X95701000Y-66349000D03*
X95701000Y-63049000D03*
%TD*%
D21*
%TO.C,SW3*%
X119201000Y-64504000D03*
D22*
X124281000Y-64504000D03*
D21*
X129361000Y-64504000D03*
D23*
X126821000Y-59424000D03*
X120471000Y-61964000D03*
%TD*%
D18*
%TO.C,C2*%
X199500000Y-61775000D03*
X199500000Y-60225000D03*
%TD*%
D25*
%TO.C,C9*%
X200020000Y-64000000D03*
X200980000Y-64000000D03*
%TD*%
D21*
%TO.C,SW4*%
X138251000Y-64504000D03*
D22*
X143331000Y-64504000D03*
D21*
X148411000Y-64504000D03*
D23*
X145871000Y-59424000D03*
X139521000Y-61964000D03*
%TD*%
D21*
%TO.C,SW6*%
X176351000Y-64504000D03*
D22*
X181431000Y-64504000D03*
D21*
X186511000Y-64504000D03*
D23*
X183971000Y-59424000D03*
X177621000Y-61964000D03*
%TD*%
D21*
%TO.C,SW8*%
X100151000Y-83554000D03*
D22*
X105231000Y-83554000D03*
D21*
X110311000Y-83554000D03*
D23*
X107771000Y-78474000D03*
X101421000Y-81014000D03*
%TD*%
D42*
%TO.C,C13*%
X202260515Y-101510649D03*
X203810515Y-101510649D03*
%TD*%
D25*
%TO.C,C8*%
X200020000Y-68000000D03*
X200980000Y-68000000D03*
%TD*%
D20*
%TO.C,D22*%
X191321000Y-143074000D03*
X191321000Y-139774000D03*
%TD*%
D25*
%TO.C,C3*%
X200020000Y-63000000D03*
X200980000Y-63000000D03*
%TD*%
D42*
%TO.C,C1*%
X191271000Y-52924000D03*
X192821000Y-52924000D03*
%TD*%
D21*
%TO.C,SW22*%
X195661000Y-141424000D03*
D22*
X200741000Y-141424000D03*
D21*
X205821000Y-141424000D03*
D23*
X203281000Y-136344000D03*
X196931000Y-138884000D03*
%TD*%
D17*
%TO.C,C16*%
X203775000Y-112000000D03*
X202225000Y-112000000D03*
%TD*%
D20*
%TO.C,D16*%
X133801000Y-104449000D03*
X133801000Y-101149000D03*
%TD*%
D28*
%TO.C,R4*%
X198000000Y-96825000D03*
X198000000Y-95175000D03*
%TD*%
D20*
%TO.C,D10*%
X133801000Y-85399000D03*
X133801000Y-82099000D03*
%TD*%
D38*
%TO.C,J2*%
X204600000Y-71025000D03*
D39*
X204600000Y-68485000D03*
X204600000Y-65945000D03*
%TD*%
D20*
%TO.C,D14*%
X95701000Y-104449000D03*
X95701000Y-101149000D03*
%TD*%
D25*
%TO.C,C5*%
X200020000Y-70000000D03*
X200980000Y-70000000D03*
%TD*%
D21*
%TO.C,SW19*%
X147741000Y-121924000D03*
D22*
X152821000Y-121924000D03*
D21*
X157901000Y-121924000D03*
D23*
X155361000Y-116844000D03*
X149011000Y-119384000D03*
%TD*%
D21*
%TO.C,SW7*%
X81101000Y-83554000D03*
D22*
X86181000Y-83554000D03*
D21*
X91261000Y-83554000D03*
D23*
X88721000Y-78474000D03*
X82371000Y-81014000D03*
%TD*%
D21*
%TO.C,SW16*%
X138251000Y-102604000D03*
D22*
X143331000Y-102604000D03*
D21*
X148411000Y-102604000D03*
D23*
X145871000Y-97524000D03*
X139521000Y-100064000D03*
%TD*%
D21*
%TO.C,SW21*%
X185841000Y-121924000D03*
D22*
X190921000Y-121924000D03*
D21*
X196001000Y-121924000D03*
D23*
X193461000Y-116844000D03*
X187111000Y-119384000D03*
%TD*%
D25*
%TO.C,C7*%
X200020000Y-65000000D03*
X200980000Y-65000000D03*
%TD*%
%LPD*%
M02*
