%TF.GenerationSoftware,KiCad,Pcbnew,9.0.0*%
%TF.CreationDate,2025-03-24T17:33:31+09:00*%
%TF.ProjectId,keyboard,6b657962-6f61-4726-942e-6b696361645f,rev?*%
%TF.SameCoordinates,Original*%
%TF.FileFunction,Soldermask,Top*%
%TF.FilePolarity,Negative*%
%FSLAX46Y46*%
G04 Gerber Fmt 4.6, Leading zero omitted, Abs format (unit mm)*
G04 Created by KiCad (PCBNEW 9.0.0) date 2025-03-24 17:33:31*
%MOMM*%
%LPD*%
G01*
G04 APERTURE LIST*
G04 Aperture macros list*
%AMRoundRect*
0 Rectangle with rounded corners*
0 $1 Rounding radius*
0 $2 $3 $4 $5 $6 $7 $8 $9 X,Y pos of 4 corners*
0 Add a 4 corners polygon primitive as box body*
4,1,4,$2,$3,$4,$5,$6,$7,$8,$9,$2,$3,0*
0 Add four circle primitives for the rounded corners*
1,1,$1+$1,$2,$3*
1,1,$1+$1,$4,$5*
1,1,$1+$1,$6,$7*
1,1,$1+$1,$8,$9*
0 Add four rect primitives between the rounded corners*
20,1,$1+$1,$2,$3,$4,$5,0*
20,1,$1+$1,$4,$5,$6,$7,0*
20,1,$1+$1,$6,$7,$8,$9,0*
20,1,$1+$1,$8,$9,$2,$3,0*%
G04 Aperture macros list end*
%ADD10C,1.600000*%
%ADD11R,1.200000X2.500000*%
%ADD12R,1.700000X1.700000*%
%ADD13O,1.700000X1.700000*%
%ADD14RoundRect,0.140000X-0.140000X-0.170000X0.140000X-0.170000X0.140000X0.170000X-0.140000X0.170000X0*%
%ADD15RoundRect,0.225000X0.375000X-0.225000X0.375000X0.225000X-0.375000X0.225000X-0.375000X-0.225000X0*%
%ADD16C,1.700000*%
%ADD17C,4.000000*%
%ADD18C,2.200000*%
%ADD19RoundRect,0.250000X0.625000X-0.312500X0.625000X0.312500X-0.625000X0.312500X-0.625000X-0.312500X0*%
%ADD20C,2.010000*%
%ADD21O,1.500000X2.000000*%
%ADD22O,2.000000X1.500000*%
%ADD23RoundRect,0.375000X-0.375000X0.625000X-0.375000X-0.625000X0.375000X-0.625000X0.375000X0.625000X0*%
%ADD24RoundRect,0.500000X-1.400000X0.500000X-1.400000X-0.500000X1.400000X-0.500000X1.400000X0.500000X0*%
%ADD25RoundRect,0.250000X-0.625000X0.312500X-0.625000X-0.312500X0.625000X-0.312500X0.625000X0.312500X0*%
%ADD26R,0.533400X1.524000*%
%ADD27RoundRect,0.225000X0.250000X-0.225000X0.250000X0.225000X-0.250000X0.225000X-0.250000X-0.225000X0*%
%ADD28RoundRect,0.070000X0.070000X0.345000X-0.070000X0.345000X-0.070000X-0.345000X0.070000X-0.345000X0*%
%ADD29RoundRect,0.112500X0.112500X0.302500X-0.112500X0.302500X-0.112500X-0.302500X0.112500X-0.302500X0*%
%ADD30C,0.850000*%
%ADD31O,0.550000X2.050000*%
%ADD32RoundRect,0.050000X-0.387500X-0.050000X0.387500X-0.050000X0.387500X0.050000X-0.387500X0.050000X0*%
%ADD33RoundRect,0.050000X-0.050000X-0.387500X0.050000X-0.387500X0.050000X0.387500X-0.050000X0.387500X0*%
%ADD34R,3.200000X3.200000*%
%ADD35RoundRect,0.225000X-0.225000X-0.250000X0.225000X-0.250000X0.225000X0.250000X-0.225000X0.250000X0*%
%ADD36RoundRect,0.102000X-1.050000X2.800000X-1.050000X-2.800000X1.050000X-2.800000X1.050000X2.800000X0*%
G04 APERTURE END LIST*
D10*
%TO.C,J4*%
X209321000Y-52424000D03*
X202321000Y-52424000D03*
D11*
X204721000Y-55674000D03*
X207721000Y-55674000D03*
X199621000Y-49174000D03*
X200721000Y-55674000D03*
%TD*%
D12*
%TO.C,J2*%
X204600000Y-71025000D03*
D13*
X204600000Y-68485000D03*
X204600000Y-65945000D03*
%TD*%
D12*
%TO.C,J3*%
X204500000Y-59725000D03*
D13*
X204500000Y-62265000D03*
%TD*%
D14*
%TO.C,C15*%
X208270000Y-94750000D03*
X209230000Y-94750000D03*
%TD*%
D15*
%TO.C,D12*%
X171901000Y-85399000D03*
X171901000Y-82099000D03*
%TD*%
%TO.C,D9*%
X114751000Y-85399000D03*
X114751000Y-82099000D03*
%TD*%
D16*
%TO.C,SW12*%
X176351000Y-83554000D03*
D17*
X181431000Y-83554000D03*
D16*
X186511000Y-83554000D03*
D18*
X183971000Y-78474000D03*
X177621000Y-81014000D03*
%TD*%
D19*
%TO.C,R5*%
X195000000Y-72962500D03*
X195000000Y-70037500D03*
%TD*%
D15*
%TO.C,D6*%
X171901000Y-66349000D03*
X171901000Y-63049000D03*
%TD*%
D16*
%TO.C,SW14*%
X100151000Y-102604000D03*
D17*
X105231000Y-102604000D03*
D16*
X110311000Y-102604000D03*
D18*
X107771000Y-97524000D03*
X101421000Y-100064000D03*
%TD*%
D15*
%TO.C,D20*%
X162321000Y-123574000D03*
X162321000Y-120274000D03*
%TD*%
%TO.C,D3*%
X114751000Y-66349000D03*
X114751000Y-63049000D03*
%TD*%
D14*
%TO.C,C11*%
X202356515Y-99934649D03*
X203316515Y-99934649D03*
%TD*%
D20*
%TO.C,J5*%
X193821000Y-77424000D03*
X193821000Y-89424000D03*
X205821000Y-77424000D03*
X205821000Y-89424000D03*
D21*
X201821000Y-74824000D03*
D22*
X208421000Y-85424000D03*
D21*
X199821000Y-74824000D03*
X197821000Y-74824000D03*
D22*
X208421000Y-81424000D03*
X208421000Y-83424000D03*
%TD*%
D16*
%TO.C,SW18*%
X176351000Y-102604000D03*
D17*
X181431000Y-102604000D03*
D16*
X186511000Y-102604000D03*
D18*
X183971000Y-97524000D03*
X177621000Y-100064000D03*
%TD*%
D15*
%TO.C,D13*%
X76651000Y-104449000D03*
X76651000Y-101149000D03*
%TD*%
D23*
%TO.C,U2*%
X197300000Y-60274000D03*
X195000000Y-60274000D03*
D24*
X195000000Y-66574000D03*
D23*
X192700000Y-60274000D03*
%TD*%
D25*
%TO.C,R2*%
X176821000Y-50961500D03*
X176821000Y-53886500D03*
%TD*%
D15*
%TO.C,D1*%
X76651000Y-66394000D03*
X76651000Y-63094000D03*
%TD*%
D26*
%TO.C,U3*%
X192095000Y-100644900D03*
X193365000Y-100644900D03*
X194635000Y-100644900D03*
X195905000Y-100644900D03*
X195905000Y-93355100D03*
X194635000Y-93355100D03*
X193365000Y-93355100D03*
X192095000Y-93355100D03*
%TD*%
D16*
%TO.C,SW17*%
X157301000Y-102604000D03*
D17*
X162381000Y-102604000D03*
D16*
X167461000Y-102604000D03*
D18*
X164921000Y-97524000D03*
X158571000Y-100064000D03*
%TD*%
D27*
%TO.C,C10*%
X201000000Y-61775000D03*
X201000000Y-60225000D03*
%TD*%
D15*
%TO.C,D21*%
X181321000Y-123574000D03*
X181321000Y-120274000D03*
%TD*%
D16*
%TO.C,SW20*%
X166791000Y-121924000D03*
D17*
X171871000Y-121924000D03*
D16*
X176951000Y-121924000D03*
D18*
X174411000Y-116844000D03*
X168061000Y-119384000D03*
%TD*%
D16*
%TO.C,SW1*%
X81101000Y-64504000D03*
D17*
X86181000Y-64504000D03*
D16*
X91261000Y-64504000D03*
D18*
X88721000Y-59424000D03*
X82371000Y-61964000D03*
%TD*%
D14*
%TO.C,C4*%
X200020000Y-67000000D03*
X200980000Y-67000000D03*
%TD*%
D28*
%TO.C,J1*%
X189321000Y-49874000D03*
X188521000Y-49874000D03*
X187721000Y-49874000D03*
X186921000Y-49874000D03*
X186521000Y-49874000D03*
X186121000Y-49874000D03*
X184521000Y-49874000D03*
X183721000Y-49874000D03*
X183321000Y-49874000D03*
X184121000Y-49874000D03*
X184921000Y-49874000D03*
X185321000Y-49874000D03*
X185721000Y-49874000D03*
X187321000Y-49874000D03*
X188121000Y-49874000D03*
X188921000Y-49874000D03*
D29*
X189836000Y-49874000D03*
X182806000Y-49874000D03*
D30*
X190916000Y-49114000D03*
D31*
X190916000Y-46134000D03*
D30*
X181726000Y-49114000D03*
D31*
X181726000Y-46134000D03*
%TD*%
D14*
%TO.C,C14*%
X200020000Y-66000000D03*
X200980000Y-66000000D03*
%TD*%
D16*
%TO.C,SW11*%
X157301000Y-83554000D03*
D17*
X162381000Y-83554000D03*
D16*
X167461000Y-83554000D03*
D18*
X164921000Y-78474000D03*
X158571000Y-81014000D03*
%TD*%
D15*
%TO.C,D17*%
X152851000Y-104449000D03*
X152851000Y-101149000D03*
%TD*%
%TO.C,D5*%
X152851000Y-66349000D03*
X152851000Y-63049000D03*
%TD*%
%TO.C,D19*%
X143321000Y-123574000D03*
X143321000Y-120274000D03*
%TD*%
D25*
%TO.C,R1*%
X179321000Y-50961500D03*
X179321000Y-53886500D03*
%TD*%
D16*
%TO.C,SW9*%
X119201000Y-83554000D03*
D17*
X124281000Y-83554000D03*
D16*
X129361000Y-83554000D03*
D18*
X126821000Y-78474000D03*
X120471000Y-81014000D03*
%TD*%
D16*
%TO.C,SW10*%
X138251000Y-83554000D03*
D17*
X143331000Y-83554000D03*
D16*
X148411000Y-83554000D03*
D18*
X145871000Y-78474000D03*
X139521000Y-81014000D03*
%TD*%
D15*
%TO.C,D11*%
X152851000Y-85399000D03*
X152851000Y-82099000D03*
%TD*%
D16*
%TO.C,SW15*%
X119201000Y-102604000D03*
D17*
X124281000Y-102604000D03*
D16*
X129361000Y-102604000D03*
D18*
X126821000Y-97524000D03*
X120471000Y-100064000D03*
%TD*%
D15*
%TO.C,D4*%
X133801000Y-66349000D03*
X133801000Y-63049000D03*
%TD*%
D16*
%TO.C,SW5*%
X157301000Y-64504000D03*
D17*
X162381000Y-64504000D03*
D16*
X167461000Y-64504000D03*
D18*
X164921000Y-59424000D03*
X158571000Y-61964000D03*
%TD*%
D14*
%TO.C,C6*%
X200020000Y-69000000D03*
X200980000Y-69000000D03*
%TD*%
D32*
%TO.C,U1*%
X193125000Y-104500000D03*
X193125000Y-104900000D03*
X193125000Y-105300000D03*
X193125000Y-105700000D03*
X193125000Y-106100000D03*
X193125000Y-106500000D03*
X193125000Y-106900000D03*
X193125000Y-107300000D03*
X193125000Y-107700000D03*
X193125000Y-108100000D03*
X193125000Y-108500000D03*
X193125000Y-108900000D03*
X193125000Y-109300000D03*
X193125000Y-109700000D03*
D33*
X193962500Y-110537500D03*
X194362500Y-110537500D03*
X194762500Y-110537500D03*
X195162500Y-110537500D03*
X195562500Y-110537500D03*
X195962500Y-110537500D03*
X196362500Y-110537500D03*
X196762500Y-110537500D03*
X197162500Y-110537500D03*
X197562500Y-110537500D03*
X197962500Y-110537500D03*
X198362500Y-110537500D03*
X198762500Y-110537500D03*
X199162500Y-110537500D03*
D32*
X200000000Y-109700000D03*
X200000000Y-109300000D03*
X200000000Y-108900000D03*
X200000000Y-108500000D03*
X200000000Y-108100000D03*
X200000000Y-107700000D03*
X200000000Y-107300000D03*
X200000000Y-106900000D03*
X200000000Y-106500000D03*
X200000000Y-106100000D03*
X200000000Y-105700000D03*
X200000000Y-105300000D03*
X200000000Y-104900000D03*
X200000000Y-104500000D03*
D33*
X199162500Y-103662500D03*
X198762500Y-103662500D03*
X198362500Y-103662500D03*
X197962500Y-103662500D03*
X197562500Y-103662500D03*
X197162500Y-103662500D03*
X196762500Y-103662500D03*
X196362500Y-103662500D03*
X195962500Y-103662500D03*
X195562500Y-103662500D03*
X195162500Y-103662500D03*
X194762500Y-103662500D03*
X194362500Y-103662500D03*
X193962500Y-103662500D03*
D34*
X196562500Y-107100000D03*
%TD*%
D19*
%TO.C,R3*%
X200335529Y-100858607D03*
X200335529Y-97933607D03*
%TD*%
D15*
%TO.C,D7*%
X76651000Y-85399000D03*
X76651000Y-82099000D03*
%TD*%
D16*
%TO.C,SW13*%
X81101000Y-102604000D03*
D17*
X86181000Y-102604000D03*
D16*
X91261000Y-102604000D03*
D18*
X88721000Y-97524000D03*
X82371000Y-100064000D03*
%TD*%
D15*
%TO.C,D18*%
X171901000Y-104449000D03*
X171901000Y-101149000D03*
%TD*%
%TO.C,D15*%
X114751000Y-104449000D03*
X114751000Y-101149000D03*
%TD*%
D16*
%TO.C,SW2*%
X100151000Y-64504000D03*
D17*
X105231000Y-64504000D03*
D16*
X110311000Y-64504000D03*
D18*
X107771000Y-59424000D03*
X101421000Y-61964000D03*
%TD*%
D14*
%TO.C,C12*%
X202356515Y-98934649D03*
X203316515Y-98934649D03*
%TD*%
D15*
%TO.C,D8*%
X95701000Y-85399000D03*
X95701000Y-82099000D03*
%TD*%
%TO.C,D2*%
X95701000Y-66349000D03*
X95701000Y-63049000D03*
%TD*%
D16*
%TO.C,SW3*%
X119201000Y-64504000D03*
D17*
X124281000Y-64504000D03*
D16*
X129361000Y-64504000D03*
D18*
X126821000Y-59424000D03*
X120471000Y-61964000D03*
%TD*%
D27*
%TO.C,C2*%
X199500000Y-61775000D03*
X199500000Y-60225000D03*
%TD*%
D14*
%TO.C,C9*%
X200020000Y-64000000D03*
X200980000Y-64000000D03*
%TD*%
D16*
%TO.C,SW4*%
X138251000Y-64504000D03*
D17*
X143331000Y-64504000D03*
D16*
X148411000Y-64504000D03*
D18*
X145871000Y-59424000D03*
X139521000Y-61964000D03*
%TD*%
D16*
%TO.C,SW6*%
X176351000Y-64504000D03*
D17*
X181431000Y-64504000D03*
D16*
X186511000Y-64504000D03*
D18*
X183971000Y-59424000D03*
X177621000Y-61964000D03*
%TD*%
D16*
%TO.C,SW8*%
X100151000Y-83554000D03*
D17*
X105231000Y-83554000D03*
D16*
X110311000Y-83554000D03*
D18*
X107771000Y-78474000D03*
X101421000Y-81014000D03*
%TD*%
D35*
%TO.C,C13*%
X202260515Y-101510649D03*
X203810515Y-101510649D03*
%TD*%
D14*
%TO.C,C8*%
X200020000Y-68000000D03*
X200980000Y-68000000D03*
%TD*%
D15*
%TO.C,D22*%
X191321000Y-143074000D03*
X191321000Y-139774000D03*
%TD*%
D14*
%TO.C,C3*%
X200020000Y-63000000D03*
X200980000Y-63000000D03*
%TD*%
D35*
%TO.C,C1*%
X191271000Y-52924000D03*
X192821000Y-52924000D03*
%TD*%
D16*
%TO.C,SW22*%
X195661000Y-141424000D03*
D17*
X200741000Y-141424000D03*
D16*
X205821000Y-141424000D03*
D18*
X203281000Y-136344000D03*
X196931000Y-138884000D03*
%TD*%
D14*
%TO.C,C16*%
X205020000Y-94750000D03*
X205980000Y-94750000D03*
%TD*%
D15*
%TO.C,D16*%
X133801000Y-104449000D03*
X133801000Y-101149000D03*
%TD*%
D19*
%TO.C,R4*%
X198079202Y-100858607D03*
X198079202Y-97933607D03*
%TD*%
D15*
%TO.C,D10*%
X133801000Y-85399000D03*
X133801000Y-82099000D03*
%TD*%
D19*
%TO.C,R6*%
X192750000Y-72962500D03*
X192750000Y-70037500D03*
%TD*%
D15*
%TO.C,D14*%
X95701000Y-104449000D03*
X95701000Y-101149000D03*
%TD*%
D14*
%TO.C,C5*%
X200020000Y-70000000D03*
X200980000Y-70000000D03*
%TD*%
D36*
%TO.C,Y1*%
X207321000Y-98424000D03*
X207321000Y-107924000D03*
%TD*%
D16*
%TO.C,SW19*%
X147741000Y-121924000D03*
D17*
X152821000Y-121924000D03*
D16*
X157901000Y-121924000D03*
D18*
X155361000Y-116844000D03*
X149011000Y-119384000D03*
%TD*%
D16*
%TO.C,SW7*%
X81101000Y-83554000D03*
D17*
X86181000Y-83554000D03*
D16*
X91261000Y-83554000D03*
D18*
X88721000Y-78474000D03*
X82371000Y-81014000D03*
%TD*%
D16*
%TO.C,SW16*%
X138251000Y-102604000D03*
D17*
X143331000Y-102604000D03*
D16*
X148411000Y-102604000D03*
D18*
X145871000Y-97524000D03*
X139521000Y-100064000D03*
%TD*%
D16*
%TO.C,SW21*%
X185841000Y-121924000D03*
D17*
X190921000Y-121924000D03*
D16*
X196001000Y-121924000D03*
D18*
X193461000Y-116844000D03*
X187111000Y-119384000D03*
%TD*%
D14*
%TO.C,C7*%
X200020000Y-65000000D03*
X200980000Y-65000000D03*
%TD*%
M02*
