M48
; DRILL file {KiCad 9.0.0} date 2025-03-25T03:22:16+0900
; FORMAT={-:-/ absolute / inch / decimal}
; #@! TF.CreationDate,2025-03-25T03:22:16+09:00
; #@! TF.GenerationSoftware,Kicad,Pcbnew,9.0.0
; #@! TF.FileFunction,Plated,1,2,PTH
FMAT,2
INCH
; #@! TA.AperFunction,Plated,PTH,ViaDrill
T1C0.0118
; #@! TA.AperFunction,Plated,PTH,ComponentDrill
T2C0.0236
; #@! TA.AperFunction,Plated,PTH,ComponentDrill
T3C0.0394
; #@! TA.AperFunction,Plated,PTH,ComponentDrill
T4C0.0398
; #@! TA.AperFunction,Plated,PTH,ComponentDrill
T5C0.0591
%
G90
G05
T1
X2.9035Y-3.0217
X2.9134Y-4.2126
X3.0807Y-2.2343
X3.1398Y-3.6909
X3.5728Y-2.9232
X3.622Y-4.439
X3.6516Y-1.998
X3.7331Y-4.3714
X3.7331Y-4.308
X4.065Y-2.7165
X4.0846Y-4.2421
X4.3701Y-3.4744
X4.4811Y-4.308
X4.4815Y-4.3956
X4.7835Y-3.4744
X4.9016Y-1.9685
X5.0591Y-4.4488
X5.0787Y-2.7067
X5.0984Y-4.2323
X5.2292Y-4.308
X5.2302Y-4.4215
X5.5413Y-2.7559
X5.5413Y-4.2421
X5.689Y-4.5669
X5.748Y-5.1083
X5.8465Y-3.435
X5.9772Y-4.308
X5.9772Y-4.4458
X6.2598Y-5.0591
X6.2697Y-3.5335
X6.437Y-4.5177
X6.4862Y-2.0472
X6.5059Y-4.1732
X6.565Y-2.6673
X6.7252Y-4.308
X6.7253Y-4.4718
X6.9685Y-5.0197
X7.0079Y-4.1929
X7.0866Y-2.7067
X7.2047Y-2.1654
X7.2539Y-3.4843
X7.3093Y-2.1896
X7.3425Y-5.0098
X7.3622Y-4.1339
X7.3622Y-4.2717
X7.4016Y-2.1654
X7.4016Y-2.2244
X7.4016Y-4.1339
X7.4016Y-4.2717
X7.4409Y-4.1339
X7.4409Y-4.2717
X7.4705Y-2.3327
X7.4902Y-2.2933
X7.5Y-4.2717
X7.5394Y-4.0551
X7.5492Y-3.6024
X7.5591Y-4.3898
X7.5787Y-3.3071
X7.5787Y-3.4055
X7.5886Y-2.6969
X7.6181Y-3.6024
X7.6378Y-3.9173
X7.6476Y-4.2323
X7.6476Y-4.3012
X7.6629Y-3.623
X7.6821Y-4.021
X7.6969Y-4.4291
X7.713Y-3.727
X7.7134Y-4.0241
X7.7264Y-2.2244
X7.7264Y-4.1339
X7.7264Y-4.3012
X7.7387Y-4.2165
X7.7461Y-4.0256
X7.7657Y-5.7087
X7.8346Y-4.311
X7.8642Y-4.0453
X7.874Y-4.3996
X7.9134Y-2.8051
X7.9134Y-4.5472
X7.9429Y-3.8287
X7.9528Y-4.7835
X7.9626Y-4.3504
X7.9724Y-3.75
X8.1102Y-3.2382
X8.1988Y-5.0394
T3
X8.0512Y-2.3514
X8.0512Y-2.4514
X8.0551Y-2.5963
X8.0551Y-2.6963
X8.0551Y-2.7963
T4
X7.7882Y-2.9458
X7.867Y-2.9458
X7.9457Y-2.9458
X8.2056Y-3.2057
X8.2056Y-3.2844
X8.2056Y-3.3631
T5
X3.243Y-2.4395
X3.243Y-3.1895
X3.243Y-3.9395
X3.493Y-2.3395
X3.493Y-3.0895
X3.493Y-3.8395
X3.993Y-2.4395
X3.993Y-3.1895
X3.993Y-3.9395
X4.243Y-2.3395
X4.243Y-3.0895
X4.243Y-3.8395
X4.743Y-2.4395
X4.743Y-3.1895
X4.743Y-3.9395
X4.993Y-2.3395
X4.993Y-3.0895
X4.993Y-3.8395
X5.493Y-2.4395
X5.493Y-3.1895
X5.493Y-3.9395
X5.743Y-2.3395
X5.743Y-3.0895
X5.743Y-3.8395
X5.8666Y-4.7002
X6.1166Y-4.6002
X6.243Y-2.4395
X6.243Y-3.1895
X6.243Y-3.9395
X6.493Y-2.3395
X6.493Y-3.0895
X6.493Y-3.8395
X6.6166Y-4.7002
X6.8666Y-4.6002
X6.993Y-2.4395
X6.993Y-3.1895
X6.993Y-3.9395
X7.243Y-2.3395
X7.243Y-3.0895
X7.243Y-3.8395
X7.3666Y-4.7002
X7.6166Y-4.6002
X7.7532Y-5.4679
X8.0032Y-5.3679
T2
G00X7.1402Y-1.8425
M15
G01X7.1402Y-1.8189
M16
G05
G00X7.1402Y-2.0169
M15
G01X7.1402Y-1.9736
M16
G05
G00X7.4803Y-1.8425
M15
G01X7.4803Y-1.8189
M16
G05
G00X7.4803Y-2.0169
M15
G01X7.4803Y-1.9736
M16
G05
T3
G00X7.8445Y-1.9685
M15
G01X7.8248Y-1.9685
M16
G05
G00X7.9035Y-2.1378
M15
G01X7.8839Y-2.1378
M16
G05
G00X8.061Y-2.1378
M15
G01X8.0413Y-2.1378
M16
G05
G00X8.1791Y-2.1378
M15
G01X8.1594Y-2.1378
M16
G05
M30
