M48
; DRILL file {KiCad 9.0.0} date 2025-03-25T03:20:05+0900
; FORMAT={-:-/ absolute / inch / decimal}
; #@! TF.CreationDate,2025-03-25T03:20:05+09:00
; #@! TF.GenerationSoftware,Kicad,Pcbnew,9.0.0
; #@! TF.FileFunction,NonPlated,1,2,NPTH
FMAT,2
INCH
; #@! TA.AperFunction,NonPlated,NPTH,ComponentDrill
T1C0.0256
; #@! TA.AperFunction,NonPlated,NPTH,ComponentDrill
T2C0.0472
; #@! TA.AperFunction,NonPlated,NPTH,ComponentDrill
T3C0.0669
; #@! TA.AperFunction,NonPlated,NPTH,ComponentDrill
T4C0.0791
; #@! TA.AperFunction,NonPlated,NPTH,ComponentDrill
T5C0.1575
%
G90
G05
T1
X3.9533Y-1.9744
X4.1809Y-1.9744
T2
X3.1442Y-2.0659
X3.4198Y-2.0659
T3
X3.271Y-5.5679
X3.6631Y-4.8033
X3.671Y-5.5679
X4.0313Y-2.5395
X4.0313Y-3.2895
X4.0313Y-4.0395
X4.0631Y-4.8033
X4.4127Y-4.8002
X4.4313Y-2.5395
X4.4313Y-3.2895
X4.4313Y-4.0395
X4.7813Y-2.5395
X4.7813Y-3.2895
X4.7813Y-4.0395
X4.8127Y-4.8002
X5.1576Y-4.8002
X5.1813Y-2.5395
X5.1813Y-3.2895
X5.1813Y-4.0395
X5.5313Y-2.5395
X5.5313Y-3.2895
X5.5313Y-4.0395
X5.5576Y-4.8002
X5.9313Y-2.5395
X5.9313Y-3.2895
X5.9313Y-4.0395
X6.2813Y-2.5395
X6.2813Y-3.2895
X6.2813Y-4.0395
X6.6813Y-2.5395
X6.6813Y-3.2895
X6.6813Y-4.0395
X7.0313Y-2.5395
X7.0313Y-3.2895
X7.0313Y-4.0395
X7.4313Y-2.5395
X7.4313Y-3.2895
X7.4313Y-4.0395
X7.7813Y-2.5395
X7.7813Y-3.2895
X7.7813Y-4.0395
X8.1813Y-2.5395
X8.1813Y-3.2895
X8.1813Y-4.0395
T4
X3.2742Y-3.0482
X3.2742Y-3.5206
X3.7466Y-3.0482
X3.7466Y-3.5206
T5
X3.471Y-5.5679
X3.8631Y-4.8033
X4.2313Y-2.5395
X4.2313Y-3.2895
X4.2313Y-4.0395
X4.6127Y-4.8002
X4.9813Y-2.5395
X4.9813Y-3.2895
X4.9813Y-4.0395
X5.3576Y-4.8002
X5.7313Y-2.5395
X5.7313Y-3.2895
X5.7313Y-4.0395
X6.4813Y-2.5395
X6.4813Y-3.2895
X6.4813Y-4.0395
X7.2313Y-2.5395
X7.2313Y-3.2895
X7.2313Y-4.0395
X7.9813Y-2.5395
X7.9813Y-3.2895
X7.9813Y-4.0395
M30
