M48
; DRILL file {KiCad 9.0.0} date 2025-03-25T03:20:05+0900
; FORMAT={-:-/ absolute / inch / decimal}
; #@! TF.CreationDate,2025-03-25T03:20:05+09:00
; #@! TF.GenerationSoftware,Kicad,Pcbnew,9.0.0
; #@! TF.FileFunction,Plated,1,2,PTH
FMAT,2
INCH
; #@! TA.AperFunction,Plated,PTH,ViaDrill
T1C0.0118
; #@! TA.AperFunction,Plated,PTH,ComponentDrill
T2C0.0236
; #@! TA.AperFunction,Plated,PTH,ComponentDrill
T3C0.0394
; #@! TA.AperFunction,Plated,PTH,ComponentDrill
T4C0.0398
; #@! TA.AperFunction,Plated,PTH,ComponentDrill
T5C0.0591
%
G90
G05
T1
X3.1496Y-5.3346
X3.2185Y-4.626
X3.3465Y-3.6417
X3.3465Y-3.8386
X3.4252Y-2.687
X3.4252Y-4.0256
X3.435Y-3.8386
X3.4646Y-3.7106
X3.4787Y-3.4147
X3.5335Y-3.5728
X3.5433Y-5.2264
X3.563Y-3.6024
X3.5728Y-2.8346
X3.5831Y-3.7044
X3.5925Y-3.2677
X3.6024Y-3.6024
X3.6319Y-3.5827
X3.6328Y-3.8998
X3.6634Y-3.6004
X3.6844Y-4.1094
X3.6909Y-3.7205
X3.7107Y-3.8998
X3.7795Y-2.7067
X3.7894Y-5.8169
X3.7907Y-2.373
X3.8189Y-3.9764
X3.8287Y-2.9232
X3.8287Y-4.2815
X3.8681Y-4.0059
X3.8691Y-3.9135
X3.8701Y-3.8807
X3.9124Y-4.247
X3.9567Y-3.563
X3.9567Y-4.2421
X3.9665Y-3.6811
X3.9862Y-3.5827
X4.0059Y-5.0
X4.0128Y-2.1339
X4.0157Y-3.6024
X4.0354Y-2.3031
X4.0453Y-3.6319
X4.0472Y-2.1693
X4.0669Y-2.1339
X4.1142Y-2.6969
X4.124Y-3.435
X4.1339Y-4.4882
X4.1437Y-3.5728
X4.3406Y-3.4646
X4.3504Y-4.5669
X4.3799Y-3.3563
X4.4882Y-2.874
X4.7146Y-1.9193
X4.7835Y-3.4449
X4.8425Y-5.1476
X4.9902Y-4.5079
X5.0295Y-2.6476
X5.1083Y-4.124
X5.4626Y-4.9508
X5.5709Y-2.6772
X5.7283Y-4.6752
X5.7677Y-3.4744
X5.8858Y-4.1437
X6.3287Y-3.4154
X6.565Y-1.9783
X6.6535Y-2.6476
X6.6535Y-4.124
X7.0669Y-2.6476
X7.1457Y-3.435
X7.4016Y-4.1732
X7.6476Y-2.3917
X7.7756Y-3.563
X8.2087Y-4.2028
X8.2185Y-2.8642
X8.2283Y-1.8504
T3
X3.3175Y-2.3518
X3.3175Y-2.4518
X3.3215Y-2.5974
X3.3215Y-2.6974
X3.3215Y-2.7974
T4
X3.1718Y-3.2057
X3.1718Y-3.2844
X3.1718Y-3.3631
X3.4316Y-2.9458
X3.5104Y-2.9458
X3.5891Y-2.9458
T5
X3.321Y-5.4679
X3.571Y-5.3679
X3.7131Y-4.7033
X3.9631Y-4.6033
X4.0813Y-2.4395
X4.0813Y-3.1895
X4.0813Y-3.9395
X4.3313Y-2.3395
X4.3313Y-3.0895
X4.3313Y-3.8395
X4.4627Y-4.7002
X4.7127Y-4.6002
X4.8313Y-2.4395
X4.8313Y-3.1895
X4.8313Y-3.9395
X5.0813Y-2.3395
X5.0813Y-3.0895
X5.0813Y-3.8395
X5.2076Y-4.7002
X5.4576Y-4.6002
X5.5813Y-2.4395
X5.5813Y-3.1895
X5.5813Y-3.9395
X5.8313Y-2.3395
X5.8313Y-3.0895
X5.8313Y-3.8395
X6.3313Y-2.4395
X6.3313Y-3.1895
X6.3313Y-3.9395
X6.5813Y-2.3395
X6.5813Y-3.0895
X6.5813Y-3.8395
X7.0813Y-2.4395
X7.0813Y-3.1895
X7.0813Y-3.9395
X7.3313Y-2.3395
X7.3313Y-3.0895
X7.3313Y-3.8395
X7.8313Y-2.4395
X7.8313Y-3.1895
X7.8313Y-3.9395
X8.0813Y-2.3395
X8.0813Y-3.0895
X8.0813Y-3.8395
T2
G00X3.897Y-1.8425
M15
G01X3.897Y-1.8189
M16
G05
G00X3.897Y-2.0169
M15
G01X3.897Y-1.9736
M16
G05
G00X4.2372Y-1.8425
M15
G01X4.2372Y-1.8189
M16
G05
G00X4.2372Y-2.0169
M15
G01X4.2372Y-1.9736
M16
G05
T3
G00X3.2053Y-1.9813
M15
G01X3.225Y-1.9813
M16
G05
G00X3.3234Y-1.9813
M15
G01X3.3431Y-1.9813
M16
G05
G00X3.4809Y-1.9813
M15
G01X3.5005Y-1.9813
M16
G05
G00X3.5399Y-2.1506
M15
G01X3.5596Y-2.1506
M16
G05
M30
