%TF.GenerationSoftware,KiCad,Pcbnew,9.0.0*%
%TF.CreationDate,2025-03-25T03:22:16+09:00*%
%TF.ProjectId,keyboard,6b657962-6f61-4726-942e-6b696361645f,rev?*%
%TF.SameCoordinates,Original*%
%TF.FileFunction,Soldermask,Top*%
%TF.FilePolarity,Negative*%
%FSLAX46Y46*%
G04 Gerber Fmt 4.6, Leading zero omitted, Abs format (unit mm)*
G04 Created by KiCad (PCBNEW 9.0.0) date 2025-03-25 03:22:16*
%MOMM*%
%LPD*%
G01*
G04 APERTURE LIST*
G04 Aperture macros list*
%AMRoundRect*
0 Rectangle with rounded corners*
0 $1 Rounding radius*
0 $2 $3 $4 $5 $6 $7 $8 $9 X,Y pos of 4 corners*
0 Add a 4 corners polygon primitive as box body*
4,1,4,$2,$3,$4,$5,$6,$7,$8,$9,$2,$3,0*
0 Add four circle primitives for the rounded corners*
1,1,$1+$1,$2,$3*
1,1,$1+$1,$4,$5*
1,1,$1+$1,$6,$7*
1,1,$1+$1,$8,$9*
0 Add four rect primitives between the rounded corners*
20,1,$1+$1,$2,$3,$4,$5,0*
20,1,$1+$1,$4,$5,$6,$7,0*
20,1,$1+$1,$6,$7,$8,$9,0*
20,1,$1+$1,$8,$9,$2,$3,0*%
G04 Aperture macros list end*
%ADD10RoundRect,0.225000X-0.250000X0.225000X-0.250000X-0.225000X0.250000X-0.225000X0.250000X0.225000X0*%
%ADD11RoundRect,0.225000X0.375000X-0.225000X0.375000X0.225000X-0.375000X0.225000X-0.375000X-0.225000X0*%
%ADD12C,2.200000*%
%ADD13RoundRect,0.250000X0.625000X-0.312500X0.625000X0.312500X-0.625000X0.312500X-0.625000X-0.312500X0*%
%ADD14RoundRect,0.140000X-0.140000X-0.170000X0.140000X-0.170000X0.140000X0.170000X-0.140000X0.170000X0*%
%ADD15O,1.500000X2.000000*%
%ADD16O,2.000000X1.500000*%
%ADD17RoundRect,0.375000X-0.375000X0.625000X-0.375000X-0.625000X0.375000X-0.625000X0.375000X0.625000X0*%
%ADD18RoundRect,0.500000X-1.400000X0.500000X-1.400000X-0.500000X1.400000X-0.500000X1.400000X0.500000X0*%
%ADD19RoundRect,0.200000X0.275000X-0.200000X0.275000X0.200000X-0.275000X0.200000X-0.275000X-0.200000X0*%
%ADD20RoundRect,0.200000X-0.275000X0.200000X-0.275000X-0.200000X0.275000X-0.200000X0.275000X0.200000X0*%
%ADD21R,0.533400X1.524000*%
%ADD22RoundRect,0.225000X0.250000X-0.225000X0.250000X0.225000X-0.250000X0.225000X-0.250000X-0.225000X0*%
%ADD23RoundRect,0.200000X0.200000X0.275000X-0.200000X0.275000X-0.200000X-0.275000X0.200000X-0.275000X0*%
%ADD24R,0.600000X1.450000*%
%ADD25R,0.300000X1.450000*%
%ADD26O,1.000000X2.100000*%
%ADD27O,1.000000X1.600000*%
%ADD28RoundRect,0.050000X-0.387500X-0.050000X0.387500X-0.050000X0.387500X0.050000X-0.387500X0.050000X0*%
%ADD29RoundRect,0.050000X-0.050000X-0.387500X0.050000X-0.387500X0.050000X0.387500X-0.050000X0.387500X0*%
%ADD30R,3.200000X3.200000*%
%ADD31R,1.700000X1.700000*%
%ADD32O,1.700000X1.700000*%
%ADD33O,2.300000X1.500000*%
%ADD34RoundRect,0.225000X-0.225000X-0.250000X0.225000X-0.250000X0.225000X0.250000X-0.225000X0.250000X0*%
%ADD35RoundRect,0.225000X0.225000X0.250000X-0.225000X0.250000X-0.225000X-0.250000X0.225000X-0.250000X0*%
%ADD36R,1.200000X1.400000*%
G04 APERTURE END LIST*
D10*
%TO.C,C15*%
X205500000Y-114500000D03*
X205500000Y-116050000D03*
%TD*%
D11*
%TO.C,D12*%
X171901000Y-85399000D03*
X171901000Y-82099000D03*
%TD*%
%TO.C,D9*%
X114751000Y-85399000D03*
X114751000Y-82099000D03*
%TD*%
D12*
%TO.C,SW12*%
X183971000Y-78474000D03*
X177621000Y-81014000D03*
%TD*%
D13*
%TO.C,R5*%
X195000000Y-72962500D03*
X195000000Y-70037500D03*
%TD*%
D11*
%TO.C,D6*%
X171901000Y-66349000D03*
X171901000Y-63049000D03*
%TD*%
D12*
%TO.C,SW14*%
X107771000Y-97524000D03*
X101421000Y-100064000D03*
%TD*%
D11*
%TO.C,D20*%
X162321000Y-123574000D03*
X162321000Y-120274000D03*
%TD*%
%TO.C,D3*%
X114751000Y-66349000D03*
X114751000Y-63049000D03*
%TD*%
D14*
%TO.C,C11*%
X202356515Y-99934649D03*
X203316515Y-99934649D03*
%TD*%
D15*
%TO.C,J5*%
X201821000Y-74824000D03*
D16*
X208421000Y-85424000D03*
D15*
X199821000Y-74824000D03*
X197821000Y-74824000D03*
D16*
X208421000Y-81424000D03*
X208421000Y-83424000D03*
%TD*%
D12*
%TO.C,SW18*%
X183971000Y-97524000D03*
X177621000Y-100064000D03*
%TD*%
D11*
%TO.C,D13*%
X76651000Y-104449000D03*
X76651000Y-101149000D03*
%TD*%
D17*
%TO.C,U2*%
X197300000Y-60274000D03*
X195000000Y-60274000D03*
D18*
X195000000Y-66574000D03*
D17*
X192700000Y-60274000D03*
%TD*%
D19*
%TO.C,R9*%
X200000000Y-99825000D03*
X200000000Y-98175000D03*
%TD*%
D20*
%TO.C,R2*%
X176821000Y-51599000D03*
X176821000Y-53249000D03*
%TD*%
D11*
%TO.C,D1*%
X76651000Y-66394000D03*
X76651000Y-63094000D03*
%TD*%
D21*
%TO.C,U3*%
X192095000Y-100644900D03*
X193365000Y-100644900D03*
X194635000Y-100644900D03*
X195905000Y-100644900D03*
X195905000Y-93355100D03*
X194635000Y-93355100D03*
X193365000Y-93355100D03*
X192095000Y-93355100D03*
%TD*%
D12*
%TO.C,SW17*%
X164921000Y-97524000D03*
X158571000Y-100064000D03*
%TD*%
D22*
%TO.C,C10*%
X201000000Y-61775000D03*
X201000000Y-60225000D03*
%TD*%
D23*
%TO.C,R7*%
X200325000Y-113500000D03*
X198675000Y-113500000D03*
%TD*%
D11*
%TO.C,D21*%
X181321000Y-123574000D03*
X181321000Y-120274000D03*
%TD*%
D12*
%TO.C,SW20*%
X174411000Y-116844000D03*
X168061000Y-119384000D03*
%TD*%
%TO.C,SW1*%
X88721000Y-59424000D03*
X82371000Y-61964000D03*
%TD*%
D14*
%TO.C,C4*%
X200020000Y-67000000D03*
X200980000Y-67000000D03*
%TD*%
D24*
%TO.C,J1*%
X188930000Y-51595000D03*
X188130000Y-51595000D03*
D25*
X186930000Y-51595000D03*
X185930000Y-51595000D03*
X185430000Y-51595000D03*
X184430000Y-51595000D03*
D24*
X183230000Y-51595000D03*
X182430000Y-51595000D03*
X182430000Y-51595000D03*
X183230000Y-51595000D03*
D25*
X183930000Y-51595000D03*
X184930000Y-51595000D03*
X186430000Y-51595000D03*
X187430000Y-51595000D03*
D24*
X188130000Y-51595000D03*
X188930000Y-51595000D03*
D26*
X190000000Y-50680000D03*
D27*
X190000000Y-46500000D03*
D26*
X181360000Y-50680000D03*
D27*
X181360000Y-46500000D03*
%TD*%
D14*
%TO.C,C14*%
X200020000Y-66000000D03*
X200980000Y-66000000D03*
%TD*%
D12*
%TO.C,SW11*%
X164921000Y-78474000D03*
X158571000Y-81014000D03*
%TD*%
D11*
%TO.C,D17*%
X152851000Y-104449000D03*
X152851000Y-101149000D03*
%TD*%
%TO.C,D5*%
X152851000Y-66349000D03*
X152851000Y-63049000D03*
%TD*%
%TO.C,D19*%
X143321000Y-123574000D03*
X143321000Y-120274000D03*
%TD*%
D20*
%TO.C,R1*%
X179321000Y-51599000D03*
X179321000Y-53249000D03*
%TD*%
D12*
%TO.C,SW9*%
X126821000Y-78474000D03*
X120471000Y-81014000D03*
%TD*%
%TO.C,SW10*%
X145871000Y-78474000D03*
X139521000Y-81014000D03*
%TD*%
D19*
%TO.C,R8*%
X198000000Y-99825000D03*
X198000000Y-98175000D03*
%TD*%
D11*
%TO.C,D11*%
X152851000Y-85399000D03*
X152851000Y-82099000D03*
%TD*%
D12*
%TO.C,SW15*%
X126821000Y-97524000D03*
X120471000Y-100064000D03*
%TD*%
D11*
%TO.C,D4*%
X133801000Y-66349000D03*
X133801000Y-63049000D03*
%TD*%
D12*
%TO.C,SW5*%
X164921000Y-59424000D03*
X158571000Y-61964000D03*
%TD*%
D14*
%TO.C,C6*%
X200020000Y-69000000D03*
X200980000Y-69000000D03*
%TD*%
D28*
%TO.C,U1*%
X193125000Y-104500000D03*
X193125000Y-104900000D03*
X193125000Y-105300000D03*
X193125000Y-105700000D03*
X193125000Y-106100000D03*
X193125000Y-106500000D03*
X193125000Y-106900000D03*
X193125000Y-107300000D03*
X193125000Y-107700000D03*
X193125000Y-108100000D03*
X193125000Y-108500000D03*
X193125000Y-108900000D03*
X193125000Y-109300000D03*
X193125000Y-109700000D03*
D29*
X193962500Y-110537500D03*
X194362500Y-110537500D03*
X194762500Y-110537500D03*
X195162500Y-110537500D03*
X195562500Y-110537500D03*
X195962500Y-110537500D03*
X196362500Y-110537500D03*
X196762500Y-110537500D03*
X197162500Y-110537500D03*
X197562500Y-110537500D03*
X197962500Y-110537500D03*
X198362500Y-110537500D03*
X198762500Y-110537500D03*
X199162500Y-110537500D03*
D28*
X200000000Y-109700000D03*
X200000000Y-109300000D03*
X200000000Y-108900000D03*
X200000000Y-108500000D03*
X200000000Y-108100000D03*
X200000000Y-107700000D03*
X200000000Y-107300000D03*
X200000000Y-106900000D03*
X200000000Y-106500000D03*
X200000000Y-106100000D03*
X200000000Y-105700000D03*
X200000000Y-105300000D03*
X200000000Y-104900000D03*
X200000000Y-104500000D03*
D29*
X199162500Y-103662500D03*
X198762500Y-103662500D03*
X198362500Y-103662500D03*
X197962500Y-103662500D03*
X197562500Y-103662500D03*
X197162500Y-103662500D03*
X196762500Y-103662500D03*
X196362500Y-103662500D03*
X195962500Y-103662500D03*
X195562500Y-103662500D03*
X195162500Y-103662500D03*
X194762500Y-103662500D03*
X194362500Y-103662500D03*
X193962500Y-103662500D03*
D30*
X196562500Y-107100000D03*
%TD*%
D31*
%TO.C,J3*%
X204500000Y-59725000D03*
D32*
X204500000Y-62265000D03*
%TD*%
D19*
%TO.C,R3*%
X200000000Y-96825000D03*
X200000000Y-95175000D03*
%TD*%
D11*
%TO.C,D7*%
X76651000Y-85399000D03*
X76651000Y-82099000D03*
%TD*%
D12*
%TO.C,SW13*%
X88721000Y-97524000D03*
X82371000Y-100064000D03*
%TD*%
D11*
%TO.C,D18*%
X171901000Y-104449000D03*
X171901000Y-101149000D03*
%TD*%
%TO.C,D15*%
X114751000Y-104449000D03*
X114751000Y-101149000D03*
%TD*%
D12*
%TO.C,SW2*%
X107771000Y-59424000D03*
X101421000Y-61964000D03*
%TD*%
D33*
%TO.C,J4*%
X204500000Y-54300000D03*
X207500000Y-54300000D03*
X199000000Y-50000000D03*
X200500000Y-54300000D03*
%TD*%
D14*
%TO.C,C12*%
X202356515Y-98934649D03*
X203316515Y-98934649D03*
%TD*%
D11*
%TO.C,D8*%
X95701000Y-85399000D03*
X95701000Y-82099000D03*
%TD*%
%TO.C,D2*%
X95701000Y-66349000D03*
X95701000Y-63049000D03*
%TD*%
D12*
%TO.C,SW3*%
X126821000Y-59424000D03*
X120471000Y-61964000D03*
%TD*%
D22*
%TO.C,C2*%
X199500000Y-61775000D03*
X199500000Y-60225000D03*
%TD*%
D14*
%TO.C,C9*%
X200020000Y-64000000D03*
X200980000Y-64000000D03*
%TD*%
D12*
%TO.C,SW4*%
X145871000Y-59424000D03*
X139521000Y-61964000D03*
%TD*%
%TO.C,SW6*%
X183971000Y-59424000D03*
X177621000Y-61964000D03*
%TD*%
%TO.C,SW8*%
X107771000Y-78474000D03*
X101421000Y-81014000D03*
%TD*%
D34*
%TO.C,C13*%
X202260515Y-101510649D03*
X203810515Y-101510649D03*
%TD*%
D14*
%TO.C,C8*%
X200020000Y-68000000D03*
X200980000Y-68000000D03*
%TD*%
D11*
%TO.C,D22*%
X191321000Y-143074000D03*
X191321000Y-139774000D03*
%TD*%
D14*
%TO.C,C3*%
X200020000Y-63000000D03*
X200980000Y-63000000D03*
%TD*%
D22*
%TO.C,C1*%
X192500000Y-55275000D03*
X192500000Y-53725000D03*
%TD*%
D12*
%TO.C,SW22*%
X203281000Y-136344000D03*
X196931000Y-138884000D03*
%TD*%
D35*
%TO.C,C16*%
X203775000Y-112000000D03*
X202225000Y-112000000D03*
%TD*%
D11*
%TO.C,D16*%
X133801000Y-104449000D03*
X133801000Y-101149000D03*
%TD*%
D19*
%TO.C,R4*%
X198000000Y-96825000D03*
X198000000Y-95175000D03*
%TD*%
D11*
%TO.C,D10*%
X133801000Y-85399000D03*
X133801000Y-82099000D03*
%TD*%
D19*
%TO.C,R6*%
X192750000Y-72325000D03*
X192750000Y-70675000D03*
%TD*%
D31*
%TO.C,J2*%
X204600000Y-71025000D03*
D32*
X204600000Y-68485000D03*
X204600000Y-65945000D03*
%TD*%
D11*
%TO.C,D14*%
X95701000Y-104449000D03*
X95701000Y-101149000D03*
%TD*%
D14*
%TO.C,C5*%
X200020000Y-70000000D03*
X200980000Y-70000000D03*
%TD*%
D36*
%TO.C,Y1*%
X203850000Y-116100000D03*
X203850000Y-113900000D03*
X202150000Y-113900000D03*
X202150000Y-116100000D03*
%TD*%
D12*
%TO.C,SW19*%
X155361000Y-116844000D03*
X149011000Y-119384000D03*
%TD*%
%TO.C,SW7*%
X88721000Y-78474000D03*
X82371000Y-81014000D03*
%TD*%
%TO.C,SW16*%
X145871000Y-97524000D03*
X139521000Y-100064000D03*
%TD*%
%TO.C,SW21*%
X193461000Y-116844000D03*
X187111000Y-119384000D03*
%TD*%
D14*
%TO.C,C7*%
X200020000Y-65000000D03*
X200980000Y-65000000D03*
%TD*%
M02*
