M48
; DRILL file {KiCad 9.0.0} date 2025-03-26T22:33:01+0900
; FORMAT={-:-/ absolute / inch / decimal}
; #@! TF.CreationDate,2025-03-26T22:33:01+09:00
; #@! TF.GenerationSoftware,Kicad,Pcbnew,9.0.0
; #@! TF.FileFunction,NonPlated,1,2,NPTH
FMAT,2
INCH
; #@! TA.AperFunction,NonPlated,NPTH,ComponentDrill
T1C0.0472
; #@! TA.AperFunction,NonPlated,NPTH,ComponentDrill
T2C0.0669
; #@! TA.AperFunction,NonPlated,NPTH,ComponentDrill
T3C0.0791
; #@! TA.AperFunction,NonPlated,NPTH,ComponentDrill
T4C0.1575
%
G90
G05
T1
X4.0079Y-1.6122
X4.0079Y-1.8878
T2
X3.185Y-5.5679
X3.5716Y-4.8002
X3.585Y-5.5679
X3.9452Y-2.5395
X3.9452Y-3.2895
X3.9452Y-4.0395
X3.9716Y-4.8002
X4.3216Y-4.8002
X4.3452Y-2.5395
X4.3452Y-3.2895
X4.3452Y-4.0395
X4.6952Y-2.5395
X4.6952Y-3.2895
X4.6952Y-4.0395
X4.7216Y-4.8002
X5.0716Y-4.8002
X5.0952Y-2.5395
X5.0952Y-3.2895
X5.0952Y-4.0395
X5.4452Y-2.5395
X5.4452Y-3.2895
X5.4452Y-4.0395
X5.4716Y-4.8002
X5.8452Y-2.5395
X5.8452Y-3.2895
X5.8452Y-4.0395
X6.1952Y-2.5395
X6.1952Y-3.2895
X6.1952Y-4.0395
X6.5952Y-2.5395
X6.5952Y-3.2895
X6.5952Y-4.0395
X6.9452Y-2.5395
X6.9452Y-3.2895
X6.9452Y-4.0395
X7.3452Y-2.5395
X7.3452Y-3.2895
X7.3452Y-4.0395
X7.6952Y-2.5395
X7.6952Y-3.2895
X7.6952Y-4.0395
X8.0952Y-2.5395
X8.0952Y-3.2895
X8.0952Y-4.0395
T3
X3.155Y-3.7554
X3.155Y-4.2279
X3.6275Y-3.7554
X3.6275Y-4.2279
T4
X3.385Y-5.5679
X3.7716Y-4.8002
X4.1452Y-2.5395
X4.1452Y-3.2895
X4.1452Y-4.0395
X4.5216Y-4.8002
X4.8952Y-2.5395
X4.8952Y-3.2895
X4.8952Y-4.0395
X5.2716Y-4.8002
X5.6452Y-2.5395
X5.6452Y-3.2895
X5.6452Y-4.0395
X6.3952Y-2.5395
X6.3952Y-3.2895
X6.3952Y-4.0395
X7.1452Y-2.5395
X7.1452Y-3.2895
X7.1452Y-4.0395
X7.8952Y-2.5395
X7.8952Y-3.2895
X7.8952Y-4.0395
M30
