%TF.GenerationSoftware,KiCad,Pcbnew,9.0.0*%
%TF.CreationDate,2025-03-26T22:33:01+09:00*%
%TF.ProjectId,keyboard,6b657962-6f61-4726-942e-6b696361645f,rev?*%
%TF.SameCoordinates,Original*%
%TF.FileFunction,Legend,Top*%
%TF.FilePolarity,Positive*%
%FSLAX46Y46*%
G04 Gerber Fmt 4.6, Leading zero omitted, Abs format (unit mm)*
G04 Created by KiCad (PCBNEW 9.0.0) date 2025-03-26 22:33:01*
%MOMM*%
%LPD*%
G01*
G04 APERTURE LIST*
%ADD10C,0.150000*%
%ADD11C,0.100000*%
%ADD12C,0.120000*%
%ADD13C,2.010000*%
%ADD14O,1.500000X2.000000*%
%ADD15O,2.000000X1.500000*%
%ADD16R,1.600000X1.600000*%
%ADD17O,1.600000X1.600000*%
%ADD18C,1.700000*%
%ADD19C,4.000000*%
%ADD20C,2.200000*%
%ADD21R,2.000000X2.000000*%
%ADD22C,2.000000*%
%ADD23C,2.800000*%
%ADD24R,1.700000X1.700000*%
%ADD25O,1.700000X1.700000*%
%ADD26C,1.200000*%
%ADD27O,1.500000X2.300000*%
G04 APERTURE END LIST*
D10*
X113134819Y-85664285D02*
X112134819Y-85664285D01*
X112134819Y-85664285D02*
X112134819Y-85426190D01*
X112134819Y-85426190D02*
X112182438Y-85283333D01*
X112182438Y-85283333D02*
X112277676Y-85188095D01*
X112277676Y-85188095D02*
X112372914Y-85140476D01*
X112372914Y-85140476D02*
X112563390Y-85092857D01*
X112563390Y-85092857D02*
X112706247Y-85092857D01*
X112706247Y-85092857D02*
X112896723Y-85140476D01*
X112896723Y-85140476D02*
X112991961Y-85188095D01*
X112991961Y-85188095D02*
X113087200Y-85283333D01*
X113087200Y-85283333D02*
X113134819Y-85426190D01*
X113134819Y-85426190D02*
X113134819Y-85664285D01*
X113134819Y-84140476D02*
X113134819Y-84711904D01*
X113134819Y-84426190D02*
X112134819Y-84426190D01*
X112134819Y-84426190D02*
X112277676Y-84521428D01*
X112277676Y-84521428D02*
X112372914Y-84616666D01*
X112372914Y-84616666D02*
X112420533Y-84711904D01*
X112230057Y-83759523D02*
X112182438Y-83711904D01*
X112182438Y-83711904D02*
X112134819Y-83616666D01*
X112134819Y-83616666D02*
X112134819Y-83378571D01*
X112134819Y-83378571D02*
X112182438Y-83283333D01*
X112182438Y-83283333D02*
X112230057Y-83235714D01*
X112230057Y-83235714D02*
X112325295Y-83188095D01*
X112325295Y-83188095D02*
X112420533Y-83188095D01*
X112420533Y-83188095D02*
X112563390Y-83235714D01*
X112563390Y-83235714D02*
X113134819Y-83807142D01*
X113134819Y-83807142D02*
X113134819Y-83188095D01*
X113454819Y-88521904D02*
X112454819Y-88521904D01*
X113454819Y-87950476D02*
X112883390Y-88379047D01*
X112454819Y-87950476D02*
X113026247Y-88521904D01*
X170284819Y-85188094D02*
X169284819Y-85188094D01*
X169284819Y-85188094D02*
X169284819Y-84949999D01*
X169284819Y-84949999D02*
X169332438Y-84807142D01*
X169332438Y-84807142D02*
X169427676Y-84711904D01*
X169427676Y-84711904D02*
X169522914Y-84664285D01*
X169522914Y-84664285D02*
X169713390Y-84616666D01*
X169713390Y-84616666D02*
X169856247Y-84616666D01*
X169856247Y-84616666D02*
X170046723Y-84664285D01*
X170046723Y-84664285D02*
X170141961Y-84711904D01*
X170141961Y-84711904D02*
X170237200Y-84807142D01*
X170237200Y-84807142D02*
X170284819Y-84949999D01*
X170284819Y-84949999D02*
X170284819Y-85188094D01*
X170284819Y-84140475D02*
X170284819Y-83949999D01*
X170284819Y-83949999D02*
X170237200Y-83854761D01*
X170237200Y-83854761D02*
X170189580Y-83807142D01*
X170189580Y-83807142D02*
X170046723Y-83711904D01*
X170046723Y-83711904D02*
X169856247Y-83664285D01*
X169856247Y-83664285D02*
X169475295Y-83664285D01*
X169475295Y-83664285D02*
X169380057Y-83711904D01*
X169380057Y-83711904D02*
X169332438Y-83759523D01*
X169332438Y-83759523D02*
X169284819Y-83854761D01*
X169284819Y-83854761D02*
X169284819Y-84045237D01*
X169284819Y-84045237D02*
X169332438Y-84140475D01*
X169332438Y-84140475D02*
X169380057Y-84188094D01*
X169380057Y-84188094D02*
X169475295Y-84235713D01*
X169475295Y-84235713D02*
X169713390Y-84235713D01*
X169713390Y-84235713D02*
X169808628Y-84188094D01*
X169808628Y-84188094D02*
X169856247Y-84140475D01*
X169856247Y-84140475D02*
X169903866Y-84045237D01*
X169903866Y-84045237D02*
X169903866Y-83854761D01*
X169903866Y-83854761D02*
X169856247Y-83759523D01*
X169856247Y-83759523D02*
X169808628Y-83711904D01*
X169808628Y-83711904D02*
X169713390Y-83664285D01*
X170604819Y-88521904D02*
X169604819Y-88521904D01*
X170604819Y-87950476D02*
X170033390Y-88379047D01*
X169604819Y-87950476D02*
X170176247Y-88521904D01*
X103479476Y-76087200D02*
X103622333Y-76134819D01*
X103622333Y-76134819D02*
X103860428Y-76134819D01*
X103860428Y-76134819D02*
X103955666Y-76087200D01*
X103955666Y-76087200D02*
X104003285Y-76039580D01*
X104003285Y-76039580D02*
X104050904Y-75944342D01*
X104050904Y-75944342D02*
X104050904Y-75849104D01*
X104050904Y-75849104D02*
X104003285Y-75753866D01*
X104003285Y-75753866D02*
X103955666Y-75706247D01*
X103955666Y-75706247D02*
X103860428Y-75658628D01*
X103860428Y-75658628D02*
X103669952Y-75611009D01*
X103669952Y-75611009D02*
X103574714Y-75563390D01*
X103574714Y-75563390D02*
X103527095Y-75515771D01*
X103527095Y-75515771D02*
X103479476Y-75420533D01*
X103479476Y-75420533D02*
X103479476Y-75325295D01*
X103479476Y-75325295D02*
X103527095Y-75230057D01*
X103527095Y-75230057D02*
X103574714Y-75182438D01*
X103574714Y-75182438D02*
X103669952Y-75134819D01*
X103669952Y-75134819D02*
X103908047Y-75134819D01*
X103908047Y-75134819D02*
X104050904Y-75182438D01*
X104384238Y-75134819D02*
X104622333Y-76134819D01*
X104622333Y-76134819D02*
X104812809Y-75420533D01*
X104812809Y-75420533D02*
X105003285Y-76134819D01*
X105003285Y-76134819D02*
X105241381Y-75134819D01*
X106146142Y-76134819D02*
X105574714Y-76134819D01*
X105860428Y-76134819D02*
X105860428Y-75134819D01*
X105860428Y-75134819D02*
X105765190Y-75277676D01*
X105765190Y-75277676D02*
X105669952Y-75372914D01*
X105669952Y-75372914D02*
X105574714Y-75420533D01*
X106527095Y-75230057D02*
X106574714Y-75182438D01*
X106574714Y-75182438D02*
X106669952Y-75134819D01*
X106669952Y-75134819D02*
X106908047Y-75134819D01*
X106908047Y-75134819D02*
X107003285Y-75182438D01*
X107003285Y-75182438D02*
X107050904Y-75230057D01*
X107050904Y-75230057D02*
X107098523Y-75325295D01*
X107098523Y-75325295D02*
X107098523Y-75420533D01*
X107098523Y-75420533D02*
X107050904Y-75563390D01*
X107050904Y-75563390D02*
X106479476Y-76134819D01*
X106479476Y-76134819D02*
X107098523Y-76134819D01*
X113134819Y-66138094D02*
X112134819Y-66138094D01*
X112134819Y-66138094D02*
X112134819Y-65899999D01*
X112134819Y-65899999D02*
X112182438Y-65757142D01*
X112182438Y-65757142D02*
X112277676Y-65661904D01*
X112277676Y-65661904D02*
X112372914Y-65614285D01*
X112372914Y-65614285D02*
X112563390Y-65566666D01*
X112563390Y-65566666D02*
X112706247Y-65566666D01*
X112706247Y-65566666D02*
X112896723Y-65614285D01*
X112896723Y-65614285D02*
X112991961Y-65661904D01*
X112991961Y-65661904D02*
X113087200Y-65757142D01*
X113087200Y-65757142D02*
X113134819Y-65899999D01*
X113134819Y-65899999D02*
X113134819Y-66138094D01*
X112134819Y-64709523D02*
X112134819Y-64899999D01*
X112134819Y-64899999D02*
X112182438Y-64995237D01*
X112182438Y-64995237D02*
X112230057Y-65042856D01*
X112230057Y-65042856D02*
X112372914Y-65138094D01*
X112372914Y-65138094D02*
X112563390Y-65185713D01*
X112563390Y-65185713D02*
X112944342Y-65185713D01*
X112944342Y-65185713D02*
X113039580Y-65138094D01*
X113039580Y-65138094D02*
X113087200Y-65090475D01*
X113087200Y-65090475D02*
X113134819Y-64995237D01*
X113134819Y-64995237D02*
X113134819Y-64804761D01*
X113134819Y-64804761D02*
X113087200Y-64709523D01*
X113087200Y-64709523D02*
X113039580Y-64661904D01*
X113039580Y-64661904D02*
X112944342Y-64614285D01*
X112944342Y-64614285D02*
X112706247Y-64614285D01*
X112706247Y-64614285D02*
X112611009Y-64661904D01*
X112611009Y-64661904D02*
X112563390Y-64709523D01*
X112563390Y-64709523D02*
X112515771Y-64804761D01*
X112515771Y-64804761D02*
X112515771Y-64995237D01*
X112515771Y-64995237D02*
X112563390Y-65090475D01*
X112563390Y-65090475D02*
X112611009Y-65138094D01*
X112611009Y-65138094D02*
X112706247Y-65185713D01*
X113454819Y-69471904D02*
X112454819Y-69471904D01*
X113454819Y-68900476D02*
X112883390Y-69329047D01*
X112454819Y-68900476D02*
X113026247Y-69471904D01*
X179679476Y-95137200D02*
X179822333Y-95184819D01*
X179822333Y-95184819D02*
X180060428Y-95184819D01*
X180060428Y-95184819D02*
X180155666Y-95137200D01*
X180155666Y-95137200D02*
X180203285Y-95089580D01*
X180203285Y-95089580D02*
X180250904Y-94994342D01*
X180250904Y-94994342D02*
X180250904Y-94899104D01*
X180250904Y-94899104D02*
X180203285Y-94803866D01*
X180203285Y-94803866D02*
X180155666Y-94756247D01*
X180155666Y-94756247D02*
X180060428Y-94708628D01*
X180060428Y-94708628D02*
X179869952Y-94661009D01*
X179869952Y-94661009D02*
X179774714Y-94613390D01*
X179774714Y-94613390D02*
X179727095Y-94565771D01*
X179727095Y-94565771D02*
X179679476Y-94470533D01*
X179679476Y-94470533D02*
X179679476Y-94375295D01*
X179679476Y-94375295D02*
X179727095Y-94280057D01*
X179727095Y-94280057D02*
X179774714Y-94232438D01*
X179774714Y-94232438D02*
X179869952Y-94184819D01*
X179869952Y-94184819D02*
X180108047Y-94184819D01*
X180108047Y-94184819D02*
X180250904Y-94232438D01*
X180584238Y-94184819D02*
X180822333Y-95184819D01*
X180822333Y-95184819D02*
X181012809Y-94470533D01*
X181012809Y-94470533D02*
X181203285Y-95184819D01*
X181203285Y-95184819D02*
X181441381Y-94184819D01*
X182346142Y-95184819D02*
X181774714Y-95184819D01*
X182060428Y-95184819D02*
X182060428Y-94184819D01*
X182060428Y-94184819D02*
X181965190Y-94327676D01*
X181965190Y-94327676D02*
X181869952Y-94422914D01*
X181869952Y-94422914D02*
X181774714Y-94470533D01*
X183203285Y-94518152D02*
X183203285Y-95184819D01*
X182965190Y-94137200D02*
X182727095Y-94851485D01*
X182727095Y-94851485D02*
X183346142Y-94851485D01*
X122714819Y-123839285D02*
X121714819Y-123839285D01*
X121714819Y-123839285D02*
X121714819Y-123601190D01*
X121714819Y-123601190D02*
X121762438Y-123458333D01*
X121762438Y-123458333D02*
X121857676Y-123363095D01*
X121857676Y-123363095D02*
X121952914Y-123315476D01*
X121952914Y-123315476D02*
X122143390Y-123267857D01*
X122143390Y-123267857D02*
X122286247Y-123267857D01*
X122286247Y-123267857D02*
X122476723Y-123315476D01*
X122476723Y-123315476D02*
X122571961Y-123363095D01*
X122571961Y-123363095D02*
X122667200Y-123458333D01*
X122667200Y-123458333D02*
X122714819Y-123601190D01*
X122714819Y-123601190D02*
X122714819Y-123839285D01*
X121810057Y-122886904D02*
X121762438Y-122839285D01*
X121762438Y-122839285D02*
X121714819Y-122744047D01*
X121714819Y-122744047D02*
X121714819Y-122505952D01*
X121714819Y-122505952D02*
X121762438Y-122410714D01*
X121762438Y-122410714D02*
X121810057Y-122363095D01*
X121810057Y-122363095D02*
X121905295Y-122315476D01*
X121905295Y-122315476D02*
X122000533Y-122315476D01*
X122000533Y-122315476D02*
X122143390Y-122363095D01*
X122143390Y-122363095D02*
X122714819Y-122934523D01*
X122714819Y-122934523D02*
X122714819Y-122315476D01*
X121714819Y-121696428D02*
X121714819Y-121601190D01*
X121714819Y-121601190D02*
X121762438Y-121505952D01*
X121762438Y-121505952D02*
X121810057Y-121458333D01*
X121810057Y-121458333D02*
X121905295Y-121410714D01*
X121905295Y-121410714D02*
X122095771Y-121363095D01*
X122095771Y-121363095D02*
X122333866Y-121363095D01*
X122333866Y-121363095D02*
X122524342Y-121410714D01*
X122524342Y-121410714D02*
X122619580Y-121458333D01*
X122619580Y-121458333D02*
X122667200Y-121505952D01*
X122667200Y-121505952D02*
X122714819Y-121601190D01*
X122714819Y-121601190D02*
X122714819Y-121696428D01*
X122714819Y-121696428D02*
X122667200Y-121791666D01*
X122667200Y-121791666D02*
X122619580Y-121839285D01*
X122619580Y-121839285D02*
X122524342Y-121886904D01*
X122524342Y-121886904D02*
X122333866Y-121934523D01*
X122333866Y-121934523D02*
X122095771Y-121934523D01*
X122095771Y-121934523D02*
X121905295Y-121886904D01*
X121905295Y-121886904D02*
X121810057Y-121839285D01*
X121810057Y-121839285D02*
X121762438Y-121791666D01*
X121762438Y-121791666D02*
X121714819Y-121696428D01*
X123034819Y-126696904D02*
X122034819Y-126696904D01*
X123034819Y-126125476D02*
X122463390Y-126554047D01*
X122034819Y-126125476D02*
X122606247Y-126696904D01*
X170284819Y-66138094D02*
X169284819Y-66138094D01*
X169284819Y-66138094D02*
X169284819Y-65899999D01*
X169284819Y-65899999D02*
X169332438Y-65757142D01*
X169332438Y-65757142D02*
X169427676Y-65661904D01*
X169427676Y-65661904D02*
X169522914Y-65614285D01*
X169522914Y-65614285D02*
X169713390Y-65566666D01*
X169713390Y-65566666D02*
X169856247Y-65566666D01*
X169856247Y-65566666D02*
X170046723Y-65614285D01*
X170046723Y-65614285D02*
X170141961Y-65661904D01*
X170141961Y-65661904D02*
X170237200Y-65757142D01*
X170237200Y-65757142D02*
X170284819Y-65899999D01*
X170284819Y-65899999D02*
X170284819Y-66138094D01*
X169284819Y-65233332D02*
X169284819Y-64614285D01*
X169284819Y-64614285D02*
X169665771Y-64947618D01*
X169665771Y-64947618D02*
X169665771Y-64804761D01*
X169665771Y-64804761D02*
X169713390Y-64709523D01*
X169713390Y-64709523D02*
X169761009Y-64661904D01*
X169761009Y-64661904D02*
X169856247Y-64614285D01*
X169856247Y-64614285D02*
X170094342Y-64614285D01*
X170094342Y-64614285D02*
X170189580Y-64661904D01*
X170189580Y-64661904D02*
X170237200Y-64709523D01*
X170237200Y-64709523D02*
X170284819Y-64804761D01*
X170284819Y-64804761D02*
X170284819Y-65090475D01*
X170284819Y-65090475D02*
X170237200Y-65185713D01*
X170237200Y-65185713D02*
X170189580Y-65233332D01*
X170604819Y-69471904D02*
X169604819Y-69471904D01*
X170604819Y-68900476D02*
X170033390Y-69329047D01*
X169604819Y-68900476D02*
X170176247Y-69471904D01*
X85804166Y-106442319D02*
X85804166Y-107156604D01*
X85804166Y-107156604D02*
X85756547Y-107299461D01*
X85756547Y-107299461D02*
X85661309Y-107394700D01*
X85661309Y-107394700D02*
X85518452Y-107442319D01*
X85518452Y-107442319D02*
X85423214Y-107442319D01*
X86756547Y-106442319D02*
X86280357Y-106442319D01*
X86280357Y-106442319D02*
X86232738Y-106918509D01*
X86232738Y-106918509D02*
X86280357Y-106870890D01*
X86280357Y-106870890D02*
X86375595Y-106823271D01*
X86375595Y-106823271D02*
X86613690Y-106823271D01*
X86613690Y-106823271D02*
X86708928Y-106870890D01*
X86708928Y-106870890D02*
X86756547Y-106918509D01*
X86756547Y-106918509D02*
X86804166Y-107013747D01*
X86804166Y-107013747D02*
X86804166Y-107251842D01*
X86804166Y-107251842D02*
X86756547Y-107347080D01*
X86756547Y-107347080D02*
X86708928Y-107394700D01*
X86708928Y-107394700D02*
X86613690Y-107442319D01*
X86613690Y-107442319D02*
X86375595Y-107442319D01*
X86375595Y-107442319D02*
X86280357Y-107394700D01*
X86280357Y-107394700D02*
X86232738Y-107347080D01*
X103479476Y-95137200D02*
X103622333Y-95184819D01*
X103622333Y-95184819D02*
X103860428Y-95184819D01*
X103860428Y-95184819D02*
X103955666Y-95137200D01*
X103955666Y-95137200D02*
X104003285Y-95089580D01*
X104003285Y-95089580D02*
X104050904Y-94994342D01*
X104050904Y-94994342D02*
X104050904Y-94899104D01*
X104050904Y-94899104D02*
X104003285Y-94803866D01*
X104003285Y-94803866D02*
X103955666Y-94756247D01*
X103955666Y-94756247D02*
X103860428Y-94708628D01*
X103860428Y-94708628D02*
X103669952Y-94661009D01*
X103669952Y-94661009D02*
X103574714Y-94613390D01*
X103574714Y-94613390D02*
X103527095Y-94565771D01*
X103527095Y-94565771D02*
X103479476Y-94470533D01*
X103479476Y-94470533D02*
X103479476Y-94375295D01*
X103479476Y-94375295D02*
X103527095Y-94280057D01*
X103527095Y-94280057D02*
X103574714Y-94232438D01*
X103574714Y-94232438D02*
X103669952Y-94184819D01*
X103669952Y-94184819D02*
X103908047Y-94184819D01*
X103908047Y-94184819D02*
X104050904Y-94232438D01*
X104384238Y-94184819D02*
X104622333Y-95184819D01*
X104622333Y-95184819D02*
X104812809Y-94470533D01*
X104812809Y-94470533D02*
X105003285Y-95184819D01*
X105003285Y-95184819D02*
X105241381Y-94184819D01*
X106146142Y-95184819D02*
X105574714Y-95184819D01*
X105860428Y-95184819D02*
X105860428Y-94184819D01*
X105860428Y-94184819D02*
X105765190Y-94327676D01*
X105765190Y-94327676D02*
X105669952Y-94422914D01*
X105669952Y-94422914D02*
X105574714Y-94470533D01*
X106717571Y-94613390D02*
X106622333Y-94565771D01*
X106622333Y-94565771D02*
X106574714Y-94518152D01*
X106574714Y-94518152D02*
X106527095Y-94422914D01*
X106527095Y-94422914D02*
X106527095Y-94375295D01*
X106527095Y-94375295D02*
X106574714Y-94280057D01*
X106574714Y-94280057D02*
X106622333Y-94232438D01*
X106622333Y-94232438D02*
X106717571Y-94184819D01*
X106717571Y-94184819D02*
X106908047Y-94184819D01*
X106908047Y-94184819D02*
X107003285Y-94232438D01*
X107003285Y-94232438D02*
X107050904Y-94280057D01*
X107050904Y-94280057D02*
X107098523Y-94375295D01*
X107098523Y-94375295D02*
X107098523Y-94422914D01*
X107098523Y-94422914D02*
X107050904Y-94518152D01*
X107050904Y-94518152D02*
X107003285Y-94565771D01*
X107003285Y-94565771D02*
X106908047Y-94613390D01*
X106908047Y-94613390D02*
X106717571Y-94613390D01*
X106717571Y-94613390D02*
X106622333Y-94661009D01*
X106622333Y-94661009D02*
X106574714Y-94708628D01*
X106574714Y-94708628D02*
X106527095Y-94803866D01*
X106527095Y-94803866D02*
X106527095Y-94994342D01*
X106527095Y-94994342D02*
X106574714Y-95089580D01*
X106574714Y-95089580D02*
X106622333Y-95137200D01*
X106622333Y-95137200D02*
X106717571Y-95184819D01*
X106717571Y-95184819D02*
X106908047Y-95184819D01*
X106908047Y-95184819D02*
X107003285Y-95137200D01*
X107003285Y-95137200D02*
X107050904Y-95089580D01*
X107050904Y-95089580D02*
X107098523Y-94994342D01*
X107098523Y-94994342D02*
X107098523Y-94803866D01*
X107098523Y-94803866D02*
X107050904Y-94708628D01*
X107050904Y-94708628D02*
X107003285Y-94661009D01*
X107003285Y-94661009D02*
X106908047Y-94613390D01*
X208384819Y-104714285D02*
X207384819Y-104714285D01*
X207384819Y-104714285D02*
X207384819Y-104476190D01*
X207384819Y-104476190D02*
X207432438Y-104333333D01*
X207432438Y-104333333D02*
X207527676Y-104238095D01*
X207527676Y-104238095D02*
X207622914Y-104190476D01*
X207622914Y-104190476D02*
X207813390Y-104142857D01*
X207813390Y-104142857D02*
X207956247Y-104142857D01*
X207956247Y-104142857D02*
X208146723Y-104190476D01*
X208146723Y-104190476D02*
X208241961Y-104238095D01*
X208241961Y-104238095D02*
X208337200Y-104333333D01*
X208337200Y-104333333D02*
X208384819Y-104476190D01*
X208384819Y-104476190D02*
X208384819Y-104714285D01*
X208384819Y-103190476D02*
X208384819Y-103761904D01*
X208384819Y-103476190D02*
X207384819Y-103476190D01*
X207384819Y-103476190D02*
X207527676Y-103571428D01*
X207527676Y-103571428D02*
X207622914Y-103666666D01*
X207622914Y-103666666D02*
X207670533Y-103761904D01*
X207384819Y-102857142D02*
X207384819Y-102238095D01*
X207384819Y-102238095D02*
X207765771Y-102571428D01*
X207765771Y-102571428D02*
X207765771Y-102428571D01*
X207765771Y-102428571D02*
X207813390Y-102333333D01*
X207813390Y-102333333D02*
X207861009Y-102285714D01*
X207861009Y-102285714D02*
X207956247Y-102238095D01*
X207956247Y-102238095D02*
X208194342Y-102238095D01*
X208194342Y-102238095D02*
X208289580Y-102285714D01*
X208289580Y-102285714D02*
X208337200Y-102333333D01*
X208337200Y-102333333D02*
X208384819Y-102428571D01*
X208384819Y-102428571D02*
X208384819Y-102714285D01*
X208384819Y-102714285D02*
X208337200Y-102809523D01*
X208337200Y-102809523D02*
X208289580Y-102857142D01*
X208704819Y-107571904D02*
X207704819Y-107571904D01*
X208704819Y-107000476D02*
X208133390Y-107429047D01*
X207704819Y-107000476D02*
X208276247Y-107571904D01*
X208384819Y-66183094D02*
X207384819Y-66183094D01*
X207384819Y-66183094D02*
X207384819Y-65944999D01*
X207384819Y-65944999D02*
X207432438Y-65802142D01*
X207432438Y-65802142D02*
X207527676Y-65706904D01*
X207527676Y-65706904D02*
X207622914Y-65659285D01*
X207622914Y-65659285D02*
X207813390Y-65611666D01*
X207813390Y-65611666D02*
X207956247Y-65611666D01*
X207956247Y-65611666D02*
X208146723Y-65659285D01*
X208146723Y-65659285D02*
X208241961Y-65706904D01*
X208241961Y-65706904D02*
X208337200Y-65802142D01*
X208337200Y-65802142D02*
X208384819Y-65944999D01*
X208384819Y-65944999D02*
X208384819Y-66183094D01*
X208384819Y-64659285D02*
X208384819Y-65230713D01*
X208384819Y-64944999D02*
X207384819Y-64944999D01*
X207384819Y-64944999D02*
X207527676Y-65040237D01*
X207527676Y-65040237D02*
X207622914Y-65135475D01*
X207622914Y-65135475D02*
X207670533Y-65230713D01*
X208704819Y-69516904D02*
X207704819Y-69516904D01*
X208704819Y-68945476D02*
X208133390Y-69374047D01*
X207704819Y-68945476D02*
X208276247Y-69516904D01*
X122529476Y-95137200D02*
X122672333Y-95184819D01*
X122672333Y-95184819D02*
X122910428Y-95184819D01*
X122910428Y-95184819D02*
X123005666Y-95137200D01*
X123005666Y-95137200D02*
X123053285Y-95089580D01*
X123053285Y-95089580D02*
X123100904Y-94994342D01*
X123100904Y-94994342D02*
X123100904Y-94899104D01*
X123100904Y-94899104D02*
X123053285Y-94803866D01*
X123053285Y-94803866D02*
X123005666Y-94756247D01*
X123005666Y-94756247D02*
X122910428Y-94708628D01*
X122910428Y-94708628D02*
X122719952Y-94661009D01*
X122719952Y-94661009D02*
X122624714Y-94613390D01*
X122624714Y-94613390D02*
X122577095Y-94565771D01*
X122577095Y-94565771D02*
X122529476Y-94470533D01*
X122529476Y-94470533D02*
X122529476Y-94375295D01*
X122529476Y-94375295D02*
X122577095Y-94280057D01*
X122577095Y-94280057D02*
X122624714Y-94232438D01*
X122624714Y-94232438D02*
X122719952Y-94184819D01*
X122719952Y-94184819D02*
X122958047Y-94184819D01*
X122958047Y-94184819D02*
X123100904Y-94232438D01*
X123434238Y-94184819D02*
X123672333Y-95184819D01*
X123672333Y-95184819D02*
X123862809Y-94470533D01*
X123862809Y-94470533D02*
X124053285Y-95184819D01*
X124053285Y-95184819D02*
X124291381Y-94184819D01*
X125196142Y-95184819D02*
X124624714Y-95184819D01*
X124910428Y-95184819D02*
X124910428Y-94184819D01*
X124910428Y-94184819D02*
X124815190Y-94327676D01*
X124815190Y-94327676D02*
X124719952Y-94422914D01*
X124719952Y-94422914D02*
X124624714Y-94470533D01*
X125529476Y-94184819D02*
X126196142Y-94184819D01*
X126196142Y-94184819D02*
X125767571Y-95184819D01*
X155140476Y-53957200D02*
X155283333Y-54004819D01*
X155283333Y-54004819D02*
X155521428Y-54004819D01*
X155521428Y-54004819D02*
X155616666Y-53957200D01*
X155616666Y-53957200D02*
X155664285Y-53909580D01*
X155664285Y-53909580D02*
X155711904Y-53814342D01*
X155711904Y-53814342D02*
X155711904Y-53719104D01*
X155711904Y-53719104D02*
X155664285Y-53623866D01*
X155664285Y-53623866D02*
X155616666Y-53576247D01*
X155616666Y-53576247D02*
X155521428Y-53528628D01*
X155521428Y-53528628D02*
X155330952Y-53481009D01*
X155330952Y-53481009D02*
X155235714Y-53433390D01*
X155235714Y-53433390D02*
X155188095Y-53385771D01*
X155188095Y-53385771D02*
X155140476Y-53290533D01*
X155140476Y-53290533D02*
X155140476Y-53195295D01*
X155140476Y-53195295D02*
X155188095Y-53100057D01*
X155188095Y-53100057D02*
X155235714Y-53052438D01*
X155235714Y-53052438D02*
X155330952Y-53004819D01*
X155330952Y-53004819D02*
X155569047Y-53004819D01*
X155569047Y-53004819D02*
X155711904Y-53052438D01*
X156045238Y-53004819D02*
X156283333Y-54004819D01*
X156283333Y-54004819D02*
X156473809Y-53290533D01*
X156473809Y-53290533D02*
X156664285Y-54004819D01*
X156664285Y-54004819D02*
X156902381Y-53004819D01*
X157235714Y-53100057D02*
X157283333Y-53052438D01*
X157283333Y-53052438D02*
X157378571Y-53004819D01*
X157378571Y-53004819D02*
X157616666Y-53004819D01*
X157616666Y-53004819D02*
X157711904Y-53052438D01*
X157711904Y-53052438D02*
X157759523Y-53100057D01*
X157759523Y-53100057D02*
X157807142Y-53195295D01*
X157807142Y-53195295D02*
X157807142Y-53290533D01*
X157807142Y-53290533D02*
X157759523Y-53433390D01*
X157759523Y-53433390D02*
X157188095Y-54004819D01*
X157188095Y-54004819D02*
X157807142Y-54004819D01*
X158711904Y-53004819D02*
X158235714Y-53004819D01*
X158235714Y-53004819D02*
X158188095Y-53481009D01*
X158188095Y-53481009D02*
X158235714Y-53433390D01*
X158235714Y-53433390D02*
X158330952Y-53385771D01*
X158330952Y-53385771D02*
X158569047Y-53385771D01*
X158569047Y-53385771D02*
X158664285Y-53433390D01*
X158664285Y-53433390D02*
X158711904Y-53481009D01*
X158711904Y-53481009D02*
X158759523Y-53576247D01*
X158759523Y-53576247D02*
X158759523Y-53814342D01*
X158759523Y-53814342D02*
X158711904Y-53909580D01*
X158711904Y-53909580D02*
X158664285Y-53957200D01*
X158664285Y-53957200D02*
X158569047Y-54004819D01*
X158569047Y-54004819D02*
X158330952Y-54004819D01*
X158330952Y-54004819D02*
X158235714Y-53957200D01*
X158235714Y-53957200D02*
X158188095Y-53909580D01*
X103714819Y-123839285D02*
X102714819Y-123839285D01*
X102714819Y-123839285D02*
X102714819Y-123601190D01*
X102714819Y-123601190D02*
X102762438Y-123458333D01*
X102762438Y-123458333D02*
X102857676Y-123363095D01*
X102857676Y-123363095D02*
X102952914Y-123315476D01*
X102952914Y-123315476D02*
X103143390Y-123267857D01*
X103143390Y-123267857D02*
X103286247Y-123267857D01*
X103286247Y-123267857D02*
X103476723Y-123315476D01*
X103476723Y-123315476D02*
X103571961Y-123363095D01*
X103571961Y-123363095D02*
X103667200Y-123458333D01*
X103667200Y-123458333D02*
X103714819Y-123601190D01*
X103714819Y-123601190D02*
X103714819Y-123839285D01*
X102810057Y-122886904D02*
X102762438Y-122839285D01*
X102762438Y-122839285D02*
X102714819Y-122744047D01*
X102714819Y-122744047D02*
X102714819Y-122505952D01*
X102714819Y-122505952D02*
X102762438Y-122410714D01*
X102762438Y-122410714D02*
X102810057Y-122363095D01*
X102810057Y-122363095D02*
X102905295Y-122315476D01*
X102905295Y-122315476D02*
X103000533Y-122315476D01*
X103000533Y-122315476D02*
X103143390Y-122363095D01*
X103143390Y-122363095D02*
X103714819Y-122934523D01*
X103714819Y-122934523D02*
X103714819Y-122315476D01*
X103714819Y-121363095D02*
X103714819Y-121934523D01*
X103714819Y-121648809D02*
X102714819Y-121648809D01*
X102714819Y-121648809D02*
X102857676Y-121744047D01*
X102857676Y-121744047D02*
X102952914Y-121839285D01*
X102952914Y-121839285D02*
X103000533Y-121934523D01*
X104034819Y-126696904D02*
X103034819Y-126696904D01*
X104034819Y-126125476D02*
X103463390Y-126554047D01*
X103034819Y-126125476D02*
X103606247Y-126696904D01*
X113039476Y-114457200D02*
X113182333Y-114504819D01*
X113182333Y-114504819D02*
X113420428Y-114504819D01*
X113420428Y-114504819D02*
X113515666Y-114457200D01*
X113515666Y-114457200D02*
X113563285Y-114409580D01*
X113563285Y-114409580D02*
X113610904Y-114314342D01*
X113610904Y-114314342D02*
X113610904Y-114219104D01*
X113610904Y-114219104D02*
X113563285Y-114123866D01*
X113563285Y-114123866D02*
X113515666Y-114076247D01*
X113515666Y-114076247D02*
X113420428Y-114028628D01*
X113420428Y-114028628D02*
X113229952Y-113981009D01*
X113229952Y-113981009D02*
X113134714Y-113933390D01*
X113134714Y-113933390D02*
X113087095Y-113885771D01*
X113087095Y-113885771D02*
X113039476Y-113790533D01*
X113039476Y-113790533D02*
X113039476Y-113695295D01*
X113039476Y-113695295D02*
X113087095Y-113600057D01*
X113087095Y-113600057D02*
X113134714Y-113552438D01*
X113134714Y-113552438D02*
X113229952Y-113504819D01*
X113229952Y-113504819D02*
X113468047Y-113504819D01*
X113468047Y-113504819D02*
X113610904Y-113552438D01*
X113944238Y-113504819D02*
X114182333Y-114504819D01*
X114182333Y-114504819D02*
X114372809Y-113790533D01*
X114372809Y-113790533D02*
X114563285Y-114504819D01*
X114563285Y-114504819D02*
X114801381Y-113504819D01*
X115134714Y-113600057D02*
X115182333Y-113552438D01*
X115182333Y-113552438D02*
X115277571Y-113504819D01*
X115277571Y-113504819D02*
X115515666Y-113504819D01*
X115515666Y-113504819D02*
X115610904Y-113552438D01*
X115610904Y-113552438D02*
X115658523Y-113600057D01*
X115658523Y-113600057D02*
X115706142Y-113695295D01*
X115706142Y-113695295D02*
X115706142Y-113790533D01*
X115706142Y-113790533D02*
X115658523Y-113933390D01*
X115658523Y-113933390D02*
X115087095Y-114504819D01*
X115087095Y-114504819D02*
X115706142Y-114504819D01*
X116325190Y-113504819D02*
X116420428Y-113504819D01*
X116420428Y-113504819D02*
X116515666Y-113552438D01*
X116515666Y-113552438D02*
X116563285Y-113600057D01*
X116563285Y-113600057D02*
X116610904Y-113695295D01*
X116610904Y-113695295D02*
X116658523Y-113885771D01*
X116658523Y-113885771D02*
X116658523Y-114123866D01*
X116658523Y-114123866D02*
X116610904Y-114314342D01*
X116610904Y-114314342D02*
X116563285Y-114409580D01*
X116563285Y-114409580D02*
X116515666Y-114457200D01*
X116515666Y-114457200D02*
X116420428Y-114504819D01*
X116420428Y-114504819D02*
X116325190Y-114504819D01*
X116325190Y-114504819D02*
X116229952Y-114457200D01*
X116229952Y-114457200D02*
X116182333Y-114409580D01*
X116182333Y-114409580D02*
X116134714Y-114314342D01*
X116134714Y-114314342D02*
X116087095Y-114123866D01*
X116087095Y-114123866D02*
X116087095Y-113885771D01*
X116087095Y-113885771D02*
X116134714Y-113695295D01*
X116134714Y-113695295D02*
X116182333Y-113600057D01*
X116182333Y-113600057D02*
X116229952Y-113552438D01*
X116229952Y-113552438D02*
X116325190Y-113504819D01*
X199205667Y-57037200D02*
X199348524Y-57084819D01*
X199348524Y-57084819D02*
X199586619Y-57084819D01*
X199586619Y-57084819D02*
X199681857Y-57037200D01*
X199681857Y-57037200D02*
X199729476Y-56989580D01*
X199729476Y-56989580D02*
X199777095Y-56894342D01*
X199777095Y-56894342D02*
X199777095Y-56799104D01*
X199777095Y-56799104D02*
X199729476Y-56703866D01*
X199729476Y-56703866D02*
X199681857Y-56656247D01*
X199681857Y-56656247D02*
X199586619Y-56608628D01*
X199586619Y-56608628D02*
X199396143Y-56561009D01*
X199396143Y-56561009D02*
X199300905Y-56513390D01*
X199300905Y-56513390D02*
X199253286Y-56465771D01*
X199253286Y-56465771D02*
X199205667Y-56370533D01*
X199205667Y-56370533D02*
X199205667Y-56275295D01*
X199205667Y-56275295D02*
X199253286Y-56180057D01*
X199253286Y-56180057D02*
X199300905Y-56132438D01*
X199300905Y-56132438D02*
X199396143Y-56084819D01*
X199396143Y-56084819D02*
X199634238Y-56084819D01*
X199634238Y-56084819D02*
X199777095Y-56132438D01*
X200110429Y-56084819D02*
X200348524Y-57084819D01*
X200348524Y-57084819D02*
X200539000Y-56370533D01*
X200539000Y-56370533D02*
X200729476Y-57084819D01*
X200729476Y-57084819D02*
X200967572Y-56084819D01*
X201872333Y-57084819D02*
X201300905Y-57084819D01*
X201586619Y-57084819D02*
X201586619Y-56084819D01*
X201586619Y-56084819D02*
X201491381Y-56227676D01*
X201491381Y-56227676D02*
X201396143Y-56322914D01*
X201396143Y-56322914D02*
X201300905Y-56370533D01*
X193390476Y-53957200D02*
X193533333Y-54004819D01*
X193533333Y-54004819D02*
X193771428Y-54004819D01*
X193771428Y-54004819D02*
X193866666Y-53957200D01*
X193866666Y-53957200D02*
X193914285Y-53909580D01*
X193914285Y-53909580D02*
X193961904Y-53814342D01*
X193961904Y-53814342D02*
X193961904Y-53719104D01*
X193961904Y-53719104D02*
X193914285Y-53623866D01*
X193914285Y-53623866D02*
X193866666Y-53576247D01*
X193866666Y-53576247D02*
X193771428Y-53528628D01*
X193771428Y-53528628D02*
X193580952Y-53481009D01*
X193580952Y-53481009D02*
X193485714Y-53433390D01*
X193485714Y-53433390D02*
X193438095Y-53385771D01*
X193438095Y-53385771D02*
X193390476Y-53290533D01*
X193390476Y-53290533D02*
X193390476Y-53195295D01*
X193390476Y-53195295D02*
X193438095Y-53100057D01*
X193438095Y-53100057D02*
X193485714Y-53052438D01*
X193485714Y-53052438D02*
X193580952Y-53004819D01*
X193580952Y-53004819D02*
X193819047Y-53004819D01*
X193819047Y-53004819D02*
X193961904Y-53052438D01*
X194295238Y-53004819D02*
X194533333Y-54004819D01*
X194533333Y-54004819D02*
X194723809Y-53290533D01*
X194723809Y-53290533D02*
X194914285Y-54004819D01*
X194914285Y-54004819D02*
X195152381Y-53004819D01*
X195485714Y-53100057D02*
X195533333Y-53052438D01*
X195533333Y-53052438D02*
X195628571Y-53004819D01*
X195628571Y-53004819D02*
X195866666Y-53004819D01*
X195866666Y-53004819D02*
X195961904Y-53052438D01*
X195961904Y-53052438D02*
X196009523Y-53100057D01*
X196009523Y-53100057D02*
X196057142Y-53195295D01*
X196057142Y-53195295D02*
X196057142Y-53290533D01*
X196057142Y-53290533D02*
X196009523Y-53433390D01*
X196009523Y-53433390D02*
X195438095Y-54004819D01*
X195438095Y-54004819D02*
X196057142Y-54004819D01*
X196390476Y-53004819D02*
X197009523Y-53004819D01*
X197009523Y-53004819D02*
X196676190Y-53385771D01*
X196676190Y-53385771D02*
X196819047Y-53385771D01*
X196819047Y-53385771D02*
X196914285Y-53433390D01*
X196914285Y-53433390D02*
X196961904Y-53481009D01*
X196961904Y-53481009D02*
X197009523Y-53576247D01*
X197009523Y-53576247D02*
X197009523Y-53814342D01*
X197009523Y-53814342D02*
X196961904Y-53909580D01*
X196961904Y-53909580D02*
X196914285Y-53957200D01*
X196914285Y-53957200D02*
X196819047Y-54004819D01*
X196819047Y-54004819D02*
X196533333Y-54004819D01*
X196533333Y-54004819D02*
X196438095Y-53957200D01*
X196438095Y-53957200D02*
X196390476Y-53909580D01*
X122529476Y-76087200D02*
X122672333Y-76134819D01*
X122672333Y-76134819D02*
X122910428Y-76134819D01*
X122910428Y-76134819D02*
X123005666Y-76087200D01*
X123005666Y-76087200D02*
X123053285Y-76039580D01*
X123053285Y-76039580D02*
X123100904Y-75944342D01*
X123100904Y-75944342D02*
X123100904Y-75849104D01*
X123100904Y-75849104D02*
X123053285Y-75753866D01*
X123053285Y-75753866D02*
X123005666Y-75706247D01*
X123005666Y-75706247D02*
X122910428Y-75658628D01*
X122910428Y-75658628D02*
X122719952Y-75611009D01*
X122719952Y-75611009D02*
X122624714Y-75563390D01*
X122624714Y-75563390D02*
X122577095Y-75515771D01*
X122577095Y-75515771D02*
X122529476Y-75420533D01*
X122529476Y-75420533D02*
X122529476Y-75325295D01*
X122529476Y-75325295D02*
X122577095Y-75230057D01*
X122577095Y-75230057D02*
X122624714Y-75182438D01*
X122624714Y-75182438D02*
X122719952Y-75134819D01*
X122719952Y-75134819D02*
X122958047Y-75134819D01*
X122958047Y-75134819D02*
X123100904Y-75182438D01*
X123434238Y-75134819D02*
X123672333Y-76134819D01*
X123672333Y-76134819D02*
X123862809Y-75420533D01*
X123862809Y-75420533D02*
X124053285Y-76134819D01*
X124053285Y-76134819D02*
X124291381Y-75134819D01*
X125196142Y-76134819D02*
X124624714Y-76134819D01*
X124910428Y-76134819D02*
X124910428Y-75134819D01*
X124910428Y-75134819D02*
X124815190Y-75277676D01*
X124815190Y-75277676D02*
X124719952Y-75372914D01*
X124719952Y-75372914D02*
X124624714Y-75420533D01*
X126148523Y-76134819D02*
X125577095Y-76134819D01*
X125862809Y-76134819D02*
X125862809Y-75134819D01*
X125862809Y-75134819D02*
X125767571Y-75277676D01*
X125767571Y-75277676D02*
X125672333Y-75372914D01*
X125672333Y-75372914D02*
X125577095Y-75420533D01*
X132184819Y-104714285D02*
X131184819Y-104714285D01*
X131184819Y-104714285D02*
X131184819Y-104476190D01*
X131184819Y-104476190D02*
X131232438Y-104333333D01*
X131232438Y-104333333D02*
X131327676Y-104238095D01*
X131327676Y-104238095D02*
X131422914Y-104190476D01*
X131422914Y-104190476D02*
X131613390Y-104142857D01*
X131613390Y-104142857D02*
X131756247Y-104142857D01*
X131756247Y-104142857D02*
X131946723Y-104190476D01*
X131946723Y-104190476D02*
X132041961Y-104238095D01*
X132041961Y-104238095D02*
X132137200Y-104333333D01*
X132137200Y-104333333D02*
X132184819Y-104476190D01*
X132184819Y-104476190D02*
X132184819Y-104714285D01*
X132184819Y-103190476D02*
X132184819Y-103761904D01*
X132184819Y-103476190D02*
X131184819Y-103476190D01*
X131184819Y-103476190D02*
X131327676Y-103571428D01*
X131327676Y-103571428D02*
X131422914Y-103666666D01*
X131422914Y-103666666D02*
X131470533Y-103761904D01*
X131184819Y-102857142D02*
X131184819Y-102190476D01*
X131184819Y-102190476D02*
X132184819Y-102619047D01*
X132504819Y-107571904D02*
X131504819Y-107571904D01*
X132504819Y-107000476D02*
X131933390Y-107429047D01*
X131504819Y-107000476D02*
X132076247Y-107571904D01*
X132184819Y-66138094D02*
X131184819Y-66138094D01*
X131184819Y-66138094D02*
X131184819Y-65899999D01*
X131184819Y-65899999D02*
X131232438Y-65757142D01*
X131232438Y-65757142D02*
X131327676Y-65661904D01*
X131327676Y-65661904D02*
X131422914Y-65614285D01*
X131422914Y-65614285D02*
X131613390Y-65566666D01*
X131613390Y-65566666D02*
X131756247Y-65566666D01*
X131756247Y-65566666D02*
X131946723Y-65614285D01*
X131946723Y-65614285D02*
X132041961Y-65661904D01*
X132041961Y-65661904D02*
X132137200Y-65757142D01*
X132137200Y-65757142D02*
X132184819Y-65899999D01*
X132184819Y-65899999D02*
X132184819Y-66138094D01*
X131184819Y-64661904D02*
X131184819Y-65138094D01*
X131184819Y-65138094D02*
X131661009Y-65185713D01*
X131661009Y-65185713D02*
X131613390Y-65138094D01*
X131613390Y-65138094D02*
X131565771Y-65042856D01*
X131565771Y-65042856D02*
X131565771Y-64804761D01*
X131565771Y-64804761D02*
X131613390Y-64709523D01*
X131613390Y-64709523D02*
X131661009Y-64661904D01*
X131661009Y-64661904D02*
X131756247Y-64614285D01*
X131756247Y-64614285D02*
X131994342Y-64614285D01*
X131994342Y-64614285D02*
X132089580Y-64661904D01*
X132089580Y-64661904D02*
X132137200Y-64709523D01*
X132137200Y-64709523D02*
X132184819Y-64804761D01*
X132184819Y-64804761D02*
X132184819Y-65042856D01*
X132184819Y-65042856D02*
X132137200Y-65138094D01*
X132137200Y-65138094D02*
X132089580Y-65185713D01*
X132504819Y-69471904D02*
X131504819Y-69471904D01*
X132504819Y-68900476D02*
X131933390Y-69329047D01*
X131504819Y-68900476D02*
X132076247Y-69471904D01*
X141714819Y-123839285D02*
X140714819Y-123839285D01*
X140714819Y-123839285D02*
X140714819Y-123601190D01*
X140714819Y-123601190D02*
X140762438Y-123458333D01*
X140762438Y-123458333D02*
X140857676Y-123363095D01*
X140857676Y-123363095D02*
X140952914Y-123315476D01*
X140952914Y-123315476D02*
X141143390Y-123267857D01*
X141143390Y-123267857D02*
X141286247Y-123267857D01*
X141286247Y-123267857D02*
X141476723Y-123315476D01*
X141476723Y-123315476D02*
X141571961Y-123363095D01*
X141571961Y-123363095D02*
X141667200Y-123458333D01*
X141667200Y-123458333D02*
X141714819Y-123601190D01*
X141714819Y-123601190D02*
X141714819Y-123839285D01*
X141714819Y-122315476D02*
X141714819Y-122886904D01*
X141714819Y-122601190D02*
X140714819Y-122601190D01*
X140714819Y-122601190D02*
X140857676Y-122696428D01*
X140857676Y-122696428D02*
X140952914Y-122791666D01*
X140952914Y-122791666D02*
X141000533Y-122886904D01*
X141714819Y-121839285D02*
X141714819Y-121648809D01*
X141714819Y-121648809D02*
X141667200Y-121553571D01*
X141667200Y-121553571D02*
X141619580Y-121505952D01*
X141619580Y-121505952D02*
X141476723Y-121410714D01*
X141476723Y-121410714D02*
X141286247Y-121363095D01*
X141286247Y-121363095D02*
X140905295Y-121363095D01*
X140905295Y-121363095D02*
X140810057Y-121410714D01*
X140810057Y-121410714D02*
X140762438Y-121458333D01*
X140762438Y-121458333D02*
X140714819Y-121553571D01*
X140714819Y-121553571D02*
X140714819Y-121744047D01*
X140714819Y-121744047D02*
X140762438Y-121839285D01*
X140762438Y-121839285D02*
X140810057Y-121886904D01*
X140810057Y-121886904D02*
X140905295Y-121934523D01*
X140905295Y-121934523D02*
X141143390Y-121934523D01*
X141143390Y-121934523D02*
X141238628Y-121886904D01*
X141238628Y-121886904D02*
X141286247Y-121839285D01*
X141286247Y-121839285D02*
X141333866Y-121744047D01*
X141333866Y-121744047D02*
X141333866Y-121553571D01*
X141333866Y-121553571D02*
X141286247Y-121458333D01*
X141286247Y-121458333D02*
X141238628Y-121410714D01*
X141238628Y-121410714D02*
X141143390Y-121363095D01*
X142034819Y-126696904D02*
X141034819Y-126696904D01*
X142034819Y-126125476D02*
X141463390Y-126554047D01*
X141034819Y-126125476D02*
X141606247Y-126696904D01*
X161105667Y-76087200D02*
X161248524Y-76134819D01*
X161248524Y-76134819D02*
X161486619Y-76134819D01*
X161486619Y-76134819D02*
X161581857Y-76087200D01*
X161581857Y-76087200D02*
X161629476Y-76039580D01*
X161629476Y-76039580D02*
X161677095Y-75944342D01*
X161677095Y-75944342D02*
X161677095Y-75849104D01*
X161677095Y-75849104D02*
X161629476Y-75753866D01*
X161629476Y-75753866D02*
X161581857Y-75706247D01*
X161581857Y-75706247D02*
X161486619Y-75658628D01*
X161486619Y-75658628D02*
X161296143Y-75611009D01*
X161296143Y-75611009D02*
X161200905Y-75563390D01*
X161200905Y-75563390D02*
X161153286Y-75515771D01*
X161153286Y-75515771D02*
X161105667Y-75420533D01*
X161105667Y-75420533D02*
X161105667Y-75325295D01*
X161105667Y-75325295D02*
X161153286Y-75230057D01*
X161153286Y-75230057D02*
X161200905Y-75182438D01*
X161200905Y-75182438D02*
X161296143Y-75134819D01*
X161296143Y-75134819D02*
X161534238Y-75134819D01*
X161534238Y-75134819D02*
X161677095Y-75182438D01*
X162010429Y-75134819D02*
X162248524Y-76134819D01*
X162248524Y-76134819D02*
X162439000Y-75420533D01*
X162439000Y-75420533D02*
X162629476Y-76134819D01*
X162629476Y-76134819D02*
X162867572Y-75134819D01*
X163296143Y-76134819D02*
X163486619Y-76134819D01*
X163486619Y-76134819D02*
X163581857Y-76087200D01*
X163581857Y-76087200D02*
X163629476Y-76039580D01*
X163629476Y-76039580D02*
X163724714Y-75896723D01*
X163724714Y-75896723D02*
X163772333Y-75706247D01*
X163772333Y-75706247D02*
X163772333Y-75325295D01*
X163772333Y-75325295D02*
X163724714Y-75230057D01*
X163724714Y-75230057D02*
X163677095Y-75182438D01*
X163677095Y-75182438D02*
X163581857Y-75134819D01*
X163581857Y-75134819D02*
X163391381Y-75134819D01*
X163391381Y-75134819D02*
X163296143Y-75182438D01*
X163296143Y-75182438D02*
X163248524Y-75230057D01*
X163248524Y-75230057D02*
X163200905Y-75325295D01*
X163200905Y-75325295D02*
X163200905Y-75563390D01*
X163200905Y-75563390D02*
X163248524Y-75658628D01*
X163248524Y-75658628D02*
X163296143Y-75706247D01*
X163296143Y-75706247D02*
X163391381Y-75753866D01*
X163391381Y-75753866D02*
X163581857Y-75753866D01*
X163581857Y-75753866D02*
X163677095Y-75706247D01*
X163677095Y-75706247D02*
X163724714Y-75658628D01*
X163724714Y-75658628D02*
X163772333Y-75563390D01*
X141579476Y-76087200D02*
X141722333Y-76134819D01*
X141722333Y-76134819D02*
X141960428Y-76134819D01*
X141960428Y-76134819D02*
X142055666Y-76087200D01*
X142055666Y-76087200D02*
X142103285Y-76039580D01*
X142103285Y-76039580D02*
X142150904Y-75944342D01*
X142150904Y-75944342D02*
X142150904Y-75849104D01*
X142150904Y-75849104D02*
X142103285Y-75753866D01*
X142103285Y-75753866D02*
X142055666Y-75706247D01*
X142055666Y-75706247D02*
X141960428Y-75658628D01*
X141960428Y-75658628D02*
X141769952Y-75611009D01*
X141769952Y-75611009D02*
X141674714Y-75563390D01*
X141674714Y-75563390D02*
X141627095Y-75515771D01*
X141627095Y-75515771D02*
X141579476Y-75420533D01*
X141579476Y-75420533D02*
X141579476Y-75325295D01*
X141579476Y-75325295D02*
X141627095Y-75230057D01*
X141627095Y-75230057D02*
X141674714Y-75182438D01*
X141674714Y-75182438D02*
X141769952Y-75134819D01*
X141769952Y-75134819D02*
X142008047Y-75134819D01*
X142008047Y-75134819D02*
X142150904Y-75182438D01*
X142484238Y-75134819D02*
X142722333Y-76134819D01*
X142722333Y-76134819D02*
X142912809Y-75420533D01*
X142912809Y-75420533D02*
X143103285Y-76134819D01*
X143103285Y-76134819D02*
X143341381Y-75134819D01*
X144246142Y-76134819D02*
X143674714Y-76134819D01*
X143960428Y-76134819D02*
X143960428Y-75134819D01*
X143960428Y-75134819D02*
X143865190Y-75277676D01*
X143865190Y-75277676D02*
X143769952Y-75372914D01*
X143769952Y-75372914D02*
X143674714Y-75420533D01*
X144865190Y-75134819D02*
X144960428Y-75134819D01*
X144960428Y-75134819D02*
X145055666Y-75182438D01*
X145055666Y-75182438D02*
X145103285Y-75230057D01*
X145103285Y-75230057D02*
X145150904Y-75325295D01*
X145150904Y-75325295D02*
X145198523Y-75515771D01*
X145198523Y-75515771D02*
X145198523Y-75753866D01*
X145198523Y-75753866D02*
X145150904Y-75944342D01*
X145150904Y-75944342D02*
X145103285Y-76039580D01*
X145103285Y-76039580D02*
X145055666Y-76087200D01*
X145055666Y-76087200D02*
X144960428Y-76134819D01*
X144960428Y-76134819D02*
X144865190Y-76134819D01*
X144865190Y-76134819D02*
X144769952Y-76087200D01*
X144769952Y-76087200D02*
X144722333Y-76039580D01*
X144722333Y-76039580D02*
X144674714Y-75944342D01*
X144674714Y-75944342D02*
X144627095Y-75753866D01*
X144627095Y-75753866D02*
X144627095Y-75515771D01*
X144627095Y-75515771D02*
X144674714Y-75325295D01*
X144674714Y-75325295D02*
X144722333Y-75230057D01*
X144722333Y-75230057D02*
X144769952Y-75182438D01*
X144769952Y-75182438D02*
X144865190Y-75134819D01*
X132184819Y-85664285D02*
X131184819Y-85664285D01*
X131184819Y-85664285D02*
X131184819Y-85426190D01*
X131184819Y-85426190D02*
X131232438Y-85283333D01*
X131232438Y-85283333D02*
X131327676Y-85188095D01*
X131327676Y-85188095D02*
X131422914Y-85140476D01*
X131422914Y-85140476D02*
X131613390Y-85092857D01*
X131613390Y-85092857D02*
X131756247Y-85092857D01*
X131756247Y-85092857D02*
X131946723Y-85140476D01*
X131946723Y-85140476D02*
X132041961Y-85188095D01*
X132041961Y-85188095D02*
X132137200Y-85283333D01*
X132137200Y-85283333D02*
X132184819Y-85426190D01*
X132184819Y-85426190D02*
X132184819Y-85664285D01*
X132184819Y-84140476D02*
X132184819Y-84711904D01*
X132184819Y-84426190D02*
X131184819Y-84426190D01*
X131184819Y-84426190D02*
X131327676Y-84521428D01*
X131327676Y-84521428D02*
X131422914Y-84616666D01*
X131422914Y-84616666D02*
X131470533Y-84711904D01*
X132184819Y-83188095D02*
X132184819Y-83759523D01*
X132184819Y-83473809D02*
X131184819Y-83473809D01*
X131184819Y-83473809D02*
X131327676Y-83569047D01*
X131327676Y-83569047D02*
X131422914Y-83664285D01*
X131422914Y-83664285D02*
X131470533Y-83759523D01*
X132504819Y-88521904D02*
X131504819Y-88521904D01*
X132504819Y-87950476D02*
X131933390Y-88379047D01*
X131504819Y-87950476D02*
X132076247Y-88521904D01*
X160629476Y-95137200D02*
X160772333Y-95184819D01*
X160772333Y-95184819D02*
X161010428Y-95184819D01*
X161010428Y-95184819D02*
X161105666Y-95137200D01*
X161105666Y-95137200D02*
X161153285Y-95089580D01*
X161153285Y-95089580D02*
X161200904Y-94994342D01*
X161200904Y-94994342D02*
X161200904Y-94899104D01*
X161200904Y-94899104D02*
X161153285Y-94803866D01*
X161153285Y-94803866D02*
X161105666Y-94756247D01*
X161105666Y-94756247D02*
X161010428Y-94708628D01*
X161010428Y-94708628D02*
X160819952Y-94661009D01*
X160819952Y-94661009D02*
X160724714Y-94613390D01*
X160724714Y-94613390D02*
X160677095Y-94565771D01*
X160677095Y-94565771D02*
X160629476Y-94470533D01*
X160629476Y-94470533D02*
X160629476Y-94375295D01*
X160629476Y-94375295D02*
X160677095Y-94280057D01*
X160677095Y-94280057D02*
X160724714Y-94232438D01*
X160724714Y-94232438D02*
X160819952Y-94184819D01*
X160819952Y-94184819D02*
X161058047Y-94184819D01*
X161058047Y-94184819D02*
X161200904Y-94232438D01*
X161534238Y-94184819D02*
X161772333Y-95184819D01*
X161772333Y-95184819D02*
X161962809Y-94470533D01*
X161962809Y-94470533D02*
X162153285Y-95184819D01*
X162153285Y-95184819D02*
X162391381Y-94184819D01*
X163296142Y-95184819D02*
X162724714Y-95184819D01*
X163010428Y-95184819D02*
X163010428Y-94184819D01*
X163010428Y-94184819D02*
X162915190Y-94327676D01*
X162915190Y-94327676D02*
X162819952Y-94422914D01*
X162819952Y-94422914D02*
X162724714Y-94470533D01*
X164200904Y-94184819D02*
X163724714Y-94184819D01*
X163724714Y-94184819D02*
X163677095Y-94661009D01*
X163677095Y-94661009D02*
X163724714Y-94613390D01*
X163724714Y-94613390D02*
X163819952Y-94565771D01*
X163819952Y-94565771D02*
X164058047Y-94565771D01*
X164058047Y-94565771D02*
X164153285Y-94613390D01*
X164153285Y-94613390D02*
X164200904Y-94661009D01*
X164200904Y-94661009D02*
X164248523Y-94756247D01*
X164248523Y-94756247D02*
X164248523Y-94994342D01*
X164248523Y-94994342D02*
X164200904Y-95089580D01*
X164200904Y-95089580D02*
X164153285Y-95137200D01*
X164153285Y-95137200D02*
X164058047Y-95184819D01*
X164058047Y-95184819D02*
X163819952Y-95184819D01*
X163819952Y-95184819D02*
X163724714Y-95137200D01*
X163724714Y-95137200D02*
X163677095Y-95089580D01*
X151234819Y-66138094D02*
X150234819Y-66138094D01*
X150234819Y-66138094D02*
X150234819Y-65899999D01*
X150234819Y-65899999D02*
X150282438Y-65757142D01*
X150282438Y-65757142D02*
X150377676Y-65661904D01*
X150377676Y-65661904D02*
X150472914Y-65614285D01*
X150472914Y-65614285D02*
X150663390Y-65566666D01*
X150663390Y-65566666D02*
X150806247Y-65566666D01*
X150806247Y-65566666D02*
X150996723Y-65614285D01*
X150996723Y-65614285D02*
X151091961Y-65661904D01*
X151091961Y-65661904D02*
X151187200Y-65757142D01*
X151187200Y-65757142D02*
X151234819Y-65899999D01*
X151234819Y-65899999D02*
X151234819Y-66138094D01*
X150568152Y-64709523D02*
X151234819Y-64709523D01*
X150187200Y-64947618D02*
X150901485Y-65185713D01*
X150901485Y-65185713D02*
X150901485Y-64566666D01*
X151554819Y-69471904D02*
X150554819Y-69471904D01*
X151554819Y-68900476D02*
X150983390Y-69329047D01*
X150554819Y-68900476D02*
X151126247Y-69471904D01*
X123005667Y-57037200D02*
X123148524Y-57084819D01*
X123148524Y-57084819D02*
X123386619Y-57084819D01*
X123386619Y-57084819D02*
X123481857Y-57037200D01*
X123481857Y-57037200D02*
X123529476Y-56989580D01*
X123529476Y-56989580D02*
X123577095Y-56894342D01*
X123577095Y-56894342D02*
X123577095Y-56799104D01*
X123577095Y-56799104D02*
X123529476Y-56703866D01*
X123529476Y-56703866D02*
X123481857Y-56656247D01*
X123481857Y-56656247D02*
X123386619Y-56608628D01*
X123386619Y-56608628D02*
X123196143Y-56561009D01*
X123196143Y-56561009D02*
X123100905Y-56513390D01*
X123100905Y-56513390D02*
X123053286Y-56465771D01*
X123053286Y-56465771D02*
X123005667Y-56370533D01*
X123005667Y-56370533D02*
X123005667Y-56275295D01*
X123005667Y-56275295D02*
X123053286Y-56180057D01*
X123053286Y-56180057D02*
X123100905Y-56132438D01*
X123100905Y-56132438D02*
X123196143Y-56084819D01*
X123196143Y-56084819D02*
X123434238Y-56084819D01*
X123434238Y-56084819D02*
X123577095Y-56132438D01*
X123910429Y-56084819D02*
X124148524Y-57084819D01*
X124148524Y-57084819D02*
X124339000Y-56370533D01*
X124339000Y-56370533D02*
X124529476Y-57084819D01*
X124529476Y-57084819D02*
X124767572Y-56084819D01*
X125624714Y-56084819D02*
X125148524Y-56084819D01*
X125148524Y-56084819D02*
X125100905Y-56561009D01*
X125100905Y-56561009D02*
X125148524Y-56513390D01*
X125148524Y-56513390D02*
X125243762Y-56465771D01*
X125243762Y-56465771D02*
X125481857Y-56465771D01*
X125481857Y-56465771D02*
X125577095Y-56513390D01*
X125577095Y-56513390D02*
X125624714Y-56561009D01*
X125624714Y-56561009D02*
X125672333Y-56656247D01*
X125672333Y-56656247D02*
X125672333Y-56894342D01*
X125672333Y-56894342D02*
X125624714Y-56989580D01*
X125624714Y-56989580D02*
X125577095Y-57037200D01*
X125577095Y-57037200D02*
X125481857Y-57084819D01*
X125481857Y-57084819D02*
X125243762Y-57084819D01*
X125243762Y-57084819D02*
X125148524Y-57037200D01*
X125148524Y-57037200D02*
X125100905Y-56989580D01*
D11*
X83338095Y-57027419D02*
X83338095Y-57836942D01*
X83338095Y-57836942D02*
X83385714Y-57932180D01*
X83385714Y-57932180D02*
X83433333Y-57979800D01*
X83433333Y-57979800D02*
X83528571Y-58027419D01*
X83528571Y-58027419D02*
X83719047Y-58027419D01*
X83719047Y-58027419D02*
X83814285Y-57979800D01*
X83814285Y-57979800D02*
X83861904Y-57932180D01*
X83861904Y-57932180D02*
X83909523Y-57836942D01*
X83909523Y-57836942D02*
X83909523Y-57027419D01*
X84909523Y-58027419D02*
X84338095Y-58027419D01*
X84623809Y-58027419D02*
X84623809Y-57027419D01*
X84623809Y-57027419D02*
X84528571Y-57170276D01*
X84528571Y-57170276D02*
X84433333Y-57265514D01*
X84433333Y-57265514D02*
X84338095Y-57313133D01*
X77927693Y-40142419D02*
X77356265Y-40142419D01*
X77641979Y-40142419D02*
X77641979Y-39142419D01*
X77641979Y-39142419D02*
X77546741Y-39285276D01*
X77546741Y-39285276D02*
X77451503Y-39380514D01*
X77451503Y-39380514D02*
X77356265Y-39428133D01*
D10*
X208384819Y-85188094D02*
X207384819Y-85188094D01*
X207384819Y-85188094D02*
X207384819Y-84949999D01*
X207384819Y-84949999D02*
X207432438Y-84807142D01*
X207432438Y-84807142D02*
X207527676Y-84711904D01*
X207527676Y-84711904D02*
X207622914Y-84664285D01*
X207622914Y-84664285D02*
X207813390Y-84616666D01*
X207813390Y-84616666D02*
X207956247Y-84616666D01*
X207956247Y-84616666D02*
X208146723Y-84664285D01*
X208146723Y-84664285D02*
X208241961Y-84711904D01*
X208241961Y-84711904D02*
X208337200Y-84807142D01*
X208337200Y-84807142D02*
X208384819Y-84949999D01*
X208384819Y-84949999D02*
X208384819Y-85188094D01*
X207384819Y-84283332D02*
X207384819Y-83616666D01*
X207384819Y-83616666D02*
X208384819Y-84045237D01*
X208704819Y-88521904D02*
X207704819Y-88521904D01*
X208704819Y-87950476D02*
X208133390Y-88379047D01*
X207704819Y-87950476D02*
X208276247Y-88521904D01*
X198729476Y-95137200D02*
X198872333Y-95184819D01*
X198872333Y-95184819D02*
X199110428Y-95184819D01*
X199110428Y-95184819D02*
X199205666Y-95137200D01*
X199205666Y-95137200D02*
X199253285Y-95089580D01*
X199253285Y-95089580D02*
X199300904Y-94994342D01*
X199300904Y-94994342D02*
X199300904Y-94899104D01*
X199300904Y-94899104D02*
X199253285Y-94803866D01*
X199253285Y-94803866D02*
X199205666Y-94756247D01*
X199205666Y-94756247D02*
X199110428Y-94708628D01*
X199110428Y-94708628D02*
X198919952Y-94661009D01*
X198919952Y-94661009D02*
X198824714Y-94613390D01*
X198824714Y-94613390D02*
X198777095Y-94565771D01*
X198777095Y-94565771D02*
X198729476Y-94470533D01*
X198729476Y-94470533D02*
X198729476Y-94375295D01*
X198729476Y-94375295D02*
X198777095Y-94280057D01*
X198777095Y-94280057D02*
X198824714Y-94232438D01*
X198824714Y-94232438D02*
X198919952Y-94184819D01*
X198919952Y-94184819D02*
X199158047Y-94184819D01*
X199158047Y-94184819D02*
X199300904Y-94232438D01*
X199634238Y-94184819D02*
X199872333Y-95184819D01*
X199872333Y-95184819D02*
X200062809Y-94470533D01*
X200062809Y-94470533D02*
X200253285Y-95184819D01*
X200253285Y-95184819D02*
X200491381Y-94184819D01*
X201396142Y-95184819D02*
X200824714Y-95184819D01*
X201110428Y-95184819D02*
X201110428Y-94184819D01*
X201110428Y-94184819D02*
X201015190Y-94327676D01*
X201015190Y-94327676D02*
X200919952Y-94422914D01*
X200919952Y-94422914D02*
X200824714Y-94470533D01*
X201729476Y-94184819D02*
X202348523Y-94184819D01*
X202348523Y-94184819D02*
X202015190Y-94565771D01*
X202015190Y-94565771D02*
X202158047Y-94565771D01*
X202158047Y-94565771D02*
X202253285Y-94613390D01*
X202253285Y-94613390D02*
X202300904Y-94661009D01*
X202300904Y-94661009D02*
X202348523Y-94756247D01*
X202348523Y-94756247D02*
X202348523Y-94994342D01*
X202348523Y-94994342D02*
X202300904Y-95089580D01*
X202300904Y-95089580D02*
X202253285Y-95137200D01*
X202253285Y-95137200D02*
X202158047Y-95184819D01*
X202158047Y-95184819D02*
X201872333Y-95184819D01*
X201872333Y-95184819D02*
X201777095Y-95137200D01*
X201777095Y-95137200D02*
X201729476Y-95089580D01*
X113134819Y-104714285D02*
X112134819Y-104714285D01*
X112134819Y-104714285D02*
X112134819Y-104476190D01*
X112134819Y-104476190D02*
X112182438Y-104333333D01*
X112182438Y-104333333D02*
X112277676Y-104238095D01*
X112277676Y-104238095D02*
X112372914Y-104190476D01*
X112372914Y-104190476D02*
X112563390Y-104142857D01*
X112563390Y-104142857D02*
X112706247Y-104142857D01*
X112706247Y-104142857D02*
X112896723Y-104190476D01*
X112896723Y-104190476D02*
X112991961Y-104238095D01*
X112991961Y-104238095D02*
X113087200Y-104333333D01*
X113087200Y-104333333D02*
X113134819Y-104476190D01*
X113134819Y-104476190D02*
X113134819Y-104714285D01*
X113134819Y-103190476D02*
X113134819Y-103761904D01*
X113134819Y-103476190D02*
X112134819Y-103476190D01*
X112134819Y-103476190D02*
X112277676Y-103571428D01*
X112277676Y-103571428D02*
X112372914Y-103666666D01*
X112372914Y-103666666D02*
X112420533Y-103761904D01*
X112563390Y-102619047D02*
X112515771Y-102714285D01*
X112515771Y-102714285D02*
X112468152Y-102761904D01*
X112468152Y-102761904D02*
X112372914Y-102809523D01*
X112372914Y-102809523D02*
X112325295Y-102809523D01*
X112325295Y-102809523D02*
X112230057Y-102761904D01*
X112230057Y-102761904D02*
X112182438Y-102714285D01*
X112182438Y-102714285D02*
X112134819Y-102619047D01*
X112134819Y-102619047D02*
X112134819Y-102428571D01*
X112134819Y-102428571D02*
X112182438Y-102333333D01*
X112182438Y-102333333D02*
X112230057Y-102285714D01*
X112230057Y-102285714D02*
X112325295Y-102238095D01*
X112325295Y-102238095D02*
X112372914Y-102238095D01*
X112372914Y-102238095D02*
X112468152Y-102285714D01*
X112468152Y-102285714D02*
X112515771Y-102333333D01*
X112515771Y-102333333D02*
X112563390Y-102428571D01*
X112563390Y-102428571D02*
X112563390Y-102619047D01*
X112563390Y-102619047D02*
X112611009Y-102714285D01*
X112611009Y-102714285D02*
X112658628Y-102761904D01*
X112658628Y-102761904D02*
X112753866Y-102809523D01*
X112753866Y-102809523D02*
X112944342Y-102809523D01*
X112944342Y-102809523D02*
X113039580Y-102761904D01*
X113039580Y-102761904D02*
X113087200Y-102714285D01*
X113087200Y-102714285D02*
X113134819Y-102619047D01*
X113134819Y-102619047D02*
X113134819Y-102428571D01*
X113134819Y-102428571D02*
X113087200Y-102333333D01*
X113087200Y-102333333D02*
X113039580Y-102285714D01*
X113039580Y-102285714D02*
X112944342Y-102238095D01*
X112944342Y-102238095D02*
X112753866Y-102238095D01*
X112753866Y-102238095D02*
X112658628Y-102285714D01*
X112658628Y-102285714D02*
X112611009Y-102333333D01*
X112611009Y-102333333D02*
X112563390Y-102428571D01*
X113454819Y-107571904D02*
X112454819Y-107571904D01*
X113454819Y-107000476D02*
X112883390Y-107429047D01*
X112454819Y-107000476D02*
X113026247Y-107571904D01*
X170284819Y-104714285D02*
X169284819Y-104714285D01*
X169284819Y-104714285D02*
X169284819Y-104476190D01*
X169284819Y-104476190D02*
X169332438Y-104333333D01*
X169332438Y-104333333D02*
X169427676Y-104238095D01*
X169427676Y-104238095D02*
X169522914Y-104190476D01*
X169522914Y-104190476D02*
X169713390Y-104142857D01*
X169713390Y-104142857D02*
X169856247Y-104142857D01*
X169856247Y-104142857D02*
X170046723Y-104190476D01*
X170046723Y-104190476D02*
X170141961Y-104238095D01*
X170141961Y-104238095D02*
X170237200Y-104333333D01*
X170237200Y-104333333D02*
X170284819Y-104476190D01*
X170284819Y-104476190D02*
X170284819Y-104714285D01*
X170284819Y-103190476D02*
X170284819Y-103761904D01*
X170284819Y-103476190D02*
X169284819Y-103476190D01*
X169284819Y-103476190D02*
X169427676Y-103571428D01*
X169427676Y-103571428D02*
X169522914Y-103666666D01*
X169522914Y-103666666D02*
X169570533Y-103761904D01*
X169284819Y-102285714D02*
X169284819Y-102761904D01*
X169284819Y-102761904D02*
X169761009Y-102809523D01*
X169761009Y-102809523D02*
X169713390Y-102761904D01*
X169713390Y-102761904D02*
X169665771Y-102666666D01*
X169665771Y-102666666D02*
X169665771Y-102428571D01*
X169665771Y-102428571D02*
X169713390Y-102333333D01*
X169713390Y-102333333D02*
X169761009Y-102285714D01*
X169761009Y-102285714D02*
X169856247Y-102238095D01*
X169856247Y-102238095D02*
X170094342Y-102238095D01*
X170094342Y-102238095D02*
X170189580Y-102285714D01*
X170189580Y-102285714D02*
X170237200Y-102333333D01*
X170237200Y-102333333D02*
X170284819Y-102428571D01*
X170284819Y-102428571D02*
X170284819Y-102666666D01*
X170284819Y-102666666D02*
X170237200Y-102761904D01*
X170237200Y-102761904D02*
X170189580Y-102809523D01*
X170604819Y-107571904D02*
X169604819Y-107571904D01*
X170604819Y-107000476D02*
X170033390Y-107429047D01*
X169604819Y-107000476D02*
X170176247Y-107571904D01*
X174390476Y-53957200D02*
X174533333Y-54004819D01*
X174533333Y-54004819D02*
X174771428Y-54004819D01*
X174771428Y-54004819D02*
X174866666Y-53957200D01*
X174866666Y-53957200D02*
X174914285Y-53909580D01*
X174914285Y-53909580D02*
X174961904Y-53814342D01*
X174961904Y-53814342D02*
X174961904Y-53719104D01*
X174961904Y-53719104D02*
X174914285Y-53623866D01*
X174914285Y-53623866D02*
X174866666Y-53576247D01*
X174866666Y-53576247D02*
X174771428Y-53528628D01*
X174771428Y-53528628D02*
X174580952Y-53481009D01*
X174580952Y-53481009D02*
X174485714Y-53433390D01*
X174485714Y-53433390D02*
X174438095Y-53385771D01*
X174438095Y-53385771D02*
X174390476Y-53290533D01*
X174390476Y-53290533D02*
X174390476Y-53195295D01*
X174390476Y-53195295D02*
X174438095Y-53100057D01*
X174438095Y-53100057D02*
X174485714Y-53052438D01*
X174485714Y-53052438D02*
X174580952Y-53004819D01*
X174580952Y-53004819D02*
X174819047Y-53004819D01*
X174819047Y-53004819D02*
X174961904Y-53052438D01*
X175295238Y-53004819D02*
X175533333Y-54004819D01*
X175533333Y-54004819D02*
X175723809Y-53290533D01*
X175723809Y-53290533D02*
X175914285Y-54004819D01*
X175914285Y-54004819D02*
X176152381Y-53004819D01*
X176485714Y-53100057D02*
X176533333Y-53052438D01*
X176533333Y-53052438D02*
X176628571Y-53004819D01*
X176628571Y-53004819D02*
X176866666Y-53004819D01*
X176866666Y-53004819D02*
X176961904Y-53052438D01*
X176961904Y-53052438D02*
X177009523Y-53100057D01*
X177009523Y-53100057D02*
X177057142Y-53195295D01*
X177057142Y-53195295D02*
X177057142Y-53290533D01*
X177057142Y-53290533D02*
X177009523Y-53433390D01*
X177009523Y-53433390D02*
X176438095Y-54004819D01*
X176438095Y-54004819D02*
X177057142Y-54004819D01*
X177914285Y-53338152D02*
X177914285Y-54004819D01*
X177676190Y-52957200D02*
X177438095Y-53671485D01*
X177438095Y-53671485D02*
X178057142Y-53671485D01*
X180155667Y-57037200D02*
X180298524Y-57084819D01*
X180298524Y-57084819D02*
X180536619Y-57084819D01*
X180536619Y-57084819D02*
X180631857Y-57037200D01*
X180631857Y-57037200D02*
X180679476Y-56989580D01*
X180679476Y-56989580D02*
X180727095Y-56894342D01*
X180727095Y-56894342D02*
X180727095Y-56799104D01*
X180727095Y-56799104D02*
X180679476Y-56703866D01*
X180679476Y-56703866D02*
X180631857Y-56656247D01*
X180631857Y-56656247D02*
X180536619Y-56608628D01*
X180536619Y-56608628D02*
X180346143Y-56561009D01*
X180346143Y-56561009D02*
X180250905Y-56513390D01*
X180250905Y-56513390D02*
X180203286Y-56465771D01*
X180203286Y-56465771D02*
X180155667Y-56370533D01*
X180155667Y-56370533D02*
X180155667Y-56275295D01*
X180155667Y-56275295D02*
X180203286Y-56180057D01*
X180203286Y-56180057D02*
X180250905Y-56132438D01*
X180250905Y-56132438D02*
X180346143Y-56084819D01*
X180346143Y-56084819D02*
X180584238Y-56084819D01*
X180584238Y-56084819D02*
X180727095Y-56132438D01*
X181060429Y-56084819D02*
X181298524Y-57084819D01*
X181298524Y-57084819D02*
X181489000Y-56370533D01*
X181489000Y-56370533D02*
X181679476Y-57084819D01*
X181679476Y-57084819D02*
X181917572Y-56084819D01*
X182250905Y-56180057D02*
X182298524Y-56132438D01*
X182298524Y-56132438D02*
X182393762Y-56084819D01*
X182393762Y-56084819D02*
X182631857Y-56084819D01*
X182631857Y-56084819D02*
X182727095Y-56132438D01*
X182727095Y-56132438D02*
X182774714Y-56180057D01*
X182774714Y-56180057D02*
X182822333Y-56275295D01*
X182822333Y-56275295D02*
X182822333Y-56370533D01*
X182822333Y-56370533D02*
X182774714Y-56513390D01*
X182774714Y-56513390D02*
X182203286Y-57084819D01*
X182203286Y-57084819D02*
X182822333Y-57084819D01*
X99196619Y-45833333D02*
X99910904Y-45833333D01*
X99910904Y-45833333D02*
X100053761Y-45880952D01*
X100053761Y-45880952D02*
X100149000Y-45976190D01*
X100149000Y-45976190D02*
X100196619Y-46119047D01*
X100196619Y-46119047D02*
X100196619Y-46214285D01*
X99529952Y-44928571D02*
X100196619Y-44928571D01*
X99149000Y-45166666D02*
X99863285Y-45404761D01*
X99863285Y-45404761D02*
X99863285Y-44785714D01*
X136140476Y-53957200D02*
X136283333Y-54004819D01*
X136283333Y-54004819D02*
X136521428Y-54004819D01*
X136521428Y-54004819D02*
X136616666Y-53957200D01*
X136616666Y-53957200D02*
X136664285Y-53909580D01*
X136664285Y-53909580D02*
X136711904Y-53814342D01*
X136711904Y-53814342D02*
X136711904Y-53719104D01*
X136711904Y-53719104D02*
X136664285Y-53623866D01*
X136664285Y-53623866D02*
X136616666Y-53576247D01*
X136616666Y-53576247D02*
X136521428Y-53528628D01*
X136521428Y-53528628D02*
X136330952Y-53481009D01*
X136330952Y-53481009D02*
X136235714Y-53433390D01*
X136235714Y-53433390D02*
X136188095Y-53385771D01*
X136188095Y-53385771D02*
X136140476Y-53290533D01*
X136140476Y-53290533D02*
X136140476Y-53195295D01*
X136140476Y-53195295D02*
X136188095Y-53100057D01*
X136188095Y-53100057D02*
X136235714Y-53052438D01*
X136235714Y-53052438D02*
X136330952Y-53004819D01*
X136330952Y-53004819D02*
X136569047Y-53004819D01*
X136569047Y-53004819D02*
X136711904Y-53052438D01*
X137045238Y-53004819D02*
X137283333Y-54004819D01*
X137283333Y-54004819D02*
X137473809Y-53290533D01*
X137473809Y-53290533D02*
X137664285Y-54004819D01*
X137664285Y-54004819D02*
X137902381Y-53004819D01*
X138235714Y-53100057D02*
X138283333Y-53052438D01*
X138283333Y-53052438D02*
X138378571Y-53004819D01*
X138378571Y-53004819D02*
X138616666Y-53004819D01*
X138616666Y-53004819D02*
X138711904Y-53052438D01*
X138711904Y-53052438D02*
X138759523Y-53100057D01*
X138759523Y-53100057D02*
X138807142Y-53195295D01*
X138807142Y-53195295D02*
X138807142Y-53290533D01*
X138807142Y-53290533D02*
X138759523Y-53433390D01*
X138759523Y-53433390D02*
X138188095Y-54004819D01*
X138188095Y-54004819D02*
X138807142Y-54004819D01*
X139664285Y-53004819D02*
X139473809Y-53004819D01*
X139473809Y-53004819D02*
X139378571Y-53052438D01*
X139378571Y-53052438D02*
X139330952Y-53100057D01*
X139330952Y-53100057D02*
X139235714Y-53242914D01*
X139235714Y-53242914D02*
X139188095Y-53433390D01*
X139188095Y-53433390D02*
X139188095Y-53814342D01*
X139188095Y-53814342D02*
X139235714Y-53909580D01*
X139235714Y-53909580D02*
X139283333Y-53957200D01*
X139283333Y-53957200D02*
X139378571Y-54004819D01*
X139378571Y-54004819D02*
X139569047Y-54004819D01*
X139569047Y-54004819D02*
X139664285Y-53957200D01*
X139664285Y-53957200D02*
X139711904Y-53909580D01*
X139711904Y-53909580D02*
X139759523Y-53814342D01*
X139759523Y-53814342D02*
X139759523Y-53576247D01*
X139759523Y-53576247D02*
X139711904Y-53481009D01*
X139711904Y-53481009D02*
X139664285Y-53433390D01*
X139664285Y-53433390D02*
X139569047Y-53385771D01*
X139569047Y-53385771D02*
X139378571Y-53385771D01*
X139378571Y-53385771D02*
X139283333Y-53433390D01*
X139283333Y-53433390D02*
X139235714Y-53481009D01*
X139235714Y-53481009D02*
X139188095Y-53576247D01*
X189334819Y-85188094D02*
X188334819Y-85188094D01*
X188334819Y-85188094D02*
X188334819Y-84949999D01*
X188334819Y-84949999D02*
X188382438Y-84807142D01*
X188382438Y-84807142D02*
X188477676Y-84711904D01*
X188477676Y-84711904D02*
X188572914Y-84664285D01*
X188572914Y-84664285D02*
X188763390Y-84616666D01*
X188763390Y-84616666D02*
X188906247Y-84616666D01*
X188906247Y-84616666D02*
X189096723Y-84664285D01*
X189096723Y-84664285D02*
X189191961Y-84711904D01*
X189191961Y-84711904D02*
X189287200Y-84807142D01*
X189287200Y-84807142D02*
X189334819Y-84949999D01*
X189334819Y-84949999D02*
X189334819Y-85188094D01*
X188763390Y-84045237D02*
X188715771Y-84140475D01*
X188715771Y-84140475D02*
X188668152Y-84188094D01*
X188668152Y-84188094D02*
X188572914Y-84235713D01*
X188572914Y-84235713D02*
X188525295Y-84235713D01*
X188525295Y-84235713D02*
X188430057Y-84188094D01*
X188430057Y-84188094D02*
X188382438Y-84140475D01*
X188382438Y-84140475D02*
X188334819Y-84045237D01*
X188334819Y-84045237D02*
X188334819Y-83854761D01*
X188334819Y-83854761D02*
X188382438Y-83759523D01*
X188382438Y-83759523D02*
X188430057Y-83711904D01*
X188430057Y-83711904D02*
X188525295Y-83664285D01*
X188525295Y-83664285D02*
X188572914Y-83664285D01*
X188572914Y-83664285D02*
X188668152Y-83711904D01*
X188668152Y-83711904D02*
X188715771Y-83759523D01*
X188715771Y-83759523D02*
X188763390Y-83854761D01*
X188763390Y-83854761D02*
X188763390Y-84045237D01*
X188763390Y-84045237D02*
X188811009Y-84140475D01*
X188811009Y-84140475D02*
X188858628Y-84188094D01*
X188858628Y-84188094D02*
X188953866Y-84235713D01*
X188953866Y-84235713D02*
X189144342Y-84235713D01*
X189144342Y-84235713D02*
X189239580Y-84188094D01*
X189239580Y-84188094D02*
X189287200Y-84140475D01*
X189287200Y-84140475D02*
X189334819Y-84045237D01*
X189334819Y-84045237D02*
X189334819Y-83854761D01*
X189334819Y-83854761D02*
X189287200Y-83759523D01*
X189287200Y-83759523D02*
X189239580Y-83711904D01*
X189239580Y-83711904D02*
X189144342Y-83664285D01*
X189144342Y-83664285D02*
X188953866Y-83664285D01*
X188953866Y-83664285D02*
X188858628Y-83711904D01*
X188858628Y-83711904D02*
X188811009Y-83759523D01*
X188811009Y-83759523D02*
X188763390Y-83854761D01*
X189654819Y-88521904D02*
X188654819Y-88521904D01*
X189654819Y-87950476D02*
X189083390Y-88379047D01*
X188654819Y-87950476D02*
X189226247Y-88521904D01*
X117390476Y-53957200D02*
X117533333Y-54004819D01*
X117533333Y-54004819D02*
X117771428Y-54004819D01*
X117771428Y-54004819D02*
X117866666Y-53957200D01*
X117866666Y-53957200D02*
X117914285Y-53909580D01*
X117914285Y-53909580D02*
X117961904Y-53814342D01*
X117961904Y-53814342D02*
X117961904Y-53719104D01*
X117961904Y-53719104D02*
X117914285Y-53623866D01*
X117914285Y-53623866D02*
X117866666Y-53576247D01*
X117866666Y-53576247D02*
X117771428Y-53528628D01*
X117771428Y-53528628D02*
X117580952Y-53481009D01*
X117580952Y-53481009D02*
X117485714Y-53433390D01*
X117485714Y-53433390D02*
X117438095Y-53385771D01*
X117438095Y-53385771D02*
X117390476Y-53290533D01*
X117390476Y-53290533D02*
X117390476Y-53195295D01*
X117390476Y-53195295D02*
X117438095Y-53100057D01*
X117438095Y-53100057D02*
X117485714Y-53052438D01*
X117485714Y-53052438D02*
X117580952Y-53004819D01*
X117580952Y-53004819D02*
X117819047Y-53004819D01*
X117819047Y-53004819D02*
X117961904Y-53052438D01*
X118295238Y-53004819D02*
X118533333Y-54004819D01*
X118533333Y-54004819D02*
X118723809Y-53290533D01*
X118723809Y-53290533D02*
X118914285Y-54004819D01*
X118914285Y-54004819D02*
X119152381Y-53004819D01*
X119485714Y-53100057D02*
X119533333Y-53052438D01*
X119533333Y-53052438D02*
X119628571Y-53004819D01*
X119628571Y-53004819D02*
X119866666Y-53004819D01*
X119866666Y-53004819D02*
X119961904Y-53052438D01*
X119961904Y-53052438D02*
X120009523Y-53100057D01*
X120009523Y-53100057D02*
X120057142Y-53195295D01*
X120057142Y-53195295D02*
X120057142Y-53290533D01*
X120057142Y-53290533D02*
X120009523Y-53433390D01*
X120009523Y-53433390D02*
X119438095Y-54004819D01*
X119438095Y-54004819D02*
X120057142Y-54004819D01*
X120390476Y-53004819D02*
X121057142Y-53004819D01*
X121057142Y-53004819D02*
X120628571Y-54004819D01*
X189552819Y-66238094D02*
X188552819Y-66238094D01*
X188552819Y-66238094D02*
X188552819Y-65999999D01*
X188552819Y-65999999D02*
X188600438Y-65857142D01*
X188600438Y-65857142D02*
X188695676Y-65761904D01*
X188695676Y-65761904D02*
X188790914Y-65714285D01*
X188790914Y-65714285D02*
X188981390Y-65666666D01*
X188981390Y-65666666D02*
X189124247Y-65666666D01*
X189124247Y-65666666D02*
X189314723Y-65714285D01*
X189314723Y-65714285D02*
X189409961Y-65761904D01*
X189409961Y-65761904D02*
X189505200Y-65857142D01*
X189505200Y-65857142D02*
X189552819Y-65999999D01*
X189552819Y-65999999D02*
X189552819Y-66238094D01*
X188648057Y-65285713D02*
X188600438Y-65238094D01*
X188600438Y-65238094D02*
X188552819Y-65142856D01*
X188552819Y-65142856D02*
X188552819Y-64904761D01*
X188552819Y-64904761D02*
X188600438Y-64809523D01*
X188600438Y-64809523D02*
X188648057Y-64761904D01*
X188648057Y-64761904D02*
X188743295Y-64714285D01*
X188743295Y-64714285D02*
X188838533Y-64714285D01*
X188838533Y-64714285D02*
X188981390Y-64761904D01*
X188981390Y-64761904D02*
X189552819Y-65333332D01*
X189552819Y-65333332D02*
X189552819Y-64714285D01*
X189703819Y-69571904D02*
X188703819Y-69571904D01*
X189703819Y-69000476D02*
X189132390Y-69429047D01*
X188703819Y-69000476D02*
X189275247Y-69571904D01*
X161105667Y-57037200D02*
X161248524Y-57084819D01*
X161248524Y-57084819D02*
X161486619Y-57084819D01*
X161486619Y-57084819D02*
X161581857Y-57037200D01*
X161581857Y-57037200D02*
X161629476Y-56989580D01*
X161629476Y-56989580D02*
X161677095Y-56894342D01*
X161677095Y-56894342D02*
X161677095Y-56799104D01*
X161677095Y-56799104D02*
X161629476Y-56703866D01*
X161629476Y-56703866D02*
X161581857Y-56656247D01*
X161581857Y-56656247D02*
X161486619Y-56608628D01*
X161486619Y-56608628D02*
X161296143Y-56561009D01*
X161296143Y-56561009D02*
X161200905Y-56513390D01*
X161200905Y-56513390D02*
X161153286Y-56465771D01*
X161153286Y-56465771D02*
X161105667Y-56370533D01*
X161105667Y-56370533D02*
X161105667Y-56275295D01*
X161105667Y-56275295D02*
X161153286Y-56180057D01*
X161153286Y-56180057D02*
X161200905Y-56132438D01*
X161200905Y-56132438D02*
X161296143Y-56084819D01*
X161296143Y-56084819D02*
X161534238Y-56084819D01*
X161534238Y-56084819D02*
X161677095Y-56132438D01*
X162010429Y-56084819D02*
X162248524Y-57084819D01*
X162248524Y-57084819D02*
X162439000Y-56370533D01*
X162439000Y-56370533D02*
X162629476Y-57084819D01*
X162629476Y-57084819D02*
X162867572Y-56084819D01*
X163153286Y-56084819D02*
X163772333Y-56084819D01*
X163772333Y-56084819D02*
X163439000Y-56465771D01*
X163439000Y-56465771D02*
X163581857Y-56465771D01*
X163581857Y-56465771D02*
X163677095Y-56513390D01*
X163677095Y-56513390D02*
X163724714Y-56561009D01*
X163724714Y-56561009D02*
X163772333Y-56656247D01*
X163772333Y-56656247D02*
X163772333Y-56894342D01*
X163772333Y-56894342D02*
X163724714Y-56989580D01*
X163724714Y-56989580D02*
X163677095Y-57037200D01*
X163677095Y-57037200D02*
X163581857Y-57084819D01*
X163581857Y-57084819D02*
X163296143Y-57084819D01*
X163296143Y-57084819D02*
X163200905Y-57037200D01*
X163200905Y-57037200D02*
X163153286Y-56989580D01*
X142055667Y-57037200D02*
X142198524Y-57084819D01*
X142198524Y-57084819D02*
X142436619Y-57084819D01*
X142436619Y-57084819D02*
X142531857Y-57037200D01*
X142531857Y-57037200D02*
X142579476Y-56989580D01*
X142579476Y-56989580D02*
X142627095Y-56894342D01*
X142627095Y-56894342D02*
X142627095Y-56799104D01*
X142627095Y-56799104D02*
X142579476Y-56703866D01*
X142579476Y-56703866D02*
X142531857Y-56656247D01*
X142531857Y-56656247D02*
X142436619Y-56608628D01*
X142436619Y-56608628D02*
X142246143Y-56561009D01*
X142246143Y-56561009D02*
X142150905Y-56513390D01*
X142150905Y-56513390D02*
X142103286Y-56465771D01*
X142103286Y-56465771D02*
X142055667Y-56370533D01*
X142055667Y-56370533D02*
X142055667Y-56275295D01*
X142055667Y-56275295D02*
X142103286Y-56180057D01*
X142103286Y-56180057D02*
X142150905Y-56132438D01*
X142150905Y-56132438D02*
X142246143Y-56084819D01*
X142246143Y-56084819D02*
X142484238Y-56084819D01*
X142484238Y-56084819D02*
X142627095Y-56132438D01*
X142960429Y-56084819D02*
X143198524Y-57084819D01*
X143198524Y-57084819D02*
X143389000Y-56370533D01*
X143389000Y-56370533D02*
X143579476Y-57084819D01*
X143579476Y-57084819D02*
X143817572Y-56084819D01*
X144627095Y-56418152D02*
X144627095Y-57084819D01*
X144389000Y-56037200D02*
X144150905Y-56751485D01*
X144150905Y-56751485D02*
X144769952Y-56751485D01*
X103955667Y-57037200D02*
X104098524Y-57084819D01*
X104098524Y-57084819D02*
X104336619Y-57084819D01*
X104336619Y-57084819D02*
X104431857Y-57037200D01*
X104431857Y-57037200D02*
X104479476Y-56989580D01*
X104479476Y-56989580D02*
X104527095Y-56894342D01*
X104527095Y-56894342D02*
X104527095Y-56799104D01*
X104527095Y-56799104D02*
X104479476Y-56703866D01*
X104479476Y-56703866D02*
X104431857Y-56656247D01*
X104431857Y-56656247D02*
X104336619Y-56608628D01*
X104336619Y-56608628D02*
X104146143Y-56561009D01*
X104146143Y-56561009D02*
X104050905Y-56513390D01*
X104050905Y-56513390D02*
X104003286Y-56465771D01*
X104003286Y-56465771D02*
X103955667Y-56370533D01*
X103955667Y-56370533D02*
X103955667Y-56275295D01*
X103955667Y-56275295D02*
X104003286Y-56180057D01*
X104003286Y-56180057D02*
X104050905Y-56132438D01*
X104050905Y-56132438D02*
X104146143Y-56084819D01*
X104146143Y-56084819D02*
X104384238Y-56084819D01*
X104384238Y-56084819D02*
X104527095Y-56132438D01*
X104860429Y-56084819D02*
X105098524Y-57084819D01*
X105098524Y-57084819D02*
X105289000Y-56370533D01*
X105289000Y-56370533D02*
X105479476Y-57084819D01*
X105479476Y-57084819D02*
X105717572Y-56084819D01*
X106527095Y-56084819D02*
X106336619Y-56084819D01*
X106336619Y-56084819D02*
X106241381Y-56132438D01*
X106241381Y-56132438D02*
X106193762Y-56180057D01*
X106193762Y-56180057D02*
X106098524Y-56322914D01*
X106098524Y-56322914D02*
X106050905Y-56513390D01*
X106050905Y-56513390D02*
X106050905Y-56894342D01*
X106050905Y-56894342D02*
X106098524Y-56989580D01*
X106098524Y-56989580D02*
X106146143Y-57037200D01*
X106146143Y-57037200D02*
X106241381Y-57084819D01*
X106241381Y-57084819D02*
X106431857Y-57084819D01*
X106431857Y-57084819D02*
X106527095Y-57037200D01*
X106527095Y-57037200D02*
X106574714Y-56989580D01*
X106574714Y-56989580D02*
X106622333Y-56894342D01*
X106622333Y-56894342D02*
X106622333Y-56656247D01*
X106622333Y-56656247D02*
X106574714Y-56561009D01*
X106574714Y-56561009D02*
X106527095Y-56513390D01*
X106527095Y-56513390D02*
X106431857Y-56465771D01*
X106431857Y-56465771D02*
X106241381Y-56465771D01*
X106241381Y-56465771D02*
X106146143Y-56513390D01*
X106146143Y-56513390D02*
X106098524Y-56561009D01*
X106098524Y-56561009D02*
X106050905Y-56656247D01*
X180155667Y-76087200D02*
X180298524Y-76134819D01*
X180298524Y-76134819D02*
X180536619Y-76134819D01*
X180536619Y-76134819D02*
X180631857Y-76087200D01*
X180631857Y-76087200D02*
X180679476Y-76039580D01*
X180679476Y-76039580D02*
X180727095Y-75944342D01*
X180727095Y-75944342D02*
X180727095Y-75849104D01*
X180727095Y-75849104D02*
X180679476Y-75753866D01*
X180679476Y-75753866D02*
X180631857Y-75706247D01*
X180631857Y-75706247D02*
X180536619Y-75658628D01*
X180536619Y-75658628D02*
X180346143Y-75611009D01*
X180346143Y-75611009D02*
X180250905Y-75563390D01*
X180250905Y-75563390D02*
X180203286Y-75515771D01*
X180203286Y-75515771D02*
X180155667Y-75420533D01*
X180155667Y-75420533D02*
X180155667Y-75325295D01*
X180155667Y-75325295D02*
X180203286Y-75230057D01*
X180203286Y-75230057D02*
X180250905Y-75182438D01*
X180250905Y-75182438D02*
X180346143Y-75134819D01*
X180346143Y-75134819D02*
X180584238Y-75134819D01*
X180584238Y-75134819D02*
X180727095Y-75182438D01*
X181060429Y-75134819D02*
X181298524Y-76134819D01*
X181298524Y-76134819D02*
X181489000Y-75420533D01*
X181489000Y-75420533D02*
X181679476Y-76134819D01*
X181679476Y-76134819D02*
X181917572Y-75134819D01*
X182441381Y-75563390D02*
X182346143Y-75515771D01*
X182346143Y-75515771D02*
X182298524Y-75468152D01*
X182298524Y-75468152D02*
X182250905Y-75372914D01*
X182250905Y-75372914D02*
X182250905Y-75325295D01*
X182250905Y-75325295D02*
X182298524Y-75230057D01*
X182298524Y-75230057D02*
X182346143Y-75182438D01*
X182346143Y-75182438D02*
X182441381Y-75134819D01*
X182441381Y-75134819D02*
X182631857Y-75134819D01*
X182631857Y-75134819D02*
X182727095Y-75182438D01*
X182727095Y-75182438D02*
X182774714Y-75230057D01*
X182774714Y-75230057D02*
X182822333Y-75325295D01*
X182822333Y-75325295D02*
X182822333Y-75372914D01*
X182822333Y-75372914D02*
X182774714Y-75468152D01*
X182774714Y-75468152D02*
X182727095Y-75515771D01*
X182727095Y-75515771D02*
X182631857Y-75563390D01*
X182631857Y-75563390D02*
X182441381Y-75563390D01*
X182441381Y-75563390D02*
X182346143Y-75611009D01*
X182346143Y-75611009D02*
X182298524Y-75658628D01*
X182298524Y-75658628D02*
X182250905Y-75753866D01*
X182250905Y-75753866D02*
X182250905Y-75944342D01*
X182250905Y-75944342D02*
X182298524Y-76039580D01*
X182298524Y-76039580D02*
X182346143Y-76087200D01*
X182346143Y-76087200D02*
X182441381Y-76134819D01*
X182441381Y-76134819D02*
X182631857Y-76134819D01*
X182631857Y-76134819D02*
X182727095Y-76087200D01*
X182727095Y-76087200D02*
X182774714Y-76039580D01*
X182774714Y-76039580D02*
X182822333Y-75944342D01*
X182822333Y-75944342D02*
X182822333Y-75753866D01*
X182822333Y-75753866D02*
X182774714Y-75658628D01*
X182774714Y-75658628D02*
X182727095Y-75611009D01*
X182727095Y-75611009D02*
X182631857Y-75563390D01*
X93714819Y-143339285D02*
X92714819Y-143339285D01*
X92714819Y-143339285D02*
X92714819Y-143101190D01*
X92714819Y-143101190D02*
X92762438Y-142958333D01*
X92762438Y-142958333D02*
X92857676Y-142863095D01*
X92857676Y-142863095D02*
X92952914Y-142815476D01*
X92952914Y-142815476D02*
X93143390Y-142767857D01*
X93143390Y-142767857D02*
X93286247Y-142767857D01*
X93286247Y-142767857D02*
X93476723Y-142815476D01*
X93476723Y-142815476D02*
X93571961Y-142863095D01*
X93571961Y-142863095D02*
X93667200Y-142958333D01*
X93667200Y-142958333D02*
X93714819Y-143101190D01*
X93714819Y-143101190D02*
X93714819Y-143339285D01*
X92810057Y-142386904D02*
X92762438Y-142339285D01*
X92762438Y-142339285D02*
X92714819Y-142244047D01*
X92714819Y-142244047D02*
X92714819Y-142005952D01*
X92714819Y-142005952D02*
X92762438Y-141910714D01*
X92762438Y-141910714D02*
X92810057Y-141863095D01*
X92810057Y-141863095D02*
X92905295Y-141815476D01*
X92905295Y-141815476D02*
X93000533Y-141815476D01*
X93000533Y-141815476D02*
X93143390Y-141863095D01*
X93143390Y-141863095D02*
X93714819Y-142434523D01*
X93714819Y-142434523D02*
X93714819Y-141815476D01*
X92810057Y-141434523D02*
X92762438Y-141386904D01*
X92762438Y-141386904D02*
X92714819Y-141291666D01*
X92714819Y-141291666D02*
X92714819Y-141053571D01*
X92714819Y-141053571D02*
X92762438Y-140958333D01*
X92762438Y-140958333D02*
X92810057Y-140910714D01*
X92810057Y-140910714D02*
X92905295Y-140863095D01*
X92905295Y-140863095D02*
X93000533Y-140863095D01*
X93000533Y-140863095D02*
X93143390Y-140910714D01*
X93143390Y-140910714D02*
X93714819Y-141482142D01*
X93714819Y-141482142D02*
X93714819Y-140863095D01*
X94034819Y-146196904D02*
X93034819Y-146196904D01*
X94034819Y-145625476D02*
X93463390Y-146054047D01*
X93034819Y-145625476D02*
X93606247Y-146196904D01*
X84169476Y-133957200D02*
X84312333Y-134004819D01*
X84312333Y-134004819D02*
X84550428Y-134004819D01*
X84550428Y-134004819D02*
X84645666Y-133957200D01*
X84645666Y-133957200D02*
X84693285Y-133909580D01*
X84693285Y-133909580D02*
X84740904Y-133814342D01*
X84740904Y-133814342D02*
X84740904Y-133719104D01*
X84740904Y-133719104D02*
X84693285Y-133623866D01*
X84693285Y-133623866D02*
X84645666Y-133576247D01*
X84645666Y-133576247D02*
X84550428Y-133528628D01*
X84550428Y-133528628D02*
X84359952Y-133481009D01*
X84359952Y-133481009D02*
X84264714Y-133433390D01*
X84264714Y-133433390D02*
X84217095Y-133385771D01*
X84217095Y-133385771D02*
X84169476Y-133290533D01*
X84169476Y-133290533D02*
X84169476Y-133195295D01*
X84169476Y-133195295D02*
X84217095Y-133100057D01*
X84217095Y-133100057D02*
X84264714Y-133052438D01*
X84264714Y-133052438D02*
X84359952Y-133004819D01*
X84359952Y-133004819D02*
X84598047Y-133004819D01*
X84598047Y-133004819D02*
X84740904Y-133052438D01*
X85074238Y-133004819D02*
X85312333Y-134004819D01*
X85312333Y-134004819D02*
X85502809Y-133290533D01*
X85502809Y-133290533D02*
X85693285Y-134004819D01*
X85693285Y-134004819D02*
X85931381Y-133004819D01*
X86264714Y-133100057D02*
X86312333Y-133052438D01*
X86312333Y-133052438D02*
X86407571Y-133004819D01*
X86407571Y-133004819D02*
X86645666Y-133004819D01*
X86645666Y-133004819D02*
X86740904Y-133052438D01*
X86740904Y-133052438D02*
X86788523Y-133100057D01*
X86788523Y-133100057D02*
X86836142Y-133195295D01*
X86836142Y-133195295D02*
X86836142Y-133290533D01*
X86836142Y-133290533D02*
X86788523Y-133433390D01*
X86788523Y-133433390D02*
X86217095Y-134004819D01*
X86217095Y-134004819D02*
X86836142Y-134004819D01*
X87217095Y-133100057D02*
X87264714Y-133052438D01*
X87264714Y-133052438D02*
X87359952Y-133004819D01*
X87359952Y-133004819D02*
X87598047Y-133004819D01*
X87598047Y-133004819D02*
X87693285Y-133052438D01*
X87693285Y-133052438D02*
X87740904Y-133100057D01*
X87740904Y-133100057D02*
X87788523Y-133195295D01*
X87788523Y-133195295D02*
X87788523Y-133290533D01*
X87788523Y-133290533D02*
X87740904Y-133433390D01*
X87740904Y-133433390D02*
X87169476Y-134004819D01*
X87169476Y-134004819D02*
X87788523Y-134004819D01*
X151234819Y-104714285D02*
X150234819Y-104714285D01*
X150234819Y-104714285D02*
X150234819Y-104476190D01*
X150234819Y-104476190D02*
X150282438Y-104333333D01*
X150282438Y-104333333D02*
X150377676Y-104238095D01*
X150377676Y-104238095D02*
X150472914Y-104190476D01*
X150472914Y-104190476D02*
X150663390Y-104142857D01*
X150663390Y-104142857D02*
X150806247Y-104142857D01*
X150806247Y-104142857D02*
X150996723Y-104190476D01*
X150996723Y-104190476D02*
X151091961Y-104238095D01*
X151091961Y-104238095D02*
X151187200Y-104333333D01*
X151187200Y-104333333D02*
X151234819Y-104476190D01*
X151234819Y-104476190D02*
X151234819Y-104714285D01*
X151234819Y-103190476D02*
X151234819Y-103761904D01*
X151234819Y-103476190D02*
X150234819Y-103476190D01*
X150234819Y-103476190D02*
X150377676Y-103571428D01*
X150377676Y-103571428D02*
X150472914Y-103666666D01*
X150472914Y-103666666D02*
X150520533Y-103761904D01*
X150234819Y-102333333D02*
X150234819Y-102523809D01*
X150234819Y-102523809D02*
X150282438Y-102619047D01*
X150282438Y-102619047D02*
X150330057Y-102666666D01*
X150330057Y-102666666D02*
X150472914Y-102761904D01*
X150472914Y-102761904D02*
X150663390Y-102809523D01*
X150663390Y-102809523D02*
X151044342Y-102809523D01*
X151044342Y-102809523D02*
X151139580Y-102761904D01*
X151139580Y-102761904D02*
X151187200Y-102714285D01*
X151187200Y-102714285D02*
X151234819Y-102619047D01*
X151234819Y-102619047D02*
X151234819Y-102428571D01*
X151234819Y-102428571D02*
X151187200Y-102333333D01*
X151187200Y-102333333D02*
X151139580Y-102285714D01*
X151139580Y-102285714D02*
X151044342Y-102238095D01*
X151044342Y-102238095D02*
X150806247Y-102238095D01*
X150806247Y-102238095D02*
X150711009Y-102285714D01*
X150711009Y-102285714D02*
X150663390Y-102333333D01*
X150663390Y-102333333D02*
X150615771Y-102428571D01*
X150615771Y-102428571D02*
X150615771Y-102619047D01*
X150615771Y-102619047D02*
X150663390Y-102714285D01*
X150663390Y-102714285D02*
X150711009Y-102761904D01*
X150711009Y-102761904D02*
X150806247Y-102809523D01*
X151554819Y-107571904D02*
X150554819Y-107571904D01*
X151554819Y-107000476D02*
X150983390Y-107429047D01*
X150554819Y-107000476D02*
X151126247Y-107571904D01*
X151234819Y-85664285D02*
X150234819Y-85664285D01*
X150234819Y-85664285D02*
X150234819Y-85426190D01*
X150234819Y-85426190D02*
X150282438Y-85283333D01*
X150282438Y-85283333D02*
X150377676Y-85188095D01*
X150377676Y-85188095D02*
X150472914Y-85140476D01*
X150472914Y-85140476D02*
X150663390Y-85092857D01*
X150663390Y-85092857D02*
X150806247Y-85092857D01*
X150806247Y-85092857D02*
X150996723Y-85140476D01*
X150996723Y-85140476D02*
X151091961Y-85188095D01*
X151091961Y-85188095D02*
X151187200Y-85283333D01*
X151187200Y-85283333D02*
X151234819Y-85426190D01*
X151234819Y-85426190D02*
X151234819Y-85664285D01*
X151234819Y-84140476D02*
X151234819Y-84711904D01*
X151234819Y-84426190D02*
X150234819Y-84426190D01*
X150234819Y-84426190D02*
X150377676Y-84521428D01*
X150377676Y-84521428D02*
X150472914Y-84616666D01*
X150472914Y-84616666D02*
X150520533Y-84711904D01*
X150234819Y-83521428D02*
X150234819Y-83426190D01*
X150234819Y-83426190D02*
X150282438Y-83330952D01*
X150282438Y-83330952D02*
X150330057Y-83283333D01*
X150330057Y-83283333D02*
X150425295Y-83235714D01*
X150425295Y-83235714D02*
X150615771Y-83188095D01*
X150615771Y-83188095D02*
X150853866Y-83188095D01*
X150853866Y-83188095D02*
X151044342Y-83235714D01*
X151044342Y-83235714D02*
X151139580Y-83283333D01*
X151139580Y-83283333D02*
X151187200Y-83330952D01*
X151187200Y-83330952D02*
X151234819Y-83426190D01*
X151234819Y-83426190D02*
X151234819Y-83521428D01*
X151234819Y-83521428D02*
X151187200Y-83616666D01*
X151187200Y-83616666D02*
X151139580Y-83664285D01*
X151139580Y-83664285D02*
X151044342Y-83711904D01*
X151044342Y-83711904D02*
X150853866Y-83759523D01*
X150853866Y-83759523D02*
X150615771Y-83759523D01*
X150615771Y-83759523D02*
X150425295Y-83711904D01*
X150425295Y-83711904D02*
X150330057Y-83664285D01*
X150330057Y-83664285D02*
X150282438Y-83616666D01*
X150282438Y-83616666D02*
X150234819Y-83521428D01*
X151554819Y-88521904D02*
X150554819Y-88521904D01*
X151554819Y-87950476D02*
X150983390Y-88379047D01*
X150554819Y-87950476D02*
X151126247Y-88521904D01*
X189334819Y-104714285D02*
X188334819Y-104714285D01*
X188334819Y-104714285D02*
X188334819Y-104476190D01*
X188334819Y-104476190D02*
X188382438Y-104333333D01*
X188382438Y-104333333D02*
X188477676Y-104238095D01*
X188477676Y-104238095D02*
X188572914Y-104190476D01*
X188572914Y-104190476D02*
X188763390Y-104142857D01*
X188763390Y-104142857D02*
X188906247Y-104142857D01*
X188906247Y-104142857D02*
X189096723Y-104190476D01*
X189096723Y-104190476D02*
X189191961Y-104238095D01*
X189191961Y-104238095D02*
X189287200Y-104333333D01*
X189287200Y-104333333D02*
X189334819Y-104476190D01*
X189334819Y-104476190D02*
X189334819Y-104714285D01*
X189334819Y-103190476D02*
X189334819Y-103761904D01*
X189334819Y-103476190D02*
X188334819Y-103476190D01*
X188334819Y-103476190D02*
X188477676Y-103571428D01*
X188477676Y-103571428D02*
X188572914Y-103666666D01*
X188572914Y-103666666D02*
X188620533Y-103761904D01*
X188668152Y-102333333D02*
X189334819Y-102333333D01*
X188287200Y-102571428D02*
X189001485Y-102809523D01*
X189001485Y-102809523D02*
X189001485Y-102190476D01*
X189654819Y-107571904D02*
X188654819Y-107571904D01*
X189654819Y-107000476D02*
X189083390Y-107429047D01*
X188654819Y-107000476D02*
X189226247Y-107571904D01*
X132089476Y-114457200D02*
X132232333Y-114504819D01*
X132232333Y-114504819D02*
X132470428Y-114504819D01*
X132470428Y-114504819D02*
X132565666Y-114457200D01*
X132565666Y-114457200D02*
X132613285Y-114409580D01*
X132613285Y-114409580D02*
X132660904Y-114314342D01*
X132660904Y-114314342D02*
X132660904Y-114219104D01*
X132660904Y-114219104D02*
X132613285Y-114123866D01*
X132613285Y-114123866D02*
X132565666Y-114076247D01*
X132565666Y-114076247D02*
X132470428Y-114028628D01*
X132470428Y-114028628D02*
X132279952Y-113981009D01*
X132279952Y-113981009D02*
X132184714Y-113933390D01*
X132184714Y-113933390D02*
X132137095Y-113885771D01*
X132137095Y-113885771D02*
X132089476Y-113790533D01*
X132089476Y-113790533D02*
X132089476Y-113695295D01*
X132089476Y-113695295D02*
X132137095Y-113600057D01*
X132137095Y-113600057D02*
X132184714Y-113552438D01*
X132184714Y-113552438D02*
X132279952Y-113504819D01*
X132279952Y-113504819D02*
X132518047Y-113504819D01*
X132518047Y-113504819D02*
X132660904Y-113552438D01*
X132994238Y-113504819D02*
X133232333Y-114504819D01*
X133232333Y-114504819D02*
X133422809Y-113790533D01*
X133422809Y-113790533D02*
X133613285Y-114504819D01*
X133613285Y-114504819D02*
X133851381Y-113504819D01*
X134756142Y-114504819D02*
X134184714Y-114504819D01*
X134470428Y-114504819D02*
X134470428Y-113504819D01*
X134470428Y-113504819D02*
X134375190Y-113647676D01*
X134375190Y-113647676D02*
X134279952Y-113742914D01*
X134279952Y-113742914D02*
X134184714Y-113790533D01*
X135232333Y-114504819D02*
X135422809Y-114504819D01*
X135422809Y-114504819D02*
X135518047Y-114457200D01*
X135518047Y-114457200D02*
X135565666Y-114409580D01*
X135565666Y-114409580D02*
X135660904Y-114266723D01*
X135660904Y-114266723D02*
X135708523Y-114076247D01*
X135708523Y-114076247D02*
X135708523Y-113695295D01*
X135708523Y-113695295D02*
X135660904Y-113600057D01*
X135660904Y-113600057D02*
X135613285Y-113552438D01*
X135613285Y-113552438D02*
X135518047Y-113504819D01*
X135518047Y-113504819D02*
X135327571Y-113504819D01*
X135327571Y-113504819D02*
X135232333Y-113552438D01*
X135232333Y-113552438D02*
X135184714Y-113600057D01*
X135184714Y-113600057D02*
X135137095Y-113695295D01*
X135137095Y-113695295D02*
X135137095Y-113933390D01*
X135137095Y-113933390D02*
X135184714Y-114028628D01*
X135184714Y-114028628D02*
X135232333Y-114076247D01*
X135232333Y-114076247D02*
X135327571Y-114123866D01*
X135327571Y-114123866D02*
X135518047Y-114123866D01*
X135518047Y-114123866D02*
X135613285Y-114076247D01*
X135613285Y-114076247D02*
X135660904Y-114028628D01*
X135660904Y-114028628D02*
X135708523Y-113933390D01*
X199205667Y-76087200D02*
X199348524Y-76134819D01*
X199348524Y-76134819D02*
X199586619Y-76134819D01*
X199586619Y-76134819D02*
X199681857Y-76087200D01*
X199681857Y-76087200D02*
X199729476Y-76039580D01*
X199729476Y-76039580D02*
X199777095Y-75944342D01*
X199777095Y-75944342D02*
X199777095Y-75849104D01*
X199777095Y-75849104D02*
X199729476Y-75753866D01*
X199729476Y-75753866D02*
X199681857Y-75706247D01*
X199681857Y-75706247D02*
X199586619Y-75658628D01*
X199586619Y-75658628D02*
X199396143Y-75611009D01*
X199396143Y-75611009D02*
X199300905Y-75563390D01*
X199300905Y-75563390D02*
X199253286Y-75515771D01*
X199253286Y-75515771D02*
X199205667Y-75420533D01*
X199205667Y-75420533D02*
X199205667Y-75325295D01*
X199205667Y-75325295D02*
X199253286Y-75230057D01*
X199253286Y-75230057D02*
X199300905Y-75182438D01*
X199300905Y-75182438D02*
X199396143Y-75134819D01*
X199396143Y-75134819D02*
X199634238Y-75134819D01*
X199634238Y-75134819D02*
X199777095Y-75182438D01*
X200110429Y-75134819D02*
X200348524Y-76134819D01*
X200348524Y-76134819D02*
X200539000Y-75420533D01*
X200539000Y-75420533D02*
X200729476Y-76134819D01*
X200729476Y-76134819D02*
X200967572Y-75134819D01*
X201253286Y-75134819D02*
X201919952Y-75134819D01*
X201919952Y-75134819D02*
X201491381Y-76134819D01*
X141579476Y-95137200D02*
X141722333Y-95184819D01*
X141722333Y-95184819D02*
X141960428Y-95184819D01*
X141960428Y-95184819D02*
X142055666Y-95137200D01*
X142055666Y-95137200D02*
X142103285Y-95089580D01*
X142103285Y-95089580D02*
X142150904Y-94994342D01*
X142150904Y-94994342D02*
X142150904Y-94899104D01*
X142150904Y-94899104D02*
X142103285Y-94803866D01*
X142103285Y-94803866D02*
X142055666Y-94756247D01*
X142055666Y-94756247D02*
X141960428Y-94708628D01*
X141960428Y-94708628D02*
X141769952Y-94661009D01*
X141769952Y-94661009D02*
X141674714Y-94613390D01*
X141674714Y-94613390D02*
X141627095Y-94565771D01*
X141627095Y-94565771D02*
X141579476Y-94470533D01*
X141579476Y-94470533D02*
X141579476Y-94375295D01*
X141579476Y-94375295D02*
X141627095Y-94280057D01*
X141627095Y-94280057D02*
X141674714Y-94232438D01*
X141674714Y-94232438D02*
X141769952Y-94184819D01*
X141769952Y-94184819D02*
X142008047Y-94184819D01*
X142008047Y-94184819D02*
X142150904Y-94232438D01*
X142484238Y-94184819D02*
X142722333Y-95184819D01*
X142722333Y-95184819D02*
X142912809Y-94470533D01*
X142912809Y-94470533D02*
X143103285Y-95184819D01*
X143103285Y-95184819D02*
X143341381Y-94184819D01*
X144246142Y-95184819D02*
X143674714Y-95184819D01*
X143960428Y-95184819D02*
X143960428Y-94184819D01*
X143960428Y-94184819D02*
X143865190Y-94327676D01*
X143865190Y-94327676D02*
X143769952Y-94422914D01*
X143769952Y-94422914D02*
X143674714Y-94470533D01*
X145103285Y-94184819D02*
X144912809Y-94184819D01*
X144912809Y-94184819D02*
X144817571Y-94232438D01*
X144817571Y-94232438D02*
X144769952Y-94280057D01*
X144769952Y-94280057D02*
X144674714Y-94422914D01*
X144674714Y-94422914D02*
X144627095Y-94613390D01*
X144627095Y-94613390D02*
X144627095Y-94994342D01*
X144627095Y-94994342D02*
X144674714Y-95089580D01*
X144674714Y-95089580D02*
X144722333Y-95137200D01*
X144722333Y-95137200D02*
X144817571Y-95184819D01*
X144817571Y-95184819D02*
X145008047Y-95184819D01*
X145008047Y-95184819D02*
X145103285Y-95137200D01*
X145103285Y-95137200D02*
X145150904Y-95089580D01*
X145150904Y-95089580D02*
X145198523Y-94994342D01*
X145198523Y-94994342D02*
X145198523Y-94756247D01*
X145198523Y-94756247D02*
X145150904Y-94661009D01*
X145150904Y-94661009D02*
X145103285Y-94613390D01*
X145103285Y-94613390D02*
X145008047Y-94565771D01*
X145008047Y-94565771D02*
X144817571Y-94565771D01*
X144817571Y-94565771D02*
X144722333Y-94613390D01*
X144722333Y-94613390D02*
X144674714Y-94661009D01*
X144674714Y-94661009D02*
X144627095Y-94756247D01*
D12*
%TO.C,D12*%
X113680000Y-82330000D02*
X113680000Y-86570000D01*
X113680000Y-85730000D02*
X115920000Y-85730000D01*
X113680000Y-85850000D02*
X115920000Y-85850000D01*
X113680000Y-85970000D02*
X115920000Y-85970000D01*
X113680000Y-86570000D02*
X115920000Y-86570000D01*
X114800000Y-81680000D02*
X114800000Y-82330000D01*
X114800000Y-87220000D02*
X114800000Y-86570000D01*
X115920000Y-82330000D02*
X113680000Y-82330000D01*
X115920000Y-86570000D02*
X115920000Y-82330000D01*
%TO.C,D9*%
X170830000Y-82330000D02*
X170830000Y-86570000D01*
X170830000Y-85730000D02*
X173070000Y-85730000D01*
X170830000Y-85850000D02*
X173070000Y-85850000D01*
X170830000Y-85970000D02*
X173070000Y-85970000D01*
X170830000Y-86570000D02*
X173070000Y-86570000D01*
X171950000Y-81680000D02*
X171950000Y-82330000D01*
X171950000Y-87220000D02*
X171950000Y-86570000D01*
X173070000Y-82330000D02*
X170830000Y-82330000D01*
X173070000Y-86570000D02*
X173070000Y-82330000D01*
%TO.C,SW12*%
X98304000Y-76569000D02*
X112274000Y-76569000D01*
X98304000Y-90539000D02*
X98304000Y-76569000D01*
X112274000Y-76569000D02*
X112274000Y-90539000D01*
X112274000Y-90539000D02*
X98304000Y-90539000D01*
%TO.C,D6*%
X113680000Y-63280000D02*
X113680000Y-67520000D01*
X113680000Y-66680000D02*
X115920000Y-66680000D01*
X113680000Y-66800000D02*
X115920000Y-66800000D01*
X113680000Y-66920000D02*
X115920000Y-66920000D01*
X113680000Y-67520000D02*
X115920000Y-67520000D01*
X114800000Y-62630000D02*
X114800000Y-63280000D01*
X114800000Y-68170000D02*
X114800000Y-67520000D01*
X115920000Y-63280000D02*
X113680000Y-63280000D01*
X115920000Y-67520000D02*
X115920000Y-63280000D01*
%TO.C,SW14*%
X174504000Y-95619000D02*
X188474000Y-95619000D01*
X174504000Y-109589000D02*
X174504000Y-95619000D01*
X188474000Y-95619000D02*
X188474000Y-109589000D01*
X188474000Y-109589000D02*
X174504000Y-109589000D01*
%TO.C,D20*%
X123260000Y-120505000D02*
X123260000Y-124745000D01*
X123260000Y-123905000D02*
X125500000Y-123905000D01*
X123260000Y-124025000D02*
X125500000Y-124025000D01*
X123260000Y-124145000D02*
X125500000Y-124145000D01*
X123260000Y-124745000D02*
X125500000Y-124745000D01*
X124380000Y-119855000D02*
X124380000Y-120505000D01*
X124380000Y-125395000D02*
X124380000Y-124745000D01*
X125500000Y-120505000D02*
X123260000Y-120505000D01*
X125500000Y-124745000D02*
X125500000Y-120505000D01*
%TO.C,D3*%
X170830000Y-63280000D02*
X170830000Y-67520000D01*
X170830000Y-66680000D02*
X173070000Y-66680000D01*
X170830000Y-66800000D02*
X173070000Y-66800000D01*
X170830000Y-66920000D02*
X173070000Y-66920000D01*
X170830000Y-67520000D02*
X173070000Y-67520000D01*
X171950000Y-62630000D02*
X171950000Y-63280000D01*
X171950000Y-68170000D02*
X171950000Y-67520000D01*
X173070000Y-63280000D02*
X170830000Y-63280000D01*
X173070000Y-67520000D02*
X173070000Y-63280000D01*
D10*
%TO.C,J5*%
X77387500Y-92637500D02*
X77387500Y-110137500D01*
X77387500Y-92637500D02*
X94887500Y-92637500D01*
X77387500Y-110137500D02*
X94887500Y-110137500D01*
X94887500Y-92637500D02*
X94887500Y-110137500D01*
D12*
%TO.C,SW18*%
X98304000Y-95619000D02*
X112274000Y-95619000D01*
X98304000Y-109589000D02*
X98304000Y-95619000D01*
X112274000Y-95619000D02*
X112274000Y-109589000D01*
X112274000Y-109589000D02*
X98304000Y-109589000D01*
%TO.C,D13*%
X208930000Y-101380000D02*
X208930000Y-105620000D01*
X208930000Y-104780000D02*
X211170000Y-104780000D01*
X208930000Y-104900000D02*
X211170000Y-104900000D01*
X208930000Y-105020000D02*
X211170000Y-105020000D01*
X208930000Y-105620000D02*
X211170000Y-105620000D01*
X210050000Y-100730000D02*
X210050000Y-101380000D01*
X210050000Y-106270000D02*
X210050000Y-105620000D01*
X211170000Y-101380000D02*
X208930000Y-101380000D01*
X211170000Y-105620000D02*
X211170000Y-101380000D01*
%TO.C,D1*%
X208930000Y-63325000D02*
X208930000Y-67565000D01*
X208930000Y-66725000D02*
X211170000Y-66725000D01*
X208930000Y-66845000D02*
X211170000Y-66845000D01*
X208930000Y-66965000D02*
X211170000Y-66965000D01*
X208930000Y-67565000D02*
X211170000Y-67565000D01*
X210050000Y-62675000D02*
X210050000Y-63325000D01*
X210050000Y-68215000D02*
X210050000Y-67565000D01*
X211170000Y-63325000D02*
X208930000Y-63325000D01*
X211170000Y-67565000D02*
X211170000Y-63325000D01*
%TO.C,SW17*%
X117354000Y-95619000D02*
X131324000Y-95619000D01*
X117354000Y-109589000D02*
X117354000Y-95619000D01*
X131324000Y-95619000D02*
X131324000Y-109589000D01*
X131324000Y-109589000D02*
X117354000Y-109589000D01*
%TO.C,SW25*%
X145550000Y-40050000D02*
X150450000Y-40050000D01*
X145550000Y-52650000D02*
X145550000Y-40050000D01*
X150450000Y-52650000D02*
X145550000Y-52650000D01*
X152250000Y-46850000D02*
X152250000Y-45850000D01*
X152750000Y-46350000D02*
X151750000Y-46350000D01*
X154050000Y-40050000D02*
X158950000Y-40050000D01*
X154150000Y-52650000D02*
X158950000Y-52650000D01*
X158950000Y-40050000D02*
X158950000Y-42850000D01*
X158950000Y-52650000D02*
X158950000Y-50150000D01*
X159450000Y-50450000D02*
X159750000Y-50150000D01*
X159750000Y-50150000D02*
X160050000Y-50450000D01*
X160050000Y-50450000D02*
X159450000Y-50450000D01*
X155250000Y-46350000D02*
G75*
G02*
X149250000Y-46350000I-3000000J0D01*
G01*
X149250000Y-46350000D02*
G75*
G02*
X155250000Y-46350000I3000000J0D01*
G01*
%TO.C,D21*%
X104260000Y-120505000D02*
X104260000Y-124745000D01*
X104260000Y-123905000D02*
X106500000Y-123905000D01*
X104260000Y-124025000D02*
X106500000Y-124025000D01*
X104260000Y-124145000D02*
X106500000Y-124145000D01*
X104260000Y-124745000D02*
X106500000Y-124745000D01*
X105380000Y-119855000D02*
X105380000Y-120505000D01*
X105380000Y-125395000D02*
X105380000Y-124745000D01*
X106500000Y-120505000D02*
X104260000Y-120505000D01*
X106500000Y-124745000D02*
X106500000Y-120505000D01*
%TO.C,SW20*%
X107864000Y-114939000D02*
X121834000Y-114939000D01*
X107864000Y-128909000D02*
X107864000Y-114939000D01*
X121834000Y-114939000D02*
X121834000Y-128909000D01*
X121834000Y-128909000D02*
X107864000Y-128909000D01*
%TO.C,SW1*%
X193554000Y-57519000D02*
X207524000Y-57519000D01*
X193554000Y-71489000D02*
X193554000Y-57519000D01*
X207524000Y-57519000D02*
X207524000Y-71489000D01*
X207524000Y-71489000D02*
X193554000Y-71489000D01*
%TO.C,SW23*%
X183800000Y-40050000D02*
X188700000Y-40050000D01*
X183800000Y-52650000D02*
X183800000Y-40050000D01*
X188700000Y-52650000D02*
X183800000Y-52650000D01*
X190500000Y-46850000D02*
X190500000Y-45850000D01*
X191000000Y-46350000D02*
X190000000Y-46350000D01*
X192300000Y-40050000D02*
X197200000Y-40050000D01*
X192400000Y-52650000D02*
X197200000Y-52650000D01*
X197200000Y-40050000D02*
X197200000Y-42850000D01*
X197200000Y-52650000D02*
X197200000Y-50150000D01*
X197700000Y-50450000D02*
X198000000Y-50150000D01*
X198000000Y-50150000D02*
X198300000Y-50450000D01*
X198300000Y-50450000D02*
X197700000Y-50450000D01*
X193500000Y-46350000D02*
G75*
G02*
X187500000Y-46350000I-3000000J0D01*
G01*
X187500000Y-46350000D02*
G75*
G02*
X193500000Y-46350000I3000000J0D01*
G01*
%TO.C,SW11*%
X117354000Y-76569000D02*
X131324000Y-76569000D01*
X117354000Y-90539000D02*
X117354000Y-76569000D01*
X131324000Y-76569000D02*
X131324000Y-90539000D01*
X131324000Y-90539000D02*
X117354000Y-90539000D01*
%TO.C,D17*%
X132730000Y-101380000D02*
X132730000Y-105620000D01*
X132730000Y-104780000D02*
X134970000Y-104780000D01*
X132730000Y-104900000D02*
X134970000Y-104900000D01*
X132730000Y-105020000D02*
X134970000Y-105020000D01*
X132730000Y-105620000D02*
X134970000Y-105620000D01*
X133850000Y-100730000D02*
X133850000Y-101380000D01*
X133850000Y-106270000D02*
X133850000Y-105620000D01*
X134970000Y-101380000D02*
X132730000Y-101380000D01*
X134970000Y-105620000D02*
X134970000Y-101380000D01*
%TO.C,D5*%
X132730000Y-63280000D02*
X132730000Y-67520000D01*
X132730000Y-66680000D02*
X134970000Y-66680000D01*
X132730000Y-66800000D02*
X134970000Y-66800000D01*
X132730000Y-66920000D02*
X134970000Y-66920000D01*
X132730000Y-67520000D02*
X134970000Y-67520000D01*
X133850000Y-62630000D02*
X133850000Y-63280000D01*
X133850000Y-68170000D02*
X133850000Y-67520000D01*
X134970000Y-63280000D02*
X132730000Y-63280000D01*
X134970000Y-67520000D02*
X134970000Y-63280000D01*
%TO.C,D19*%
X142260000Y-120505000D02*
X142260000Y-124745000D01*
X142260000Y-123905000D02*
X144500000Y-123905000D01*
X142260000Y-124025000D02*
X144500000Y-124025000D01*
X142260000Y-124145000D02*
X144500000Y-124145000D01*
X142260000Y-124745000D02*
X144500000Y-124745000D01*
X143380000Y-119855000D02*
X143380000Y-120505000D01*
X143380000Y-125395000D02*
X143380000Y-124745000D01*
X144500000Y-120505000D02*
X142260000Y-120505000D01*
X144500000Y-124745000D02*
X144500000Y-120505000D01*
%TO.C,SW9*%
X155454000Y-76569000D02*
X169424000Y-76569000D01*
X155454000Y-90539000D02*
X155454000Y-76569000D01*
X169424000Y-76569000D02*
X169424000Y-90539000D01*
X169424000Y-90539000D02*
X155454000Y-90539000D01*
%TO.C,SW10*%
X136404000Y-76569000D02*
X150374000Y-76569000D01*
X136404000Y-90539000D02*
X136404000Y-76569000D01*
X150374000Y-76569000D02*
X150374000Y-90539000D01*
X150374000Y-90539000D02*
X136404000Y-90539000D01*
%TO.C,D11*%
X132730000Y-82330000D02*
X132730000Y-86570000D01*
X132730000Y-85730000D02*
X134970000Y-85730000D01*
X132730000Y-85850000D02*
X134970000Y-85850000D01*
X132730000Y-85970000D02*
X134970000Y-85970000D01*
X132730000Y-86570000D02*
X134970000Y-86570000D01*
X133850000Y-81680000D02*
X133850000Y-82330000D01*
X133850000Y-87220000D02*
X133850000Y-86570000D01*
X134970000Y-82330000D02*
X132730000Y-82330000D01*
X134970000Y-86570000D02*
X134970000Y-82330000D01*
%TO.C,SW15*%
X155454000Y-95619000D02*
X169424000Y-95619000D01*
X155454000Y-109589000D02*
X155454000Y-95619000D01*
X169424000Y-95619000D02*
X169424000Y-109589000D01*
X169424000Y-109589000D02*
X155454000Y-109589000D01*
%TO.C,D4*%
X151780000Y-63280000D02*
X151780000Y-67520000D01*
X151780000Y-66680000D02*
X154020000Y-66680000D01*
X151780000Y-66800000D02*
X154020000Y-66800000D01*
X151780000Y-66920000D02*
X154020000Y-66920000D01*
X151780000Y-67520000D02*
X154020000Y-67520000D01*
X152900000Y-62630000D02*
X152900000Y-63280000D01*
X152900000Y-68170000D02*
X152900000Y-67520000D01*
X154020000Y-63280000D02*
X151780000Y-63280000D01*
X154020000Y-67520000D02*
X154020000Y-63280000D01*
%TO.C,SW5*%
X117354000Y-57519000D02*
X131324000Y-57519000D01*
X117354000Y-71489000D02*
X117354000Y-57519000D01*
X131324000Y-57519000D02*
X131324000Y-71489000D01*
X131324000Y-71489000D02*
X117354000Y-71489000D01*
%TO.C,U1*%
X73870000Y-38340000D02*
X75200000Y-38340000D01*
X73870000Y-39670000D02*
X73870000Y-38340000D01*
D11*
X73600000Y-37920000D02*
X94600000Y-37920000D01*
X94600000Y-81920000D01*
X73600000Y-81920000D01*
X73600000Y-37920000D01*
D12*
%TO.C,D7*%
X208930000Y-82330000D02*
X208930000Y-86570000D01*
X208930000Y-85730000D02*
X211170000Y-85730000D01*
X208930000Y-85850000D02*
X211170000Y-85850000D01*
X208930000Y-85970000D02*
X211170000Y-85970000D01*
X208930000Y-86570000D02*
X211170000Y-86570000D01*
X210050000Y-81680000D02*
X210050000Y-82330000D01*
X210050000Y-87220000D02*
X210050000Y-86570000D01*
X211170000Y-82330000D02*
X208930000Y-82330000D01*
X211170000Y-86570000D02*
X211170000Y-82330000D01*
%TO.C,SW13*%
X193554000Y-95619000D02*
X207524000Y-95619000D01*
X193554000Y-109589000D02*
X193554000Y-95619000D01*
X207524000Y-95619000D02*
X207524000Y-109589000D01*
X207524000Y-109589000D02*
X193554000Y-109589000D01*
%TO.C,D18*%
X113680000Y-101380000D02*
X113680000Y-105620000D01*
X113680000Y-104780000D02*
X115920000Y-104780000D01*
X113680000Y-104900000D02*
X115920000Y-104900000D01*
X113680000Y-105020000D02*
X115920000Y-105020000D01*
X113680000Y-105620000D02*
X115920000Y-105620000D01*
X114800000Y-100730000D02*
X114800000Y-101380000D01*
X114800000Y-106270000D02*
X114800000Y-105620000D01*
X115920000Y-101380000D02*
X113680000Y-101380000D01*
X115920000Y-105620000D02*
X115920000Y-101380000D01*
%TO.C,D15*%
X170830000Y-101380000D02*
X170830000Y-105620000D01*
X170830000Y-104780000D02*
X173070000Y-104780000D01*
X170830000Y-104900000D02*
X173070000Y-104900000D01*
X170830000Y-105020000D02*
X173070000Y-105020000D01*
X170830000Y-105620000D02*
X173070000Y-105620000D01*
X171950000Y-100730000D02*
X171950000Y-101380000D01*
X171950000Y-106270000D02*
X171950000Y-105620000D01*
X173070000Y-101380000D02*
X170830000Y-101380000D01*
X173070000Y-105620000D02*
X173070000Y-101380000D01*
%TO.C,SW24*%
X164800000Y-40050000D02*
X169700000Y-40050000D01*
X164800000Y-52650000D02*
X164800000Y-40050000D01*
X169700000Y-52650000D02*
X164800000Y-52650000D01*
X171500000Y-46850000D02*
X171500000Y-45850000D01*
X172000000Y-46350000D02*
X171000000Y-46350000D01*
X173300000Y-40050000D02*
X178200000Y-40050000D01*
X173400000Y-52650000D02*
X178200000Y-52650000D01*
X178200000Y-40050000D02*
X178200000Y-42850000D01*
X178200000Y-52650000D02*
X178200000Y-50150000D01*
X178700000Y-50450000D02*
X179000000Y-50150000D01*
X179000000Y-50150000D02*
X179300000Y-50450000D01*
X179300000Y-50450000D02*
X178700000Y-50450000D01*
X174500000Y-46350000D02*
G75*
G02*
X168500000Y-46350000I-3000000J0D01*
G01*
X168500000Y-46350000D02*
G75*
G02*
X174500000Y-46350000I3000000J0D01*
G01*
%TO.C,SW2*%
X174504000Y-57519000D02*
X188474000Y-57519000D01*
X174504000Y-71489000D02*
X174504000Y-57519000D01*
X188474000Y-57519000D02*
X188474000Y-71489000D01*
X188474000Y-71489000D02*
X174504000Y-71489000D01*
D10*
%TO.C,J4*%
X98800000Y-51550000D02*
X98800000Y-39450000D01*
X104800000Y-39450000D02*
X104800000Y-51550000D01*
X104800000Y-51550000D02*
X98800000Y-51550000D01*
D12*
%TO.C,SW26*%
X126550000Y-40050000D02*
X131450000Y-40050000D01*
X126550000Y-52650000D02*
X126550000Y-40050000D01*
X131450000Y-52650000D02*
X126550000Y-52650000D01*
X133250000Y-46850000D02*
X133250000Y-45850000D01*
X133750000Y-46350000D02*
X132750000Y-46350000D01*
X135050000Y-40050000D02*
X139950000Y-40050000D01*
X135150000Y-52650000D02*
X139950000Y-52650000D01*
X139950000Y-40050000D02*
X139950000Y-42850000D01*
X139950000Y-52650000D02*
X139950000Y-50150000D01*
X140450000Y-50450000D02*
X140750000Y-50150000D01*
X140750000Y-50150000D02*
X141050000Y-50450000D01*
X141050000Y-50450000D02*
X140450000Y-50450000D01*
X136250000Y-46350000D02*
G75*
G02*
X130250000Y-46350000I-3000000J0D01*
G01*
X130250000Y-46350000D02*
G75*
G02*
X136250000Y-46350000I3000000J0D01*
G01*
%TO.C,D8*%
X189880000Y-82330000D02*
X189880000Y-86570000D01*
X189880000Y-85730000D02*
X192120000Y-85730000D01*
X189880000Y-85850000D02*
X192120000Y-85850000D01*
X189880000Y-85970000D02*
X192120000Y-85970000D01*
X189880000Y-86570000D02*
X192120000Y-86570000D01*
X191000000Y-81680000D02*
X191000000Y-82330000D01*
X191000000Y-87220000D02*
X191000000Y-86570000D01*
X192120000Y-82330000D02*
X189880000Y-82330000D01*
X192120000Y-86570000D02*
X192120000Y-82330000D01*
%TO.C,SW27*%
X107800000Y-40050000D02*
X112700000Y-40050000D01*
X107800000Y-52650000D02*
X107800000Y-40050000D01*
X112700000Y-52650000D02*
X107800000Y-52650000D01*
X114500000Y-46850000D02*
X114500000Y-45850000D01*
X115000000Y-46350000D02*
X114000000Y-46350000D01*
X116300000Y-40050000D02*
X121200000Y-40050000D01*
X116400000Y-52650000D02*
X121200000Y-52650000D01*
X121200000Y-40050000D02*
X121200000Y-42850000D01*
X121200000Y-52650000D02*
X121200000Y-50150000D01*
X121700000Y-50450000D02*
X122000000Y-50150000D01*
X122000000Y-50150000D02*
X122300000Y-50450000D01*
X122300000Y-50450000D02*
X121700000Y-50450000D01*
X117500000Y-46350000D02*
G75*
G02*
X111500000Y-46350000I-3000000J0D01*
G01*
X111500000Y-46350000D02*
G75*
G02*
X117500000Y-46350000I3000000J0D01*
G01*
%TO.C,D2*%
X189929000Y-63380000D02*
X189929000Y-67620000D01*
X189929000Y-66780000D02*
X192169000Y-66780000D01*
X189929000Y-66900000D02*
X192169000Y-66900000D01*
X189929000Y-67020000D02*
X192169000Y-67020000D01*
X189929000Y-67620000D02*
X192169000Y-67620000D01*
X191049000Y-62730000D02*
X191049000Y-63380000D01*
X191049000Y-68270000D02*
X191049000Y-67620000D01*
X192169000Y-63380000D02*
X189929000Y-63380000D01*
X192169000Y-67620000D02*
X192169000Y-63380000D01*
%TO.C,SW3*%
X155454000Y-57519000D02*
X169424000Y-57519000D01*
X155454000Y-71489000D02*
X155454000Y-57519000D01*
X169424000Y-57519000D02*
X169424000Y-71489000D01*
X169424000Y-71489000D02*
X155454000Y-71489000D01*
%TO.C,SW4*%
X136404000Y-57519000D02*
X150374000Y-57519000D01*
X136404000Y-71489000D02*
X136404000Y-57519000D01*
X150374000Y-57519000D02*
X150374000Y-71489000D01*
X150374000Y-71489000D02*
X136404000Y-71489000D01*
%TO.C,SW6*%
X98304000Y-57519000D02*
X112274000Y-57519000D01*
X98304000Y-71489000D02*
X98304000Y-57519000D01*
X112274000Y-57519000D02*
X112274000Y-71489000D01*
X112274000Y-71489000D02*
X98304000Y-71489000D01*
%TO.C,SW8*%
X174504000Y-76569000D02*
X188474000Y-76569000D01*
X174504000Y-90539000D02*
X174504000Y-76569000D01*
X188474000Y-76569000D02*
X188474000Y-90539000D01*
X188474000Y-90539000D02*
X174504000Y-90539000D01*
%TO.C,D22*%
X94260000Y-140005000D02*
X94260000Y-144245000D01*
X94260000Y-143405000D02*
X96500000Y-143405000D01*
X94260000Y-143525000D02*
X96500000Y-143525000D01*
X94260000Y-143645000D02*
X96500000Y-143645000D01*
X94260000Y-144245000D02*
X96500000Y-144245000D01*
X95380000Y-139355000D02*
X95380000Y-140005000D01*
X95380000Y-144895000D02*
X95380000Y-144245000D01*
X96500000Y-140005000D02*
X94260000Y-140005000D01*
X96500000Y-144245000D02*
X96500000Y-140005000D01*
%TO.C,SW22*%
X78994000Y-134439000D02*
X92964000Y-134439000D01*
X78994000Y-148409000D02*
X78994000Y-134439000D01*
X92964000Y-134439000D02*
X92964000Y-148409000D01*
X92964000Y-148409000D02*
X78994000Y-148409000D01*
%TO.C,D16*%
X151780000Y-101380000D02*
X151780000Y-105620000D01*
X151780000Y-104780000D02*
X154020000Y-104780000D01*
X151780000Y-104900000D02*
X154020000Y-104900000D01*
X151780000Y-105020000D02*
X154020000Y-105020000D01*
X151780000Y-105620000D02*
X154020000Y-105620000D01*
X152900000Y-100730000D02*
X152900000Y-101380000D01*
X152900000Y-106270000D02*
X152900000Y-105620000D01*
X154020000Y-101380000D02*
X151780000Y-101380000D01*
X154020000Y-105620000D02*
X154020000Y-101380000D01*
%TO.C,D10*%
X151780000Y-82330000D02*
X151780000Y-86570000D01*
X151780000Y-85730000D02*
X154020000Y-85730000D01*
X151780000Y-85850000D02*
X154020000Y-85850000D01*
X151780000Y-85970000D02*
X154020000Y-85970000D01*
X151780000Y-86570000D02*
X154020000Y-86570000D01*
X152900000Y-81680000D02*
X152900000Y-82330000D01*
X152900000Y-87220000D02*
X152900000Y-86570000D01*
X154020000Y-82330000D02*
X151780000Y-82330000D01*
X154020000Y-86570000D02*
X154020000Y-82330000D01*
%TO.C,D14*%
X189880000Y-101380000D02*
X189880000Y-105620000D01*
X189880000Y-104780000D02*
X192120000Y-104780000D01*
X189880000Y-104900000D02*
X192120000Y-104900000D01*
X189880000Y-105020000D02*
X192120000Y-105020000D01*
X189880000Y-105620000D02*
X192120000Y-105620000D01*
X191000000Y-100730000D02*
X191000000Y-101380000D01*
X191000000Y-106270000D02*
X191000000Y-105620000D01*
X192120000Y-101380000D02*
X189880000Y-101380000D01*
X192120000Y-105620000D02*
X192120000Y-101380000D01*
%TO.C,SW19*%
X126914000Y-114939000D02*
X140884000Y-114939000D01*
X126914000Y-128909000D02*
X126914000Y-114939000D01*
X140884000Y-114939000D02*
X140884000Y-128909000D01*
X140884000Y-128909000D02*
X126914000Y-128909000D01*
%TO.C,SW7*%
X193554000Y-76569000D02*
X207524000Y-76569000D01*
X193554000Y-90539000D02*
X193554000Y-76569000D01*
X207524000Y-76569000D02*
X207524000Y-90539000D01*
X207524000Y-90539000D02*
X193554000Y-90539000D01*
%TO.C,SW16*%
X136404000Y-95619000D02*
X150374000Y-95619000D01*
X136404000Y-109589000D02*
X136404000Y-95619000D01*
X150374000Y-95619000D02*
X150374000Y-109589000D01*
X150374000Y-109589000D02*
X136404000Y-109589000D01*
%TO.C,SW21*%
X88814000Y-114939000D02*
X102784000Y-114939000D01*
X88814000Y-128909000D02*
X88814000Y-114939000D01*
X102784000Y-114939000D02*
X102784000Y-128909000D01*
X102784000Y-128909000D02*
X88814000Y-128909000D01*
%TD*%
D13*
%TO.C,J5*%
X80137500Y-95387500D03*
X80137500Y-107387500D03*
X92137500Y-95387500D03*
X92137500Y-107387500D03*
D14*
X88137500Y-92787500D03*
D15*
X94737500Y-103387500D03*
D14*
X86137500Y-92787500D03*
X84137500Y-92787500D03*
D15*
X94737500Y-99387500D03*
X94737500Y-101387500D03*
%TD*%
%LPC*%
D16*
%TO.C,D12*%
X114800000Y-88260000D03*
D17*
X114800000Y-80640000D03*
%TD*%
D16*
%TO.C,D9*%
X171950000Y-88260000D03*
D17*
X171950000Y-80640000D03*
%TD*%
D18*
%TO.C,SW12*%
X100209000Y-83554000D03*
D19*
X105289000Y-83554000D03*
D18*
X110369000Y-83554000D03*
D20*
X107829000Y-78474000D03*
X101479000Y-81014000D03*
%TD*%
D16*
%TO.C,D6*%
X114800000Y-69210000D03*
D17*
X114800000Y-61590000D03*
%TD*%
D18*
%TO.C,SW14*%
X176409000Y-102604000D03*
D19*
X181489000Y-102604000D03*
D18*
X186569000Y-102604000D03*
D20*
X184029000Y-97524000D03*
X177679000Y-100064000D03*
%TD*%
D16*
%TO.C,D20*%
X124380000Y-126435000D03*
D17*
X124380000Y-118815000D03*
%TD*%
D16*
%TO.C,D3*%
X171950000Y-69210000D03*
D17*
X171950000Y-61590000D03*
%TD*%
D13*
%TO.C,J5*%
X80137500Y-95387500D03*
X80137500Y-107387500D03*
X92137500Y-95387500D03*
X92137500Y-107387500D03*
D14*
X88137500Y-92787500D03*
D15*
X94737500Y-103387500D03*
D14*
X86137500Y-92787500D03*
X84137500Y-92787500D03*
D15*
X94737500Y-99387500D03*
X94737500Y-101387500D03*
%TD*%
D18*
%TO.C,SW18*%
X100209000Y-102604000D03*
D19*
X105289000Y-102604000D03*
D18*
X110369000Y-102604000D03*
D20*
X107829000Y-97524000D03*
X101479000Y-100064000D03*
%TD*%
D16*
%TO.C,D13*%
X210050000Y-107310000D03*
D17*
X210050000Y-99690000D03*
%TD*%
D16*
%TO.C,D1*%
X210050000Y-69255000D03*
D17*
X210050000Y-61635000D03*
%TD*%
D18*
%TO.C,SW17*%
X119259000Y-102604000D03*
D19*
X124339000Y-102604000D03*
D18*
X129419000Y-102604000D03*
D20*
X126879000Y-97524000D03*
X120529000Y-100064000D03*
%TD*%
D21*
%TO.C,SW25*%
X159750000Y-48850000D03*
D22*
X159750000Y-43850000D03*
X159750000Y-46350000D03*
D23*
X152250000Y-51950000D03*
X152250000Y-40750000D03*
%TD*%
D16*
%TO.C,D21*%
X105380000Y-126435000D03*
D17*
X105380000Y-118815000D03*
%TD*%
D18*
%TO.C,SW20*%
X109769000Y-121924000D03*
D19*
X114849000Y-121924000D03*
D18*
X119929000Y-121924000D03*
D20*
X117389000Y-116844000D03*
X111039000Y-119384000D03*
%TD*%
D18*
%TO.C,SW1*%
X195459000Y-64504000D03*
D19*
X200539000Y-64504000D03*
D18*
X205619000Y-64504000D03*
D20*
X203079000Y-59424000D03*
X196729000Y-61964000D03*
%TD*%
D21*
%TO.C,SW23*%
X198000000Y-48850000D03*
D22*
X198000000Y-43850000D03*
X198000000Y-46350000D03*
D23*
X190500000Y-51950000D03*
X190500000Y-40750000D03*
%TD*%
D18*
%TO.C,SW11*%
X119259000Y-83554000D03*
D19*
X124339000Y-83554000D03*
D18*
X129419000Y-83554000D03*
D20*
X126879000Y-78474000D03*
X120529000Y-81014000D03*
%TD*%
D16*
%TO.C,D17*%
X133850000Y-107310000D03*
D17*
X133850000Y-99690000D03*
%TD*%
D16*
%TO.C,D5*%
X133850000Y-69210000D03*
D17*
X133850000Y-61590000D03*
%TD*%
D16*
%TO.C,D19*%
X143380000Y-126435000D03*
D17*
X143380000Y-118815000D03*
%TD*%
D18*
%TO.C,SW9*%
X157359000Y-83554000D03*
D19*
X162439000Y-83554000D03*
D18*
X167519000Y-83554000D03*
D20*
X164979000Y-78474000D03*
X158629000Y-81014000D03*
%TD*%
D18*
%TO.C,SW10*%
X138309000Y-83554000D03*
D19*
X143389000Y-83554000D03*
D18*
X148469000Y-83554000D03*
D20*
X145929000Y-78474000D03*
X139579000Y-81014000D03*
%TD*%
D16*
%TO.C,D11*%
X133850000Y-88260000D03*
D17*
X133850000Y-80640000D03*
%TD*%
D18*
%TO.C,SW15*%
X157359000Y-102604000D03*
D19*
X162439000Y-102604000D03*
D18*
X167519000Y-102604000D03*
D20*
X164979000Y-97524000D03*
X158629000Y-100064000D03*
%TD*%
D16*
%TO.C,D4*%
X152900000Y-69210000D03*
D17*
X152900000Y-61590000D03*
%TD*%
D18*
%TO.C,SW5*%
X119259000Y-64504000D03*
D19*
X124339000Y-64504000D03*
D18*
X129419000Y-64504000D03*
D20*
X126879000Y-59424000D03*
X120529000Y-61964000D03*
%TD*%
D24*
%TO.C,U1*%
X75200000Y-39670000D03*
D25*
X75200000Y-42210000D03*
X75200000Y-44750000D03*
X75200000Y-47290000D03*
X75200000Y-49830000D03*
X75200000Y-52370000D03*
X75200000Y-54910000D03*
X75200000Y-57450000D03*
X75200000Y-59990000D03*
X75200000Y-62530000D03*
X75200000Y-65070000D03*
X75200000Y-67610000D03*
X75200000Y-70150000D03*
X75200000Y-72690000D03*
X75200000Y-75230000D03*
X75200000Y-77770000D03*
X75200000Y-80310000D03*
X93000000Y-80310000D03*
X93000000Y-77770000D03*
X93000000Y-75230000D03*
X93000000Y-72690000D03*
X93000000Y-70150000D03*
X93000000Y-67610000D03*
X93000000Y-65070000D03*
X93000000Y-62530000D03*
X93000000Y-59990000D03*
X93000000Y-57450000D03*
X93000000Y-54910000D03*
X93000000Y-52370000D03*
X93000000Y-49830000D03*
X93000000Y-47290000D03*
X93000000Y-44750000D03*
X93000000Y-42210000D03*
D24*
X93000000Y-39670000D03*
D25*
X77740000Y-80310000D03*
X90460000Y-80310000D03*
%TD*%
D16*
%TO.C,D7*%
X210050000Y-88260000D03*
D17*
X210050000Y-80640000D03*
%TD*%
D18*
%TO.C,SW13*%
X195459000Y-102604000D03*
D19*
X200539000Y-102604000D03*
D18*
X205619000Y-102604000D03*
D20*
X203079000Y-97524000D03*
X196729000Y-100064000D03*
%TD*%
D16*
%TO.C,D18*%
X114800000Y-107310000D03*
D17*
X114800000Y-99690000D03*
%TD*%
D16*
%TO.C,D15*%
X171950000Y-107310000D03*
D17*
X171950000Y-99690000D03*
%TD*%
D21*
%TO.C,SW24*%
X179000000Y-48850000D03*
D22*
X179000000Y-43850000D03*
X179000000Y-46350000D03*
D23*
X171500000Y-51950000D03*
X171500000Y-40750000D03*
%TD*%
D18*
%TO.C,SW2*%
X176409000Y-64504000D03*
D19*
X181489000Y-64504000D03*
D18*
X186569000Y-64504000D03*
D20*
X184029000Y-59424000D03*
X177679000Y-61964000D03*
%TD*%
D26*
%TO.C,J4*%
X101800000Y-40950000D03*
X101800000Y-47950000D03*
D27*
X103950000Y-45750000D03*
X103950000Y-42750000D03*
X99650000Y-51250000D03*
X103950000Y-49750000D03*
%TD*%
D21*
%TO.C,SW26*%
X140750000Y-48850000D03*
D22*
X140750000Y-43850000D03*
X140750000Y-46350000D03*
D23*
X133250000Y-51950000D03*
X133250000Y-40750000D03*
%TD*%
D16*
%TO.C,D8*%
X191000000Y-88260000D03*
D17*
X191000000Y-80640000D03*
%TD*%
D21*
%TO.C,SW27*%
X122000000Y-48850000D03*
D22*
X122000000Y-43850000D03*
X122000000Y-46350000D03*
D23*
X114500000Y-51950000D03*
X114500000Y-40750000D03*
%TD*%
D16*
%TO.C,D2*%
X191049000Y-69310000D03*
D17*
X191049000Y-61690000D03*
%TD*%
D18*
%TO.C,SW3*%
X157359000Y-64504000D03*
D19*
X162439000Y-64504000D03*
D18*
X167519000Y-64504000D03*
D20*
X164979000Y-59424000D03*
X158629000Y-61964000D03*
%TD*%
D18*
%TO.C,SW4*%
X138309000Y-64504000D03*
D19*
X143389000Y-64504000D03*
D18*
X148469000Y-64504000D03*
D20*
X145929000Y-59424000D03*
X139579000Y-61964000D03*
%TD*%
D18*
%TO.C,SW6*%
X100209000Y-64504000D03*
D19*
X105289000Y-64504000D03*
D18*
X110369000Y-64504000D03*
D20*
X107829000Y-59424000D03*
X101479000Y-61964000D03*
%TD*%
D18*
%TO.C,SW8*%
X176409000Y-83554000D03*
D19*
X181489000Y-83554000D03*
D18*
X186569000Y-83554000D03*
D20*
X184029000Y-78474000D03*
X177679000Y-81014000D03*
%TD*%
D16*
%TO.C,D22*%
X95380000Y-145935000D03*
D17*
X95380000Y-138315000D03*
%TD*%
D18*
%TO.C,SW22*%
X80899000Y-141424000D03*
D19*
X85979000Y-141424000D03*
D18*
X91059000Y-141424000D03*
D20*
X88519000Y-136344000D03*
X82169000Y-138884000D03*
%TD*%
D16*
%TO.C,D16*%
X152900000Y-107310000D03*
D17*
X152900000Y-99690000D03*
%TD*%
D16*
%TO.C,D10*%
X152900000Y-88260000D03*
D17*
X152900000Y-80640000D03*
%TD*%
D16*
%TO.C,D14*%
X191000000Y-107310000D03*
D17*
X191000000Y-99690000D03*
%TD*%
D18*
%TO.C,SW19*%
X128819000Y-121924000D03*
D19*
X133899000Y-121924000D03*
D18*
X138979000Y-121924000D03*
D20*
X136439000Y-116844000D03*
X130089000Y-119384000D03*
%TD*%
D18*
%TO.C,SW7*%
X195459000Y-83554000D03*
D19*
X200539000Y-83554000D03*
D18*
X205619000Y-83554000D03*
D20*
X203079000Y-78474000D03*
X196729000Y-81014000D03*
%TD*%
D18*
%TO.C,SW16*%
X138309000Y-102604000D03*
D19*
X143389000Y-102604000D03*
D18*
X148469000Y-102604000D03*
D20*
X145929000Y-97524000D03*
X139579000Y-100064000D03*
%TD*%
D18*
%TO.C,SW21*%
X90719000Y-121924000D03*
D19*
X95799000Y-121924000D03*
D18*
X100879000Y-121924000D03*
D20*
X98339000Y-116844000D03*
X91989000Y-119384000D03*
%TD*%
%LPD*%
M02*
