%TF.GenerationSoftware,KiCad,Pcbnew,9.0.0*%
%TF.CreationDate,2025-03-26T22:33:01+09:00*%
%TF.ProjectId,keyboard,6b657962-6f61-4726-942e-6b696361645f,rev?*%
%TF.SameCoordinates,Original*%
%TF.FileFunction,Profile,NP*%
%FSLAX46Y46*%
G04 Gerber Fmt 4.6, Leading zero omitted, Abs format (unit mm)*
G04 Created by KiCad (PCBNEW 9.0.0) date 2025-03-26 22:33:01*
%MOMM*%
%LPD*%
G01*
G04 APERTURE LIST*
%TA.AperFunction,Profile*%
%ADD10C,0.050000*%
%TD*%
G04 APERTURE END LIST*
D10*
X146500000Y-114750000D02*
X146500000Y-133000000D01*
X214000000Y-46500000D02*
X214000000Y-37000000D01*
X96750000Y-149000000D02*
G75*
G02*
X94750000Y-149000000I-1000000J0D01*
G01*
X94750000Y-149000000D02*
G75*
G02*
X96750000Y-149000000I1000000J0D01*
G01*
X214000000Y-114750000D02*
X146500000Y-114750000D01*
X81250000Y-118500000D02*
G75*
G02*
X79250000Y-118500000I-1000000J0D01*
G01*
X79250000Y-118500000D02*
G75*
G02*
X81250000Y-118500000I1000000J0D01*
G01*
X214000000Y-37000000D02*
X72750000Y-37000000D01*
X212250000Y-112500000D02*
G75*
G02*
X210250000Y-112500000I-1000000J0D01*
G01*
X210250000Y-112500000D02*
G75*
G02*
X212250000Y-112500000I1000000J0D01*
G01*
X72750000Y-151250000D02*
X98250000Y-151250000D01*
X146500000Y-133000000D02*
X98250000Y-133000000D01*
X98250000Y-133000000D02*
X98250000Y-151250000D01*
X72750000Y-37000000D02*
X72750000Y-44750000D01*
X214000000Y-46500000D02*
X214000000Y-114750000D01*
X98750000Y-131500000D02*
G75*
G02*
X96750000Y-131500000I-1000000J0D01*
G01*
X96750000Y-131500000D02*
G75*
G02*
X98750000Y-131500000I1000000J0D01*
G01*
X208750000Y-50500000D02*
G75*
G02*
X206750000Y-50500000I-1000000J0D01*
G01*
X206750000Y-50500000D02*
G75*
G02*
X208750000Y-50500000I1000000J0D01*
G01*
X78250000Y-149000000D02*
G75*
G02*
X76250000Y-149000000I-1000000J0D01*
G01*
X76250000Y-149000000D02*
G75*
G02*
X78250000Y-149000000I1000000J0D01*
G01*
X145250000Y-130500000D02*
G75*
G02*
X143250000Y-130500000I-1000000J0D01*
G01*
X143250000Y-130500000D02*
G75*
G02*
X145250000Y-130500000I1000000J0D01*
G01*
X72750000Y-44750000D02*
X72750000Y-151250000D01*
M02*
