%TF.GenerationSoftware,KiCad,Pcbnew,9.0.0*%
%TF.CreationDate,2025-03-26T22:33:01+09:00*%
%TF.ProjectId,keyboard,6b657962-6f61-4726-942e-6b696361645f,rev?*%
%TF.SameCoordinates,Original*%
%TF.FileFunction,Legend,Bot*%
%TF.FilePolarity,Positive*%
%FSLAX46Y46*%
G04 Gerber Fmt 4.6, Leading zero omitted, Abs format (unit mm)*
G04 Created by KiCad (PCBNEW 9.0.0) date 2025-03-26 22:33:01*
%MOMM*%
%LPD*%
G01*
G04 APERTURE LIST*
%ADD10R,1.600000X1.600000*%
%ADD11O,1.600000X1.600000*%
%ADD12C,1.700000*%
%ADD13C,4.000000*%
%ADD14C,2.200000*%
%ADD15C,2.010000*%
%ADD16O,1.500000X2.000000*%
%ADD17O,2.000000X1.500000*%
%ADD18R,2.000000X2.000000*%
%ADD19C,2.000000*%
%ADD20C,2.800000*%
%ADD21R,1.700000X1.700000*%
%ADD22O,1.700000X1.700000*%
%ADD23C,1.200000*%
%ADD24O,1.500000X2.300000*%
G04 APERTURE END LIST*
%LPC*%
D10*
%TO.C,D12*%
X114800000Y-88260000D03*
D11*
X114800000Y-80640000D03*
%TD*%
D10*
%TO.C,D9*%
X171950000Y-88260000D03*
D11*
X171950000Y-80640000D03*
%TD*%
D12*
%TO.C,SW12*%
X100209000Y-83554000D03*
D13*
X105289000Y-83554000D03*
D12*
X110369000Y-83554000D03*
D14*
X107829000Y-78474000D03*
X101479000Y-81014000D03*
%TD*%
D10*
%TO.C,D6*%
X114800000Y-69210000D03*
D11*
X114800000Y-61590000D03*
%TD*%
D12*
%TO.C,SW14*%
X176409000Y-102604000D03*
D13*
X181489000Y-102604000D03*
D12*
X186569000Y-102604000D03*
D14*
X184029000Y-97524000D03*
X177679000Y-100064000D03*
%TD*%
D10*
%TO.C,D20*%
X124380000Y-126435000D03*
D11*
X124380000Y-118815000D03*
%TD*%
D10*
%TO.C,D3*%
X171950000Y-69210000D03*
D11*
X171950000Y-61590000D03*
%TD*%
D15*
%TO.C,J5*%
X80137500Y-95387500D03*
X80137500Y-107387500D03*
X92137500Y-95387500D03*
X92137500Y-107387500D03*
D16*
X88137500Y-92787500D03*
D17*
X94737500Y-103387500D03*
D16*
X86137500Y-92787500D03*
X84137500Y-92787500D03*
D17*
X94737500Y-99387500D03*
X94737500Y-101387500D03*
%TD*%
D12*
%TO.C,SW18*%
X100209000Y-102604000D03*
D13*
X105289000Y-102604000D03*
D12*
X110369000Y-102604000D03*
D14*
X107829000Y-97524000D03*
X101479000Y-100064000D03*
%TD*%
D10*
%TO.C,D13*%
X210050000Y-107310000D03*
D11*
X210050000Y-99690000D03*
%TD*%
D10*
%TO.C,D1*%
X210050000Y-69255000D03*
D11*
X210050000Y-61635000D03*
%TD*%
D12*
%TO.C,SW17*%
X119259000Y-102604000D03*
D13*
X124339000Y-102604000D03*
D12*
X129419000Y-102604000D03*
D14*
X126879000Y-97524000D03*
X120529000Y-100064000D03*
%TD*%
D18*
%TO.C,SW25*%
X159750000Y-48850000D03*
D19*
X159750000Y-43850000D03*
X159750000Y-46350000D03*
D20*
X152250000Y-51950000D03*
X152250000Y-40750000D03*
%TD*%
D10*
%TO.C,D21*%
X105380000Y-126435000D03*
D11*
X105380000Y-118815000D03*
%TD*%
D12*
%TO.C,SW20*%
X109769000Y-121924000D03*
D13*
X114849000Y-121924000D03*
D12*
X119929000Y-121924000D03*
D14*
X117389000Y-116844000D03*
X111039000Y-119384000D03*
%TD*%
D12*
%TO.C,SW1*%
X195459000Y-64504000D03*
D13*
X200539000Y-64504000D03*
D12*
X205619000Y-64504000D03*
D14*
X203079000Y-59424000D03*
X196729000Y-61964000D03*
%TD*%
D18*
%TO.C,SW23*%
X198000000Y-48850000D03*
D19*
X198000000Y-43850000D03*
X198000000Y-46350000D03*
D20*
X190500000Y-51950000D03*
X190500000Y-40750000D03*
%TD*%
D12*
%TO.C,SW11*%
X119259000Y-83554000D03*
D13*
X124339000Y-83554000D03*
D12*
X129419000Y-83554000D03*
D14*
X126879000Y-78474000D03*
X120529000Y-81014000D03*
%TD*%
D10*
%TO.C,D17*%
X133850000Y-107310000D03*
D11*
X133850000Y-99690000D03*
%TD*%
D10*
%TO.C,D5*%
X133850000Y-69210000D03*
D11*
X133850000Y-61590000D03*
%TD*%
D10*
%TO.C,D19*%
X143380000Y-126435000D03*
D11*
X143380000Y-118815000D03*
%TD*%
D12*
%TO.C,SW9*%
X157359000Y-83554000D03*
D13*
X162439000Y-83554000D03*
D12*
X167519000Y-83554000D03*
D14*
X164979000Y-78474000D03*
X158629000Y-81014000D03*
%TD*%
D12*
%TO.C,SW10*%
X138309000Y-83554000D03*
D13*
X143389000Y-83554000D03*
D12*
X148469000Y-83554000D03*
D14*
X145929000Y-78474000D03*
X139579000Y-81014000D03*
%TD*%
D10*
%TO.C,D11*%
X133850000Y-88260000D03*
D11*
X133850000Y-80640000D03*
%TD*%
D12*
%TO.C,SW15*%
X157359000Y-102604000D03*
D13*
X162439000Y-102604000D03*
D12*
X167519000Y-102604000D03*
D14*
X164979000Y-97524000D03*
X158629000Y-100064000D03*
%TD*%
D10*
%TO.C,D4*%
X152900000Y-69210000D03*
D11*
X152900000Y-61590000D03*
%TD*%
D12*
%TO.C,SW5*%
X119259000Y-64504000D03*
D13*
X124339000Y-64504000D03*
D12*
X129419000Y-64504000D03*
D14*
X126879000Y-59424000D03*
X120529000Y-61964000D03*
%TD*%
D21*
%TO.C,U1*%
X75200000Y-39670000D03*
D22*
X75200000Y-42210000D03*
X75200000Y-44750000D03*
X75200000Y-47290000D03*
X75200000Y-49830000D03*
X75200000Y-52370000D03*
X75200000Y-54910000D03*
X75200000Y-57450000D03*
X75200000Y-59990000D03*
X75200000Y-62530000D03*
X75200000Y-65070000D03*
X75200000Y-67610000D03*
X75200000Y-70150000D03*
X75200000Y-72690000D03*
X75200000Y-75230000D03*
X75200000Y-77770000D03*
X75200000Y-80310000D03*
X93000000Y-80310000D03*
X93000000Y-77770000D03*
X93000000Y-75230000D03*
X93000000Y-72690000D03*
X93000000Y-70150000D03*
X93000000Y-67610000D03*
X93000000Y-65070000D03*
X93000000Y-62530000D03*
X93000000Y-59990000D03*
X93000000Y-57450000D03*
X93000000Y-54910000D03*
X93000000Y-52370000D03*
X93000000Y-49830000D03*
X93000000Y-47290000D03*
X93000000Y-44750000D03*
X93000000Y-42210000D03*
D21*
X93000000Y-39670000D03*
D22*
X77740000Y-80310000D03*
X90460000Y-80310000D03*
%TD*%
D10*
%TO.C,D7*%
X210050000Y-88260000D03*
D11*
X210050000Y-80640000D03*
%TD*%
D12*
%TO.C,SW13*%
X195459000Y-102604000D03*
D13*
X200539000Y-102604000D03*
D12*
X205619000Y-102604000D03*
D14*
X203079000Y-97524000D03*
X196729000Y-100064000D03*
%TD*%
D10*
%TO.C,D18*%
X114800000Y-107310000D03*
D11*
X114800000Y-99690000D03*
%TD*%
D10*
%TO.C,D15*%
X171950000Y-107310000D03*
D11*
X171950000Y-99690000D03*
%TD*%
D18*
%TO.C,SW24*%
X179000000Y-48850000D03*
D19*
X179000000Y-43850000D03*
X179000000Y-46350000D03*
D20*
X171500000Y-51950000D03*
X171500000Y-40750000D03*
%TD*%
D12*
%TO.C,SW2*%
X176409000Y-64504000D03*
D13*
X181489000Y-64504000D03*
D12*
X186569000Y-64504000D03*
D14*
X184029000Y-59424000D03*
X177679000Y-61964000D03*
%TD*%
D23*
%TO.C,J4*%
X101800000Y-40950000D03*
X101800000Y-47950000D03*
D24*
X103950000Y-45750000D03*
X103950000Y-42750000D03*
X99650000Y-51250000D03*
X103950000Y-49750000D03*
%TD*%
D18*
%TO.C,SW26*%
X140750000Y-48850000D03*
D19*
X140750000Y-43850000D03*
X140750000Y-46350000D03*
D20*
X133250000Y-51950000D03*
X133250000Y-40750000D03*
%TD*%
D10*
%TO.C,D8*%
X191000000Y-88260000D03*
D11*
X191000000Y-80640000D03*
%TD*%
D18*
%TO.C,SW27*%
X122000000Y-48850000D03*
D19*
X122000000Y-43850000D03*
X122000000Y-46350000D03*
D20*
X114500000Y-51950000D03*
X114500000Y-40750000D03*
%TD*%
D10*
%TO.C,D2*%
X191049000Y-69310000D03*
D11*
X191049000Y-61690000D03*
%TD*%
D12*
%TO.C,SW3*%
X157359000Y-64504000D03*
D13*
X162439000Y-64504000D03*
D12*
X167519000Y-64504000D03*
D14*
X164979000Y-59424000D03*
X158629000Y-61964000D03*
%TD*%
D12*
%TO.C,SW4*%
X138309000Y-64504000D03*
D13*
X143389000Y-64504000D03*
D12*
X148469000Y-64504000D03*
D14*
X145929000Y-59424000D03*
X139579000Y-61964000D03*
%TD*%
D12*
%TO.C,SW6*%
X100209000Y-64504000D03*
D13*
X105289000Y-64504000D03*
D12*
X110369000Y-64504000D03*
D14*
X107829000Y-59424000D03*
X101479000Y-61964000D03*
%TD*%
D12*
%TO.C,SW8*%
X176409000Y-83554000D03*
D13*
X181489000Y-83554000D03*
D12*
X186569000Y-83554000D03*
D14*
X184029000Y-78474000D03*
X177679000Y-81014000D03*
%TD*%
D10*
%TO.C,D22*%
X95380000Y-145935000D03*
D11*
X95380000Y-138315000D03*
%TD*%
D12*
%TO.C,SW22*%
X80899000Y-141424000D03*
D13*
X85979000Y-141424000D03*
D12*
X91059000Y-141424000D03*
D14*
X88519000Y-136344000D03*
X82169000Y-138884000D03*
%TD*%
D10*
%TO.C,D16*%
X152900000Y-107310000D03*
D11*
X152900000Y-99690000D03*
%TD*%
D10*
%TO.C,D10*%
X152900000Y-88260000D03*
D11*
X152900000Y-80640000D03*
%TD*%
D10*
%TO.C,D14*%
X191000000Y-107310000D03*
D11*
X191000000Y-99690000D03*
%TD*%
D12*
%TO.C,SW19*%
X128819000Y-121924000D03*
D13*
X133899000Y-121924000D03*
D12*
X138979000Y-121924000D03*
D14*
X136439000Y-116844000D03*
X130089000Y-119384000D03*
%TD*%
D12*
%TO.C,SW7*%
X195459000Y-83554000D03*
D13*
X200539000Y-83554000D03*
D12*
X205619000Y-83554000D03*
D14*
X203079000Y-78474000D03*
X196729000Y-81014000D03*
%TD*%
D12*
%TO.C,SW16*%
X138309000Y-102604000D03*
D13*
X143389000Y-102604000D03*
D12*
X148469000Y-102604000D03*
D14*
X145929000Y-97524000D03*
X139579000Y-100064000D03*
%TD*%
D12*
%TO.C,SW21*%
X90719000Y-121924000D03*
D13*
X95799000Y-121924000D03*
D12*
X100879000Y-121924000D03*
D14*
X98339000Y-116844000D03*
X91989000Y-119384000D03*
%TD*%
%LPD*%
M02*
