%TF.GenerationSoftware,KiCad,Pcbnew,9.0.0*%
%TF.CreationDate,2025-03-25T03:20:05+09:00*%
%TF.ProjectId,keyboardR,6b657962-6f61-4726-9452-2e6b69636164,rev?*%
%TF.SameCoordinates,Original*%
%TF.FileFunction,Profile,NP*%
%FSLAX46Y46*%
G04 Gerber Fmt 4.6, Leading zero omitted, Abs format (unit mm)*
G04 Created by KiCad (PCBNEW 9.0.0) date 2025-03-25 03:20:05*
%MOMM*%
%LPD*%
G01*
G04 APERTURE LIST*
%TA.AperFunction,Profile*%
%ADD10C,0.050000*%
%TD*%
G04 APERTURE END LIST*
D10*
X148984762Y-115000000D02*
X148984762Y-133250000D01*
X216484762Y-46500000D02*
X216484762Y-44250000D01*
X216484762Y-115000000D02*
X148984762Y-115000000D01*
X99000000Y-148500000D02*
G75*
G02*
X97000000Y-148500000I-1000000J0D01*
G01*
X97000000Y-148500000D02*
G75*
G02*
X99000000Y-148500000I1000000J0D01*
G01*
X214500000Y-112500000D02*
G75*
G02*
X212500000Y-112500000I-1000000J0D01*
G01*
X212500000Y-112500000D02*
G75*
G02*
X214500000Y-112500000I1000000J0D01*
G01*
X216484762Y-44250000D02*
X77484762Y-44250000D01*
X77484762Y-151500000D02*
X100734762Y-151500000D01*
X148984762Y-133250000D02*
X100734762Y-133250000D01*
X100734762Y-133250000D02*
X100734762Y-151500000D01*
X83500000Y-123500000D02*
G75*
G02*
X81500000Y-123500000I-1000000J0D01*
G01*
X81500000Y-123500000D02*
G75*
G02*
X83500000Y-123500000I1000000J0D01*
G01*
X146500000Y-130000000D02*
G75*
G02*
X144500000Y-130000000I-1000000J0D01*
G01*
X144500000Y-130000000D02*
G75*
G02*
X146500000Y-130000000I1000000J0D01*
G01*
X148000000Y-112500000D02*
G75*
G02*
X146000000Y-112500000I-1000000J0D01*
G01*
X146000000Y-112500000D02*
G75*
G02*
X148000000Y-112500000I1000000J0D01*
G01*
X77484762Y-44250000D02*
X77484762Y-44500000D01*
X216484762Y-46500000D02*
X216484762Y-115000000D01*
X211000000Y-51000000D02*
G75*
G02*
X209000000Y-51000000I-1000000J0D01*
G01*
X209000000Y-51000000D02*
G75*
G02*
X211000000Y-51000000I1000000J0D01*
G01*
X80500000Y-149000000D02*
G75*
G02*
X78500000Y-149000000I-1000000J0D01*
G01*
X78500000Y-149000000D02*
G75*
G02*
X80500000Y-149000000I1000000J0D01*
G01*
X143500000Y-51000000D02*
G75*
G02*
X141500000Y-51000000I-1000000J0D01*
G01*
X141500000Y-51000000D02*
G75*
G02*
X143500000Y-51000000I1000000J0D01*
G01*
X94000000Y-51500000D02*
G75*
G02*
X92000000Y-51500000I-1000000J0D01*
G01*
X92000000Y-51500000D02*
G75*
G02*
X94000000Y-51500000I1000000J0D01*
G01*
X99000000Y-131500000D02*
G75*
G02*
X97000000Y-131500000I-1000000J0D01*
G01*
X97000000Y-131500000D02*
G75*
G02*
X99000000Y-131500000I1000000J0D01*
G01*
X77484762Y-44500000D02*
X77484762Y-151500000D01*
M02*
