M48
; DRILL file {KiCad 9.0.0} date 2025-03-26T22:33:01+0900
; FORMAT={-:-/ absolute / inch / decimal}
; #@! TF.CreationDate,2025-03-26T22:33:01+09:00
; #@! TF.GenerationSoftware,Kicad,Pcbnew,9.0.0
; #@! TF.FileFunction,Plated,1,2,PTH
FMAT,2
INCH
; #@! TA.AperFunction,Plated,PTH,ViaDrill
T1C0.0118
; #@! TA.AperFunction,Plated,PTH,ComponentDrill
T2C0.0315
; #@! TA.AperFunction,Plated,PTH,ComponentDrill
T3C0.0394
; #@! TA.AperFunction,Plated,PTH,ComponentDrill
T4C0.0398
; #@! TA.AperFunction,Plated,PTH,ComponentDrill
T5C0.0591
; #@! TA.AperFunction,Plated,PTH,ComponentDrill
T6C0.0866
%
G90
G05
T1
X2.9823Y-3.6122
X3.0413Y-3.0709
X3.0906Y-5.7087
X3.1004Y-1.8799
X3.1201Y-1.9587
X3.1299Y-2.0669
X3.1496Y-2.1654
X3.1693Y-2.2638
X3.189Y-2.3819
X3.2874Y-4.0157
X3.3465Y-2.7559
X3.376Y-4.3012
X3.3957Y-1.8209
X3.3957Y-3.3957
X3.435Y-3.3957
X3.435Y-4.8819
X3.7598Y-5.5807
X4.2126Y-4.3602
X4.439Y-5.0689
X4.5866Y-1.8307
X4.7146Y-3.5531
X4.9902Y-1.5846
X5.0984Y-4.4291
X5.1476Y-2.8346
X5.2461Y-1.8307
X5.4626Y-3.5531
X5.502Y-4.685
X5.7677Y-1.5846
X5.876Y-2.8445
X5.8957Y-4.3406
X6.0827Y-1.8012
X6.2303Y-3.5827
X6.5059Y-4.3406
X6.5157Y-1.5846
X6.6437Y-2.815
X6.8898Y-1.8209
X7.0079Y-3.563
X7.2638Y-4.2421
X7.3622Y-1.5846
X7.4016Y-4.439
X7.4311Y-2.8445
X7.628Y-1.811
X7.7854Y-2.815
X8.1201Y-3.6319
X8.1299Y-1.6535
T2
X3.7551Y-5.4455
X3.7551Y-5.7455
X4.1488Y-4.6778
X4.1488Y-4.9778
X4.5197Y-2.4248
X4.5197Y-2.7248
X4.5197Y-3.1748
X4.5197Y-3.4748
X4.5197Y-3.9248
X4.5197Y-4.2248
X4.8969Y-4.6778
X4.8969Y-4.9778
X5.2697Y-2.4248
X5.2697Y-2.7248
X5.2697Y-3.1748
X5.2697Y-3.4748
X5.2697Y-3.9248
X5.2697Y-4.2248
X5.6449Y-4.6778
X5.6449Y-4.9778
X6.0197Y-2.4248
X6.0197Y-2.7248
X6.0197Y-3.1748
X6.0197Y-3.4748
X6.0197Y-3.9248
X6.0197Y-4.2248
X6.7697Y-2.4248
X6.7697Y-2.7248
X6.7697Y-3.1748
X6.7697Y-3.4748
X6.7697Y-3.9248
X6.7697Y-4.2248
X7.5197Y-3.1748
X7.5197Y-3.4748
X7.5197Y-3.9248
X7.5197Y-4.2248
X7.5216Y-2.4287
X7.5216Y-2.7287
X8.2697Y-2.4266
X8.2697Y-2.7266
X8.2697Y-3.1748
X8.2697Y-3.4748
X8.2697Y-3.9248
X8.2697Y-4.2248
T3
X2.9606Y-1.5618
X2.9606Y-1.6618
X2.9606Y-1.7618
X2.9606Y-1.8618
X2.9606Y-1.9618
X2.9606Y-2.0618
X2.9606Y-2.1618
X2.9606Y-2.2618
X2.9606Y-2.3618
X2.9606Y-2.4618
X2.9606Y-2.5618
X2.9606Y-2.6618
X2.9606Y-2.7618
X2.9606Y-2.8618
X2.9606Y-2.9618
X2.9606Y-3.0618
X2.9606Y-3.1618
X3.0606Y-3.1618
X3.5614Y-3.1618
X3.6614Y-1.5618
X3.6614Y-1.6618
X3.6614Y-1.7618
X3.6614Y-1.8618
X3.6614Y-1.9618
X3.6614Y-2.0618
X3.6614Y-2.1618
X3.6614Y-2.2618
X3.6614Y-2.3618
X3.6614Y-2.4618
X3.6614Y-2.5618
X3.6614Y-2.6618
X3.6614Y-2.7618
X3.6614Y-2.8618
X3.6614Y-2.9618
X3.6614Y-3.0618
X3.6614Y-3.1618
X4.8031Y-1.7264
X4.8031Y-1.8248
X4.8031Y-1.9232
X5.5413Y-1.7264
X5.5413Y-1.8248
X5.5413Y-1.9232
X6.2894Y-1.7264
X6.2894Y-1.8248
X6.2894Y-1.9232
X7.0472Y-1.7264
X7.0472Y-1.8248
X7.0472Y-1.9232
X7.7953Y-1.7264
X7.7953Y-1.8248
X7.7953Y-1.9232
T4
X3.3125Y-3.6531
X3.3912Y-3.6531
X3.47Y-3.6531
X3.7298Y-3.9129
X3.7298Y-3.9916
X3.7298Y-4.0704
T5
X3.235Y-5.4679
X3.485Y-5.3679
X3.6216Y-4.7002
X3.8716Y-4.6002
X3.9952Y-2.4395
X3.9952Y-3.1895
X3.9952Y-3.9395
X4.2452Y-2.3395
X4.2452Y-3.0895
X4.2452Y-3.8395
X4.3716Y-4.7002
X4.6216Y-4.6002
X4.7452Y-2.4395
X4.7452Y-3.1895
X4.7452Y-3.9395
X4.9952Y-2.3395
X4.9952Y-3.0895
X4.9952Y-3.8395
X5.1216Y-4.7002
X5.3716Y-4.6002
X5.4952Y-2.4395
X5.4952Y-3.1895
X5.4952Y-3.9395
X5.7452Y-2.3395
X5.7452Y-3.0895
X5.7452Y-3.8395
X6.2452Y-2.4395
X6.2452Y-3.1895
X6.2452Y-3.9395
X6.4952Y-2.3395
X6.4952Y-3.0895
X6.4952Y-3.8395
X6.9952Y-2.4395
X6.9952Y-3.1895
X6.9952Y-3.9395
X7.2452Y-2.3395
X7.2452Y-3.0895
X7.2452Y-3.8395
X7.7452Y-2.4395
X7.7452Y-3.1895
X7.7452Y-3.9395
X7.9952Y-2.3395
X7.9952Y-3.0895
X7.9952Y-3.8395
T6
X4.5079Y-1.6043
X4.5079Y-2.0453
X5.2461Y-1.6043
X5.2461Y-2.0453
X5.9941Y-1.6043
X5.9941Y-2.0453
X6.752Y-1.6043
X6.752Y-2.0453
X7.5Y-1.6043
X7.5Y-2.0453
T3
G00X3.9232Y-2.0079
M15
G01X3.9232Y-2.0276
M16
G05
G00X4.0925Y-1.6732
M15
G01X4.0925Y-1.6929
M16
G05
G00X4.0925Y-1.7913
M15
G01X4.0925Y-1.811
M16
G05
G00X4.0925Y-1.9488
M15
G01X4.0925Y-1.9685
M16
G05
M30
