M48
; DRILL file {KiCad 9.0.0} date 2025-03-29T08:19:34+0900
; FORMAT={-:-/ absolute / metric / decimal}
; #@! TF.CreationDate,2025-03-29T08:19:34+09:00
; #@! TF.GenerationSoftware,Kicad,Pcbnew,9.0.0
; #@! TF.FileFunction,MixedPlating,1,2
FMAT,2
METRIC
; #@! TA.AperFunction,Plated,PTH,ViaDrill
T1C0.300
; #@! TA.AperFunction,Plated,PTH,ComponentDrill
T2C0.800
; #@! TA.AperFunction,Plated,PTH,ComponentDrill
T3C1.000
; #@! TA.AperFunction,Plated,PTH,ComponentDrill
T4C1.010
; #@! TA.AperFunction,Plated,PTH,ComponentDrill
T5C1.500
; #@! TA.AperFunction,Plated,PTH,ComponentDrill
T6C2.200
; #@! TA.AperFunction,NonPlated,NPTH,ComponentDrill
T7C1.200
; #@! TA.AperFunction,NonPlated,NPTH,ComponentDrill
T8C1.700
; #@! TA.AperFunction,NonPlated,NPTH,ComponentDrill
T9C2.010
; #@! TA.AperFunction,NonPlated,NPTH,ComponentDrill
T10C4.000
%
G90
G05
T1
X82.75Y-45.25
X83.0Y-87.75
X89.5Y-69.5
X90.5Y-54.0
X90.75Y-107.25
X100.5Y-88.75
X104.0Y-44.0
X108.5Y-106.5
X109.0Y-52.442
X109.5Y-69.75
X119.75Y-88.5
X122.75Y-44.25
X128.0Y-106.5
X128.25Y-67.5
X129.75Y-53.5
X139.5Y-67.5
X139.5Y-106.75
X147.75Y-52.0
X147.75Y-87.75
X153.25Y-126.75
X158.75Y-68.5
X160.5Y-107.25
X160.75Y-42.75
X166.5Y-87.75
X175.0Y-126.5
X180.5Y-45.5
X180.5Y-87.75
X182.0Y-67.25
X184.5Y-106.5
X195.25Y-91.25
X196.25Y-49.75
X196.5Y-46.0
X196.5Y-70.5
X197.25Y-47.0
X201.5Y-43.0
X201.75Y-105.75
X202.25Y-79.5
X203.0Y-77.0
X203.75Y-74.25
X204.5Y-71.5
X205.25Y-68.75
X206.0Y-66.0
X206.5Y-126.0
X206.75Y-63.25
X208.0Y-45.75
X209.25Y-87.0
X211.75Y-135.25
T2
X76.7Y-61.635
X76.7Y-69.255
X76.7Y-80.64
X76.7Y-88.26
X76.7Y-99.69
X76.7Y-107.31
X95.701Y-61.69
X95.701Y-69.31
X95.75Y-80.64
X95.75Y-88.26
X95.75Y-99.69
X95.75Y-107.31
X114.8Y-61.59
X114.8Y-69.21
X114.8Y-80.64
X114.8Y-88.26
X114.8Y-99.69
X114.8Y-107.31
X133.85Y-61.59
X133.85Y-69.21
X133.85Y-80.64
X133.85Y-88.26
X133.85Y-99.69
X133.85Y-107.31
X143.37Y-118.815
X143.37Y-126.435
X152.9Y-61.59
X152.9Y-69.21
X152.9Y-80.64
X152.9Y-88.26
X152.9Y-99.69
X152.9Y-107.31
X162.37Y-118.815
X162.37Y-126.435
X171.95Y-61.59
X171.95Y-69.21
X171.95Y-80.64
X171.95Y-88.26
X171.95Y-99.69
X171.95Y-107.31
X181.37Y-118.815
X181.37Y-126.435
X191.37Y-138.315
X191.37Y-145.935
T3
X88.25Y-43.85
X88.25Y-46.35
X88.25Y-48.85
X107.0Y-43.85
X107.0Y-46.35
X107.0Y-48.85
X126.0Y-43.85
X126.0Y-46.35
X126.0Y-48.85
X145.25Y-43.85
X145.25Y-46.35
X145.25Y-48.85
X164.25Y-43.85
X164.25Y-46.35
X164.25Y-48.85
X193.75Y-39.67
X193.75Y-42.21
X193.75Y-44.75
X193.75Y-47.29
X193.75Y-49.83
X193.75Y-52.37
X193.75Y-54.91
X193.75Y-57.45
X193.75Y-59.99
X193.75Y-62.53
X193.75Y-65.07
X193.75Y-67.61
X193.75Y-70.15
X193.75Y-72.69
X193.75Y-75.23
X193.75Y-77.77
X193.75Y-80.31
X196.29Y-80.31
X209.01Y-80.31
X211.55Y-39.67
X211.55Y-42.21
X211.55Y-44.75
X211.55Y-47.29
X211.55Y-49.83
X211.55Y-52.37
X211.55Y-54.91
X211.55Y-57.45
X211.55Y-59.99
X211.55Y-62.53
X211.55Y-65.07
X211.55Y-67.61
X211.55Y-70.15
X211.55Y-72.69
X211.55Y-75.23
X211.55Y-77.77
X211.55Y-80.31
T4
X198.612Y-92.787
X200.612Y-92.787
X202.612Y-92.787
X209.212Y-99.387
X209.212Y-101.387
X209.212Y-103.387
T5
X82.371Y-61.964
X82.371Y-81.014
X82.371Y-100.064
X88.721Y-59.424
X88.721Y-78.474
X88.721Y-97.524
X101.421Y-61.964
X101.421Y-81.014
X101.421Y-100.064
X107.771Y-59.424
X107.771Y-78.474
X107.771Y-97.524
X120.471Y-61.964
X120.471Y-81.014
X120.471Y-100.064
X126.821Y-59.424
X126.821Y-78.474
X126.821Y-97.524
X139.521Y-61.964
X139.521Y-81.014
X139.521Y-100.064
X145.871Y-59.424
X145.871Y-78.474
X145.871Y-97.524
X149.011Y-119.384
X155.361Y-116.844
X158.571Y-61.964
X158.571Y-81.014
X158.571Y-100.064
X164.921Y-59.424
X164.921Y-78.474
X164.921Y-97.524
X168.061Y-119.384
X174.411Y-116.844
X177.621Y-61.964
X177.621Y-81.014
X177.621Y-100.064
X183.971Y-59.424
X183.971Y-78.474
X183.971Y-97.524
X187.111Y-119.384
X193.461Y-116.844
X196.931Y-138.884
X203.281Y-136.344
T6
X95.75Y-40.75
X95.75Y-51.95
X114.5Y-40.75
X114.5Y-51.95
X133.5Y-40.75
X133.5Y-51.95
X152.75Y-40.75
X152.75Y-51.95
X171.75Y-40.75
X171.75Y-51.95
T7
X184.85Y-40.95
X184.85Y-47.95
T8
X81.101Y-64.504
X81.101Y-83.554
X81.101Y-102.604
X91.261Y-64.504
X91.261Y-83.554
X91.261Y-102.604
X100.151Y-64.504
X100.151Y-83.554
X100.151Y-102.604
X110.311Y-64.504
X110.311Y-83.554
X110.311Y-102.604
X119.201Y-64.504
X119.201Y-83.554
X119.201Y-102.604
X129.361Y-64.504
X129.361Y-83.554
X129.361Y-102.604
X138.251Y-64.504
X138.251Y-83.554
X138.251Y-102.604
X147.741Y-121.924
X148.411Y-64.504
X148.411Y-83.554
X148.411Y-102.604
X157.301Y-64.504
X157.301Y-83.554
X157.301Y-102.604
X157.901Y-121.924
X166.791Y-121.924
X167.461Y-64.504
X167.461Y-83.554
X167.461Y-102.604
X176.351Y-64.504
X176.351Y-83.554
X176.351Y-102.604
X176.951Y-121.924
X185.841Y-121.924
X186.511Y-64.504
X186.511Y-83.554
X186.511Y-102.604
X195.661Y-141.424
X196.001Y-121.924
X205.821Y-141.424
T9
X194.612Y-95.387
X194.612Y-107.387
X206.612Y-95.387
X206.612Y-107.387
T10
X86.181Y-64.504
X86.181Y-83.554
X86.181Y-102.604
X105.231Y-64.504
X105.231Y-83.554
X105.231Y-102.604
X124.281Y-64.504
X124.281Y-83.554
X124.281Y-102.604
X143.331Y-64.504
X143.331Y-83.554
X143.331Y-102.604
X152.821Y-121.924
X162.381Y-64.504
X162.381Y-83.554
X162.381Y-102.604
X171.871Y-121.924
X181.431Y-64.504
X181.431Y-83.554
X181.431Y-102.604
X190.921Y-121.924
X200.741Y-141.424
T3
G00X182.7Y-51.0
M15
G01X182.7Y-51.5
M16
G05
G00X187.0Y-42.5
M15
G01X187.0Y-43.0
M16
G05
G00X187.0Y-45.5
M15
G01X187.0Y-46.0
M16
G05
G00X187.0Y-49.5
M15
G01X187.0Y-50.0
M16
G05
M30
