%TF.GenerationSoftware,KiCad,Pcbnew,9.0.0*%
%TF.CreationDate,2025-03-29T08:19:36+09:00*%
%TF.ProjectId,keyboard,6b657962-6f61-4726-942e-6b696361645f,rev?*%
%TF.SameCoordinates,Original*%
%TF.FileFunction,Profile,NP*%
%FSLAX46Y46*%
G04 Gerber Fmt 4.6, Leading zero omitted, Abs format (unit mm)*
G04 Created by KiCad (PCBNEW 9.0.0) date 2025-03-29 08:19:36*
%MOMM*%
%LPD*%
G01*
G04 APERTURE LIST*
%TA.AperFunction,Profile*%
%ADD10C,0.050000*%
%TD*%
G04 APERTURE END LIST*
D10*
X140250000Y-114750000D02*
X140250000Y-133000000D01*
X72750000Y-46500000D02*
X72750000Y-37000000D01*
X192000000Y-149000000D02*
G75*
G02*
X190000000Y-149000000I-1000000J0D01*
G01*
X190000000Y-149000000D02*
G75*
G02*
X192000000Y-149000000I1000000J0D01*
G01*
X72750000Y-114750000D02*
X140250000Y-114750000D01*
X207500000Y-118500000D02*
G75*
G02*
X205500000Y-118500000I-1000000J0D01*
G01*
X205500000Y-118500000D02*
G75*
G02*
X207500000Y-118500000I1000000J0D01*
G01*
X72750000Y-37000000D02*
X214000000Y-37000000D01*
X76500000Y-112500000D02*
G75*
G02*
X74500000Y-112500000I-1000000J0D01*
G01*
X74500000Y-112500000D02*
G75*
G02*
X76500000Y-112500000I1000000J0D01*
G01*
X214000000Y-151250000D02*
X188500000Y-151250000D01*
X140250000Y-133000000D02*
X188500000Y-133000000D01*
X188500000Y-133000000D02*
X188500000Y-151250000D01*
X214000000Y-37000000D02*
X214000000Y-44750000D01*
X72750000Y-46500000D02*
X72750000Y-114750000D01*
X190000000Y-131500000D02*
G75*
G02*
X188000000Y-131500000I-1000000J0D01*
G01*
X188000000Y-131500000D02*
G75*
G02*
X190000000Y-131500000I1000000J0D01*
G01*
X80000000Y-50500000D02*
G75*
G02*
X78000000Y-50500000I-1000000J0D01*
G01*
X78000000Y-50500000D02*
G75*
G02*
X80000000Y-50500000I1000000J0D01*
G01*
X210500000Y-149000000D02*
G75*
G02*
X208500000Y-149000000I-1000000J0D01*
G01*
X208500000Y-149000000D02*
G75*
G02*
X210500000Y-149000000I1000000J0D01*
G01*
X143500000Y-130500000D02*
G75*
G02*
X141500000Y-130500000I-1000000J0D01*
G01*
X141500000Y-130500000D02*
G75*
G02*
X143500000Y-130500000I1000000J0D01*
G01*
X214000000Y-44750000D02*
X214000000Y-151250000D01*
M02*
